M48
;Layer_Color=9474304
;FILE_FORMAT=2:4
INCH,TZ
;TYPE=PLATED
T1F00S00C0.0118
T2F00S00C0.0157
T3F00S00C0.0197
T4F00S00C0.0310
T5F00S00C0.0340
T6F00S00C0.0360
T8F00S00C0.1500
T9F00S00C0.1772
;TYPE=NON_PLATED
T10F00S00C0.0354
%
T01
X26550Y9075
Y10575
X28950Y10200
X28930Y9468
X28976Y8706
X28936Y7915
X29000Y10950
X27683Y15394
X32249Y12642
X32262Y12150
X32257Y11650
Y11150
X32250Y10700
X33681Y10721
X34990Y10805
X34992Y10188
X35017Y9219
X35375Y8834
X36323Y9241
X36788Y8965
X37270Y8865
X38219Y8934
X38026Y7692
X37567Y7718
X36950Y7600
X36045Y7699
X35649Y7695
X35795Y6624
X37305Y6624
X40900Y7550
X40913Y8565
X40979Y9834
X40981Y10351
X40826Y10846
X41017Y11332
X41001Y11858
X39608Y10810
X38318Y10467
X36632Y11836
X36943Y12199
X36465Y14704
X35950
X35432Y14729
X34942Y14751
X34450Y14743
X37409Y15568
X45318Y14553
X46559Y14593
X31414Y8182
X47872Y9056
X49594Y9692
X49304Y12700
X49191Y13499
X48253Y13265
X50634Y14401
X51668Y14215
X51955Y13333
X51975Y12339
X62800Y20800
X63129Y20560
X63400Y20250
X63700Y19950
X62600Y30400
X61900
X61269Y30399
X60733
X60197
X60429Y30699
X59893
X59356
X59111Y30411
X59655Y30399
X58820Y30678
X60976Y30699
X61600Y30750
X62250
X62203Y28613
X60916Y25650
X60670Y25350
X60134
X60366Y25650
X59830
X59293
X58750Y25650
X59048Y25350
X59592
X58424Y25342
X58044Y25645
X58000Y26050
X57554Y26024
X54900Y26832
Y27368
Y27832
Y28368
Y28814
Y29350
Y29850
Y30332
Y30868
X57925Y22922
X58401Y22957
X59048Y22948
X59592
X60134
X60670
X61206
X60924Y23248
X60388
X59852
X59316
X58780
X61589Y23285
X45182Y20854
X45254Y20298
Y19748
X45300Y19200
X45254Y18648
X45246Y18114
X45318Y17548
Y16996
Y16448
Y15898
X46599Y16533
X40800Y16100
Y18750
X41150Y18450
X41136Y19102
X41850Y19150
X42500
X41950Y18150
X37497Y18148
X37487Y17640
X37488Y17044
Y16494
X37437Y16044
X35410Y15944
X35369Y16452
X35473Y17106
X35410Y17594
X33900Y18300
X33850Y18850
X32087Y18342
X32101Y20022
X32248Y22898
X32792
X33334
X33870
X34124Y23198
X33588
X33052
X32516
X31980
X32248Y25300
X32792
X33030Y25600
X33566
X33334Y25300
X33870
X34116Y25600
X32493
X31957
X31630Y25296
X31268Y25600
X31252Y26044
X32020Y30628
X32556Y30649
X33093
X33629
X33397Y30349
X33933
X34179Y30649
X34800Y30700
X35100Y30350
X35800
X35450Y30700
X34500Y30200
X32855Y30349
X32311
X35462Y28651
X39145Y28196
X38798Y30467
X41077Y30295
X41050Y30850
X44018Y30814
Y30368
Y29832
Y29368
Y28832
Y28368
Y27822
Y27368
Y26832
X40922Y25602
X40386
X39850
X39300
X39032Y25302
X39576
X40118
X40654
X41191
X40900Y23200
X40654Y22900
X40118
X40350Y23200
X39850
X39300
X38750
X39032Y22900
X39576
X38393
X37993Y22300
X37970Y24700
X38018Y25529
X38438Y25572
X41252Y22913
X41636Y23260
X34627Y22911
X34600Y22300
X37546Y19244
X37497Y18698
X31000Y18600
X30995Y18861
X30934Y16320
X27688Y16494
Y15944
X27683Y17044
X27692Y17598
Y18148
X27727Y18699
X27763Y19234
X30722Y22974
X31154Y23148
X30800Y26050
X28100Y26782
Y27318
Y27782
Y28318
Y28764
Y29300
Y29800
Y30282
Y30818
X17218Y30764
Y30318
Y29782
Y29318
Y28782
Y28318
Y27772
Y27318
Y26782
X14122Y25552
X13586
X13050
X12500
X12232Y25252
X12776
X13318
X13854
X14391
X14100Y23150
X13854Y22850
X13318
X13550Y23150
X13050
X12500
X12000
X12232Y22850
X12776
X14447Y22787
X14895Y23205
X11202Y24650
X11218Y25536
X11610Y25552
X12367Y28137
X11985Y30385
X11143Y29850
X14280Y30235
X14369Y30640
X14000Y31500
X11950Y32800
X11979Y33267
X11324Y33211
X11168Y32250
X12246Y37511
X12014Y37811
X12514
X13064
X13001Y38234
X12790Y37511
X13332
X13564Y37811
X14114
X13868Y37511
X14460Y37453
X14404Y39913
X13868
X13332
X12790
X12246
X12518Y40213
X13064
X13600
X14136
X11765Y40276
X11373Y40130
X11215Y39311
X12232Y44848
X12000Y45148
X12500
X13050
X13550
X13318Y44848
X13854
X14100Y45148
X15320Y44920
X12776Y44848
X11200Y46650
X17200Y42836
Y42300
Y41800
Y41232
Y40800
Y40264
Y39836
Y39282
Y38818
Y38282
Y37800
Y37318
Y36782
Y36318
Y35782
Y35328
Y34792
Y34318
Y33782
Y33300
Y32764
Y32300
Y31764
Y31300
X28100Y31264
Y31800
Y32264
Y32800
Y33264
Y33800
Y34264
Y34800
X28097Y35282
Y35818
X28100Y36282
Y36818
Y37264
Y37800
Y38282
Y38818
Y39264
Y39800
Y40282
Y40818
Y41300
Y41836
Y42282
Y42818
X31219Y44250
Y46650
X31170Y39887
X31500Y40150
X31991
X32528
X33064
X33600
X33368Y39850
X33904
X34150Y40150
X32826Y39850
X32282
X32528Y37748
X31991
X32282Y37448
X32826
X33064Y37748
X33600
X33368Y37448
X33904
X34150Y37748
X34558Y37405
X34600Y36750
X35389Y34496
X35816Y34227
X34179Y33051
X33933Y32751
X33397
X33629Y33051
X33093
X32556
X32311Y32751
X32855
X31896Y33574
X38243Y33150
X38800Y33300
X38748Y32867
X38343Y31708
X41060Y31609
X44000Y31814
Y31350
Y32350
Y32814
Y33350
Y33832
Y34368
Y34842
Y35378
Y35832
Y36368
Y36832
Y37368
Y37850
Y38332
Y38868
Y39332
Y39886
Y40314
Y40850
Y41282
Y41850
Y42350
Y42886
X42000Y44950
X41191Y44898
X40654
X40118
X40350Y45198
X39850
X39300
X38800
X39032Y44898
X39576
X40900Y45198
X37993Y46700
X34950Y45150
X34600Y44250
X32150Y44850
X38016Y40348
X38492Y40338
X39314Y40263
X39864
X40400
X40936
X40668Y39963
X40132
X39590
X39046
X37993Y39350
X38814Y37861
X39314
X39864
X40364
X40132Y37561
X40668
X41050Y37750
X40650Y38350
X39590Y37561
X39046
X41204Y39763
X54900Y39850
Y40332
Y40868
Y41350
Y41886
Y42332
Y42868
Y39314
Y38868
Y38332
Y37850
Y37314
Y36868
Y36332
X54897Y35868
Y35332
X54900Y34850
Y34314
Y33850
Y33314
Y32850
Y32314
Y31850
Y31314
X59111Y32801
X59655
X59893Y33101
X59356
X60429
X60197Y32801
X60733
X60979Y33101
X62200Y34602
X61451Y36845
X61345Y37514
X60704Y37498
X60168
X60400Y37798
X59864
X59328
X58791
X59082Y37498
X59626
X60950Y37798
X60704Y39900
X60168
X60400Y40200
X59864
X59328
X59082Y39900
X59626
X58781Y40205
X58290Y40199
X57957Y40015
X60950Y40200
X61348Y44295
X61700Y45250
X58812Y44838
X57993Y44250
Y46650
X58700Y33650
X62609Y34334
X58751Y47541
X58293Y47550
X41191Y47300
X40654
X40118
X40350Y47600
X39814
X39278
X38741
X38293
X39032Y47300
X39576
X40922Y47571
X31960Y47518
X31500Y47500
X14391Y47250
X13854
X13318
X13550Y47550
X13014
X12478
X11941
X11500
X12232Y47250
X12776
X14122Y47521
T02
X48000Y26850
X48500Y27350
X49000Y26850
X49500Y27350
X50000Y26850
X50500Y27350
X51000Y26850
Y27850
X50500Y28350
X50000Y27850
X49500Y28350
X49000Y27850
X48500Y28350
X48000Y27850
Y28850
X48500Y29350
X49000Y28850
X49500Y29350
X50000Y28850
X50500Y29350
X51000Y28850
Y29850
X50500Y30350
X50000Y29850
X49500Y30350
X49000Y29850
X48500Y30350
X48000Y29850
Y30850
X49000
X50000
X51000
X24200Y30800
Y29800
X23700Y30300
X23200Y29800
X22700Y30300
X22200Y29800
X21700Y30300
X21200Y29800
Y28800
X21700Y29300
X22200Y28800
X22700Y29300
X23200Y28800
X23700Y29300
X24200Y28800
Y27800
X23700Y28300
X23200Y27800
X22700Y28300
X22200Y27800
X21700Y28300
X21200Y27800
Y26800
X21700Y27300
X22200Y26800
X22700Y27300
X23200Y26800
X23700Y27300
X24200Y26800
X23200Y30800
X22200
X21200
X21700Y31300
X22700
Y32300
X23200Y31800
X23700Y32300
X24200Y31800
Y32800
X23700Y33300
X23200Y32800
X22700Y33300
X22200Y32800
X21700Y33300
X21200Y32800
Y31800
X21700Y32300
X22200Y31800
Y33800
X22700Y34300
X23200Y33800
X23700Y34300
X24200Y33800
Y34800
X23700Y35300
X23200Y34800
X22700Y35300
X22200Y34800
X21700Y35300
X21200Y34800
Y33800
X21700Y34300
Y36300
X21200Y35800
X22200Y35800
X22700Y36300
X23200Y35800
X23700Y36300
X24200Y35800
Y36800
X23700Y37300
X23200Y36800
X22700Y37300
X22200Y36800
X21700Y37300
X21200Y36800
Y37800
X21700Y38300
X22200Y37800
X22700Y38300
X23200Y37800
X23700Y38300
X24200Y37800
Y38800
X23700Y39300
X23200Y38800
X22700Y39300
X22200Y38800
X21700Y39300
X21200Y38800
X21200Y39800
X21700Y40300
X22200Y39800
X22700Y40300
X23200Y39800
X23700Y40300
X24200Y39800
Y40800
X23700Y41300
X23200Y40800
X22700Y41300
X22200Y40800
X21700Y41300
X21200Y40800
Y41800
X21700Y42300
X22200Y41800
X22700Y42300
X23200Y41800
X23700Y42300
X24200Y41800
Y42800
X23200
X22200
X21200
X23700Y31300
X48500Y31350
X49500
Y32350
X50000Y31850
X50500Y32350
X51000Y31850
Y32850
X50500Y33350
X50000Y32850
X49500Y33350
X49000Y32850
X48500Y33350
X48000Y32850
Y31850
X48500Y32350
X49000Y31850
Y33850
X49500Y34350
X50000Y33850
X50500Y34350
X51000Y33850
Y34850
X50500Y35350
X50000Y34850
X49500Y35350
X49000Y34850
X48500Y35350
X48000Y34850
Y33850
X48500Y34350
Y36350
X48000Y35850
X49000Y35850
X49500Y36350
X50000Y35850
X50500Y36350
X51000Y35850
Y36850
X50500Y37350
X50000Y36850
X49500Y37350
X49000Y36850
X48500Y37350
X48000Y36850
Y37850
X48500Y38350
X49000Y37850
X49500Y38350
X50000Y37850
X50500Y38350
X51000Y37850
Y38850
X50500Y39350
X50000Y38850
X49500Y39350
X49000Y38850
X48500Y39350
X48000Y38850
X48000Y39850
X48500Y40350
X49000Y39850
X49500Y40350
X50000Y39850
X50500Y40350
X51000Y39850
Y40850
X50500Y41350
X50000Y40850
X49500Y41350
X49000Y40850
X48500Y41350
X48000Y40850
Y41850
X48500Y42350
X49000Y41850
X49500Y42350
X50000Y41850
X50500Y42350
X51000Y41850
Y42850
X50000
X49000
X48000
X50500Y31350
T03
X25850Y14050
X31177Y14827
X53865Y25737
X45150Y26450
X27046Y25951
X28265Y22463
X22400Y17900
Y17250
X21650
Y17900
Y18600
X20850
Y17900
Y17250
X15650Y17150
Y17800
Y18500
X18287Y26337
X14850Y18500
Y17800
Y17150
X14100
Y17800
Y18500
X12100Y18450
Y17750
Y17100
X11300
Y17750
Y18450
X10550
Y17750
Y17100
T04
X54270Y6564
Y8336
Y9564
Y11336
X56830
Y9564
Y8336
Y6564
T05
X32700Y7200
Y9200
T06
X44650Y6450
Y7450
Y8450
Y9450
Y10450
T08
X10400Y7650
X63050Y7400
X62950Y49300
X10400Y49200
T09
X49500Y23433
X22700Y23383
Y46218
X49500Y46268
T10
X47900Y8150
X49632
M30
