G04*
G04 #@! TF.GenerationSoftware,Altium Limited,Altium Designer,21.3.2 (30)*
G04*
G04 Layer_Physical_Order=3*
G04 Layer_Color=16440176*
%FSLAX25Y25*%
%MOIN*%
G70*
G04*
G04 #@! TF.SameCoordinates,9419806A-25E3-4103-AC09-10F767E43710*
G04*
G04*
G04 #@! TF.FilePolarity,Positive*
G04*
G01*
G75*
%ADD13C,0.01000*%
%ADD65C,0.01500*%
%ADD66C,0.02000*%
%ADD68C,0.07500*%
%ADD70R,0.10000X0.16000*%
%ADD71R,0.16000X0.10000*%
%ADD73C,0.25591*%
%ADD74C,0.03937*%
%ADD75O,0.09000X0.06500*%
%ADD77C,0.02362*%
G36*
X644726Y501000D02*
X644726Y59275D01*
X87774D01*
X87774Y508726D01*
X644726D01*
Y501000D01*
D02*
G37*
%LPC*%
G36*
X636250Y506500D02*
X622750D01*
X616000Y499750D01*
Y486250D01*
X622750Y479500D01*
X636250D01*
X643000Y486250D01*
Y499750D01*
X636250Y506500D01*
D02*
G37*
G36*
X110750Y505500D02*
X97250D01*
X90500Y498750D01*
Y485250D01*
X97250Y478500D01*
X110750D01*
X117500Y485250D01*
Y498750D01*
X110750Y505500D01*
D02*
G37*
G36*
X403934Y478181D02*
X403066D01*
X402264Y477849D01*
X401651Y477236D01*
X401319Y476434D01*
Y475566D01*
X401099Y475238D01*
X400642Y475192D01*
X400318Y475564D01*
X400319Y475566D01*
Y476434D01*
X399987Y477236D01*
X399373Y477849D01*
X398572Y478181D01*
X397704D01*
X396902Y477849D01*
X396289Y477236D01*
X395957Y476434D01*
Y475566D01*
X395752Y475260D01*
X395316Y475227D01*
X394957Y475598D01*
Y476434D01*
X394625Y477236D01*
X394011Y477849D01*
X393210Y478181D01*
X392342D01*
X391540Y477849D01*
X390927Y477236D01*
X390595Y476434D01*
Y475643D01*
X390595Y475566D01*
X390213Y475181D01*
X389976D01*
X389592Y475560D01*
X389595Y475566D01*
Y476434D01*
X389262Y477236D01*
X388649Y477849D01*
X387847Y478181D01*
X386980D01*
X386178Y477849D01*
X385564Y477236D01*
X385442Y476939D01*
X384900D01*
X384778Y477236D01*
X384164Y477849D01*
X383363Y478181D01*
X382495D01*
X381693Y477849D01*
X381080Y477236D01*
X380748Y476434D01*
Y475566D01*
X381080Y474764D01*
X381693Y474151D01*
X382495Y473819D01*
X383363D01*
X384164Y474151D01*
X384778Y474764D01*
X384900Y475061D01*
X385442D01*
X385564Y474764D01*
X386178Y474151D01*
X386980Y473819D01*
X387756D01*
X388141Y473440D01*
X388138Y473434D01*
Y472566D01*
X388360Y472029D01*
X388052Y471529D01*
X378500D01*
X377915Y471413D01*
X377419Y471081D01*
X365919Y459581D01*
X365587Y459085D01*
X365471Y458500D01*
Y223133D01*
X343419Y201081D01*
X343087Y200585D01*
X342971Y200000D01*
Y148988D01*
X342651Y148669D01*
X342319Y147867D01*
Y146999D01*
X342651Y146197D01*
X343265Y145584D01*
X344066Y145252D01*
X344934D01*
X345736Y145584D01*
X346349Y146197D01*
X346681Y146999D01*
Y147867D01*
X346349Y148669D01*
X346029Y148988D01*
Y199366D01*
X347431Y200768D01*
X347893Y200577D01*
Y149066D01*
X347573Y148746D01*
X347241Y147945D01*
Y147077D01*
X347573Y146275D01*
X348187Y145662D01*
X348988Y145330D01*
X349856D01*
X350658Y145662D01*
X351271Y146275D01*
X351603Y147077D01*
Y147945D01*
X351271Y148746D01*
X350952Y149066D01*
Y201460D01*
X369009Y219517D01*
X369471Y219326D01*
Y208633D01*
X358919Y198081D01*
X358587Y197585D01*
X358471Y197000D01*
Y153722D01*
X354221Y149472D01*
X353886D01*
X353085Y149140D01*
X352471Y148526D01*
X352139Y147725D01*
Y146857D01*
X352471Y146055D01*
X353085Y145442D01*
X353886Y145110D01*
X354754D01*
X355556Y145442D01*
X356169Y146055D01*
X356501Y146857D01*
Y147427D01*
X356939Y147864D01*
X357362Y147581D01*
X357319Y147476D01*
Y146608D01*
X357651Y145807D01*
X358264Y145193D01*
X359066Y144861D01*
X359934D01*
X360736Y145193D01*
X361349Y145807D01*
X361681Y146608D01*
Y147060D01*
X362635Y148014D01*
X362967Y148511D01*
X363023Y148793D01*
X363581Y149352D01*
X363913Y149848D01*
X364029Y150433D01*
Y194867D01*
X374081Y204919D01*
X374413Y205415D01*
X374529Y206000D01*
Y244866D01*
X378134Y248471D01*
X408890D01*
X409475Y248587D01*
X409972Y248919D01*
X411887Y250834D01*
X412339D01*
X413141Y251166D01*
X413755Y251780D01*
X414087Y252582D01*
Y253449D01*
X413755Y254251D01*
X413141Y254864D01*
X412339Y255196D01*
X411787D01*
X411418Y255569D01*
X411406Y255658D01*
Y256034D01*
X420509Y265137D01*
X420971Y264945D01*
Y246133D01*
X409018Y234181D01*
X408566D01*
X407764Y233849D01*
X407151Y233236D01*
X406819Y232434D01*
Y231643D01*
X406819Y231566D01*
X406471Y231215D01*
X406011Y231199D01*
X405868Y231358D01*
X405681Y231584D01*
Y232434D01*
X405349Y233236D01*
X404736Y233849D01*
X403934Y234181D01*
X403066D01*
X402264Y233849D01*
X401651Y233236D01*
X401319Y232434D01*
Y231633D01*
X401160Y231512D01*
X401083Y231531D01*
X400681Y231931D01*
Y232434D01*
X400349Y233236D01*
X399735Y233849D01*
X398934Y234181D01*
X398066D01*
X397265Y233849D01*
X396651Y233236D01*
X396319Y232434D01*
Y231643D01*
X396290Y231537D01*
X396025Y231270D01*
X395488D01*
X395181Y231649D01*
Y232434D01*
X394849Y233236D01*
X394235Y233849D01*
X393434Y234181D01*
X392566D01*
X391764Y233849D01*
X391151Y233236D01*
X390819Y232434D01*
Y231643D01*
X390806Y231553D01*
X390526Y231270D01*
X390001D01*
X389681Y231649D01*
Y232434D01*
X389349Y233236D01*
X388736Y233849D01*
X387934Y234181D01*
X387066D01*
X386264Y233849D01*
X385651Y233236D01*
X385319Y232434D01*
Y231566D01*
X385459Y231227D01*
X385382Y231128D01*
X385056Y230894D01*
X384363Y231181D01*
X383495D01*
X382693Y230849D01*
X382080Y230236D01*
X381748Y229434D01*
Y228566D01*
X382080Y227765D01*
X382399Y227445D01*
Y224042D01*
X381899Y223942D01*
X381778Y224236D01*
X381164Y224849D01*
X380363Y225181D01*
X379495D01*
X378693Y224849D01*
X378080Y224236D01*
X377748Y223434D01*
Y222566D01*
X378080Y221764D01*
X378399Y221445D01*
Y181379D01*
X377432Y180411D01*
X377008Y180694D01*
X377152Y181043D01*
Y181910D01*
X376820Y182712D01*
X376206Y183325D01*
X375405Y183658D01*
X374537D01*
X373735Y183325D01*
X373122Y182712D01*
X372797Y181927D01*
X372756Y181900D01*
X370800Y179944D01*
X370469Y179448D01*
X370353Y178863D01*
Y174618D01*
X370469Y174033D01*
X370800Y173537D01*
X371918Y172420D01*
X372414Y172088D01*
X372687Y172034D01*
X372761Y171957D01*
X372957Y171495D01*
X372957Y171489D01*
X372701Y170871D01*
Y170003D01*
X373033Y169202D01*
X373646Y168588D01*
X374448Y168256D01*
X375316D01*
X376117Y168588D01*
X376731Y169202D01*
X377063Y170003D01*
Y170871D01*
X376814Y171472D01*
X377085Y171972D01*
X379501D01*
X380086Y172088D01*
X380582Y172420D01*
X385010Y176847D01*
X385342Y177343D01*
X385458Y177929D01*
Y227445D01*
X385778Y227765D01*
X386110Y228566D01*
Y229434D01*
X385969Y229773D01*
X386047Y229872D01*
X386373Y230106D01*
X387066Y229819D01*
X387756D01*
X388080Y229493D01*
X388138Y229362D01*
Y228566D01*
X388470Y227765D01*
X388823Y227411D01*
Y226319D01*
X388940Y225734D01*
X389271Y225237D01*
X402676Y211833D01*
X403172Y211501D01*
X403757Y211385D01*
X421571D01*
X422156Y211501D01*
X422652Y211833D01*
X437461Y226641D01*
X437937Y226479D01*
X437961Y226460D01*
Y208000D01*
Y181345D01*
X427501Y170885D01*
X427039Y171076D01*
Y185000D01*
Y190724D01*
X427181Y191066D01*
Y191934D01*
X426849Y192736D01*
X426235Y193349D01*
X425434Y193681D01*
X424566D01*
X423765Y193349D01*
X423151Y192736D01*
X422819Y191934D01*
Y191066D01*
X422961Y190724D01*
Y188029D01*
X416634D01*
X413545Y191118D01*
Y191449D01*
X413212Y192251D01*
X412599Y192865D01*
X411797Y193196D01*
X410929D01*
X410128Y192865D01*
X409514Y192251D01*
X409182Y191449D01*
Y190582D01*
X409514Y189780D01*
X410128Y189166D01*
X410929Y188834D01*
X411503D01*
X413683Y186655D01*
X413419Y186211D01*
X412874D01*
X412736Y186349D01*
X411934Y186681D01*
X411066D01*
X410264Y186349D01*
X409651Y185735D01*
X409319Y184934D01*
Y184066D01*
X409651Y183265D01*
X410264Y182651D01*
X411066Y182319D01*
X411934D01*
X412736Y182651D01*
X413236Y183152D01*
X414181D01*
X414766Y183268D01*
X415263Y183600D01*
X416634Y184971D01*
X422866D01*
X422961Y184876D01*
Y166345D01*
X400655Y144039D01*
X318879D01*
X314736Y148182D01*
Y148658D01*
X314533Y149413D01*
X314142Y150090D01*
X313590Y150643D01*
X312913Y151033D01*
X312158Y151236D01*
X311376D01*
X310621Y151033D01*
X309944Y150643D01*
X309392Y150090D01*
X309001Y149413D01*
X308799Y148658D01*
Y147876D01*
X309001Y147121D01*
X309392Y146444D01*
X309944Y145892D01*
X310621Y145501D01*
X311376Y145299D01*
X311852D01*
X316592Y140558D01*
X317254Y140116D01*
X318034Y139961D01*
X401500D01*
X402280Y140116D01*
X402942Y140558D01*
X426442Y164058D01*
X441442Y179058D01*
X441471Y179101D01*
X441971Y178949D01*
Y124451D01*
X395969Y78450D01*
X381810D01*
X381491Y78769D01*
X380689Y79101D01*
X379821D01*
X379020Y78769D01*
X378406Y78156D01*
X378289Y77873D01*
X377748D01*
X377522Y78419D01*
X376908Y79032D01*
X376107Y79364D01*
X375239D01*
X374438Y79032D01*
X373824Y78419D01*
X373492Y77617D01*
Y76749D01*
X373824Y75948D01*
X374438Y75334D01*
X375239Y75002D01*
X375691D01*
X378775Y71919D01*
X379271Y71587D01*
X379856Y71471D01*
X400500D01*
X401085Y71587D01*
X401581Y71919D01*
X406608Y76945D01*
X407151Y76781D01*
X407158Y76743D01*
X407151Y76736D01*
X406819Y75934D01*
Y75066D01*
X407151Y74265D01*
X407764Y73651D01*
X408566Y73319D01*
X409434D01*
X410236Y73651D01*
X410849Y74265D01*
X411181Y75066D01*
Y75934D01*
X410849Y76736D01*
X410529Y77055D01*
Y77367D01*
X450581Y117419D01*
X450913Y117915D01*
X451029Y118500D01*
Y157336D01*
X451529Y157544D01*
X451946Y157127D01*
X452747Y156795D01*
X453615D01*
X454417Y157127D01*
X455030Y157741D01*
X455362Y158543D01*
Y159410D01*
X455030Y160212D01*
X454417Y160825D01*
X453615Y161158D01*
X452747D01*
X451946Y160825D01*
X451529Y160409D01*
X451029Y160616D01*
Y162836D01*
X451529Y163044D01*
X451946Y162627D01*
X452747Y162295D01*
X453615D01*
X454417Y162627D01*
X455030Y163241D01*
X455362Y164042D01*
Y164910D01*
X455030Y165712D01*
X454417Y166325D01*
X453615Y166657D01*
X452747D01*
X451946Y166325D01*
X451529Y165909D01*
X451029Y166116D01*
Y168324D01*
X451529Y168531D01*
X451946Y168115D01*
X452747Y167783D01*
X453615D01*
X454417Y168115D01*
X455030Y168729D01*
X455362Y169530D01*
Y170398D01*
X455030Y171200D01*
X454417Y171813D01*
X453615Y172145D01*
X452747D01*
X451946Y171813D01*
X451529Y171397D01*
X451029Y171604D01*
Y173836D01*
X451529Y174044D01*
X451946Y173627D01*
X452747Y173295D01*
X453615D01*
X454417Y173627D01*
X455030Y174241D01*
X455362Y175042D01*
Y175910D01*
X455030Y176712D01*
X454417Y177325D01*
X453615Y177657D01*
X452747D01*
X451946Y177325D01*
X451541Y176921D01*
X451106Y177095D01*
X451056Y177578D01*
X452439Y178961D01*
X452891D01*
X453693Y179293D01*
X454306Y179907D01*
X454638Y180708D01*
Y181576D01*
X454306Y182378D01*
X453693Y182991D01*
X452891Y183323D01*
X452260D01*
X452053Y183823D01*
X452526Y184295D01*
X452978D01*
X453779Y184627D01*
X454393Y185241D01*
X454725Y186042D01*
Y186910D01*
X454393Y187712D01*
X453779Y188325D01*
X452978Y188657D01*
X452110D01*
X451308Y188325D01*
X450695Y187712D01*
X450363Y186910D01*
Y186458D01*
X447491Y183587D01*
X447029Y183778D01*
Y189799D01*
X450782Y193552D01*
X451151Y193236D01*
X450819Y192434D01*
Y191566D01*
X451151Y190764D01*
X451764Y190151D01*
X452566Y189819D01*
X453434D01*
X454236Y190151D01*
X454849Y190764D01*
X455181Y191566D01*
Y192018D01*
X458581Y195419D01*
X458913Y195915D01*
X459029Y196500D01*
Y204000D01*
X458913Y204585D01*
X458581Y205081D01*
X454306Y209357D01*
X453810Y209688D01*
X453697Y209711D01*
X453672Y209772D01*
X453058Y210385D01*
X452257Y210717D01*
X451389D01*
X450587Y210385D01*
X450268Y210066D01*
X442039D01*
Y224424D01*
X442501Y224615D01*
X475961Y191155D01*
Y151500D01*
Y107500D01*
X475961Y107500D01*
Y91382D01*
X476116Y90602D01*
X476558Y89941D01*
X476662Y89837D01*
X476873Y89327D01*
X477487Y88713D01*
X478288Y88381D01*
X479156D01*
X479958Y88713D01*
X480571Y89327D01*
X480903Y90128D01*
Y90996D01*
X480571Y91798D01*
X480039Y92330D01*
Y107500D01*
X480039Y107500D01*
Y149471D01*
X507194D01*
X514497Y142168D01*
Y141716D01*
X514829Y140914D01*
X515442Y140301D01*
X516244Y139969D01*
X517112D01*
X517913Y140301D01*
X518527Y140914D01*
X518859Y141716D01*
Y142584D01*
X518527Y143385D01*
X517913Y143999D01*
X517112Y144331D01*
X516660D01*
X508909Y152081D01*
X508413Y152413D01*
X507827Y152529D01*
X480039D01*
Y192000D01*
X479884Y192780D01*
X479442Y193442D01*
X442039Y230845D01*
Y252155D01*
X451415Y261531D01*
X451585D01*
X457189Y255927D01*
X457850Y255485D01*
X458631Y255330D01*
X523155D01*
X558927Y219558D01*
X559589Y219116D01*
X560369Y218961D01*
X608000D01*
X608780Y219116D01*
X609442Y219558D01*
X611159Y221275D01*
X611159Y221275D01*
X613407Y223523D01*
X613849Y224185D01*
X614005Y224965D01*
Y228471D01*
X614244Y229049D01*
Y229917D01*
X613912Y230719D01*
X613299Y231332D01*
X612497Y231664D01*
X611807D01*
X611483Y231991D01*
X611425Y232121D01*
Y232917D01*
X611093Y233719D01*
X610480Y234332D01*
X609678Y234665D01*
X608810D01*
X608009Y234332D01*
X607395Y233719D01*
X607063Y232917D01*
Y232049D01*
X606867Y231852D01*
X606452D01*
X606063Y232271D01*
Y232917D01*
X605731Y233719D01*
X605117Y234332D01*
X604316Y234665D01*
X603448D01*
X602646Y234332D01*
X602033Y233719D01*
X601701Y232917D01*
Y232049D01*
X601505Y231852D01*
X601089D01*
X600701Y232271D01*
Y232917D01*
X600369Y233719D01*
X599755Y234332D01*
X598953Y234665D01*
X598086D01*
X597284Y234332D01*
X596671Y233719D01*
X596339Y232917D01*
Y232049D01*
X596143Y231852D01*
X595725D01*
X595339Y232271D01*
Y232917D01*
X595007Y233719D01*
X594393Y234332D01*
X593591Y234665D01*
X592724D01*
X591922Y234332D01*
X591308Y233719D01*
X590976Y232917D01*
Y232126D01*
X590964Y232036D01*
X590780Y231852D01*
X590363D01*
X589976Y232271D01*
Y232917D01*
X589644Y233719D01*
X589031Y234332D01*
X588229Y234665D01*
X587361D01*
X586560Y234332D01*
X585946Y233719D01*
X585614Y232917D01*
Y232049D01*
X585815Y231564D01*
X585391Y231281D01*
X585251Y231422D01*
X584449Y231754D01*
X583997D01*
X579286Y236464D01*
Y257624D01*
X579982Y258319D01*
X580434D01*
X581236Y258651D01*
X581849Y259264D01*
X582181Y260066D01*
Y260934D01*
X581959Y261471D01*
X582267Y261971D01*
X585583D01*
X585775Y261509D01*
X583151Y258885D01*
X582819Y258389D01*
X582703Y257804D01*
Y254961D01*
X582393Y254651D01*
X582061Y253849D01*
Y252981D01*
X582393Y252180D01*
X583006Y251566D01*
X583808Y251234D01*
X584676D01*
X585477Y251566D01*
X586091Y252180D01*
X586423Y252981D01*
Y253849D01*
X586325Y254084D01*
X586708Y254467D01*
X587066Y254319D01*
X587934D01*
X587960Y254330D01*
X588313Y253976D01*
X588295Y253933D01*
Y253065D01*
X588627Y252263D01*
X589241Y251650D01*
X590042Y251318D01*
X590910D01*
X591712Y251650D01*
X592325Y252263D01*
X592658Y253065D01*
Y253856D01*
X592658Y253933D01*
X592946Y254224D01*
X593353Y254229D01*
X593377Y254210D01*
X593736Y253828D01*
Y253065D01*
X594068Y252263D01*
X594682Y251650D01*
X595483Y251318D01*
X596351D01*
X597153Y251650D01*
X597766Y252263D01*
X598098Y253065D01*
Y253933D01*
X598354Y254315D01*
X598377Y254318D01*
X598729D01*
X598834Y254361D01*
X598835Y254361D01*
X599189Y254008D01*
X599157Y253933D01*
Y253065D01*
X599489Y252263D01*
X600103Y251650D01*
X600905Y251318D01*
X601772D01*
X602574Y251650D01*
X603188Y252263D01*
X603520Y253065D01*
Y253933D01*
X603739Y254261D01*
X604197Y254307D01*
X604521Y253935D01*
X604520Y253933D01*
Y253065D01*
X604852Y252263D01*
X605465Y251650D01*
X606267Y251318D01*
X607135D01*
X607936Y251650D01*
X608550Y252263D01*
X608882Y253065D01*
Y253856D01*
X608882Y253933D01*
X609264Y254318D01*
X609591D01*
X610393Y254650D01*
X611006Y255263D01*
X611339Y256065D01*
Y256933D01*
X611006Y257734D01*
X610393Y258348D01*
X609591Y258680D01*
X608724D01*
X607922Y258348D01*
X607308Y257734D01*
X606976Y256933D01*
Y256142D01*
X606976Y256065D01*
X606629Y255714D01*
X606169Y255697D01*
X606025Y255857D01*
X605839Y256083D01*
Y256933D01*
X605507Y257734D01*
X604893Y258348D01*
X604091Y258680D01*
X603224D01*
X602422Y258348D01*
X601808Y257734D01*
X601476Y256933D01*
Y256065D01*
X601257Y255737D01*
X600799Y255691D01*
X600476Y256063D01*
X600476Y256065D01*
Y256933D01*
X600144Y257734D01*
X599531Y258348D01*
X598729Y258680D01*
X597861D01*
X597060Y258348D01*
X596446Y257734D01*
X596114Y256933D01*
Y256065D01*
X595910Y255759D01*
X595474Y255726D01*
X595114Y256096D01*
Y256933D01*
X594782Y257734D01*
X594169Y258348D01*
X593367Y258680D01*
X592800D01*
X592592Y259180D01*
X632997Y299584D01*
X633328Y300080D01*
X633445Y300666D01*
Y337513D01*
X633328Y338098D01*
X632997Y338594D01*
X628273Y343318D01*
Y343770D01*
X627941Y344572D01*
X627764Y344749D01*
Y372419D01*
X627647Y373004D01*
X627316Y373500D01*
X613997Y386819D01*
X613501Y387151D01*
X612915Y387267D01*
X598549D01*
X589532Y396284D01*
X589567Y396675D01*
X590037Y396963D01*
X590385Y396819D01*
X591253D01*
X592054Y397151D01*
X592668Y397764D01*
X593000Y398566D01*
Y399357D01*
X593000Y399434D01*
X593289Y399725D01*
X593695Y399730D01*
X593719Y399712D01*
X594079Y399330D01*
Y398566D01*
X594411Y397764D01*
X595024Y397151D01*
X595826Y396819D01*
X596694D01*
X597495Y397151D01*
X598109Y397764D01*
X598441Y398566D01*
Y399434D01*
X598697Y399817D01*
X598720Y399819D01*
X599072D01*
X599177Y399863D01*
X599178Y399863D01*
X599531Y399509D01*
X599500Y399434D01*
Y398566D01*
X599832Y397764D01*
X600446Y397151D01*
X601247Y396819D01*
X602115D01*
X602917Y397151D01*
X603530Y397764D01*
X603862Y398566D01*
Y399434D01*
X604082Y399762D01*
X604539Y399808D01*
X604863Y399436D01*
X604862Y399434D01*
Y398566D01*
X605194Y397764D01*
X605808Y397151D01*
X606609Y396819D01*
X607477D01*
X608279Y397151D01*
X608892Y397764D01*
X609224Y398566D01*
Y399357D01*
X609224Y399434D01*
X609606Y399819D01*
X609934D01*
X610736Y400151D01*
X611349Y400765D01*
X611681Y401566D01*
Y402434D01*
X611349Y403235D01*
X610736Y403849D01*
X609934Y404181D01*
X609066D01*
X608264Y403849D01*
X607651Y403235D01*
X607319Y402434D01*
Y401643D01*
X607319Y401566D01*
X606971Y401215D01*
X606511Y401199D01*
X606368Y401358D01*
X606181Y401584D01*
Y402434D01*
X605849Y403235D01*
X605235Y403849D01*
X604434Y404181D01*
X603566D01*
X602765Y403849D01*
X602151Y403235D01*
X601819Y402434D01*
Y401566D01*
X601600Y401238D01*
X601142Y401192D01*
X600818Y401564D01*
X600819Y401566D01*
Y402434D01*
X600487Y403235D01*
X599873Y403849D01*
X599072Y404181D01*
X598204D01*
X597402Y403849D01*
X596789Y403235D01*
X596457Y402434D01*
Y401566D01*
X596252Y401260D01*
X595816Y401228D01*
X595457Y401598D01*
Y402434D01*
X595125Y403235D01*
X594511Y403849D01*
X593710Y404181D01*
X593142D01*
X592935Y404681D01*
X597997Y409743D01*
X598328Y410239D01*
X598445Y410824D01*
Y460738D01*
X598328Y461323D01*
X597997Y461819D01*
X589042Y470774D01*
Y473858D01*
X589362Y474177D01*
X589694Y474979D01*
Y475847D01*
X589362Y476648D01*
X588749Y477262D01*
X587947Y477594D01*
X587079D01*
X586277Y477262D01*
X585664Y476648D01*
X585509Y476275D01*
X584968D01*
X584778Y476735D01*
X584164Y477349D01*
X583363Y477681D01*
X582495D01*
X581693Y477349D01*
X581080Y476735D01*
X580748Y475934D01*
Y475066D01*
X581080Y474264D01*
X581399Y473945D01*
Y470000D01*
X581516Y469415D01*
X581847Y468919D01*
X592399Y458366D01*
Y413633D01*
X582939Y404173D01*
X582464D01*
X581662Y403841D01*
X581049Y403228D01*
X580717Y402426D01*
Y401558D01*
X581049Y400757D01*
X581399Y400406D01*
Y396000D01*
X581516Y395415D01*
X581847Y394919D01*
X595097Y381669D01*
X595594Y381337D01*
X596179Y381221D01*
X611045D01*
X620399Y371866D01*
Y347501D01*
X620151Y347253D01*
X619819Y346451D01*
Y345584D01*
X620151Y344782D01*
X620285Y344648D01*
Y343881D01*
X619823Y343689D01*
X616295Y347217D01*
Y367145D01*
X616360Y367210D01*
X616692Y368011D01*
Y368879D01*
X616360Y369681D01*
X615746Y370294D01*
X614945Y370626D01*
X614077D01*
X613275Y370294D01*
X612662Y369681D01*
X612330Y368879D01*
Y368011D01*
X612662Y367210D01*
X612727Y367145D01*
Y346478D01*
X612810Y346060D01*
X612349Y345814D01*
X565029Y393133D01*
Y408819D01*
X564913Y409404D01*
X564581Y409900D01*
X551181Y423301D01*
Y423753D01*
X550849Y424554D01*
X550236Y425168D01*
X549434Y425500D01*
X548566D01*
X547764Y425168D01*
X547151Y424554D01*
X546819Y423753D01*
Y422885D01*
X547151Y422083D01*
X547764Y421470D01*
X548027Y421361D01*
Y420820D01*
X547764Y420711D01*
X547151Y420098D01*
X546819Y419296D01*
Y418428D01*
X547151Y417627D01*
X547764Y417013D01*
X548566Y416681D01*
X549434D01*
X550236Y417013D01*
X550849Y417627D01*
X551134Y418315D01*
X551643Y418513D01*
X561971Y408185D01*
Y403877D01*
X561908Y403829D01*
X561471Y403692D01*
X556212Y408951D01*
X556212Y408951D01*
X551227Y413936D01*
X551162Y413979D01*
X550849Y414736D01*
X550236Y415349D01*
X549434Y415681D01*
X548566D01*
X547764Y415349D01*
X547151Y414736D01*
X546819Y413934D01*
Y413066D01*
X547151Y412264D01*
X547764Y411651D01*
X548514Y411341D01*
X548541Y411091D01*
X548514Y410841D01*
X547764Y410530D01*
X547151Y409917D01*
X546819Y409115D01*
Y408247D01*
X547151Y407446D01*
X547764Y406832D01*
X548566Y406500D01*
X549434D01*
X550236Y406832D01*
X550849Y407446D01*
X551181Y408247D01*
Y408949D01*
X551652Y409185D01*
X554049Y406788D01*
X554049Y406788D01*
X558971Y401866D01*
Y396164D01*
X558509Y395973D01*
X551181Y403301D01*
Y403753D01*
X550849Y404554D01*
X550236Y405168D01*
X549434Y405500D01*
X548566D01*
X547764Y405168D01*
X547151Y404554D01*
X546819Y403753D01*
Y402885D01*
X547151Y402083D01*
X547764Y401470D01*
X548514Y401159D01*
X548541Y400910D01*
X548514Y400660D01*
X547764Y400349D01*
X547151Y399735D01*
X546819Y398934D01*
Y398066D01*
X547151Y397265D01*
X547764Y396651D01*
X548566Y396319D01*
X549434D01*
X550236Y396651D01*
X550849Y397265D01*
X551181Y398066D01*
Y398268D01*
X551681Y398475D01*
X555177Y394979D01*
X555070Y394765D01*
X554882Y394567D01*
X554377Y394667D01*
X550555D01*
X550236Y394987D01*
X549434Y395319D01*
X548566D01*
X547764Y394987D01*
X547151Y394373D01*
X546819Y393572D01*
Y392704D01*
X547151Y391902D01*
X547764Y391289D01*
X548027Y391180D01*
Y390639D01*
X547764Y390530D01*
X547151Y389917D01*
X546819Y389115D01*
Y388247D01*
X547151Y387446D01*
X547764Y386832D01*
X548566Y386500D01*
X549434D01*
X550236Y386832D01*
X550849Y387446D01*
X551181Y388247D01*
Y389115D01*
X550849Y389917D01*
X550236Y390530D01*
X549973Y390639D01*
Y391180D01*
X550236Y391289D01*
X550555Y391608D01*
X553744D01*
X612471Y332881D01*
Y326399D01*
X611971Y326192D01*
X611542Y326621D01*
Y329675D01*
X611637Y329770D01*
X611969Y330572D01*
Y331440D01*
X611637Y332242D01*
X611023Y332855D01*
X610221Y333187D01*
X609354D01*
X608552Y332855D01*
X607939Y332242D01*
X607607Y331440D01*
Y330649D01*
X607607Y330572D01*
X607259Y330221D01*
X606799Y330205D01*
X606656Y330364D01*
X606469Y330590D01*
Y331440D01*
X606137Y332242D01*
X605523Y332855D01*
X604721Y333187D01*
X603854D01*
X603052Y332855D01*
X602439Y332242D01*
X602107Y331440D01*
Y330572D01*
X601887Y330244D01*
X601430Y330198D01*
X601106Y330570D01*
X601107Y330572D01*
Y331440D01*
X600774Y332242D01*
X600161Y332855D01*
X599359Y333187D01*
X598492D01*
X597690Y332855D01*
X597076Y332242D01*
X596744Y331440D01*
Y330572D01*
X596540Y330266D01*
X596104Y330234D01*
X595744Y330604D01*
Y331440D01*
X595412Y332242D01*
X594799Y332855D01*
X593997Y333187D01*
X593129D01*
X592328Y332855D01*
X591714Y332242D01*
X591382Y331440D01*
Y330649D01*
X591382Y330572D01*
X591001Y330187D01*
X590673D01*
X589871Y329855D01*
X589257Y329241D01*
X588926Y328440D01*
Y327587D01*
X588884Y327547D01*
X588491Y327314D01*
X579529Y336276D01*
Y354319D01*
X579413Y354904D01*
X579081Y355400D01*
X551181Y383301D01*
Y383753D01*
X550849Y384554D01*
X550236Y385168D01*
X549434Y385500D01*
X548566D01*
X547764Y385168D01*
X547151Y384554D01*
X546819Y383753D01*
Y382885D01*
X547151Y382083D01*
X547764Y381470D01*
X548514Y381159D01*
X548541Y380909D01*
X548514Y380659D01*
X547764Y380349D01*
X547151Y379735D01*
X546819Y378934D01*
Y378066D01*
X547151Y377264D01*
X547764Y376651D01*
X548566Y376319D01*
X549434D01*
X550236Y376651D01*
X550849Y377264D01*
X551181Y378066D01*
Y378268D01*
X551681Y378475D01*
X554989Y375167D01*
X554974Y375055D01*
X554417Y374656D01*
X554362Y374667D01*
X550555D01*
X550236Y374987D01*
X549434Y375319D01*
X548566D01*
X547764Y374987D01*
X547151Y374373D01*
X546819Y373572D01*
Y372704D01*
X547151Y371902D01*
X547764Y371289D01*
X548027Y371180D01*
Y370639D01*
X547764Y370530D01*
X547151Y369917D01*
X546819Y369115D01*
Y368247D01*
X547151Y367446D01*
X547764Y366832D01*
X548566Y366500D01*
X549434D01*
X550236Y366832D01*
X550849Y367446D01*
X551181Y368247D01*
Y369115D01*
X550849Y369917D01*
X550236Y370530D01*
X549973Y370639D01*
Y371180D01*
X550236Y371289D01*
X550555Y371608D01*
X553729D01*
X574471Y350867D01*
Y349846D01*
X574009Y349654D01*
X559263Y364400D01*
X558766Y364732D01*
X558181Y364848D01*
X550555D01*
X550236Y365168D01*
X549434Y365500D01*
X548566D01*
X547764Y365168D01*
X547151Y364554D01*
X546819Y363753D01*
Y362885D01*
X547151Y362083D01*
X547764Y361470D01*
X548233Y361276D01*
Y360735D01*
X547739Y360530D01*
X547125Y359917D01*
X546793Y359115D01*
Y358247D01*
X547125Y357446D01*
X547739Y356832D01*
X548540Y356500D01*
X549408D01*
X550210Y356832D01*
X550823Y357446D01*
X551155Y358247D01*
Y359115D01*
X550823Y359917D01*
X550210Y360530D01*
X549742Y360724D01*
Y361265D01*
X550236Y361470D01*
X550555Y361789D01*
X557548D01*
X564346Y354991D01*
X564154Y354529D01*
X550834D01*
X550823Y354554D01*
X550210Y355168D01*
X549408Y355500D01*
X548540D01*
X547739Y355168D01*
X547125Y354554D01*
X546793Y353753D01*
Y352885D01*
X547125Y352083D01*
X547739Y351470D01*
X548501Y351154D01*
X548527Y350968D01*
X548501Y350654D01*
X547764Y350349D01*
X547151Y349735D01*
X546819Y348934D01*
Y348066D01*
X547151Y347265D01*
X547764Y346651D01*
X548566Y346319D01*
X549434D01*
X550236Y346651D01*
X550849Y347265D01*
X551181Y348066D01*
Y348934D01*
X550849Y349735D01*
X550236Y350349D01*
X549473Y350665D01*
X549448Y350851D01*
X549473Y351165D01*
X550210Y351470D01*
X550215Y351476D01*
X550241Y351471D01*
X564281D01*
X569471Y346281D01*
Y339377D01*
X569408Y339329D01*
X568971Y339192D01*
X564081Y344081D01*
X563585Y344413D01*
X563000Y344529D01*
X550693D01*
X550236Y344987D01*
X549434Y345319D01*
X548566D01*
X547764Y344987D01*
X547151Y344373D01*
X546819Y343572D01*
Y342704D01*
X547151Y341902D01*
X547764Y341289D01*
X548245Y341090D01*
Y340548D01*
X547764Y340349D01*
X547151Y339736D01*
X546819Y338934D01*
Y338066D01*
X547151Y337264D01*
X547764Y336651D01*
X548566Y336319D01*
X549434D01*
X550236Y336651D01*
X550849Y337264D01*
X551181Y338066D01*
Y338934D01*
X550849Y339736D01*
X550236Y340349D01*
X549754Y340548D01*
Y341090D01*
X550236Y341289D01*
X550417Y341471D01*
X562366D01*
X566471Y337367D01*
Y334756D01*
X566362Y334667D01*
X550555D01*
X550236Y334987D01*
X549434Y335319D01*
X548566D01*
X547764Y334987D01*
X547151Y334373D01*
X546819Y333572D01*
Y332704D01*
X547151Y331902D01*
X547764Y331289D01*
X548245Y331089D01*
Y330548D01*
X547764Y330349D01*
X547151Y329735D01*
X546819Y328934D01*
Y328066D01*
X547151Y327264D01*
X547764Y326651D01*
X548566Y326319D01*
X549434D01*
X550236Y326651D01*
X550849Y327264D01*
X551181Y328066D01*
Y328934D01*
X550849Y329735D01*
X550236Y330349D01*
X549754Y330548D01*
Y331089D01*
X550236Y331289D01*
X550555Y331608D01*
X565729D01*
X572208Y325129D01*
X572017Y324667D01*
X550555D01*
X550236Y324987D01*
X549434Y325319D01*
X548566D01*
X547764Y324987D01*
X547151Y324373D01*
X546819Y323572D01*
Y322704D01*
X547151Y321902D01*
X547764Y321289D01*
X548246Y321090D01*
Y320548D01*
X547764Y320349D01*
X547151Y319736D01*
X546819Y318934D01*
Y318066D01*
X547151Y317265D01*
X547764Y316651D01*
X548566Y316319D01*
X549434D01*
X550236Y316651D01*
X550849Y317265D01*
X551181Y318066D01*
Y318934D01*
X550849Y319736D01*
X550236Y320349D01*
X549754Y320548D01*
Y321090D01*
X550236Y321289D01*
X550555Y321608D01*
X572057D01*
X578536Y315129D01*
X578345Y314667D01*
X550555D01*
X550236Y314987D01*
X549434Y315319D01*
X548566D01*
X547764Y314987D01*
X547151Y314373D01*
X546819Y313572D01*
Y312704D01*
X547151Y311902D01*
X547764Y311289D01*
X548027Y311180D01*
Y310639D01*
X547764Y310530D01*
X547151Y309917D01*
X546819Y309115D01*
Y308247D01*
X547151Y307446D01*
X547764Y306832D01*
X548566Y306500D01*
X549434D01*
X550236Y306832D01*
X550849Y307446D01*
X551181Y308247D01*
Y309115D01*
X550849Y309917D01*
X550236Y310530D01*
X549973Y310639D01*
Y311180D01*
X550236Y311289D01*
X550555Y311608D01*
X578729D01*
X580919Y309419D01*
X581415Y309087D01*
X582000Y308971D01*
X586597D01*
X586804Y308471D01*
X586352Y308018D01*
X586020Y307217D01*
Y306349D01*
X586352Y305547D01*
X586966Y304934D01*
X587767Y304602D01*
X588463D01*
X588650Y304580D01*
X588926Y304181D01*
Y303681D01*
X589257Y302879D01*
X589871Y302266D01*
X590673Y301934D01*
X591540D01*
X592342Y302266D01*
X592956Y302879D01*
X593288Y303681D01*
Y304548D01*
X593462Y304809D01*
X593997D01*
X594032Y304824D01*
X594385Y304470D01*
X594366Y304425D01*
Y303557D01*
X594698Y302755D01*
X595312Y302142D01*
X596114Y301810D01*
X596981D01*
X597783Y302142D01*
X598397Y302755D01*
X598729Y303557D01*
Y304425D01*
X598984Y304807D01*
X599007Y304809D01*
X599359D01*
X599465Y304853D01*
X599466Y304853D01*
X599819Y304500D01*
X599788Y304425D01*
Y303557D01*
X600120Y302755D01*
X600733Y302142D01*
X601535Y301810D01*
X602403D01*
X603204Y302142D01*
X603818Y302755D01*
X604150Y303557D01*
Y304425D01*
X604369Y304753D01*
X604827Y304799D01*
X605151Y304427D01*
X605150Y304425D01*
Y303557D01*
X605482Y302755D01*
X606096Y302142D01*
X606897Y301810D01*
X607765D01*
X608567Y302142D01*
X609180Y302755D01*
X609512Y303557D01*
Y304425D01*
X609682Y304679D01*
X610133Y304715D01*
X610512Y304351D01*
Y303557D01*
X610844Y302755D01*
X611458Y302142D01*
X612259Y301810D01*
X613127D01*
X613929Y302142D01*
X614009Y302222D01*
X614471Y302030D01*
Y300619D01*
X606200Y292348D01*
X551334D01*
X551056Y292764D01*
X551181Y293066D01*
Y293934D01*
X550849Y294736D01*
X550236Y295349D01*
X549434Y295681D01*
X548566D01*
X547764Y295349D01*
X547151Y294736D01*
X546819Y293934D01*
Y293066D01*
X546944Y292764D01*
X546666Y292348D01*
X513315D01*
X510592Y295071D01*
X510741Y295629D01*
X511146Y295737D01*
X511823Y296128D01*
X512375Y296681D01*
X512766Y297358D01*
X512968Y298113D01*
Y298894D01*
X512766Y299649D01*
X512375Y300326D01*
X511823Y300879D01*
X511146Y301270D01*
X510391Y301472D01*
X509609D01*
X508854Y301270D01*
X508177Y300879D01*
X507625Y300326D01*
X507234Y299649D01*
X507125Y299245D01*
X506568Y299095D01*
X505594Y300068D01*
X505744Y300626D01*
X506146Y300734D01*
X506823Y301125D01*
X507375Y301677D01*
X507766Y302354D01*
X507969Y303109D01*
Y303891D01*
X507766Y304646D01*
X507375Y305323D01*
X506823Y305875D01*
X506146Y306266D01*
X505391Y306469D01*
X504609D01*
X503854Y306266D01*
X503177Y305875D01*
X502625Y305323D01*
X502234Y304646D01*
X502126Y304244D01*
X501568Y304095D01*
X501081Y304581D01*
X500585Y304913D01*
X500000Y305029D01*
X497545D01*
X497375Y305323D01*
X496823Y305875D01*
X496146Y306266D01*
X495391Y306469D01*
X494609D01*
X493854Y306266D01*
X493177Y305875D01*
X492625Y305323D01*
X492455Y305029D01*
X491098D01*
X490985Y305177D01*
X491143Y305727D01*
X491173Y305753D01*
X491823Y306128D01*
X492375Y306681D01*
X492766Y307358D01*
X492969Y308113D01*
Y308894D01*
X492766Y309649D01*
X492375Y310326D01*
X491823Y310879D01*
X491146Y311270D01*
X490487Y311446D01*
X490391Y311472D01*
X490394Y311971D01*
X490498Y311971D01*
X492455D01*
X492625Y311677D01*
X493177Y311125D01*
X493854Y310734D01*
X494609Y310531D01*
X495391D01*
X496146Y310734D01*
X496823Y311125D01*
X497375Y311677D01*
X497766Y312354D01*
X497968Y313109D01*
Y313891D01*
X497766Y314646D01*
X497375Y315323D01*
X496823Y315875D01*
X496146Y316266D01*
X495391Y316469D01*
X494609D01*
X493854Y316266D01*
X493177Y315875D01*
X492625Y315323D01*
X492455Y315029D01*
X491098D01*
X490985Y315177D01*
X491143Y315727D01*
X491173Y315753D01*
X491823Y316128D01*
X492375Y316681D01*
X492766Y317358D01*
X492969Y318113D01*
Y318894D01*
X492766Y319649D01*
X492375Y320326D01*
X491823Y320879D01*
X491146Y321270D01*
X490487Y321446D01*
X490391Y321472D01*
X490394Y321971D01*
X490498Y321971D01*
X492455D01*
X492625Y321677D01*
X493177Y321125D01*
X493854Y320734D01*
X494609Y320532D01*
X495391D01*
X496146Y320734D01*
X496823Y321125D01*
X497375Y321677D01*
X497766Y322354D01*
X497968Y323109D01*
Y323891D01*
X497766Y324646D01*
X497375Y325323D01*
X496823Y325875D01*
X496146Y326266D01*
X495391Y326468D01*
X494609D01*
X493854Y326266D01*
X493177Y325875D01*
X492625Y325323D01*
X492455Y325029D01*
X491098D01*
X490985Y325177D01*
X491143Y325727D01*
X491173Y325753D01*
X491823Y326128D01*
X492375Y326681D01*
X492766Y327358D01*
X492969Y328113D01*
Y328894D01*
X492766Y329649D01*
X492375Y330326D01*
X491823Y330879D01*
X491146Y331270D01*
X490487Y331446D01*
X490391Y331472D01*
X490394Y331971D01*
X490498Y331971D01*
X492455D01*
X492625Y331677D01*
X493177Y331125D01*
X493854Y330734D01*
X494609Y330532D01*
X495391D01*
X496146Y330734D01*
X496823Y331125D01*
X497375Y331677D01*
X497766Y332354D01*
X497968Y333109D01*
Y333891D01*
X497766Y334646D01*
X497375Y335323D01*
X496823Y335875D01*
X496146Y336266D01*
X495391Y336469D01*
X494609D01*
X493854Y336266D01*
X493177Y335875D01*
X492625Y335323D01*
X492455Y335029D01*
X491098D01*
X490985Y335177D01*
X491143Y335727D01*
X491173Y335753D01*
X491823Y336128D01*
X492375Y336681D01*
X492766Y337358D01*
X492969Y338113D01*
Y338894D01*
X492766Y339649D01*
X492375Y340326D01*
X491823Y340879D01*
X491146Y341270D01*
X490487Y341446D01*
X490391Y341472D01*
X490394Y341971D01*
X490498Y341971D01*
X492455D01*
X492625Y341677D01*
X493177Y341125D01*
X493854Y340734D01*
X494609Y340531D01*
X495391D01*
X496146Y340734D01*
X496823Y341125D01*
X497375Y341677D01*
X497766Y342354D01*
X497968Y343109D01*
Y343891D01*
X497766Y344646D01*
X497375Y345323D01*
X496823Y345875D01*
X496146Y346266D01*
X495391Y346468D01*
X494609D01*
X493854Y346266D01*
X493177Y345875D01*
X492625Y345323D01*
X492455Y345029D01*
X491098D01*
X490985Y345177D01*
X491143Y345727D01*
X491173Y345753D01*
X491823Y346128D01*
X492375Y346681D01*
X492766Y347358D01*
X492969Y348113D01*
Y348895D01*
X492766Y349649D01*
X492375Y350326D01*
X491823Y350879D01*
X491146Y351270D01*
X490487Y351446D01*
X490391Y351472D01*
X490394Y351971D01*
X490498Y351971D01*
X492455D01*
X492625Y351677D01*
X493177Y351125D01*
X493854Y350734D01*
X494609Y350532D01*
X495391D01*
X496146Y350734D01*
X496823Y351125D01*
X497375Y351677D01*
X497766Y352354D01*
X497968Y353109D01*
Y353891D01*
X497766Y354646D01*
X497375Y355323D01*
X496823Y355875D01*
X496146Y356266D01*
X495391Y356469D01*
X494609D01*
X493854Y356266D01*
X493177Y355875D01*
X492625Y355323D01*
X492455Y355029D01*
X491098D01*
X490985Y355177D01*
X491143Y355727D01*
X491173Y355753D01*
X491823Y356128D01*
X492375Y356681D01*
X492766Y357358D01*
X492969Y358113D01*
Y358894D01*
X492766Y359649D01*
X492375Y360326D01*
X491823Y360879D01*
X491146Y361270D01*
X490487Y361446D01*
X490391Y361472D01*
X490394Y361971D01*
X490498Y361971D01*
X492455D01*
X492625Y361677D01*
X493177Y361125D01*
X493854Y360734D01*
X494609Y360531D01*
X495391D01*
X496146Y360734D01*
X496823Y361125D01*
X497375Y361677D01*
X497766Y362354D01*
X497968Y363109D01*
Y363891D01*
X497766Y364646D01*
X497375Y365323D01*
X496823Y365875D01*
X496146Y366266D01*
X495391Y366469D01*
X494609D01*
X493854Y366266D01*
X493177Y365875D01*
X492625Y365323D01*
X492455Y365029D01*
X491098D01*
X490985Y365177D01*
X491143Y365727D01*
X491173Y365753D01*
X491823Y366128D01*
X492375Y366681D01*
X492766Y367358D01*
X492969Y368113D01*
Y368895D01*
X492766Y369649D01*
X492375Y370326D01*
X491823Y370879D01*
X491146Y371270D01*
X490487Y371446D01*
X490391Y371472D01*
X490394Y371971D01*
X490498Y371971D01*
X492455D01*
X492625Y371677D01*
X493177Y371125D01*
X493854Y370734D01*
X494609Y370532D01*
X495391D01*
X496146Y370734D01*
X496823Y371125D01*
X497375Y371677D01*
X497766Y372354D01*
X497968Y373109D01*
Y373891D01*
X497766Y374646D01*
X497375Y375323D01*
X496823Y375875D01*
X496146Y376266D01*
X495391Y376468D01*
X494609D01*
X493854Y376266D01*
X493177Y375875D01*
X492625Y375323D01*
X492455Y375029D01*
X491098D01*
X490985Y375177D01*
X491143Y375727D01*
X491173Y375753D01*
X491823Y376128D01*
X492375Y376681D01*
X492766Y377358D01*
X492969Y378113D01*
Y378894D01*
X492766Y379649D01*
X492375Y380326D01*
X491823Y380879D01*
X491146Y381270D01*
X490487Y381446D01*
X490391Y381472D01*
X490394Y381971D01*
X490498Y381971D01*
X492455D01*
X492625Y381677D01*
X493177Y381125D01*
X493854Y380734D01*
X494609Y380532D01*
X495391D01*
X496146Y380734D01*
X496823Y381125D01*
X497375Y381677D01*
X497766Y382354D01*
X497968Y383109D01*
Y383891D01*
X497766Y384646D01*
X497375Y385323D01*
X496823Y385875D01*
X496146Y386266D01*
X495391Y386469D01*
X494609D01*
X493854Y386266D01*
X493177Y385875D01*
X492625Y385323D01*
X492455Y385029D01*
X491098D01*
X490985Y385177D01*
X491143Y385727D01*
X491173Y385753D01*
X491823Y386128D01*
X492375Y386681D01*
X492766Y387358D01*
X492969Y388113D01*
Y388894D01*
X492766Y389649D01*
X492375Y390326D01*
X491823Y390879D01*
X491146Y391270D01*
X490487Y391446D01*
X490391Y391472D01*
X490394Y391971D01*
X490498Y391971D01*
X492455D01*
X492625Y391677D01*
X493177Y391125D01*
X493854Y390734D01*
X494609Y390531D01*
X495391D01*
X496146Y390734D01*
X496823Y391125D01*
X497375Y391677D01*
X497766Y392354D01*
X497968Y393109D01*
Y393891D01*
X497766Y394646D01*
X497375Y395323D01*
X496823Y395875D01*
X496146Y396266D01*
X495391Y396468D01*
X494609D01*
X493854Y396266D01*
X493177Y395875D01*
X492625Y395323D01*
X492455Y395029D01*
X491098D01*
X490985Y395177D01*
X491143Y395727D01*
X491173Y395753D01*
X491823Y396128D01*
X492375Y396681D01*
X492766Y397358D01*
X492969Y398113D01*
Y398894D01*
X492766Y399649D01*
X492375Y400326D01*
X491823Y400879D01*
X491146Y401270D01*
X490487Y401446D01*
X490391Y401472D01*
X490394Y401971D01*
X490498Y401971D01*
X492455D01*
X492625Y401677D01*
X493177Y401125D01*
X493854Y400734D01*
X494609Y400531D01*
X495391D01*
X496146Y400734D01*
X496823Y401125D01*
X497375Y401677D01*
X497766Y402354D01*
X497968Y403109D01*
Y403891D01*
X497766Y404646D01*
X497375Y405323D01*
X496823Y405875D01*
X496146Y406266D01*
X495391Y406468D01*
X494609D01*
X493854Y406266D01*
X493177Y405875D01*
X492625Y405323D01*
X492455Y405029D01*
X491098D01*
X490985Y405177D01*
X491143Y405727D01*
X491173Y405753D01*
X491823Y406128D01*
X492375Y406681D01*
X492766Y407358D01*
X492969Y408113D01*
Y408894D01*
X492766Y409649D01*
X492375Y410326D01*
X491823Y410879D01*
X491146Y411270D01*
X490487Y411446D01*
X490391Y411472D01*
X490394Y411971D01*
X490498Y411971D01*
X492455D01*
X492625Y411677D01*
X493177Y411125D01*
X493854Y410734D01*
X494609Y410532D01*
X495391D01*
X496146Y410734D01*
X496823Y411125D01*
X497375Y411677D01*
X497766Y412354D01*
X497968Y413109D01*
Y413891D01*
X497766Y414646D01*
X497375Y415323D01*
X496823Y415875D01*
X496146Y416266D01*
X495391Y416468D01*
X494609D01*
X493854Y416266D01*
X493177Y415875D01*
X492625Y415323D01*
X492455Y415029D01*
X491098D01*
X490985Y415177D01*
X491143Y415727D01*
X491173Y415753D01*
X491823Y416128D01*
X492375Y416681D01*
X492766Y417358D01*
X492969Y418113D01*
Y418894D01*
X492766Y419649D01*
X492375Y420326D01*
X491823Y420879D01*
X491146Y421270D01*
X490487Y421446D01*
X490391Y421472D01*
X490394Y421971D01*
X490498Y421971D01*
X492455D01*
X492625Y421677D01*
X493177Y421125D01*
X493854Y420734D01*
X494609Y420532D01*
X495391D01*
X496146Y420734D01*
X496823Y421125D01*
X497375Y421677D01*
X497766Y422354D01*
X497968Y423109D01*
Y423891D01*
X497766Y424646D01*
X497375Y425323D01*
X496823Y425875D01*
X496146Y426266D01*
X495391Y426469D01*
X494609D01*
X493854Y426266D01*
X493177Y425875D01*
X492625Y425323D01*
X492455Y425029D01*
X491098D01*
X490985Y425177D01*
X491143Y425727D01*
X491173Y425753D01*
X491823Y426128D01*
X492375Y426681D01*
X492766Y427358D01*
X492969Y428113D01*
Y428894D01*
X492766Y429649D01*
X492375Y430326D01*
X491823Y430879D01*
X491146Y431270D01*
X490391Y431472D01*
X489609D01*
X488854Y431270D01*
X488177Y430879D01*
X487625Y430326D01*
X487234Y429649D01*
X487105Y429167D01*
X486596Y428919D01*
X486543Y428921D01*
X486000Y429029D01*
X484000D01*
X483457Y428921D01*
X483403Y428919D01*
X482895Y429167D01*
X482766Y429649D01*
X482375Y430326D01*
X481823Y430879D01*
X481146Y431270D01*
X480391Y431472D01*
X479609D01*
X478854Y431270D01*
X478177Y430879D01*
X477625Y430326D01*
X477234Y429649D01*
X477032Y428894D01*
Y428113D01*
X477234Y427358D01*
X477625Y426681D01*
X478177Y426128D01*
X478827Y425753D01*
X478857Y425727D01*
X479015Y425177D01*
X478902Y425029D01*
X441555D01*
X441235Y425349D01*
X440434Y425681D01*
X439566D01*
X438764Y425349D01*
X438151Y424735D01*
X437819Y423934D01*
Y423482D01*
X414419Y400081D01*
X414087Y399585D01*
X414052Y399409D01*
X413509Y399244D01*
X413279Y399475D01*
X412477Y399807D01*
X411610D01*
X410808Y399475D01*
X410194Y398861D01*
X409862Y398060D01*
Y397976D01*
X409415Y397529D01*
X408376D01*
X408169Y398029D01*
X408530Y398390D01*
X408862Y399192D01*
Y399983D01*
X408875Y400073D01*
X409244Y400445D01*
X409796D01*
X410598Y400777D01*
X411211Y401390D01*
X411543Y402192D01*
Y403060D01*
X411211Y403861D01*
X410598Y404475D01*
X409796Y404807D01*
X408928D01*
X408127Y404475D01*
X407513Y403861D01*
X407181Y403060D01*
Y402269D01*
X407168Y402179D01*
X406985Y401995D01*
X406567D01*
X406181Y402413D01*
Y403060D01*
X405849Y403861D01*
X405235Y404475D01*
X404434Y404807D01*
X403566D01*
X402765Y404475D01*
X402151Y403861D01*
X401819Y403060D01*
Y402269D01*
X401806Y402179D01*
X401623Y401995D01*
X401205D01*
X400819Y402413D01*
Y403060D01*
X400487Y403861D01*
X399873Y404475D01*
X399072Y404807D01*
X398204D01*
X397402Y404475D01*
X396789Y403861D01*
X396457Y403060D01*
Y402269D01*
X396428Y402163D01*
X396163Y401896D01*
X395626D01*
X395319Y402275D01*
Y403060D01*
X394987Y403861D01*
X394373Y404475D01*
X393572Y404807D01*
X392704D01*
X391902Y404475D01*
X391289Y403861D01*
X390957Y403060D01*
Y402269D01*
X390944Y402179D01*
X390575Y401807D01*
X390023D01*
X389221Y401475D01*
X388608Y400861D01*
X388276Y400060D01*
Y399192D01*
X388608Y398390D01*
X388788Y398211D01*
X388580Y397710D01*
X374181D01*
X373596Y397594D01*
X373100Y397263D01*
X368991Y393154D01*
X368529Y393346D01*
Y457866D01*
X379134Y468471D01*
X408906D01*
X409491Y468587D01*
X409987Y468919D01*
X411887Y470819D01*
X412339D01*
X413141Y471151D01*
X413755Y471765D01*
X414087Y472566D01*
Y473434D01*
X413755Y474235D01*
X413141Y474849D01*
X412339Y475181D01*
X411867D01*
X411459Y475269D01*
X411406Y475643D01*
Y476148D01*
X411073Y476950D01*
X410460Y477564D01*
X409658Y477896D01*
X408790D01*
X407989Y477564D01*
X407375Y476950D01*
X407043Y476148D01*
Y475643D01*
X406990Y475269D01*
X406581Y475181D01*
X406110D01*
X406003Y475137D01*
X405650Y475491D01*
X405681Y475566D01*
Y476434D01*
X405349Y477236D01*
X404736Y477849D01*
X403934Y478181D01*
D02*
G37*
G36*
X135934Y477681D02*
X135066D01*
X134265Y477349D01*
X133651Y476735D01*
X133319Y475934D01*
Y475066D01*
X133099Y474738D01*
X132642Y474692D01*
X132318Y475064D01*
X132319Y475066D01*
Y475934D01*
X131987Y476735D01*
X131373Y477349D01*
X130572Y477681D01*
X129704D01*
X128902Y477349D01*
X128289Y476735D01*
X127957Y475934D01*
Y475066D01*
X127752Y474760D01*
X127316Y474727D01*
X126957Y475098D01*
Y475934D01*
X126625Y476735D01*
X126011Y477349D01*
X125209Y477681D01*
X124342D01*
X123540Y477349D01*
X122926Y476735D01*
X122594Y475934D01*
Y475143D01*
X122594Y475066D01*
X122213Y474681D01*
X121976D01*
X121592Y475060D01*
X121595Y475066D01*
Y475934D01*
X121262Y476735D01*
X120649Y477349D01*
X119847Y477681D01*
X118980D01*
X118178Y477349D01*
X117564Y476735D01*
X117477Y476525D01*
X116936D01*
X116849Y476735D01*
X116235Y477349D01*
X115434Y477681D01*
X114566D01*
X113765Y477349D01*
X113151Y476735D01*
X112819Y475934D01*
Y475066D01*
X113151Y474264D01*
X113765Y473651D01*
X114566Y473319D01*
X115434D01*
X116235Y473651D01*
X116849Y474264D01*
X116936Y474475D01*
X117477D01*
X117564Y474264D01*
X118178Y473651D01*
X118980Y473319D01*
X119756D01*
X120141Y472940D01*
X120138Y472934D01*
Y472066D01*
X120263Y471764D01*
X119985Y471348D01*
X105681D01*
X105096Y471232D01*
X104600Y470900D01*
X88919Y455219D01*
X88587Y454723D01*
X88471Y454138D01*
Y243000D01*
X88587Y242415D01*
X88919Y241919D01*
X129419Y201419D01*
X129915Y201087D01*
X130500Y200971D01*
X206366D01*
X277419Y129919D01*
X277915Y129587D01*
X278500Y129471D01*
X384210D01*
X399471Y114210D01*
Y102000D01*
X399587Y101415D01*
X399919Y100919D01*
X403574Y97263D01*
X404070Y96931D01*
X404656Y96815D01*
X408239D01*
X408559Y96495D01*
X409361Y96163D01*
X410228D01*
X411030Y96495D01*
X411644Y97109D01*
X411976Y97911D01*
Y98778D01*
X411644Y99580D01*
X411030Y100194D01*
X410228Y100526D01*
X409361D01*
X408559Y100194D01*
X408239Y99874D01*
X405289D01*
X402529Y102634D01*
Y104623D01*
X402592Y104671D01*
X403029Y104808D01*
X405405Y102432D01*
X405901Y102101D01*
X406486Y101984D01*
X408257D01*
X408577Y101665D01*
X409379Y101333D01*
X410246D01*
X411048Y101665D01*
X411661Y102278D01*
X411994Y103080D01*
Y103948D01*
X411661Y104749D01*
X411048Y105363D01*
X410246Y105695D01*
X409379D01*
X408577Y105363D01*
X408257Y105043D01*
X407120D01*
X405529Y106633D01*
Y114672D01*
X405797Y114998D01*
X406311Y115014D01*
X407985Y113340D01*
Y112888D01*
X408318Y112086D01*
X408931Y111472D01*
X409733Y111140D01*
X410600D01*
X411402Y111472D01*
X412016Y112086D01*
X412348Y112888D01*
Y113755D01*
X412016Y114557D01*
X411402Y115171D01*
X410600Y115503D01*
X410148D01*
X409754Y115897D01*
X409961Y116397D01*
X410445D01*
X411246Y116729D01*
X411860Y117342D01*
X412192Y118144D01*
Y119012D01*
X411860Y119813D01*
X411246Y120427D01*
X410445Y120759D01*
X409577D01*
X408775Y120427D01*
X408456Y120107D01*
X407056D01*
X389081Y138081D01*
X388585Y138413D01*
X388000Y138529D01*
X284447D01*
X213395Y209581D01*
X212899Y209913D01*
X212314Y210029D01*
X133619D01*
X99529Y244119D01*
Y244866D01*
X103133Y248471D01*
X110507D01*
X110581Y248421D01*
X111166Y248305D01*
X141224D01*
X141810Y248421D01*
X142306Y248753D01*
X143887Y250334D01*
X144339D01*
X145141Y250666D01*
X145755Y251280D01*
X146087Y252081D01*
Y252949D01*
X145755Y253751D01*
X145141Y254364D01*
X144339Y254696D01*
X143787D01*
X143418Y255068D01*
X143405Y255158D01*
Y255534D01*
X152509Y264637D01*
X152971Y264445D01*
Y245634D01*
X141018Y233681D01*
X140566D01*
X139764Y233349D01*
X139151Y232735D01*
X138819Y231934D01*
Y231143D01*
X138819Y231066D01*
X138471Y230715D01*
X138011Y230699D01*
X137868Y230858D01*
X137681Y231084D01*
Y231934D01*
X137349Y232735D01*
X136735Y233349D01*
X135934Y233681D01*
X135066D01*
X134265Y233349D01*
X133651Y232735D01*
X133319Y231934D01*
Y231133D01*
X133160Y231012D01*
X133083Y231031D01*
X132681Y231431D01*
Y231934D01*
X132349Y232735D01*
X131736Y233349D01*
X130934Y233681D01*
X130066D01*
X129264Y233349D01*
X128651Y232735D01*
X128319Y231934D01*
Y231143D01*
X128290Y231037D01*
X128025Y230770D01*
X127488D01*
X127181Y231149D01*
Y231934D01*
X126849Y232735D01*
X126235Y233349D01*
X125434Y233681D01*
X124566D01*
X123765Y233349D01*
X123151Y232735D01*
X122819Y231934D01*
Y231431D01*
X122417Y231031D01*
X122340Y231012D01*
X122181Y231133D01*
Y231934D01*
X121849Y232735D01*
X121236Y233349D01*
X120434Y233681D01*
X119566D01*
X118764Y233349D01*
X118151Y232735D01*
X117819Y231934D01*
Y231066D01*
X118151Y230264D01*
X118764Y229651D01*
X119566Y229319D01*
X119880D01*
X120138Y228934D01*
Y228066D01*
X120470Y227264D01*
X120823Y226911D01*
Y225819D01*
X120940Y225234D01*
X121271Y224738D01*
X134676Y211333D01*
X135172Y211001D01*
X135757Y210885D01*
X153571D01*
X154156Y211001D01*
X154653Y211333D01*
X169581Y226262D01*
X169913Y226758D01*
X170029Y227343D01*
Y266179D01*
X170529Y266386D01*
X170946Y265970D01*
X171747Y265638D01*
X172615D01*
X173417Y265970D01*
X174030Y266583D01*
X174362Y267385D01*
Y268253D01*
X174030Y269054D01*
X173417Y269668D01*
X172615Y270000D01*
X171747D01*
X170946Y269668D01*
X170529Y269252D01*
X170029Y269459D01*
Y271541D01*
X170529Y271748D01*
X170946Y271332D01*
X171747Y271000D01*
X172615D01*
X173417Y271332D01*
X173555Y271471D01*
X211502D01*
X211606Y271471D01*
X211609Y270972D01*
X211513Y270946D01*
X210854Y270770D01*
X210177Y270379D01*
X209625Y269826D01*
X209234Y269149D01*
X209032Y268394D01*
Y267613D01*
X209234Y266858D01*
X209625Y266181D01*
X210177Y265628D01*
X210854Y265237D01*
X211609Y265035D01*
X212391D01*
X213146Y265237D01*
X213823Y265628D01*
X214375Y266181D01*
X214766Y266858D01*
X214968Y267613D01*
Y268394D01*
X214766Y269149D01*
X214375Y269826D01*
X213823Y270379D01*
X213146Y270770D01*
X212391Y270972D01*
X212108D01*
X212004Y270972D01*
X212000Y271471D01*
X212099Y271490D01*
X212585Y271587D01*
X213081Y271919D01*
X213568Y272406D01*
X214126Y272256D01*
X214234Y271854D01*
X214625Y271177D01*
X215177Y270625D01*
X215854Y270234D01*
X216609Y270031D01*
X217391D01*
X218146Y270234D01*
X218823Y270625D01*
X219375Y271177D01*
X219766Y271854D01*
X219874Y272256D01*
X220432Y272406D01*
X220919Y271919D01*
X221415Y271587D01*
X221901Y271490D01*
X222000Y271471D01*
X221996Y270972D01*
X221892Y270972D01*
X221609D01*
X220854Y270770D01*
X220177Y270379D01*
X219625Y269826D01*
X219234Y269149D01*
X219032Y268394D01*
Y267613D01*
X219234Y266858D01*
X219625Y266181D01*
X220177Y265628D01*
X220854Y265237D01*
X221609Y265035D01*
X222391D01*
X223146Y265237D01*
X223823Y265628D01*
X224375Y266181D01*
X224766Y266858D01*
X224969Y267613D01*
Y268394D01*
X224766Y269149D01*
X224375Y269826D01*
X223823Y270379D01*
X223146Y270770D01*
X222487Y270946D01*
X222391Y270972D01*
X222394Y271471D01*
X222498Y271471D01*
X224455D01*
X224625Y271177D01*
X225177Y270625D01*
X225854Y270234D01*
X226609Y270031D01*
X227391D01*
X228146Y270234D01*
X228823Y270625D01*
X229375Y271177D01*
X229545Y271471D01*
X230895D01*
X231004Y271328D01*
X230860Y270791D01*
X230818Y270749D01*
X230177Y270379D01*
X229625Y269826D01*
X229234Y269149D01*
X229031Y268394D01*
Y267613D01*
X229234Y266858D01*
X229625Y266181D01*
X230177Y265628D01*
X230854Y265237D01*
X231609Y265035D01*
X232391D01*
X233146Y265237D01*
X233823Y265628D01*
X234375Y266181D01*
X234766Y266858D01*
X234873Y267257D01*
X235431Y267406D01*
X239919Y262919D01*
X240415Y262587D01*
X241000Y262471D01*
X268642D01*
X268776Y261971D01*
X268633Y261888D01*
X268080Y261335D01*
X267689Y260658D01*
X267487Y259903D01*
Y259122D01*
X267689Y258367D01*
X268080Y257690D01*
X268633Y257137D01*
X269310Y256746D01*
X270065Y256544D01*
X270540D01*
X280615Y246469D01*
Y226793D01*
X280496Y226673D01*
X271211D01*
X241942Y255942D01*
X241280Y256384D01*
X240500Y256539D01*
X192579D01*
X185836Y263282D01*
Y263758D01*
X185633Y264513D01*
X185242Y265190D01*
X184690Y265742D01*
X184013Y266133D01*
X183258Y266336D01*
X182476D01*
X181721Y266133D01*
X181044Y265742D01*
X180492Y265190D01*
X180101Y264513D01*
X179899Y263758D01*
Y262976D01*
X180101Y262221D01*
X180492Y261544D01*
X181044Y260992D01*
X181721Y260601D01*
X182476Y260399D01*
X182952D01*
X190292Y253058D01*
X190292Y253058D01*
X190954Y252616D01*
X191734Y252461D01*
X239655D01*
X268924Y223192D01*
X269585Y222750D01*
X270366Y222595D01*
X270366Y222595D01*
X280496D01*
X280832Y222259D01*
X281509Y221868D01*
X282264Y221666D01*
X283045D01*
X283800Y221868D01*
X284477Y222259D01*
X285030Y222812D01*
X285421Y223488D01*
X285623Y224243D01*
Y225025D01*
X285421Y225780D01*
X285030Y226457D01*
X284694Y226793D01*
Y247313D01*
X284694Y247313D01*
X284539Y248094D01*
X284097Y248755D01*
X273424Y259428D01*
Y259903D01*
X273222Y260658D01*
X272831Y261335D01*
X272278Y261888D01*
X272135Y261971D01*
X272269Y262471D01*
X306179D01*
X306386Y261971D01*
X306151Y261736D01*
X305819Y260934D01*
Y260066D01*
X305847Y259998D01*
X305805Y259935D01*
X305689Y259349D01*
Y231299D01*
X305663Y231273D01*
X302244D01*
X301659Y231157D01*
X301163Y230825D01*
X267919Y197581D01*
X267587Y197085D01*
X267471Y196500D01*
Y184112D01*
X267587Y183526D01*
X267919Y183030D01*
X274740Y176209D01*
Y175542D01*
X275072Y174741D01*
X275685Y174127D01*
X276487Y173795D01*
X277355D01*
X278156Y174127D01*
X278770Y174741D01*
X279102Y175542D01*
Y176410D01*
X278770Y177212D01*
X278156Y177825D01*
X277355Y178157D01*
X277117D01*
X276474Y178801D01*
X276686Y179295D01*
X277355D01*
X278156Y179627D01*
X278770Y180241D01*
X279102Y181043D01*
Y181910D01*
X278770Y182712D01*
X278156Y183325D01*
X277355Y183658D01*
X276903D01*
X275905Y184655D01*
X276189Y185079D01*
X276833Y184812D01*
X277701D01*
X278502Y185144D01*
X279116Y185757D01*
X279448Y186559D01*
Y187427D01*
X279116Y188228D01*
X278502Y188842D01*
X277701Y189174D01*
X277249D01*
X276523Y189900D01*
X276806Y190324D01*
X277196Y190162D01*
X278064D01*
X278865Y190494D01*
X279051Y190681D01*
X284210D01*
X284795Y190797D01*
X285291Y191128D01*
X318081Y223919D01*
X318413Y224415D01*
X318529Y225000D01*
Y229606D01*
X319029Y229940D01*
X319361Y229802D01*
X319914D01*
X320282Y229430D01*
X320295Y229340D01*
Y228550D01*
X320627Y227748D01*
X321241Y227134D01*
X322042Y226802D01*
X322910D01*
X323712Y227134D01*
X324325Y227748D01*
X324658Y228550D01*
Y229340D01*
X324670Y229430D01*
X324909Y229671D01*
X325373D01*
X325736Y229275D01*
Y228550D01*
X326068Y227748D01*
X326682Y227134D01*
X327484Y226802D01*
X328351D01*
X329153Y227134D01*
X329766Y227748D01*
X330098Y228550D01*
Y229417D01*
X330336Y229657D01*
X330786D01*
X331157Y229255D01*
Y228550D01*
X331489Y227748D01*
X332103Y227134D01*
X332905Y226802D01*
X333772D01*
X334574Y227134D01*
X335188Y227748D01*
X335520Y228550D01*
Y229417D01*
X335716Y229615D01*
X336131D01*
X336520Y229196D01*
Y228550D01*
X336852Y227748D01*
X337465Y227134D01*
X338267Y226802D01*
X339135D01*
X339936Y227134D01*
X340550Y227748D01*
X340882Y228550D01*
Y229417D01*
X341264Y229802D01*
X341678D01*
X342480Y230134D01*
X343093Y230748D01*
X343425Y231550D01*
Y232417D01*
X343093Y233219D01*
X342480Y233832D01*
X341678Y234165D01*
X340810D01*
X340009Y233832D01*
X339395Y233219D01*
X339063Y232417D01*
Y231550D01*
X338867Y231352D01*
X338452D01*
X338063Y231771D01*
Y232417D01*
X337731Y233219D01*
X337117Y233832D01*
X336316Y234165D01*
X335448D01*
X334646Y233832D01*
X334033Y233219D01*
X333701Y232417D01*
Y231550D01*
X333505Y231352D01*
X333089D01*
X332701Y231771D01*
Y232417D01*
X332369Y233219D01*
X331755Y233832D01*
X330954Y234165D01*
X330086D01*
X329284Y233832D01*
X328671Y233219D01*
X328339Y232417D01*
Y231550D01*
X328143Y231352D01*
X327725D01*
X327339Y231771D01*
Y232417D01*
X327007Y233219D01*
X326393Y233832D01*
X325591Y234165D01*
X324724D01*
X323922Y233832D01*
X323308Y233219D01*
X322976Y232417D01*
Y231626D01*
X322964Y231537D01*
X322780Y231352D01*
X322363D01*
X321976Y231771D01*
Y232417D01*
X321644Y233219D01*
X321031Y233832D01*
X320229Y234165D01*
X319361D01*
X319029Y234027D01*
X318529Y234361D01*
Y238396D01*
X320652Y240519D01*
X320984Y241015D01*
X321100Y241600D01*
Y250667D01*
X321600Y251001D01*
X322042Y250818D01*
X322910D01*
X323712Y251150D01*
X324325Y251763D01*
X324658Y252565D01*
Y253356D01*
X324658Y253433D01*
X324946Y253724D01*
X325353Y253729D01*
X325377Y253710D01*
X325736Y253328D01*
Y252565D01*
X326068Y251763D01*
X326682Y251150D01*
X327484Y250818D01*
X328351D01*
X329153Y251150D01*
X329766Y251763D01*
X330098Y252565D01*
Y253433D01*
X330354Y253815D01*
X330377Y253818D01*
X330729D01*
X330834Y253861D01*
X330835Y253861D01*
X331189Y253508D01*
X331157Y253433D01*
Y252565D01*
X331489Y251763D01*
X332103Y251150D01*
X332905Y250818D01*
X333772D01*
X334574Y251150D01*
X335188Y251763D01*
X335520Y252565D01*
Y253433D01*
X335739Y253761D01*
X336197Y253807D01*
X336521Y253435D01*
X336520Y253433D01*
Y252565D01*
X336852Y251763D01*
X337465Y251150D01*
X338267Y250818D01*
X339135D01*
X339936Y251150D01*
X340550Y251763D01*
X340882Y252565D01*
Y253356D01*
X340882Y253433D01*
X341264Y253818D01*
X341591D01*
X342393Y254150D01*
X343006Y254763D01*
X343339Y255565D01*
Y256433D01*
X343006Y257234D01*
X342393Y257848D01*
X341591Y258180D01*
X340724D01*
X339922Y257848D01*
X339308Y257234D01*
X338976Y256433D01*
Y255642D01*
X338976Y255565D01*
X338629Y255214D01*
X338169Y255197D01*
X338025Y255357D01*
X337839Y255583D01*
Y256433D01*
X337507Y257234D01*
X336893Y257848D01*
X336091Y258180D01*
X335224D01*
X334422Y257848D01*
X333808Y257234D01*
X333476Y256433D01*
Y255565D01*
X333257Y255237D01*
X332799Y255190D01*
X332475Y255563D01*
X332476Y255565D01*
Y256433D01*
X332144Y257234D01*
X331531Y257848D01*
X330729Y258180D01*
X329861D01*
X329060Y257848D01*
X328446Y257234D01*
X328114Y256433D01*
Y255565D01*
X327910Y255259D01*
X327474Y255226D01*
X327114Y255596D01*
Y256433D01*
X326782Y257234D01*
X326169Y257848D01*
X325367Y258180D01*
X324622D01*
X324404Y258540D01*
X324377Y258642D01*
X364081Y298346D01*
X364413Y298843D01*
X364529Y299428D01*
Y337433D01*
X364413Y338018D01*
X364081Y338514D01*
X360340Y342256D01*
Y342708D01*
X360008Y343510D01*
X359848Y343669D01*
Y372181D01*
X359732Y372766D01*
X359400Y373263D01*
X346081Y386581D01*
X345585Y386913D01*
X345000Y387029D01*
X330633D01*
X321764Y395899D01*
X321792Y396023D01*
X322373Y396324D01*
X322385Y396319D01*
X323253D01*
X324054Y396651D01*
X324668Y397265D01*
X325000Y398066D01*
Y398857D01*
X325000Y398934D01*
X325289Y399225D01*
X325695Y399230D01*
X325719Y399212D01*
X326079Y398830D01*
Y398066D01*
X326411Y397265D01*
X327024Y396651D01*
X327826Y396319D01*
X328694D01*
X329495Y396651D01*
X330109Y397265D01*
X330441Y398066D01*
Y398934D01*
X330697Y399317D01*
X330720Y399319D01*
X331072D01*
X331177Y399362D01*
X331178Y399363D01*
X331531Y399009D01*
X331500Y398934D01*
Y398066D01*
X331832Y397265D01*
X332446Y396651D01*
X333247Y396319D01*
X334115D01*
X334917Y396651D01*
X335530Y397265D01*
X335862Y398066D01*
Y398934D01*
X336082Y399262D01*
X336539Y399308D01*
X336863Y398936D01*
X336862Y398934D01*
Y398066D01*
X337194Y397265D01*
X337808Y396651D01*
X338610Y396319D01*
X339477D01*
X340279Y396651D01*
X340892Y397265D01*
X341224Y398066D01*
Y398857D01*
X341224Y398934D01*
X341606Y399319D01*
X341934D01*
X342736Y399651D01*
X343349Y400265D01*
X343681Y401066D01*
Y401934D01*
X343349Y402736D01*
X342736Y403349D01*
X341934Y403681D01*
X341066D01*
X340265Y403349D01*
X339651Y402736D01*
X339319Y401934D01*
Y401143D01*
X339319Y401066D01*
X338971Y400715D01*
X338511Y400699D01*
X338368Y400858D01*
X338181Y401084D01*
Y401934D01*
X337849Y402736D01*
X337235Y403349D01*
X336434Y403681D01*
X335566D01*
X334765Y403349D01*
X334151Y402736D01*
X333819Y401934D01*
Y401066D01*
X333599Y400738D01*
X333142Y400692D01*
X332818Y401064D01*
X332819Y401066D01*
Y401934D01*
X332487Y402736D01*
X331873Y403349D01*
X331072Y403681D01*
X330204D01*
X329402Y403349D01*
X328789Y402736D01*
X328457Y401934D01*
Y401066D01*
X328252Y400760D01*
X327816Y400728D01*
X327457Y401098D01*
Y401934D01*
X327125Y402736D01*
X326511Y403349D01*
X325710Y403681D01*
X324964D01*
X324746Y404041D01*
X324719Y404143D01*
X330081Y409505D01*
X330413Y410001D01*
X330529Y410587D01*
Y460500D01*
X330413Y461085D01*
X330081Y461581D01*
X321127Y470536D01*
Y473620D01*
X321447Y473940D01*
X321779Y474741D01*
Y475609D01*
X321447Y476411D01*
X320833Y477024D01*
X320031Y477356D01*
X319164D01*
X318362Y477024D01*
X317749Y476411D01*
X317533Y475890D01*
X316992D01*
X316849Y476235D01*
X316235Y476849D01*
X315434Y477181D01*
X314566D01*
X313765Y476849D01*
X313151Y476235D01*
X312819Y475434D01*
Y474566D01*
X313151Y473765D01*
X313471Y473445D01*
Y469500D01*
X313587Y468915D01*
X313919Y468419D01*
X324471Y457866D01*
Y413133D01*
X315018Y403681D01*
X314566D01*
X313765Y403349D01*
X313151Y402736D01*
X312819Y401934D01*
Y401066D01*
X313151Y400265D01*
X313471Y399945D01*
Y395500D01*
X313587Y394915D01*
X313919Y394419D01*
X327169Y381169D01*
X327665Y380837D01*
X328250Y380721D01*
X343116D01*
X352471Y371367D01*
Y358084D01*
X352356Y357507D01*
Y346510D01*
X352036Y346191D01*
X351704Y345389D01*
Y344521D01*
X352036Y343720D01*
X352356Y343400D01*
Y341615D01*
X352472Y341029D01*
X352767Y340588D01*
X352379Y340269D01*
X297029Y395619D01*
Y408319D01*
X296913Y408904D01*
X296581Y409400D01*
X283181Y422801D01*
Y423253D01*
X282849Y424054D01*
X282236Y424668D01*
X281434Y425000D01*
X280566D01*
X279765Y424668D01*
X279151Y424054D01*
X278819Y423253D01*
Y422385D01*
X279151Y421583D01*
X279765Y420970D01*
X280027Y420861D01*
Y420320D01*
X279765Y420211D01*
X279151Y419598D01*
X278819Y418796D01*
Y417928D01*
X279151Y417127D01*
X279765Y416513D01*
X280566Y416181D01*
X281434D01*
X282236Y416513D01*
X282849Y417127D01*
X283134Y417815D01*
X283643Y418013D01*
X293971Y407685D01*
Y403377D01*
X293908Y403329D01*
X293471Y403192D01*
X288212Y408451D01*
X288212Y408451D01*
X283227Y413436D01*
X283162Y413479D01*
X282849Y414235D01*
X282236Y414849D01*
X281434Y415181D01*
X280566D01*
X279765Y414849D01*
X279151Y414235D01*
X278819Y413434D01*
Y412566D01*
X279151Y411764D01*
X279765Y411151D01*
X280514Y410841D01*
X280541Y410591D01*
X280514Y410340D01*
X279765Y410030D01*
X279151Y409417D01*
X278819Y408615D01*
Y407747D01*
X279151Y406946D01*
X279765Y406332D01*
X280566Y406000D01*
X281434D01*
X282236Y406332D01*
X282849Y406946D01*
X283181Y407747D01*
Y408449D01*
X283652Y408685D01*
X286049Y406288D01*
X286049Y406288D01*
X290971Y401367D01*
Y399346D01*
X290509Y399154D01*
X285763Y403900D01*
X285266Y404232D01*
X284681Y404348D01*
X282555D01*
X282236Y404668D01*
X281434Y405000D01*
X280566D01*
X279765Y404668D01*
X279151Y404054D01*
X278819Y403253D01*
Y402385D01*
X279151Y401583D01*
X279765Y400970D01*
X280514Y400660D01*
X280541Y400410D01*
X280514Y400160D01*
X279765Y399849D01*
X279151Y399236D01*
X278819Y398434D01*
Y397566D01*
X279151Y396764D01*
X279765Y396151D01*
X280566Y395819D01*
X281434D01*
X282236Y396151D01*
X282849Y396764D01*
X283181Y397566D01*
Y398434D01*
X282849Y399236D01*
X282236Y399849D01*
X281486Y400160D01*
X281459Y400410D01*
X281486Y400660D01*
X282236Y400970D01*
X282555Y401290D01*
X284048D01*
X288471Y396866D01*
Y394828D01*
X288503Y394667D01*
X288092Y394167D01*
X282555D01*
X282236Y394487D01*
X281434Y394819D01*
X280566D01*
X279765Y394487D01*
X279151Y393873D01*
X278819Y393072D01*
Y392204D01*
X279151Y391402D01*
X279765Y390789D01*
X280027Y390680D01*
Y390139D01*
X279765Y390030D01*
X279151Y389417D01*
X278819Y388615D01*
Y387747D01*
X279151Y386946D01*
X279765Y386332D01*
X280566Y386000D01*
X281434D01*
X282236Y386332D01*
X282849Y386946D01*
X283181Y387747D01*
Y388615D01*
X282849Y389417D01*
X282236Y390030D01*
X281973Y390139D01*
Y390680D01*
X282236Y390789D01*
X282555Y391108D01*
X288729D01*
X347971Y331867D01*
Y325529D01*
X344133D01*
X343542Y326121D01*
Y329175D01*
X343637Y329271D01*
X343969Y330072D01*
Y330940D01*
X343637Y331741D01*
X343023Y332355D01*
X342221Y332687D01*
X341354D01*
X340552Y332355D01*
X339939Y331741D01*
X339607Y330940D01*
Y330149D01*
X339607Y330072D01*
X339259Y329721D01*
X338799Y329705D01*
X338655Y329864D01*
X338469Y330090D01*
Y330940D01*
X338137Y331741D01*
X337523Y332355D01*
X336721Y332687D01*
X335854D01*
X335052Y332355D01*
X334439Y331741D01*
X334107Y330940D01*
Y330072D01*
X333887Y329744D01*
X333430Y329698D01*
X333106Y330070D01*
X333107Y330072D01*
Y330940D01*
X332774Y331741D01*
X332161Y332355D01*
X331359Y332687D01*
X330492D01*
X329690Y332355D01*
X329076Y331741D01*
X328744Y330940D01*
Y330072D01*
X328540Y329766D01*
X328104Y329733D01*
X327744Y330104D01*
Y330940D01*
X327412Y331741D01*
X326799Y332355D01*
X325997Y332687D01*
X325129D01*
X324328Y332355D01*
X323714Y331741D01*
X323382Y330940D01*
Y330149D01*
X323382Y330072D01*
X323001Y329687D01*
X322673D01*
X321871Y329355D01*
X321257Y328742D01*
X320925Y327940D01*
Y327087D01*
X320884Y327047D01*
X320491Y326814D01*
X311529Y335776D01*
Y353819D01*
X311413Y354404D01*
X311081Y354900D01*
X283181Y382801D01*
Y383253D01*
X282849Y384054D01*
X282236Y384668D01*
X281434Y385000D01*
X280566D01*
X279765Y384668D01*
X279151Y384054D01*
X278819Y383253D01*
Y382385D01*
X279151Y381583D01*
X279765Y380970D01*
X280514Y380660D01*
X280541Y380409D01*
X280514Y380159D01*
X279765Y379849D01*
X279151Y379236D01*
X278819Y378434D01*
Y377566D01*
X279151Y376764D01*
X279765Y376151D01*
X280566Y375819D01*
X281434D01*
X282236Y376151D01*
X282849Y376764D01*
X283181Y377566D01*
Y377768D01*
X283681Y377975D01*
X286989Y374667D01*
X286974Y374555D01*
X286417Y374156D01*
X286362Y374167D01*
X282555D01*
X282236Y374487D01*
X281434Y374819D01*
X280566D01*
X279765Y374487D01*
X279151Y373873D01*
X278819Y373072D01*
Y372204D01*
X279151Y371402D01*
X279765Y370789D01*
X280027Y370680D01*
Y370139D01*
X279765Y370030D01*
X279151Y369417D01*
X278819Y368615D01*
Y367747D01*
X279151Y366946D01*
X279765Y366332D01*
X280566Y366000D01*
X281434D01*
X282236Y366332D01*
X282849Y366946D01*
X283181Y367747D01*
Y368615D01*
X282849Y369417D01*
X282236Y370030D01*
X281973Y370139D01*
Y370680D01*
X282236Y370789D01*
X282555Y371108D01*
X285729D01*
X306471Y350366D01*
Y349346D01*
X306009Y349154D01*
X291263Y363900D01*
X290766Y364232D01*
X290181Y364348D01*
X282555D01*
X282236Y364668D01*
X281434Y365000D01*
X280566D01*
X279765Y364668D01*
X279151Y364054D01*
X278819Y363253D01*
Y362385D01*
X279151Y361583D01*
X279765Y360970D01*
X280233Y360776D01*
Y360235D01*
X279739Y360030D01*
X279125Y359417D01*
X278793Y358615D01*
Y357747D01*
X279125Y356946D01*
X279739Y356332D01*
X280540Y356000D01*
X281408D01*
X282210Y356332D01*
X282823Y356946D01*
X283155Y357747D01*
Y358615D01*
X282823Y359417D01*
X282210Y360030D01*
X281742Y360224D01*
Y360765D01*
X282236Y360970D01*
X282555Y361290D01*
X289548D01*
X296346Y354491D01*
X296154Y354029D01*
X282834D01*
X282823Y354054D01*
X282210Y354668D01*
X281408Y355000D01*
X280540D01*
X279739Y354668D01*
X279125Y354054D01*
X278793Y353253D01*
Y352385D01*
X279125Y351583D01*
X279739Y350970D01*
X280501Y350654D01*
X280526Y350468D01*
X280501Y350154D01*
X279765Y349849D01*
X279151Y349236D01*
X278819Y348434D01*
Y347566D01*
X279151Y346764D01*
X279765Y346151D01*
X280566Y345819D01*
X281434D01*
X282236Y346151D01*
X282849Y346764D01*
X283181Y347566D01*
Y348434D01*
X282849Y349236D01*
X282236Y349849D01*
X281473Y350165D01*
X281448Y350350D01*
X281473Y350665D01*
X282210Y350970D01*
X282215Y350976D01*
X282241Y350971D01*
X296281D01*
X301471Y345781D01*
Y338877D01*
X301408Y338829D01*
X300971Y338692D01*
X296081Y343581D01*
X295585Y343913D01*
X295000Y344029D01*
X282693D01*
X282236Y344487D01*
X281434Y344819D01*
X280566D01*
X279765Y344487D01*
X279151Y343873D01*
X278819Y343072D01*
Y342204D01*
X279151Y341402D01*
X279765Y340789D01*
X280245Y340589D01*
Y340048D01*
X279765Y339849D01*
X279151Y339235D01*
X278819Y338434D01*
Y337566D01*
X279151Y336765D01*
X279765Y336151D01*
X280566Y335819D01*
X281434D01*
X282236Y336151D01*
X282849Y336765D01*
X283181Y337566D01*
Y338434D01*
X282849Y339235D01*
X282236Y339849D01*
X281754Y340048D01*
Y340589D01*
X282236Y340789D01*
X282417Y340971D01*
X294367D01*
X298471Y336866D01*
Y334256D01*
X298362Y334167D01*
X282555D01*
X282236Y334487D01*
X281434Y334819D01*
X280566D01*
X279765Y334487D01*
X279151Y333873D01*
X278819Y333072D01*
Y332204D01*
X279151Y331402D01*
X279765Y330789D01*
X280245Y330590D01*
Y330048D01*
X279765Y329849D01*
X279151Y329236D01*
X278819Y328434D01*
Y327566D01*
X279151Y326764D01*
X279765Y326151D01*
X280566Y325819D01*
X281434D01*
X282236Y326151D01*
X282849Y326764D01*
X283181Y327566D01*
Y328434D01*
X282849Y329236D01*
X282236Y329849D01*
X281754Y330048D01*
Y330590D01*
X282236Y330789D01*
X282555Y331108D01*
X297729D01*
X304208Y324629D01*
X304017Y324167D01*
X282555D01*
X282236Y324487D01*
X281434Y324819D01*
X280566D01*
X279765Y324487D01*
X279151Y323873D01*
X278819Y323072D01*
Y322204D01*
X279151Y321402D01*
X279765Y320789D01*
X280246Y320589D01*
Y320048D01*
X279765Y319849D01*
X279151Y319235D01*
X278819Y318434D01*
Y317566D01*
X279151Y316764D01*
X279765Y316151D01*
X280566Y315819D01*
X281434D01*
X282236Y316151D01*
X282849Y316764D01*
X283181Y317566D01*
Y318434D01*
X282849Y319235D01*
X282236Y319849D01*
X281754Y320048D01*
Y320589D01*
X282236Y320789D01*
X282555Y321108D01*
X304057D01*
X310536Y314629D01*
X310345Y314167D01*
X282555D01*
X282236Y314487D01*
X281434Y314819D01*
X280566D01*
X279765Y314487D01*
X279151Y313873D01*
X278819Y313072D01*
Y312204D01*
X279151Y311402D01*
X279765Y310789D01*
X280027Y310680D01*
Y310139D01*
X279765Y310030D01*
X279151Y309417D01*
X278819Y308615D01*
Y307747D01*
X279151Y306946D01*
X279765Y306332D01*
X280566Y306000D01*
X281434D01*
X282236Y306332D01*
X282849Y306946D01*
X283181Y307747D01*
Y308615D01*
X282849Y309417D01*
X282236Y310030D01*
X281973Y310139D01*
Y310680D01*
X282236Y310789D01*
X282555Y311108D01*
X310729D01*
X312919Y308919D01*
X313415Y308587D01*
X314000Y308471D01*
X318597D01*
X318804Y307971D01*
X318352Y307518D01*
X318020Y306717D01*
Y305849D01*
X318352Y305047D01*
X318966Y304434D01*
X319767Y304102D01*
X320463D01*
X320697Y304012D01*
X320925Y303681D01*
Y303057D01*
X321257Y302255D01*
X321871Y301642D01*
X322673Y301309D01*
X323540D01*
X324342Y301642D01*
X324956Y302255D01*
X325288Y303057D01*
Y303848D01*
X325288Y303924D01*
X325577Y304216D01*
X325983Y304221D01*
X326007Y304202D01*
X326366Y303820D01*
Y303057D01*
X326698Y302255D01*
X327312Y301642D01*
X328114Y301309D01*
X328981D01*
X329783Y301642D01*
X330397Y302255D01*
X330729Y303057D01*
Y303924D01*
X330984Y304307D01*
X331007Y304310D01*
X331359D01*
X331465Y304353D01*
X331466Y304353D01*
X331819Y304000D01*
X331788Y303924D01*
Y303057D01*
X332120Y302255D01*
X332733Y301642D01*
X333535Y301309D01*
X334403D01*
X335204Y301642D01*
X335818Y302255D01*
X336150Y303057D01*
Y303924D01*
X336369Y304253D01*
X336827Y304299D01*
X337151Y303927D01*
X337150Y303924D01*
Y303057D01*
X337482Y302255D01*
X338095Y301642D01*
X338897Y301309D01*
X339765D01*
X340566Y301642D01*
X341180Y302255D01*
X341512Y303057D01*
Y303848D01*
X341512Y303924D01*
X341894Y304310D01*
X342221D01*
X343023Y304642D01*
X343637Y305255D01*
X343969Y306057D01*
Y306925D01*
X343637Y307726D01*
X343317Y308046D01*
Y312712D01*
X343201Y313298D01*
X342869Y313794D01*
X340654Y316009D01*
X340846Y316471D01*
X351500D01*
X352085Y316587D01*
X352581Y316919D01*
X357581Y321919D01*
X357913Y322415D01*
X358029Y323000D01*
Y333985D01*
X357913Y334571D01*
X357618Y335012D01*
X358006Y335331D01*
X359471Y333867D01*
Y305767D01*
X358971Y305459D01*
X358434Y305681D01*
X357566D01*
X356901Y305405D01*
X356466Y305554D01*
X356345Y305637D01*
X356325Y305740D01*
X356349Y305765D01*
X356681Y306566D01*
Y307434D01*
X356349Y308236D01*
X355735Y308849D01*
X354934Y309181D01*
X354066D01*
X353264Y308849D01*
X352651Y308236D01*
X352319Y307434D01*
Y306566D01*
X352651Y305765D01*
X352676Y305740D01*
X352655Y305637D01*
X352534Y305554D01*
X352099Y305405D01*
X351434Y305681D01*
X350566D01*
X350312Y305576D01*
X349929Y305959D01*
X350181Y306566D01*
Y307434D01*
X349849Y308236D01*
X349236Y308849D01*
X348434Y309181D01*
X347566D01*
X346764Y308849D01*
X346151Y308236D01*
X345819Y307434D01*
Y306566D01*
X346151Y305765D01*
X346471Y305445D01*
Y304267D01*
X345971Y303959D01*
X345434Y304181D01*
X344566D01*
X343764Y303849D01*
X343151Y303236D01*
X342819Y302434D01*
Y301566D01*
X343151Y300764D01*
X343764Y300151D01*
X344566Y299819D01*
X345434D01*
X345485Y299840D01*
X345768Y299416D01*
X338200Y291848D01*
X283334D01*
X283056Y292264D01*
X283181Y292566D01*
Y293434D01*
X282849Y294235D01*
X282236Y294849D01*
X281434Y295181D01*
X280566D01*
X279765Y294849D01*
X279151Y294235D01*
X278819Y293434D01*
Y292566D01*
X278944Y292264D01*
X278666Y291848D01*
X245315D01*
X242592Y294571D01*
X242741Y295129D01*
X243146Y295237D01*
X243823Y295628D01*
X244375Y296181D01*
X244766Y296858D01*
X244969Y297613D01*
Y298394D01*
X244766Y299149D01*
X244375Y299826D01*
X243823Y300379D01*
X243146Y300770D01*
X242391Y300972D01*
X241609D01*
X240854Y300770D01*
X240177Y300379D01*
X239625Y299826D01*
X239234Y299149D01*
X239125Y298745D01*
X238568Y298595D01*
X237595Y299568D01*
X237744Y300126D01*
X238146Y300234D01*
X238823Y300625D01*
X239375Y301177D01*
X239766Y301854D01*
X239968Y302609D01*
Y303391D01*
X239766Y304146D01*
X239375Y304823D01*
X238823Y305375D01*
X238146Y305766D01*
X237391Y305968D01*
X236609D01*
X235854Y305766D01*
X235177Y305375D01*
X234625Y304823D01*
X234234Y304146D01*
X234126Y303744D01*
X233568Y303594D01*
X233081Y304081D01*
X232585Y304413D01*
X232000Y304529D01*
X229545D01*
X229375Y304823D01*
X228823Y305375D01*
X228146Y305766D01*
X227391Y305968D01*
X226609D01*
X225854Y305766D01*
X225177Y305375D01*
X224625Y304823D01*
X224455Y304529D01*
X223098D01*
X222985Y304677D01*
X223143Y305227D01*
X223173Y305253D01*
X223823Y305628D01*
X224375Y306181D01*
X224766Y306858D01*
X224969Y307613D01*
Y308394D01*
X224766Y309149D01*
X224375Y309826D01*
X223823Y310379D01*
X223146Y310770D01*
X222487Y310946D01*
X222391Y310972D01*
X222394Y311471D01*
X222498Y311471D01*
X224455D01*
X224625Y311177D01*
X225177Y310625D01*
X225854Y310234D01*
X226609Y310032D01*
X227391D01*
X228146Y310234D01*
X228823Y310625D01*
X229375Y311177D01*
X229766Y311854D01*
X229969Y312609D01*
Y313391D01*
X229766Y314146D01*
X229375Y314823D01*
X228823Y315375D01*
X228146Y315766D01*
X227391Y315968D01*
X226609D01*
X225854Y315766D01*
X225177Y315375D01*
X224625Y314823D01*
X224455Y314529D01*
X223098D01*
X222985Y314677D01*
X223143Y315227D01*
X223173Y315253D01*
X223823Y315628D01*
X224375Y316181D01*
X224766Y316858D01*
X224969Y317613D01*
Y318394D01*
X224766Y319149D01*
X224375Y319826D01*
X223823Y320379D01*
X223146Y320770D01*
X222487Y320946D01*
X222391Y320972D01*
X222394Y321471D01*
X222498Y321471D01*
X224455D01*
X224625Y321177D01*
X225177Y320625D01*
X225854Y320234D01*
X226609Y320031D01*
X227391D01*
X228146Y320234D01*
X228823Y320625D01*
X229375Y321177D01*
X229766Y321854D01*
X229969Y322609D01*
Y323391D01*
X229766Y324146D01*
X229375Y324823D01*
X228823Y325375D01*
X228146Y325766D01*
X227391Y325969D01*
X226609D01*
X225854Y325766D01*
X225177Y325375D01*
X224625Y324823D01*
X224455Y324529D01*
X223098D01*
X222985Y324677D01*
X223143Y325227D01*
X223173Y325253D01*
X223823Y325628D01*
X224375Y326181D01*
X224766Y326858D01*
X224969Y327613D01*
Y328394D01*
X224766Y329149D01*
X224375Y329826D01*
X223823Y330379D01*
X223146Y330770D01*
X222487Y330946D01*
X222391Y330972D01*
X222394Y331471D01*
X222498Y331471D01*
X224455D01*
X224625Y331177D01*
X225177Y330625D01*
X225854Y330234D01*
X226609Y330031D01*
X227391D01*
X228146Y330234D01*
X228823Y330625D01*
X229375Y331177D01*
X229766Y331854D01*
X229969Y332609D01*
Y333391D01*
X229766Y334146D01*
X229375Y334823D01*
X228823Y335375D01*
X228146Y335766D01*
X227391Y335968D01*
X226609D01*
X225854Y335766D01*
X225177Y335375D01*
X224625Y334823D01*
X224455Y334529D01*
X223098D01*
X222985Y334677D01*
X223143Y335227D01*
X223173Y335253D01*
X223823Y335628D01*
X224375Y336181D01*
X224766Y336858D01*
X224969Y337613D01*
Y338394D01*
X224766Y339149D01*
X224375Y339826D01*
X223823Y340379D01*
X223146Y340770D01*
X222487Y340946D01*
X222391Y340972D01*
X222394Y341471D01*
X222498Y341471D01*
X224455D01*
X224625Y341177D01*
X225177Y340625D01*
X225854Y340234D01*
X226609Y340032D01*
X227391D01*
X228146Y340234D01*
X228823Y340625D01*
X229375Y341177D01*
X229766Y341854D01*
X229969Y342609D01*
Y343391D01*
X229766Y344146D01*
X229375Y344823D01*
X228823Y345375D01*
X228146Y345766D01*
X227391Y345969D01*
X226609D01*
X225854Y345766D01*
X225177Y345375D01*
X224625Y344823D01*
X224455Y344529D01*
X223098D01*
X222985Y344677D01*
X223143Y345227D01*
X223173Y345253D01*
X223823Y345628D01*
X224375Y346181D01*
X224766Y346858D01*
X224969Y347613D01*
Y348394D01*
X224766Y349149D01*
X224375Y349826D01*
X223823Y350379D01*
X223146Y350770D01*
X222487Y350946D01*
X222391Y350972D01*
X222394Y351471D01*
X222498Y351471D01*
X224455D01*
X224625Y351177D01*
X225177Y350625D01*
X225854Y350234D01*
X226609Y350031D01*
X227391D01*
X228146Y350234D01*
X228823Y350625D01*
X229375Y351177D01*
X229766Y351854D01*
X229969Y352609D01*
Y353391D01*
X229766Y354146D01*
X229375Y354823D01*
X228823Y355375D01*
X228146Y355766D01*
X227391Y355968D01*
X226609D01*
X225854Y355766D01*
X225177Y355375D01*
X224625Y354823D01*
X224455Y354529D01*
X223098D01*
X222985Y354677D01*
X223143Y355227D01*
X223173Y355253D01*
X223823Y355628D01*
X224375Y356181D01*
X224766Y356858D01*
X224969Y357613D01*
Y358394D01*
X224766Y359149D01*
X224375Y359826D01*
X223823Y360379D01*
X223146Y360770D01*
X222487Y360946D01*
X222391Y360972D01*
X222394Y361471D01*
X222498Y361471D01*
X224455D01*
X224625Y361177D01*
X225177Y360625D01*
X225854Y360234D01*
X226609Y360032D01*
X227391D01*
X228146Y360234D01*
X228823Y360625D01*
X229375Y361177D01*
X229766Y361854D01*
X229969Y362609D01*
Y363391D01*
X229766Y364146D01*
X229375Y364823D01*
X228823Y365375D01*
X228146Y365766D01*
X227391Y365968D01*
X226609D01*
X225854Y365766D01*
X225177Y365375D01*
X224625Y364823D01*
X224455Y364529D01*
X223098D01*
X222985Y364677D01*
X223143Y365227D01*
X223173Y365253D01*
X223823Y365628D01*
X224375Y366181D01*
X224766Y366858D01*
X224969Y367613D01*
Y368394D01*
X224766Y369149D01*
X224375Y369826D01*
X223823Y370379D01*
X223146Y370770D01*
X222487Y370946D01*
X222391Y370972D01*
X222394Y371471D01*
X222498Y371471D01*
X224455D01*
X224625Y371177D01*
X225177Y370625D01*
X225854Y370234D01*
X226609Y370031D01*
X227391D01*
X228146Y370234D01*
X228823Y370625D01*
X229375Y371177D01*
X229766Y371854D01*
X229969Y372609D01*
Y373391D01*
X229766Y374146D01*
X229375Y374823D01*
X228823Y375375D01*
X228146Y375766D01*
X227391Y375969D01*
X226609D01*
X225854Y375766D01*
X225177Y375375D01*
X224625Y374823D01*
X224455Y374529D01*
X223098D01*
X222985Y374677D01*
X223143Y375227D01*
X223173Y375253D01*
X223823Y375628D01*
X224375Y376181D01*
X224766Y376858D01*
X224969Y377613D01*
Y378395D01*
X224766Y379149D01*
X224375Y379826D01*
X223823Y380379D01*
X223146Y380770D01*
X222487Y380946D01*
X222391Y380972D01*
X222394Y381471D01*
X222498Y381471D01*
X224455D01*
X224625Y381177D01*
X225177Y380625D01*
X225854Y380234D01*
X226609Y380031D01*
X227391D01*
X228146Y380234D01*
X228823Y380625D01*
X229375Y381177D01*
X229766Y381854D01*
X229969Y382609D01*
Y383391D01*
X229766Y384146D01*
X229375Y384823D01*
X228823Y385375D01*
X228146Y385766D01*
X227391Y385968D01*
X226609D01*
X225854Y385766D01*
X225177Y385375D01*
X224625Y384823D01*
X224455Y384529D01*
X223098D01*
X222985Y384677D01*
X223143Y385227D01*
X223173Y385253D01*
X223823Y385628D01*
X224375Y386181D01*
X224766Y386858D01*
X224969Y387613D01*
Y388394D01*
X224766Y389149D01*
X224375Y389826D01*
X223823Y390379D01*
X223146Y390770D01*
X222487Y390946D01*
X222391Y390972D01*
X222394Y391471D01*
X222498Y391471D01*
X224455D01*
X224625Y391177D01*
X225177Y390625D01*
X225854Y390234D01*
X226609Y390032D01*
X227391D01*
X228146Y390234D01*
X228823Y390625D01*
X229375Y391177D01*
X229766Y391854D01*
X229969Y392609D01*
Y393391D01*
X229766Y394146D01*
X229375Y394823D01*
X228823Y395375D01*
X228146Y395766D01*
X227391Y395969D01*
X226609D01*
X225854Y395766D01*
X225177Y395375D01*
X224625Y394823D01*
X224455Y394529D01*
X223098D01*
X222985Y394677D01*
X223143Y395227D01*
X223173Y395253D01*
X223823Y395628D01*
X224375Y396181D01*
X224766Y396858D01*
X224969Y397613D01*
Y398394D01*
X224766Y399149D01*
X224375Y399826D01*
X223823Y400379D01*
X223146Y400770D01*
X222487Y400946D01*
X222391Y400972D01*
X222394Y401471D01*
X222498Y401471D01*
X224455D01*
X224625Y401177D01*
X225177Y400625D01*
X225854Y400234D01*
X226609Y400032D01*
X227391D01*
X228146Y400234D01*
X228823Y400625D01*
X229375Y401177D01*
X229766Y401854D01*
X229969Y402609D01*
Y403391D01*
X229766Y404146D01*
X229375Y404823D01*
X228823Y405375D01*
X228146Y405766D01*
X227391Y405969D01*
X226609D01*
X225854Y405766D01*
X225177Y405375D01*
X224625Y404823D01*
X224455Y404529D01*
X223098D01*
X222985Y404677D01*
X223143Y405227D01*
X223173Y405253D01*
X223823Y405628D01*
X224375Y406181D01*
X224766Y406858D01*
X224969Y407613D01*
Y408394D01*
X224766Y409149D01*
X224375Y409826D01*
X223823Y410379D01*
X223146Y410770D01*
X222487Y410946D01*
X222391Y410972D01*
X222394Y411471D01*
X222498Y411471D01*
X224455D01*
X224625Y411177D01*
X225177Y410625D01*
X225854Y410234D01*
X226609Y410032D01*
X227391D01*
X228146Y410234D01*
X228823Y410625D01*
X229375Y411177D01*
X229766Y411854D01*
X229969Y412609D01*
Y413391D01*
X229766Y414146D01*
X229375Y414823D01*
X228823Y415375D01*
X228146Y415766D01*
X227391Y415969D01*
X226609D01*
X225854Y415766D01*
X225177Y415375D01*
X224625Y414823D01*
X224455Y414529D01*
X223098D01*
X222985Y414677D01*
X223143Y415227D01*
X223173Y415253D01*
X223823Y415628D01*
X224375Y416181D01*
X224766Y416858D01*
X224969Y417613D01*
Y418394D01*
X224766Y419149D01*
X224375Y419826D01*
X223823Y420379D01*
X223146Y420770D01*
X222487Y420946D01*
X222391Y420972D01*
X222394Y421471D01*
X222498Y421471D01*
X224455D01*
X224625Y421177D01*
X225177Y420625D01*
X225854Y420234D01*
X226609Y420031D01*
X227391D01*
X228146Y420234D01*
X228823Y420625D01*
X229375Y421177D01*
X229766Y421854D01*
X229969Y422609D01*
Y423391D01*
X229766Y424146D01*
X229375Y424823D01*
X228823Y425375D01*
X228146Y425766D01*
X227391Y425969D01*
X226609D01*
X225854Y425766D01*
X225177Y425375D01*
X224625Y424823D01*
X224455Y424529D01*
X223098D01*
X222985Y424677D01*
X223143Y425227D01*
X223173Y425253D01*
X223823Y425628D01*
X224375Y426181D01*
X224766Y426858D01*
X224969Y427613D01*
Y428394D01*
X224766Y429149D01*
X224375Y429826D01*
X223823Y430379D01*
X223146Y430770D01*
X222391Y430972D01*
X221609D01*
X220854Y430770D01*
X220177Y430379D01*
X219625Y429826D01*
X219234Y429149D01*
X219105Y428667D01*
X218597Y428418D01*
X218543Y428421D01*
X218000Y428529D01*
X216000D01*
X215457Y428421D01*
X215404Y428418D01*
X214895Y428667D01*
X214766Y429149D01*
X214375Y429826D01*
X213823Y430379D01*
X213146Y430770D01*
X212391Y430972D01*
X211609D01*
X210854Y430770D01*
X210177Y430379D01*
X209625Y429826D01*
X209234Y429149D01*
X209032Y428394D01*
Y427613D01*
X209234Y426858D01*
X209625Y426181D01*
X210177Y425628D01*
X210827Y425253D01*
X210857Y425227D01*
X211015Y424677D01*
X210902Y424529D01*
X173555D01*
X173235Y424849D01*
X172434Y425181D01*
X171566D01*
X170765Y424849D01*
X170151Y424235D01*
X169819Y423434D01*
Y422982D01*
X150419Y403581D01*
X150087Y403085D01*
X149971Y402500D01*
Y341133D01*
X145784Y336947D01*
X145284Y337154D01*
Y372450D01*
X145838Y372680D01*
X146452Y373293D01*
X146784Y374095D01*
Y374963D01*
X146452Y375764D01*
X145838Y376378D01*
X145036Y376710D01*
X144169D01*
X143367Y376378D01*
X142754Y375764D01*
X142422Y374963D01*
Y374664D01*
X142238Y374481D01*
X141851Y373902D01*
X141716Y373219D01*
Y317022D01*
X141254Y316831D01*
X141235Y316849D01*
X140434Y317181D01*
X139566D01*
X138765Y316849D01*
X138445Y316529D01*
X102500D01*
X101915Y316413D01*
X101419Y316081D01*
X94491Y309154D01*
X94029Y309346D01*
Y381256D01*
X107689Y394915D01*
X141362D01*
X141947Y395032D01*
X142444Y395363D01*
X144025Y396945D01*
X144477D01*
X145279Y397277D01*
X145892Y397890D01*
X146224Y398692D01*
Y399560D01*
X145892Y400361D01*
X145279Y400975D01*
X144477Y401307D01*
X143925D01*
X143556Y401679D01*
X143543Y401769D01*
Y402560D01*
X143211Y403361D01*
X142598Y403975D01*
X141796Y404307D01*
X140928D01*
X140127Y403975D01*
X139513Y403361D01*
X139181Y402560D01*
Y401769D01*
X139168Y401679D01*
X138985Y401495D01*
X138567D01*
X138181Y401913D01*
Y402560D01*
X137849Y403361D01*
X137235Y403975D01*
X136434Y404307D01*
X135566D01*
X134765Y403975D01*
X134151Y403361D01*
X133819Y402560D01*
Y401769D01*
X133806Y401679D01*
X133623Y401495D01*
X133205D01*
X132819Y401913D01*
Y402560D01*
X132487Y403361D01*
X131873Y403975D01*
X131072Y404307D01*
X130204D01*
X129402Y403975D01*
X128789Y403361D01*
X128457Y402560D01*
Y401769D01*
X128428Y401663D01*
X128194Y401427D01*
X127721D01*
X127362Y401818D01*
Y402560D01*
X127030Y403361D01*
X126417Y403975D01*
X125615Y404307D01*
X124747D01*
X123946Y403975D01*
X123332Y403361D01*
X123000Y402560D01*
Y401769D01*
X122976Y401668D01*
X122618Y401307D01*
X122023D01*
X121221Y400975D01*
X120608Y400361D01*
X120276Y399560D01*
Y398692D01*
X120401Y398390D01*
X120123Y397974D01*
X107055D01*
X106470Y397858D01*
X105974Y397526D01*
X91991Y383544D01*
X91529Y383735D01*
Y453504D01*
X106315Y468290D01*
X141224D01*
X141810Y468406D01*
X142306Y468738D01*
X143887Y470319D01*
X144339D01*
X145141Y470651D01*
X145755Y471265D01*
X146087Y472066D01*
Y472934D01*
X145755Y473736D01*
X145141Y474349D01*
X144339Y474681D01*
X143867D01*
X143459Y474769D01*
X143405Y475143D01*
Y475648D01*
X143073Y476450D01*
X142460Y477064D01*
X141658Y477396D01*
X140791D01*
X139989Y477064D01*
X139375Y476450D01*
X139043Y475648D01*
Y475143D01*
X138990Y474769D01*
X138581Y474681D01*
X138109D01*
X138003Y474637D01*
X137650Y474991D01*
X137681Y475066D01*
Y475934D01*
X137349Y476735D01*
X136735Y477349D01*
X135934Y477681D01*
D02*
G37*
G36*
X409434Y454166D02*
X408566D01*
X407764Y453834D01*
X407151Y453220D01*
X406819Y452419D01*
Y451628D01*
X406819Y451551D01*
X406471Y451200D01*
X406011Y451183D01*
X405868Y451343D01*
X405681Y451569D01*
Y452419D01*
X405349Y453220D01*
X404736Y453834D01*
X403934Y454166D01*
X403066D01*
X402264Y453834D01*
X401651Y453220D01*
X401319Y452419D01*
Y451618D01*
X401160Y451497D01*
X401083Y451516D01*
X400681Y451916D01*
Y452419D01*
X400349Y453220D01*
X399735Y453834D01*
X398934Y454166D01*
X398066D01*
X397265Y453834D01*
X396651Y453220D01*
X396319Y452419D01*
Y451628D01*
X396290Y451522D01*
X396025Y451255D01*
X395488D01*
X395181Y451633D01*
Y452419D01*
X394849Y453220D01*
X394235Y453834D01*
X393434Y454166D01*
X392566D01*
X391764Y453834D01*
X391151Y453220D01*
X390819Y452419D01*
Y451916D01*
X390417Y451516D01*
X390340Y451497D01*
X390181Y451618D01*
Y452419D01*
X389849Y453220D01*
X389235Y453834D01*
X388434Y454166D01*
X387566D01*
X386765Y453834D01*
X386151Y453220D01*
X385819Y452419D01*
Y451551D01*
X386151Y450749D01*
X386765Y450136D01*
X387566Y449803D01*
X387880D01*
X388138Y449418D01*
Y448551D01*
X388470Y447749D01*
X389083Y447136D01*
X389885Y446804D01*
X390753D01*
X391554Y447136D01*
X392168Y447749D01*
X392500Y448551D01*
Y449342D01*
X392513Y449432D01*
X392752Y449672D01*
X393216D01*
X393579Y449276D01*
Y448551D01*
X393911Y447749D01*
X394524Y447136D01*
X395326Y446804D01*
X396194D01*
X396995Y447136D01*
X397609Y447749D01*
X397941Y448551D01*
Y449342D01*
X397970Y449447D01*
X398179Y449658D01*
X398631D01*
X399000Y449257D01*
Y448551D01*
X399332Y447749D01*
X399946Y447136D01*
X400747Y446804D01*
X401615D01*
X402417Y447136D01*
X403030Y447749D01*
X403362Y448551D01*
Y449418D01*
X403582Y449747D01*
X404039Y449793D01*
X404363Y449421D01*
X404362Y449418D01*
Y448551D01*
X404694Y447749D01*
X405308Y447136D01*
X406110Y446804D01*
X406977D01*
X407779Y447136D01*
X408392Y447749D01*
X408724Y448551D01*
Y449342D01*
X408724Y449418D01*
X409106Y449803D01*
X409343D01*
X409727Y449425D01*
X409724Y449418D01*
Y448551D01*
X410056Y447749D01*
X410670Y447136D01*
X411472Y446804D01*
X412339D01*
X413141Y447136D01*
X413755Y447749D01*
X414087Y448551D01*
Y449418D01*
X413755Y450220D01*
X413141Y450834D01*
X412339Y451166D01*
X411563D01*
X411178Y451544D01*
X411181Y451551D01*
Y452419D01*
X410849Y453220D01*
X410236Y453834D01*
X409434Y454166D01*
D02*
G37*
G36*
X141434Y453666D02*
X140566D01*
X139764Y453334D01*
X139151Y452720D01*
X138819Y451919D01*
Y451128D01*
X138819Y451051D01*
X138471Y450700D01*
X138011Y450683D01*
X137868Y450843D01*
X137681Y451068D01*
Y451919D01*
X137349Y452720D01*
X136735Y453334D01*
X135934Y453666D01*
X135066D01*
X134265Y453334D01*
X133651Y452720D01*
X133319Y451919D01*
Y451118D01*
X133160Y450997D01*
X133083Y451016D01*
X132681Y451416D01*
Y451919D01*
X132349Y452720D01*
X131736Y453334D01*
X130934Y453666D01*
X130066D01*
X129264Y453334D01*
X128651Y452720D01*
X128319Y451919D01*
Y451128D01*
X128290Y451022D01*
X128025Y450755D01*
X127488D01*
X127181Y451133D01*
Y451919D01*
X126849Y452720D01*
X126235Y453334D01*
X125434Y453666D01*
X124566D01*
X123765Y453334D01*
X123151Y452720D01*
X122819Y451919D01*
Y451416D01*
X122417Y451016D01*
X122340Y450997D01*
X122181Y451118D01*
Y451919D01*
X121849Y452720D01*
X121236Y453334D01*
X120434Y453666D01*
X119566D01*
X118764Y453334D01*
X118151Y452720D01*
X117819Y451919D01*
Y451051D01*
X118151Y450249D01*
X118764Y449636D01*
X119566Y449303D01*
X119880D01*
X120138Y448918D01*
Y448051D01*
X120470Y447249D01*
X121083Y446636D01*
X121885Y446304D01*
X122753D01*
X123554Y446636D01*
X124168Y447249D01*
X124500Y448051D01*
Y448842D01*
X124513Y448932D01*
X124752Y449172D01*
X125216D01*
X125579Y448776D01*
Y448051D01*
X125911Y447249D01*
X126524Y446636D01*
X127326Y446304D01*
X128194D01*
X128995Y446636D01*
X129609Y447249D01*
X129941Y448051D01*
Y448842D01*
X129970Y448947D01*
X130179Y449158D01*
X130631D01*
X131000Y448757D01*
Y448051D01*
X131332Y447249D01*
X131946Y446636D01*
X132747Y446304D01*
X133615D01*
X134417Y446636D01*
X135030Y447249D01*
X135362Y448051D01*
Y448918D01*
X135582Y449247D01*
X136039Y449293D01*
X136363Y448921D01*
X136362Y448918D01*
Y448051D01*
X136694Y447249D01*
X137308Y446636D01*
X138109Y446304D01*
X138977D01*
X139779Y446636D01*
X140392Y447249D01*
X140724Y448051D01*
Y448842D01*
X140724Y448918D01*
X141106Y449303D01*
X141434D01*
X142236Y449636D01*
X142849Y450249D01*
X143181Y451051D01*
Y451919D01*
X142849Y452720D01*
X142236Y453334D01*
X141434Y453666D01*
D02*
G37*
G36*
X321934Y450681D02*
X321066D01*
X320265Y450349D01*
X319651Y449735D01*
X319319Y448934D01*
Y448066D01*
X319651Y447264D01*
X320265Y446651D01*
X321066Y446319D01*
X321934D01*
X322736Y446651D01*
X323349Y447264D01*
X323681Y448066D01*
Y448934D01*
X323349Y449735D01*
X322736Y450349D01*
X321934Y450681D01*
D02*
G37*
G36*
X588552Y450563D02*
X587684D01*
X586883Y450231D01*
X586269Y449617D01*
X585937Y448816D01*
Y447948D01*
X586269Y447146D01*
X586883Y446533D01*
X587684Y446201D01*
X588552D01*
X589354Y446533D01*
X589967Y447146D01*
X590299Y447948D01*
Y448816D01*
X589967Y449617D01*
X589354Y450231D01*
X588552Y450563D01*
D02*
G37*
G36*
X613911Y445134D02*
X613043D01*
X612242Y444802D01*
X611628Y444189D01*
X611296Y443387D01*
Y442519D01*
X611628Y441718D01*
X612242Y441104D01*
X613043Y440772D01*
X613911D01*
X614713Y441104D01*
X615326Y441718D01*
X615659Y442519D01*
Y443387D01*
X615326Y444189D01*
X614713Y444802D01*
X613911Y445134D01*
D02*
G37*
G36*
X580363Y444681D02*
X579495D01*
X578693Y444349D01*
X578080Y443736D01*
X577748Y442934D01*
Y442066D01*
X578080Y441264D01*
X578693Y440651D01*
X579495Y440319D01*
X580363D01*
X581164Y440651D01*
X581778Y441264D01*
X582110Y442066D01*
Y442934D01*
X581778Y443736D01*
X581164Y444349D01*
X580363Y444681D01*
D02*
G37*
G36*
X346434D02*
X345566D01*
X344764Y444349D01*
X344151Y443736D01*
X343819Y442934D01*
Y442066D01*
X344151Y441264D01*
X344764Y440651D01*
X345566Y440319D01*
X346434D01*
X347235Y440651D01*
X347849Y441264D01*
X348181Y442066D01*
Y442934D01*
X347849Y443736D01*
X347235Y444349D01*
X346434Y444681D01*
D02*
G37*
G36*
X312626D02*
X311759D01*
X310957Y444349D01*
X310344Y443736D01*
X310011Y442934D01*
Y442066D01*
X310344Y441264D01*
X310957Y440651D01*
X311759Y440319D01*
X312626D01*
X313428Y440651D01*
X314042Y441264D01*
X314374Y442066D01*
Y442934D01*
X314042Y443736D01*
X313428Y444349D01*
X312626Y444681D01*
D02*
G37*
G36*
X440434Y431043D02*
X439566D01*
X438764Y430711D01*
X438151Y430098D01*
X437819Y429296D01*
Y428428D01*
X438151Y427627D01*
X438764Y427013D01*
X439566Y426681D01*
X440434D01*
X441235Y427013D01*
X441849Y427627D01*
X442181Y428428D01*
Y429296D01*
X441849Y430098D01*
X441235Y430711D01*
X440434Y431043D01*
D02*
G37*
G36*
X549434Y430862D02*
X548566D01*
X547764Y430530D01*
X547151Y429917D01*
X546819Y429115D01*
Y428247D01*
X547151Y427446D01*
X547764Y426832D01*
X548566Y426500D01*
X549434D01*
X550236Y426832D01*
X550849Y427446D01*
X551181Y428247D01*
Y429115D01*
X550849Y429917D01*
X550236Y430530D01*
X549434Y430862D01*
D02*
G37*
G36*
X172434Y430543D02*
X171566D01*
X170765Y430211D01*
X170151Y429598D01*
X169819Y428796D01*
Y427928D01*
X170151Y427127D01*
X170765Y426513D01*
X171566Y426181D01*
X172434D01*
X173235Y426513D01*
X173849Y427127D01*
X174181Y427928D01*
Y428796D01*
X173849Y429598D01*
X173235Y430211D01*
X172434Y430543D01*
D02*
G37*
G36*
X281434Y430362D02*
X280566D01*
X279765Y430030D01*
X279151Y429417D01*
X278819Y428615D01*
Y427747D01*
X279151Y426946D01*
X279765Y426332D01*
X280566Y426000D01*
X281434D01*
X282236Y426332D01*
X282849Y426946D01*
X283181Y427747D01*
Y428615D01*
X282849Y429417D01*
X282236Y430030D01*
X281434Y430362D01*
D02*
G37*
G36*
X510391Y431472D02*
X509609D01*
X508854Y431270D01*
X508177Y430879D01*
X507625Y430326D01*
X507234Y429649D01*
X507031Y428894D01*
Y428113D01*
X507234Y427358D01*
X507625Y426681D01*
X508177Y426128D01*
X508854Y425737D01*
X509609Y425535D01*
X510391D01*
X511146Y425737D01*
X511823Y426128D01*
X512375Y426681D01*
X512766Y427358D01*
X512968Y428113D01*
Y428894D01*
X512766Y429649D01*
X512375Y430326D01*
X511823Y430879D01*
X511146Y431270D01*
X510391Y431472D01*
D02*
G37*
G36*
X500391D02*
X499609D01*
X498854Y431270D01*
X498177Y430879D01*
X497625Y430326D01*
X497234Y429649D01*
X497031Y428894D01*
Y428113D01*
X497234Y427358D01*
X497625Y426681D01*
X498177Y426128D01*
X498854Y425737D01*
X499609Y425535D01*
X500391D01*
X501146Y425737D01*
X501823Y426128D01*
X502375Y426681D01*
X502766Y427358D01*
X502969Y428113D01*
Y428894D01*
X502766Y429649D01*
X502375Y430326D01*
X501823Y430879D01*
X501146Y431270D01*
X500391Y431472D01*
D02*
G37*
G36*
X242391Y430972D02*
X241609D01*
X240854Y430770D01*
X240177Y430379D01*
X239625Y429826D01*
X239234Y429149D01*
X239032Y428394D01*
Y427613D01*
X239234Y426858D01*
X239625Y426181D01*
X240177Y425628D01*
X240854Y425237D01*
X241609Y425035D01*
X242391D01*
X243146Y425237D01*
X243823Y425628D01*
X244375Y426181D01*
X244766Y426858D01*
X244969Y427613D01*
Y428394D01*
X244766Y429149D01*
X244375Y429826D01*
X243823Y430379D01*
X243146Y430770D01*
X242391Y430972D01*
D02*
G37*
G36*
X232391D02*
X231609D01*
X230854Y430770D01*
X230177Y430379D01*
X229625Y429826D01*
X229234Y429149D01*
X229031Y428394D01*
Y427613D01*
X229234Y426858D01*
X229625Y426181D01*
X230177Y425628D01*
X230854Y425237D01*
X231609Y425035D01*
X232391D01*
X233146Y425237D01*
X233823Y425628D01*
X234375Y426181D01*
X234766Y426858D01*
X234968Y427613D01*
Y428394D01*
X234766Y429149D01*
X234375Y429826D01*
X233823Y430379D01*
X233146Y430770D01*
X232391Y430972D01*
D02*
G37*
G36*
X505391Y426469D02*
X504609D01*
X503854Y426266D01*
X503177Y425875D01*
X502625Y425323D01*
X502234Y424646D01*
X502032Y423891D01*
Y423109D01*
X502234Y422354D01*
X502625Y421677D01*
X503177Y421125D01*
X503854Y420734D01*
X504609Y420532D01*
X505391D01*
X506146Y420734D01*
X506823Y421125D01*
X507375Y421677D01*
X507766Y422354D01*
X507969Y423109D01*
Y423891D01*
X507766Y424646D01*
X507375Y425323D01*
X506823Y425875D01*
X506146Y426266D01*
X505391Y426469D01*
D02*
G37*
G36*
X237391Y425969D02*
X236609D01*
X235854Y425766D01*
X235177Y425375D01*
X234625Y424823D01*
X234234Y424146D01*
X234032Y423391D01*
Y422609D01*
X234234Y421854D01*
X234625Y421177D01*
X235177Y420625D01*
X235854Y420234D01*
X236609Y420031D01*
X237391D01*
X238146Y420234D01*
X238823Y420625D01*
X239375Y421177D01*
X239766Y421854D01*
X239968Y422609D01*
Y423391D01*
X239766Y424146D01*
X239375Y424823D01*
X238823Y425375D01*
X238146Y425766D01*
X237391Y425969D01*
D02*
G37*
G36*
X510391Y421472D02*
X509609D01*
X508854Y421270D01*
X508177Y420879D01*
X507625Y420326D01*
X507234Y419649D01*
X507031Y418894D01*
Y418113D01*
X507234Y417358D01*
X507625Y416681D01*
X508177Y416128D01*
X508854Y415737D01*
X509609Y415535D01*
X510391D01*
X511146Y415737D01*
X511823Y416128D01*
X512375Y416681D01*
X512766Y417358D01*
X512968Y418113D01*
Y418894D01*
X512766Y419649D01*
X512375Y420326D01*
X511823Y420879D01*
X511146Y421270D01*
X510391Y421472D01*
D02*
G37*
G36*
X500391D02*
X499609D01*
X498854Y421270D01*
X498177Y420879D01*
X497625Y420326D01*
X497234Y419649D01*
X497031Y418894D01*
Y418113D01*
X497234Y417358D01*
X497625Y416681D01*
X498177Y416128D01*
X498854Y415737D01*
X499609Y415535D01*
X500391D01*
X501146Y415737D01*
X501823Y416128D01*
X502375Y416681D01*
X502766Y417358D01*
X502969Y418113D01*
Y418894D01*
X502766Y419649D01*
X502375Y420326D01*
X501823Y420879D01*
X501146Y421270D01*
X500391Y421472D01*
D02*
G37*
G36*
X242391Y420972D02*
X241609D01*
X240854Y420770D01*
X240177Y420379D01*
X239625Y419826D01*
X239234Y419149D01*
X239032Y418394D01*
Y417613D01*
X239234Y416858D01*
X239625Y416181D01*
X240177Y415628D01*
X240854Y415237D01*
X241609Y415035D01*
X242391D01*
X243146Y415237D01*
X243823Y415628D01*
X244375Y416181D01*
X244766Y416858D01*
X244969Y417613D01*
Y418394D01*
X244766Y419149D01*
X244375Y419826D01*
X243823Y420379D01*
X243146Y420770D01*
X242391Y420972D01*
D02*
G37*
G36*
X232391D02*
X231609D01*
X230854Y420770D01*
X230177Y420379D01*
X229625Y419826D01*
X229234Y419149D01*
X229031Y418394D01*
Y417613D01*
X229234Y416858D01*
X229625Y416181D01*
X230177Y415628D01*
X230854Y415237D01*
X231609Y415035D01*
X232391D01*
X233146Y415237D01*
X233823Y415628D01*
X234375Y416181D01*
X234766Y416858D01*
X234968Y417613D01*
Y418394D01*
X234766Y419149D01*
X234375Y419826D01*
X233823Y420379D01*
X233146Y420770D01*
X232391Y420972D01*
D02*
G37*
G36*
X505391Y416468D02*
X504609D01*
X503854Y416266D01*
X503177Y415875D01*
X502625Y415323D01*
X502234Y414646D01*
X502032Y413891D01*
Y413109D01*
X502234Y412354D01*
X502625Y411677D01*
X503177Y411125D01*
X503854Y410734D01*
X504609Y410532D01*
X505391D01*
X506146Y410734D01*
X506823Y411125D01*
X507375Y411677D01*
X507766Y412354D01*
X507969Y413109D01*
Y413891D01*
X507766Y414646D01*
X507375Y415323D01*
X506823Y415875D01*
X506146Y416266D01*
X505391Y416468D01*
D02*
G37*
G36*
X237391Y415969D02*
X236609D01*
X235854Y415766D01*
X235177Y415375D01*
X234625Y414823D01*
X234234Y414146D01*
X234032Y413391D01*
Y412609D01*
X234234Y411854D01*
X234625Y411177D01*
X235177Y410625D01*
X235854Y410234D01*
X236609Y410032D01*
X237391D01*
X238146Y410234D01*
X238823Y410625D01*
X239375Y411177D01*
X239766Y411854D01*
X239968Y412609D01*
Y413391D01*
X239766Y414146D01*
X239375Y414823D01*
X238823Y415375D01*
X238146Y415766D01*
X237391Y415969D01*
D02*
G37*
G36*
X510391Y411472D02*
X509609D01*
X508854Y411270D01*
X508177Y410879D01*
X507625Y410326D01*
X507234Y409649D01*
X507031Y408894D01*
Y408113D01*
X507234Y407358D01*
X507625Y406681D01*
X508177Y406128D01*
X508854Y405737D01*
X509609Y405535D01*
X510391D01*
X511146Y405737D01*
X511823Y406128D01*
X512375Y406681D01*
X512766Y407358D01*
X512968Y408113D01*
Y408894D01*
X512766Y409649D01*
X512375Y410326D01*
X511823Y410879D01*
X511146Y411270D01*
X510391Y411472D01*
D02*
G37*
G36*
X500391D02*
X499609D01*
X498854Y411270D01*
X498177Y410879D01*
X497625Y410326D01*
X497234Y409649D01*
X497031Y408894D01*
Y408113D01*
X497234Y407358D01*
X497625Y406681D01*
X498177Y406128D01*
X498854Y405737D01*
X499609Y405535D01*
X500391D01*
X501146Y405737D01*
X501823Y406128D01*
X502375Y406681D01*
X502766Y407358D01*
X502969Y408113D01*
Y408894D01*
X502766Y409649D01*
X502375Y410326D01*
X501823Y410879D01*
X501146Y411270D01*
X500391Y411472D01*
D02*
G37*
G36*
X242391Y410972D02*
X241609D01*
X240854Y410770D01*
X240177Y410379D01*
X239625Y409826D01*
X239234Y409149D01*
X239032Y408394D01*
Y407613D01*
X239234Y406858D01*
X239625Y406181D01*
X240177Y405628D01*
X240854Y405237D01*
X241609Y405035D01*
X242391D01*
X243146Y405237D01*
X243823Y405628D01*
X244375Y406181D01*
X244766Y406858D01*
X244969Y407613D01*
Y408394D01*
X244766Y409149D01*
X244375Y409826D01*
X243823Y410379D01*
X243146Y410770D01*
X242391Y410972D01*
D02*
G37*
G36*
X232391D02*
X231609D01*
X230854Y410770D01*
X230177Y410379D01*
X229625Y409826D01*
X229234Y409149D01*
X229031Y408394D01*
Y407613D01*
X229234Y406858D01*
X229625Y406181D01*
X230177Y405628D01*
X230854Y405237D01*
X231609Y405035D01*
X232391D01*
X233146Y405237D01*
X233823Y405628D01*
X234375Y406181D01*
X234766Y406858D01*
X234968Y407613D01*
Y408394D01*
X234766Y409149D01*
X234375Y409826D01*
X233823Y410379D01*
X233146Y410770D01*
X232391Y410972D01*
D02*
G37*
G36*
X118086Y404943D02*
X117218D01*
X116417Y404611D01*
X115803Y403998D01*
X115518Y403309D01*
X115009Y403111D01*
X114966Y403154D01*
X114164Y403486D01*
X113297D01*
X112495Y403154D01*
X111881Y402540D01*
X111549Y401738D01*
Y400871D01*
X111881Y400069D01*
X112495Y399455D01*
X113297Y399124D01*
X114164D01*
X114966Y399455D01*
X115580Y400069D01*
X115865Y400758D01*
X116374Y400956D01*
X116417Y400913D01*
X117218Y400581D01*
X118086D01*
X118888Y400913D01*
X119501Y401527D01*
X119833Y402328D01*
Y403196D01*
X119501Y403998D01*
X118888Y404611D01*
X118086Y404943D01*
D02*
G37*
G36*
X380591Y405662D02*
X379723D01*
X378921Y405330D01*
X378308Y404716D01*
X377976Y403914D01*
Y403047D01*
X378308Y402245D01*
X378921Y401632D01*
X379723Y401300D01*
X380591D01*
X381392Y401632D01*
X382006Y402245D01*
X382267Y402876D01*
X382330Y402886D01*
X382788Y402827D01*
X383068Y402149D01*
X383682Y401536D01*
X384483Y401204D01*
X385351D01*
X386153Y401536D01*
X386766Y402149D01*
X387098Y402951D01*
Y403819D01*
X386766Y404620D01*
X386153Y405234D01*
X385351Y405566D01*
X384483D01*
X383682Y405234D01*
X383068Y404620D01*
X382807Y403989D01*
X382744Y403979D01*
X382286Y404039D01*
X382006Y404716D01*
X381392Y405330D01*
X380591Y405662D01*
D02*
G37*
G36*
X505391Y406468D02*
X504609D01*
X503854Y406266D01*
X503177Y405875D01*
X502625Y405323D01*
X502234Y404646D01*
X502032Y403891D01*
Y403109D01*
X502234Y402354D01*
X502625Y401677D01*
X503177Y401125D01*
X503854Y400734D01*
X504609Y400531D01*
X505391D01*
X506146Y400734D01*
X506823Y401125D01*
X507375Y401677D01*
X507766Y402354D01*
X507969Y403109D01*
Y403891D01*
X507766Y404646D01*
X507375Y405323D01*
X506823Y405875D01*
X506146Y406266D01*
X505391Y406468D01*
D02*
G37*
G36*
X237391Y405969D02*
X236609D01*
X235854Y405766D01*
X235177Y405375D01*
X234625Y404823D01*
X234234Y404146D01*
X234032Y403391D01*
Y402609D01*
X234234Y401854D01*
X234625Y401177D01*
X235177Y400625D01*
X235854Y400234D01*
X236609Y400032D01*
X237391D01*
X238146Y400234D01*
X238823Y400625D01*
X239375Y401177D01*
X239766Y401854D01*
X239968Y402609D01*
Y403391D01*
X239766Y404146D01*
X239375Y404823D01*
X238823Y405375D01*
X238146Y405766D01*
X237391Y405969D01*
D02*
G37*
G36*
X510391Y401472D02*
X509609D01*
X508854Y401270D01*
X508177Y400879D01*
X507625Y400326D01*
X507234Y399649D01*
X507031Y398894D01*
Y398113D01*
X507234Y397358D01*
X507625Y396681D01*
X508177Y396128D01*
X508854Y395737D01*
X509609Y395535D01*
X510391D01*
X511146Y395737D01*
X511823Y396128D01*
X512375Y396681D01*
X512766Y397358D01*
X512968Y398113D01*
Y398894D01*
X512766Y399649D01*
X512375Y400326D01*
X511823Y400879D01*
X511146Y401270D01*
X510391Y401472D01*
D02*
G37*
G36*
X500391D02*
X499609D01*
X498854Y401270D01*
X498177Y400879D01*
X497625Y400326D01*
X497234Y399649D01*
X497031Y398894D01*
Y398113D01*
X497234Y397358D01*
X497625Y396681D01*
X498177Y396128D01*
X498854Y395737D01*
X499609Y395535D01*
X500391D01*
X501146Y395737D01*
X501823Y396128D01*
X502375Y396681D01*
X502766Y397358D01*
X502969Y398113D01*
Y398894D01*
X502766Y399649D01*
X502375Y400326D01*
X501823Y400879D01*
X501146Y401270D01*
X500391Y401472D01*
D02*
G37*
G36*
X242391Y400972D02*
X241609D01*
X240854Y400770D01*
X240177Y400379D01*
X239625Y399826D01*
X239234Y399149D01*
X239032Y398394D01*
Y397613D01*
X239234Y396858D01*
X239625Y396181D01*
X240177Y395628D01*
X240854Y395237D01*
X241609Y395035D01*
X242391D01*
X243146Y395237D01*
X243823Y395628D01*
X244375Y396181D01*
X244766Y396858D01*
X244969Y397613D01*
Y398394D01*
X244766Y399149D01*
X244375Y399826D01*
X243823Y400379D01*
X243146Y400770D01*
X242391Y400972D01*
D02*
G37*
G36*
X232391D02*
X231609D01*
X230854Y400770D01*
X230177Y400379D01*
X229625Y399826D01*
X229234Y399149D01*
X229031Y398394D01*
Y397613D01*
X229234Y396858D01*
X229625Y396181D01*
X230177Y395628D01*
X230854Y395237D01*
X231609Y395035D01*
X232391D01*
X233146Y395237D01*
X233823Y395628D01*
X234375Y396181D01*
X234766Y396858D01*
X234968Y397613D01*
Y398394D01*
X234766Y399149D01*
X234375Y399826D01*
X233823Y400379D01*
X233146Y400770D01*
X232391Y400972D01*
D02*
G37*
G36*
X505391Y396468D02*
X504609D01*
X503854Y396266D01*
X503177Y395875D01*
X502625Y395323D01*
X502234Y394646D01*
X502032Y393891D01*
Y393109D01*
X502234Y392354D01*
X502625Y391677D01*
X503177Y391125D01*
X503854Y390734D01*
X504609Y390531D01*
X505391D01*
X506146Y390734D01*
X506823Y391125D01*
X507375Y391677D01*
X507766Y392354D01*
X507969Y393109D01*
Y393891D01*
X507766Y394646D01*
X507375Y395323D01*
X506823Y395875D01*
X506146Y396266D01*
X505391Y396468D01*
D02*
G37*
G36*
X237391Y395969D02*
X236609D01*
X235854Y395766D01*
X235177Y395375D01*
X234625Y394823D01*
X234234Y394146D01*
X234032Y393391D01*
Y392609D01*
X234234Y391854D01*
X234625Y391177D01*
X235177Y390625D01*
X235854Y390234D01*
X236609Y390032D01*
X237391D01*
X238146Y390234D01*
X238823Y390625D01*
X239375Y391177D01*
X239766Y391854D01*
X239968Y392609D01*
Y393391D01*
X239766Y394146D01*
X239375Y394823D01*
X238823Y395375D01*
X238146Y395766D01*
X237391Y395969D01*
D02*
G37*
G36*
X510391Y391472D02*
X509609D01*
X508854Y391270D01*
X508177Y390879D01*
X507625Y390326D01*
X507234Y389649D01*
X507031Y388894D01*
Y388113D01*
X507234Y387358D01*
X507625Y386681D01*
X508177Y386128D01*
X508854Y385737D01*
X509609Y385535D01*
X510391D01*
X511146Y385737D01*
X511823Y386128D01*
X512375Y386681D01*
X512766Y387358D01*
X512968Y388113D01*
Y388894D01*
X512766Y389649D01*
X512375Y390326D01*
X511823Y390879D01*
X511146Y391270D01*
X510391Y391472D01*
D02*
G37*
G36*
X500391D02*
X499609D01*
X498854Y391270D01*
X498177Y390879D01*
X497625Y390326D01*
X497234Y389649D01*
X497031Y388894D01*
Y388113D01*
X497234Y387358D01*
X497625Y386681D01*
X498177Y386128D01*
X498854Y385737D01*
X499609Y385535D01*
X500391D01*
X501146Y385737D01*
X501823Y386128D01*
X502375Y386681D01*
X502766Y387358D01*
X502969Y388113D01*
Y388894D01*
X502766Y389649D01*
X502375Y390326D01*
X501823Y390879D01*
X501146Y391270D01*
X500391Y391472D01*
D02*
G37*
G36*
X242391Y390972D02*
X241609D01*
X240854Y390770D01*
X240177Y390379D01*
X239625Y389826D01*
X239234Y389149D01*
X239032Y388394D01*
Y387613D01*
X239234Y386858D01*
X239625Y386181D01*
X240177Y385628D01*
X240854Y385237D01*
X241609Y385035D01*
X242391D01*
X243146Y385237D01*
X243823Y385628D01*
X244375Y386181D01*
X244766Y386858D01*
X244969Y387613D01*
Y388394D01*
X244766Y389149D01*
X244375Y389826D01*
X243823Y390379D01*
X243146Y390770D01*
X242391Y390972D01*
D02*
G37*
G36*
X232391D02*
X231609D01*
X230854Y390770D01*
X230177Y390379D01*
X229625Y389826D01*
X229234Y389149D01*
X229031Y388394D01*
Y387613D01*
X229234Y386858D01*
X229625Y386181D01*
X230177Y385628D01*
X230854Y385237D01*
X231609Y385035D01*
X232391D01*
X233146Y385237D01*
X233823Y385628D01*
X234375Y386181D01*
X234766Y386858D01*
X234968Y387613D01*
Y388394D01*
X234766Y389149D01*
X234375Y389826D01*
X233823Y390379D01*
X233146Y390770D01*
X232391Y390972D01*
D02*
G37*
G36*
X505391Y386469D02*
X504609D01*
X503854Y386266D01*
X503177Y385875D01*
X502625Y385323D01*
X502234Y384646D01*
X502032Y383891D01*
Y383109D01*
X502234Y382354D01*
X502625Y381677D01*
X503177Y381125D01*
X503854Y380734D01*
X504609Y380532D01*
X505391D01*
X506146Y380734D01*
X506823Y381125D01*
X507375Y381677D01*
X507766Y382354D01*
X507969Y383109D01*
Y383891D01*
X507766Y384646D01*
X507375Y385323D01*
X506823Y385875D01*
X506146Y386266D01*
X505391Y386469D01*
D02*
G37*
G36*
X237391Y385968D02*
X236609D01*
X235854Y385766D01*
X235177Y385375D01*
X234625Y384823D01*
X234234Y384146D01*
X234032Y383391D01*
Y382609D01*
X234234Y381854D01*
X234625Y381177D01*
X235177Y380625D01*
X235854Y380234D01*
X236609Y380031D01*
X237391D01*
X238146Y380234D01*
X238823Y380625D01*
X239375Y381177D01*
X239766Y381854D01*
X239968Y382609D01*
Y383391D01*
X239766Y384146D01*
X239375Y384823D01*
X238823Y385375D01*
X238146Y385766D01*
X237391Y385968D01*
D02*
G37*
G36*
X141572Y380292D02*
X140704D01*
X139902Y379960D01*
X139289Y379346D01*
X138957Y378544D01*
Y377754D01*
X138957Y377677D01*
X138609Y377326D01*
X138149Y377309D01*
X138006Y377469D01*
X137819Y377695D01*
Y378544D01*
X137487Y379346D01*
X136873Y379960D01*
X136072Y380292D01*
X135204D01*
X134402Y379960D01*
X133789Y379346D01*
X133457Y378544D01*
Y377744D01*
X133298Y377623D01*
X133221Y377642D01*
X132819Y378042D01*
Y378544D01*
X132487Y379346D01*
X131873Y379960D01*
X131072Y380292D01*
X130204D01*
X129402Y379960D01*
X128789Y379346D01*
X128457Y378544D01*
Y377754D01*
X128428Y377648D01*
X128163Y377381D01*
X127626D01*
X127319Y377759D01*
Y378544D01*
X126987Y379346D01*
X126373Y379960D01*
X125572Y380292D01*
X124704D01*
X123902Y379960D01*
X123289Y379346D01*
X122957Y378544D01*
Y378042D01*
X122555Y377642D01*
X122477Y377623D01*
X122319Y377744D01*
Y378544D01*
X121987Y379346D01*
X121373Y379960D01*
X120572Y380292D01*
X119704D01*
X118902Y379960D01*
X118289Y379346D01*
X117957Y378544D01*
Y377677D01*
X118289Y376875D01*
X118902Y376261D01*
X119704Y375929D01*
X120018D01*
X120276Y375544D01*
Y374677D01*
X120608Y373875D01*
X121221Y373261D01*
X122023Y372929D01*
X122891D01*
X123692Y373261D01*
X124306Y373875D01*
X124638Y374677D01*
Y375467D01*
X124651Y375557D01*
X124889Y375798D01*
X125354D01*
X125716Y375402D01*
Y374677D01*
X126049Y373875D01*
X126662Y373261D01*
X127464Y372929D01*
X128331D01*
X129133Y373261D01*
X129747Y373875D01*
X130079Y374677D01*
Y375467D01*
X130107Y375573D01*
X130316Y375784D01*
X130769D01*
X131138Y375383D01*
Y374677D01*
X131470Y373875D01*
X132083Y373261D01*
X132885Y372929D01*
X133753D01*
X134554Y373261D01*
X135168Y373875D01*
X135500Y374677D01*
Y375544D01*
X135719Y375873D01*
X136177Y375919D01*
X136501Y375547D01*
X136500Y375544D01*
Y374677D01*
X136832Y373875D01*
X137446Y373261D01*
X138247Y372929D01*
X139115D01*
X139917Y373261D01*
X140530Y373875D01*
X140862Y374677D01*
Y375467D01*
X140862Y375544D01*
X141244Y375929D01*
X141572D01*
X142373Y376261D01*
X142987Y376875D01*
X143319Y377677D01*
Y378544D01*
X142987Y379346D01*
X142373Y379960D01*
X141572Y380292D01*
D02*
G37*
G36*
X609934Y380166D02*
X609066D01*
X608264Y379834D01*
X607651Y379220D01*
X607319Y378418D01*
Y377628D01*
X607319Y377551D01*
X606971Y377200D01*
X606511Y377183D01*
X606368Y377343D01*
X606181Y377569D01*
Y378418D01*
X605849Y379220D01*
X605235Y379834D01*
X604434Y380166D01*
X603566D01*
X602765Y379834D01*
X602151Y379220D01*
X601819Y378418D01*
Y377551D01*
X601600Y377222D01*
X601142Y377176D01*
X600818Y377549D01*
X600819Y377551D01*
Y378418D01*
X600487Y379220D01*
X599873Y379834D01*
X599072Y380166D01*
X598204D01*
X597402Y379834D01*
X596789Y379220D01*
X596457Y378418D01*
Y377551D01*
X596252Y377245D01*
X595816Y377212D01*
X595457Y377582D01*
Y378418D01*
X595125Y379220D01*
X594511Y379834D01*
X593710Y380166D01*
X592842D01*
X592040Y379834D01*
X591427Y379220D01*
X591094Y378418D01*
Y377628D01*
X591094Y377551D01*
X590713Y377166D01*
X590476D01*
X590092Y377544D01*
X590095Y377551D01*
Y378418D01*
X589762Y379220D01*
X589149Y379834D01*
X588347Y380166D01*
X587480D01*
X586678Y379834D01*
X586064Y379220D01*
X585732Y378418D01*
Y377551D01*
X586064Y376749D01*
X586678Y376136D01*
X587480Y375803D01*
X588256D01*
X588640Y375425D01*
X588638Y375418D01*
Y374551D01*
X588970Y373749D01*
X589583Y373136D01*
X590385Y372803D01*
X591253D01*
X592054Y373136D01*
X592668Y373749D01*
X593000Y374551D01*
Y375342D01*
X593000Y375418D01*
X593289Y375710D01*
X593695Y375715D01*
X593719Y375696D01*
X594079Y375314D01*
Y374551D01*
X594411Y373749D01*
X595024Y373136D01*
X595826Y372803D01*
X596694D01*
X597495Y373136D01*
X598109Y373749D01*
X598441Y374551D01*
Y375418D01*
X598697Y375801D01*
X598720Y375803D01*
X599072D01*
X599177Y375847D01*
X599178Y375847D01*
X599531Y375494D01*
X599500Y375418D01*
Y374551D01*
X599832Y373749D01*
X600446Y373136D01*
X601247Y372803D01*
X602115D01*
X602917Y373136D01*
X603530Y373749D01*
X603862Y374551D01*
Y375418D01*
X604082Y375747D01*
X604539Y375793D01*
X604863Y375421D01*
X604862Y375418D01*
Y374551D01*
X605194Y373749D01*
X605808Y373136D01*
X606609Y372803D01*
X607477D01*
X608279Y373136D01*
X608892Y373749D01*
X609224Y374551D01*
Y375342D01*
X609224Y375418D01*
X609606Y375803D01*
X609934D01*
X610736Y376136D01*
X611349Y376749D01*
X611681Y377551D01*
Y378418D01*
X611349Y379220D01*
X610736Y379834D01*
X609934Y380166D01*
D02*
G37*
G36*
X341934Y379666D02*
X341066D01*
X340265Y379334D01*
X339651Y378720D01*
X339319Y377919D01*
Y377128D01*
X339319Y377051D01*
X338971Y376700D01*
X338511Y376683D01*
X338368Y376843D01*
X338181Y377069D01*
Y377919D01*
X337849Y378720D01*
X337235Y379334D01*
X336434Y379666D01*
X335566D01*
X334765Y379334D01*
X334151Y378720D01*
X333819Y377919D01*
Y377051D01*
X333599Y376723D01*
X333142Y376676D01*
X332818Y377049D01*
X332819Y377051D01*
Y377919D01*
X332487Y378720D01*
X331873Y379334D01*
X331072Y379666D01*
X330204D01*
X329402Y379334D01*
X328789Y378720D01*
X328457Y377919D01*
Y377051D01*
X328252Y376745D01*
X327816Y376712D01*
X327457Y377082D01*
Y377919D01*
X327125Y378720D01*
X326511Y379334D01*
X325710Y379666D01*
X324842D01*
X324040Y379334D01*
X323427Y378720D01*
X323095Y377919D01*
Y377128D01*
X323095Y377051D01*
X322713Y376666D01*
X322476D01*
X322092Y377044D01*
X322094Y377051D01*
Y377919D01*
X321762Y378720D01*
X321149Y379334D01*
X320347Y379666D01*
X319480D01*
X318678Y379334D01*
X318064Y378720D01*
X317732Y377919D01*
Y377051D01*
X318064Y376249D01*
X318678Y375636D01*
X319480Y375304D01*
X320256D01*
X320640Y374925D01*
X320638Y374919D01*
Y374051D01*
X320970Y373249D01*
X321583Y372636D01*
X322385Y372304D01*
X323253D01*
X324054Y372636D01*
X324668Y373249D01*
X325000Y374051D01*
Y374842D01*
X325000Y374919D01*
X325289Y375210D01*
X325695Y375215D01*
X325719Y375196D01*
X326079Y374814D01*
Y374051D01*
X326411Y373249D01*
X327024Y372636D01*
X327826Y372304D01*
X328694D01*
X329495Y372636D01*
X330109Y373249D01*
X330441Y374051D01*
Y374919D01*
X330697Y375301D01*
X330720Y375304D01*
X331072D01*
X331177Y375347D01*
X331178Y375347D01*
X331531Y374994D01*
X331500Y374919D01*
Y374051D01*
X331832Y373249D01*
X332446Y372636D01*
X333247Y372304D01*
X334115D01*
X334917Y372636D01*
X335530Y373249D01*
X335862Y374051D01*
Y374919D01*
X336082Y375247D01*
X336539Y375293D01*
X336863Y374921D01*
X336862Y374919D01*
Y374051D01*
X337194Y373249D01*
X337808Y372636D01*
X338610Y372304D01*
X339477D01*
X340279Y372636D01*
X340892Y373249D01*
X341224Y374051D01*
Y374842D01*
X341224Y374919D01*
X341606Y375304D01*
X341934D01*
X342736Y375636D01*
X343349Y376249D01*
X343681Y377051D01*
Y377919D01*
X343349Y378720D01*
X342736Y379334D01*
X341934Y379666D01*
D02*
G37*
G36*
X510391Y381472D02*
X509609D01*
X508854Y381270D01*
X508177Y380879D01*
X507625Y380326D01*
X507234Y379649D01*
X507031Y378894D01*
Y378113D01*
X507234Y377358D01*
X507625Y376681D01*
X508177Y376128D01*
X508854Y375737D01*
X509609Y375535D01*
X510391D01*
X511146Y375737D01*
X511823Y376128D01*
X512375Y376681D01*
X512766Y377358D01*
X512968Y378113D01*
Y378894D01*
X512766Y379649D01*
X512375Y380326D01*
X511823Y380879D01*
X511146Y381270D01*
X510391Y381472D01*
D02*
G37*
G36*
X500391D02*
X499609D01*
X498854Y381270D01*
X498177Y380879D01*
X497625Y380326D01*
X497234Y379649D01*
X497031Y378894D01*
Y378113D01*
X497234Y377358D01*
X497625Y376681D01*
X498177Y376128D01*
X498854Y375737D01*
X499609Y375535D01*
X500391D01*
X501146Y375737D01*
X501823Y376128D01*
X502375Y376681D01*
X502766Y377358D01*
X502969Y378113D01*
Y378894D01*
X502766Y379649D01*
X502375Y380326D01*
X501823Y380879D01*
X501146Y381270D01*
X500391Y381472D01*
D02*
G37*
G36*
X242391Y380972D02*
X241609D01*
X240854Y380770D01*
X240177Y380379D01*
X239625Y379826D01*
X239234Y379149D01*
X239032Y378394D01*
Y377613D01*
X239234Y376858D01*
X239625Y376181D01*
X240177Y375628D01*
X240854Y375237D01*
X241609Y375035D01*
X242391D01*
X243146Y375237D01*
X243823Y375628D01*
X244375Y376181D01*
X244766Y376858D01*
X244969Y377613D01*
Y378394D01*
X244766Y379149D01*
X244375Y379826D01*
X243823Y380379D01*
X243146Y380770D01*
X242391Y380972D01*
D02*
G37*
G36*
X232391D02*
X231609D01*
X230854Y380770D01*
X230177Y380379D01*
X229625Y379826D01*
X229234Y379149D01*
X229031Y378394D01*
Y377613D01*
X229234Y376858D01*
X229625Y376181D01*
X230177Y375628D01*
X230854Y375237D01*
X231609Y375035D01*
X232391D01*
X233146Y375237D01*
X233823Y375628D01*
X234375Y376181D01*
X234766Y376858D01*
X234968Y377613D01*
Y378394D01*
X234766Y379149D01*
X234375Y379826D01*
X233823Y380379D01*
X233146Y380770D01*
X232391Y380972D01*
D02*
G37*
G36*
X505391Y376468D02*
X504609D01*
X503854Y376266D01*
X503177Y375875D01*
X502625Y375323D01*
X502234Y374646D01*
X502032Y373891D01*
Y373109D01*
X502234Y372354D01*
X502625Y371677D01*
X503177Y371125D01*
X503854Y370734D01*
X504609Y370532D01*
X505391D01*
X506146Y370734D01*
X506823Y371125D01*
X507375Y371677D01*
X507766Y372354D01*
X507969Y373109D01*
Y373891D01*
X507766Y374646D01*
X507375Y375323D01*
X506823Y375875D01*
X506146Y376266D01*
X505391Y376468D01*
D02*
G37*
G36*
X237391Y375969D02*
X236609D01*
X235854Y375766D01*
X235177Y375375D01*
X234625Y374823D01*
X234234Y374146D01*
X234032Y373391D01*
Y372609D01*
X234234Y371854D01*
X234625Y371177D01*
X235177Y370625D01*
X235854Y370234D01*
X236609Y370031D01*
X237391D01*
X238146Y370234D01*
X238823Y370625D01*
X239375Y371177D01*
X239766Y371854D01*
X239968Y372609D01*
Y373391D01*
X239766Y374146D01*
X239375Y374823D01*
X238823Y375375D01*
X238146Y375766D01*
X237391Y375969D01*
D02*
G37*
G36*
X510391Y371472D02*
X509609D01*
X508854Y371270D01*
X508177Y370879D01*
X507625Y370326D01*
X507234Y369649D01*
X507031Y368894D01*
Y368113D01*
X507234Y367358D01*
X507625Y366681D01*
X508177Y366128D01*
X508854Y365737D01*
X509609Y365535D01*
X510391D01*
X511146Y365737D01*
X511823Y366128D01*
X512375Y366681D01*
X512766Y367358D01*
X512968Y368113D01*
Y368894D01*
X512766Y369649D01*
X512375Y370326D01*
X511823Y370879D01*
X511146Y371270D01*
X510391Y371472D01*
D02*
G37*
G36*
X500391D02*
X499609D01*
X498854Y371270D01*
X498177Y370879D01*
X497625Y370326D01*
X497234Y369649D01*
X497031Y368894D01*
Y368113D01*
X497234Y367358D01*
X497625Y366681D01*
X498177Y366128D01*
X498854Y365737D01*
X499609Y365535D01*
X500391D01*
X501146Y365737D01*
X501823Y366128D01*
X502375Y366681D01*
X502766Y367358D01*
X502969Y368113D01*
Y368894D01*
X502766Y369649D01*
X502375Y370326D01*
X501823Y370879D01*
X501146Y371270D01*
X500391Y371472D01*
D02*
G37*
G36*
X346434Y369681D02*
X345566D01*
X344764Y369349D01*
X344151Y368736D01*
X343819Y367934D01*
Y367066D01*
X344151Y366265D01*
X344764Y365651D01*
X345566Y365319D01*
X346434D01*
X347235Y365651D01*
X347849Y366265D01*
X348181Y367066D01*
Y367934D01*
X347849Y368736D01*
X347235Y369349D01*
X346434Y369681D01*
D02*
G37*
G36*
X242391Y370972D02*
X241609D01*
X240854Y370770D01*
X240177Y370379D01*
X239625Y369826D01*
X239234Y369149D01*
X239032Y368394D01*
Y367613D01*
X239234Y366858D01*
X239625Y366181D01*
X240177Y365628D01*
X240854Y365237D01*
X241609Y365035D01*
X242391D01*
X243146Y365237D01*
X243823Y365628D01*
X244375Y366181D01*
X244766Y366858D01*
X244969Y367613D01*
Y368394D01*
X244766Y369149D01*
X244375Y369826D01*
X243823Y370379D01*
X243146Y370770D01*
X242391Y370972D01*
D02*
G37*
G36*
X232391D02*
X231609D01*
X230854Y370770D01*
X230177Y370379D01*
X229625Y369826D01*
X229234Y369149D01*
X229031Y368394D01*
Y367613D01*
X229234Y366858D01*
X229625Y366181D01*
X230177Y365628D01*
X230854Y365237D01*
X231609Y365035D01*
X232391D01*
X233146Y365237D01*
X233823Y365628D01*
X234375Y366181D01*
X234766Y366858D01*
X234968Y367613D01*
Y368394D01*
X234766Y369149D01*
X234375Y369826D01*
X233823Y370379D01*
X233146Y370770D01*
X232391Y370972D01*
D02*
G37*
G36*
X505391Y366469D02*
X504609D01*
X503854Y366266D01*
X503177Y365875D01*
X502625Y365323D01*
X502234Y364646D01*
X502032Y363891D01*
Y363109D01*
X502234Y362354D01*
X502625Y361677D01*
X503177Y361125D01*
X503854Y360734D01*
X504609Y360531D01*
X505391D01*
X506146Y360734D01*
X506823Y361125D01*
X507375Y361677D01*
X507766Y362354D01*
X507969Y363109D01*
Y363891D01*
X507766Y364646D01*
X507375Y365323D01*
X506823Y365875D01*
X506146Y366266D01*
X505391Y366469D01*
D02*
G37*
G36*
X237391Y365968D02*
X236609D01*
X235854Y365766D01*
X235177Y365375D01*
X234625Y364823D01*
X234234Y364146D01*
X234032Y363391D01*
Y362609D01*
X234234Y361854D01*
X234625Y361177D01*
X235177Y360625D01*
X235854Y360234D01*
X236609Y360032D01*
X237391D01*
X238146Y360234D01*
X238823Y360625D01*
X239375Y361177D01*
X239766Y361854D01*
X239968Y362609D01*
Y363391D01*
X239766Y364146D01*
X239375Y364823D01*
X238823Y365375D01*
X238146Y365766D01*
X237391Y365968D01*
D02*
G37*
G36*
X510391Y361472D02*
X509609D01*
X508854Y361270D01*
X508177Y360879D01*
X507625Y360326D01*
X507234Y359649D01*
X507031Y358894D01*
Y358113D01*
X507234Y357358D01*
X507625Y356681D01*
X508177Y356128D01*
X508854Y355737D01*
X509609Y355535D01*
X510391D01*
X511146Y355737D01*
X511823Y356128D01*
X512375Y356681D01*
X512766Y357358D01*
X512968Y358113D01*
Y358894D01*
X512766Y359649D01*
X512375Y360326D01*
X511823Y360879D01*
X511146Y361270D01*
X510391Y361472D01*
D02*
G37*
G36*
X500391D02*
X499609D01*
X498854Y361270D01*
X498177Y360879D01*
X497625Y360326D01*
X497234Y359649D01*
X497031Y358894D01*
Y358113D01*
X497234Y357358D01*
X497625Y356681D01*
X498177Y356128D01*
X498854Y355737D01*
X499609Y355535D01*
X500391D01*
X501146Y355737D01*
X501823Y356128D01*
X502375Y356681D01*
X502766Y357358D01*
X502969Y358113D01*
Y358894D01*
X502766Y359649D01*
X502375Y360326D01*
X501823Y360879D01*
X501146Y361270D01*
X500391Y361472D01*
D02*
G37*
G36*
X242391Y360972D02*
X241609D01*
X240854Y360770D01*
X240177Y360379D01*
X239625Y359826D01*
X239234Y359149D01*
X239032Y358394D01*
Y357613D01*
X239234Y356858D01*
X239625Y356181D01*
X240177Y355628D01*
X240854Y355237D01*
X241609Y355035D01*
X242391D01*
X243146Y355237D01*
X243823Y355628D01*
X244375Y356181D01*
X244766Y356858D01*
X244969Y357613D01*
Y358394D01*
X244766Y359149D01*
X244375Y359826D01*
X243823Y360379D01*
X243146Y360770D01*
X242391Y360972D01*
D02*
G37*
G36*
X232391D02*
X231609D01*
X230854Y360770D01*
X230177Y360379D01*
X229625Y359826D01*
X229234Y359149D01*
X229031Y358394D01*
Y357613D01*
X229234Y356858D01*
X229625Y356181D01*
X230177Y355628D01*
X230854Y355237D01*
X231609Y355035D01*
X232391D01*
X233146Y355237D01*
X233823Y355628D01*
X234375Y356181D01*
X234766Y356858D01*
X234968Y357613D01*
Y358394D01*
X234766Y359149D01*
X234375Y359826D01*
X233823Y360379D01*
X233146Y360770D01*
X232391Y360972D01*
D02*
G37*
G36*
X505391Y356469D02*
X504609D01*
X503854Y356266D01*
X503177Y355875D01*
X502625Y355323D01*
X502234Y354646D01*
X502032Y353891D01*
Y353109D01*
X502234Y352354D01*
X502625Y351677D01*
X503177Y351125D01*
X503854Y350734D01*
X504609Y350532D01*
X505391D01*
X506146Y350734D01*
X506823Y351125D01*
X507375Y351677D01*
X507766Y352354D01*
X507969Y353109D01*
Y353891D01*
X507766Y354646D01*
X507375Y355323D01*
X506823Y355875D01*
X506146Y356266D01*
X505391Y356469D01*
D02*
G37*
G36*
X237391Y355968D02*
X236609D01*
X235854Y355766D01*
X235177Y355375D01*
X234625Y354823D01*
X234234Y354146D01*
X234032Y353391D01*
Y352609D01*
X234234Y351854D01*
X234625Y351177D01*
X235177Y350625D01*
X235854Y350234D01*
X236609Y350031D01*
X237391D01*
X238146Y350234D01*
X238823Y350625D01*
X239375Y351177D01*
X239766Y351854D01*
X239968Y352609D01*
Y353391D01*
X239766Y354146D01*
X239375Y354823D01*
X238823Y355375D01*
X238146Y355766D01*
X237391Y355968D01*
D02*
G37*
G36*
X510391Y351472D02*
X509609D01*
X508854Y351270D01*
X508177Y350879D01*
X507625Y350326D01*
X507234Y349649D01*
X507031Y348894D01*
Y348113D01*
X507234Y347358D01*
X507625Y346681D01*
X508177Y346128D01*
X508854Y345737D01*
X509609Y345535D01*
X510391D01*
X511146Y345737D01*
X511823Y346128D01*
X512375Y346681D01*
X512766Y347358D01*
X512968Y348113D01*
Y348894D01*
X512766Y349649D01*
X512375Y350326D01*
X511823Y350879D01*
X511146Y351270D01*
X510391Y351472D01*
D02*
G37*
G36*
X500391D02*
X499609D01*
X498854Y351270D01*
X498177Y350879D01*
X497625Y350326D01*
X497234Y349649D01*
X497031Y348894D01*
Y348113D01*
X497234Y347358D01*
X497625Y346681D01*
X498177Y346128D01*
X498854Y345737D01*
X499609Y345535D01*
X500391D01*
X501146Y345737D01*
X501823Y346128D01*
X502375Y346681D01*
X502766Y347358D01*
X502969Y348113D01*
Y348894D01*
X502766Y349649D01*
X502375Y350326D01*
X501823Y350879D01*
X501146Y351270D01*
X500391Y351472D01*
D02*
G37*
G36*
X242391Y350972D02*
X241609D01*
X240854Y350770D01*
X240177Y350379D01*
X239625Y349826D01*
X239234Y349149D01*
X239032Y348394D01*
Y347613D01*
X239234Y346858D01*
X239625Y346181D01*
X240177Y345628D01*
X240854Y345237D01*
X241609Y345035D01*
X242391D01*
X243146Y345237D01*
X243823Y345628D01*
X244375Y346181D01*
X244766Y346858D01*
X244969Y347613D01*
Y348394D01*
X244766Y349149D01*
X244375Y349826D01*
X243823Y350379D01*
X243146Y350770D01*
X242391Y350972D01*
D02*
G37*
G36*
X232391D02*
X231609D01*
X230854Y350770D01*
X230177Y350379D01*
X229625Y349826D01*
X229234Y349149D01*
X229031Y348394D01*
Y347613D01*
X229234Y346858D01*
X229625Y346181D01*
X230177Y345628D01*
X230854Y345237D01*
X231609Y345035D01*
X232391D01*
X233146Y345237D01*
X233823Y345628D01*
X234375Y346181D01*
X234766Y346858D01*
X234968Y347613D01*
Y348394D01*
X234766Y349149D01*
X234375Y349826D01*
X233823Y350379D01*
X233146Y350770D01*
X232391Y350972D01*
D02*
G37*
G36*
X505391Y346468D02*
X504609D01*
X503854Y346266D01*
X503177Y345875D01*
X502625Y345323D01*
X502234Y344646D01*
X502032Y343891D01*
Y343109D01*
X502234Y342354D01*
X502625Y341677D01*
X503177Y341125D01*
X503854Y340734D01*
X504609Y340531D01*
X505391D01*
X506146Y340734D01*
X506823Y341125D01*
X507375Y341677D01*
X507766Y342354D01*
X507969Y343109D01*
Y343891D01*
X507766Y344646D01*
X507375Y345323D01*
X506823Y345875D01*
X506146Y346266D01*
X505391Y346468D01*
D02*
G37*
G36*
X237391Y345969D02*
X236609D01*
X235854Y345766D01*
X235177Y345375D01*
X234625Y344823D01*
X234234Y344146D01*
X234032Y343391D01*
Y342609D01*
X234234Y341854D01*
X234625Y341177D01*
X235177Y340625D01*
X235854Y340234D01*
X236609Y340032D01*
X237391D01*
X238146Y340234D01*
X238823Y340625D01*
X239375Y341177D01*
X239766Y341854D01*
X239968Y342609D01*
Y343391D01*
X239766Y344146D01*
X239375Y344823D01*
X238823Y345375D01*
X238146Y345766D01*
X237391Y345969D01*
D02*
G37*
G36*
X510391Y341472D02*
X509609D01*
X508854Y341270D01*
X508177Y340879D01*
X507625Y340326D01*
X507234Y339649D01*
X507031Y338894D01*
Y338113D01*
X507234Y337358D01*
X507625Y336681D01*
X508177Y336128D01*
X508854Y335737D01*
X509609Y335535D01*
X510391D01*
X511146Y335737D01*
X511823Y336128D01*
X512375Y336681D01*
X512766Y337358D01*
X512968Y338113D01*
Y338894D01*
X512766Y339649D01*
X512375Y340326D01*
X511823Y340879D01*
X511146Y341270D01*
X510391Y341472D01*
D02*
G37*
G36*
X500391D02*
X499609D01*
X498854Y341270D01*
X498177Y340879D01*
X497625Y340326D01*
X497234Y339649D01*
X497031Y338894D01*
Y338113D01*
X497234Y337358D01*
X497625Y336681D01*
X498177Y336128D01*
X498854Y335737D01*
X499609Y335535D01*
X500391D01*
X501146Y335737D01*
X501823Y336128D01*
X502375Y336681D01*
X502766Y337358D01*
X502969Y338113D01*
Y338894D01*
X502766Y339649D01*
X502375Y340326D01*
X501823Y340879D01*
X501146Y341270D01*
X500391Y341472D01*
D02*
G37*
G36*
X242391Y340972D02*
X241609D01*
X240854Y340770D01*
X240177Y340379D01*
X239625Y339826D01*
X239234Y339149D01*
X239032Y338394D01*
Y337613D01*
X239234Y336858D01*
X239625Y336181D01*
X240177Y335628D01*
X240854Y335237D01*
X241609Y335035D01*
X242391D01*
X243146Y335237D01*
X243823Y335628D01*
X244375Y336181D01*
X244766Y336858D01*
X244969Y337613D01*
Y338394D01*
X244766Y339149D01*
X244375Y339826D01*
X243823Y340379D01*
X243146Y340770D01*
X242391Y340972D01*
D02*
G37*
G36*
X232391D02*
X231609D01*
X230854Y340770D01*
X230177Y340379D01*
X229625Y339826D01*
X229234Y339149D01*
X229031Y338394D01*
Y337613D01*
X229234Y336858D01*
X229625Y336181D01*
X230177Y335628D01*
X230854Y335237D01*
X231609Y335035D01*
X232391D01*
X233146Y335237D01*
X233823Y335628D01*
X234375Y336181D01*
X234766Y336858D01*
X234968Y337613D01*
Y338394D01*
X234766Y339149D01*
X234375Y339826D01*
X233823Y340379D01*
X233146Y340770D01*
X232391Y340972D01*
D02*
G37*
G36*
X505391Y336469D02*
X504609D01*
X503854Y336266D01*
X503177Y335875D01*
X502625Y335323D01*
X502234Y334646D01*
X502032Y333891D01*
Y333109D01*
X502234Y332354D01*
X502625Y331677D01*
X503177Y331125D01*
X503854Y330734D01*
X504609Y330532D01*
X505391D01*
X506146Y330734D01*
X506823Y331125D01*
X507375Y331677D01*
X507766Y332354D01*
X507969Y333109D01*
Y333891D01*
X507766Y334646D01*
X507375Y335323D01*
X506823Y335875D01*
X506146Y336266D01*
X505391Y336469D01*
D02*
G37*
G36*
X237391Y335968D02*
X236609D01*
X235854Y335766D01*
X235177Y335375D01*
X234625Y334823D01*
X234234Y334146D01*
X234032Y333391D01*
Y332609D01*
X234234Y331854D01*
X234625Y331177D01*
X235177Y330625D01*
X235854Y330234D01*
X236609Y330031D01*
X237391D01*
X238146Y330234D01*
X238823Y330625D01*
X239375Y331177D01*
X239766Y331854D01*
X239968Y332609D01*
Y333391D01*
X239766Y334146D01*
X239375Y334823D01*
X238823Y335375D01*
X238146Y335766D01*
X237391Y335968D01*
D02*
G37*
G36*
X113672Y334291D02*
X112804D01*
X112003Y333959D01*
X111389Y333345D01*
X111057Y332543D01*
Y331676D01*
X111389Y330874D01*
X112003Y330260D01*
X112804Y329928D01*
X113672D01*
X114473Y330260D01*
X115087Y330874D01*
X115419Y331676D01*
Y332543D01*
X115087Y333345D01*
X114473Y333959D01*
X113672Y334291D01*
D02*
G37*
G36*
X120224Y334855D02*
X119356D01*
X118555Y334523D01*
X117941Y333910D01*
X117609Y333108D01*
Y332240D01*
X117941Y331439D01*
X118555Y330825D01*
X118984Y330647D01*
X118991Y330611D01*
X118935Y330127D01*
X118264Y329849D01*
X117651Y329236D01*
X117319Y328434D01*
Y327566D01*
X117651Y326764D01*
X118264Y326151D01*
X119066Y325819D01*
X119934D01*
X120736Y326151D01*
X121349Y326764D01*
X121681Y327566D01*
Y328434D01*
X121349Y329236D01*
X120736Y329849D01*
X120306Y330027D01*
X120299Y330064D01*
X120355Y330548D01*
X121026Y330825D01*
X121639Y331439D01*
X121971Y332240D01*
Y333108D01*
X121639Y333910D01*
X121026Y334523D01*
X120224Y334855D01*
D02*
G37*
G36*
X510391Y331472D02*
X509609D01*
X508854Y331270D01*
X508177Y330879D01*
X507625Y330326D01*
X507234Y329649D01*
X507031Y328894D01*
Y328113D01*
X507234Y327358D01*
X507625Y326681D01*
X508177Y326128D01*
X508854Y325737D01*
X509609Y325535D01*
X510391D01*
X511146Y325737D01*
X511823Y326128D01*
X512375Y326681D01*
X512766Y327358D01*
X512968Y328113D01*
Y328894D01*
X512766Y329649D01*
X512375Y330326D01*
X511823Y330879D01*
X511146Y331270D01*
X510391Y331472D01*
D02*
G37*
G36*
X500391D02*
X499609D01*
X498854Y331270D01*
X498177Y330879D01*
X497625Y330326D01*
X497234Y329649D01*
X497031Y328894D01*
Y328113D01*
X497234Y327358D01*
X497625Y326681D01*
X498177Y326128D01*
X498854Y325737D01*
X499609Y325535D01*
X500391D01*
X501146Y325737D01*
X501823Y326128D01*
X502375Y326681D01*
X502766Y327358D01*
X502969Y328113D01*
Y328894D01*
X502766Y329649D01*
X502375Y330326D01*
X501823Y330879D01*
X501146Y331270D01*
X500391Y331472D01*
D02*
G37*
G36*
X242391Y330972D02*
X241609D01*
X240854Y330770D01*
X240177Y330379D01*
X239625Y329826D01*
X239234Y329149D01*
X239032Y328394D01*
Y327613D01*
X239234Y326858D01*
X239625Y326181D01*
X240177Y325628D01*
X240854Y325237D01*
X241609Y325035D01*
X242391D01*
X243146Y325237D01*
X243823Y325628D01*
X244375Y326181D01*
X244766Y326858D01*
X244969Y327613D01*
Y328394D01*
X244766Y329149D01*
X244375Y329826D01*
X243823Y330379D01*
X243146Y330770D01*
X242391Y330972D01*
D02*
G37*
G36*
X232391D02*
X231609D01*
X230854Y330770D01*
X230177Y330379D01*
X229625Y329826D01*
X229234Y329149D01*
X229031Y328394D01*
Y327613D01*
X229234Y326858D01*
X229625Y326181D01*
X230177Y325628D01*
X230854Y325237D01*
X231609Y325035D01*
X232391D01*
X233146Y325237D01*
X233823Y325628D01*
X234375Y326181D01*
X234766Y326858D01*
X234968Y327613D01*
Y328394D01*
X234766Y329149D01*
X234375Y329826D01*
X233823Y330379D01*
X233146Y330770D01*
X232391Y330972D01*
D02*
G37*
G36*
X505391Y326468D02*
X504609D01*
X503854Y326266D01*
X503177Y325875D01*
X502625Y325323D01*
X502234Y324646D01*
X502032Y323891D01*
Y323109D01*
X502234Y322354D01*
X502625Y321677D01*
X503177Y321125D01*
X503854Y320734D01*
X504609Y320532D01*
X505391D01*
X506146Y320734D01*
X506823Y321125D01*
X507375Y321677D01*
X507766Y322354D01*
X507969Y323109D01*
Y323891D01*
X507766Y324646D01*
X507375Y325323D01*
X506823Y325875D01*
X506146Y326266D01*
X505391Y326468D01*
D02*
G37*
G36*
X237391Y325969D02*
X236609D01*
X235854Y325766D01*
X235177Y325375D01*
X234625Y324823D01*
X234234Y324146D01*
X234032Y323391D01*
Y322609D01*
X234234Y321854D01*
X234625Y321177D01*
X235177Y320625D01*
X235854Y320234D01*
X236609Y320031D01*
X237391D01*
X238146Y320234D01*
X238823Y320625D01*
X239375Y321177D01*
X239766Y321854D01*
X239968Y322609D01*
Y323391D01*
X239766Y324146D01*
X239375Y324823D01*
X238823Y325375D01*
X238146Y325766D01*
X237391Y325969D01*
D02*
G37*
G36*
X510391Y321472D02*
X509609D01*
X508854Y321270D01*
X508177Y320879D01*
X507625Y320326D01*
X507234Y319649D01*
X507031Y318894D01*
Y318113D01*
X507234Y317358D01*
X507625Y316681D01*
X508177Y316128D01*
X508854Y315737D01*
X509609Y315535D01*
X510391D01*
X511146Y315737D01*
X511823Y316128D01*
X512375Y316681D01*
X512766Y317358D01*
X512968Y318113D01*
Y318894D01*
X512766Y319649D01*
X512375Y320326D01*
X511823Y320879D01*
X511146Y321270D01*
X510391Y321472D01*
D02*
G37*
G36*
X500391D02*
X499609D01*
X498854Y321270D01*
X498177Y320879D01*
X497625Y320326D01*
X497234Y319649D01*
X497031Y318894D01*
Y318113D01*
X497234Y317358D01*
X497625Y316681D01*
X498177Y316128D01*
X498854Y315737D01*
X499609Y315535D01*
X500391D01*
X501146Y315737D01*
X501823Y316128D01*
X502375Y316681D01*
X502766Y317358D01*
X502969Y318113D01*
Y318894D01*
X502766Y319649D01*
X502375Y320326D01*
X501823Y320879D01*
X501146Y321270D01*
X500391Y321472D01*
D02*
G37*
G36*
X242391Y320972D02*
X241609D01*
X240854Y320770D01*
X240177Y320379D01*
X239625Y319826D01*
X239234Y319149D01*
X239032Y318394D01*
Y317613D01*
X239234Y316858D01*
X239625Y316181D01*
X240177Y315628D01*
X240854Y315237D01*
X241609Y315035D01*
X242391D01*
X243146Y315237D01*
X243823Y315628D01*
X244375Y316181D01*
X244766Y316858D01*
X244969Y317613D01*
Y318394D01*
X244766Y319149D01*
X244375Y319826D01*
X243823Y320379D01*
X243146Y320770D01*
X242391Y320972D01*
D02*
G37*
G36*
X232391D02*
X231609D01*
X230854Y320770D01*
X230177Y320379D01*
X229625Y319826D01*
X229234Y319149D01*
X229031Y318394D01*
Y317613D01*
X229234Y316858D01*
X229625Y316181D01*
X230177Y315628D01*
X230854Y315237D01*
X231609Y315035D01*
X232391D01*
X233146Y315237D01*
X233823Y315628D01*
X234375Y316181D01*
X234766Y316858D01*
X234968Y317613D01*
Y318394D01*
X234766Y319149D01*
X234375Y319826D01*
X233823Y320379D01*
X233146Y320770D01*
X232391Y320972D01*
D02*
G37*
G36*
X505391Y316469D02*
X504609D01*
X503854Y316266D01*
X503177Y315875D01*
X502625Y315323D01*
X502234Y314646D01*
X502032Y313891D01*
Y313109D01*
X502234Y312354D01*
X502625Y311677D01*
X503177Y311125D01*
X503854Y310734D01*
X504609Y310531D01*
X505391D01*
X506146Y310734D01*
X506823Y311125D01*
X507375Y311677D01*
X507766Y312354D01*
X507969Y313109D01*
Y313891D01*
X507766Y314646D01*
X507375Y315323D01*
X506823Y315875D01*
X506146Y316266D01*
X505391Y316469D01*
D02*
G37*
G36*
X237391Y315968D02*
X236609D01*
X235854Y315766D01*
X235177Y315375D01*
X234625Y314823D01*
X234234Y314146D01*
X234032Y313391D01*
Y312609D01*
X234234Y311854D01*
X234625Y311177D01*
X235177Y310625D01*
X235854Y310234D01*
X236609Y310032D01*
X237391D01*
X238146Y310234D01*
X238823Y310625D01*
X239375Y311177D01*
X239766Y311854D01*
X239968Y312609D01*
Y313391D01*
X239766Y314146D01*
X239375Y314823D01*
X238823Y315375D01*
X238146Y315766D01*
X237391Y315968D01*
D02*
G37*
G36*
X510391Y311472D02*
X509609D01*
X508854Y311270D01*
X508177Y310879D01*
X507625Y310326D01*
X507234Y309649D01*
X507031Y308894D01*
Y308113D01*
X507234Y307358D01*
X507625Y306681D01*
X508177Y306128D01*
X508854Y305737D01*
X509609Y305535D01*
X510391D01*
X511146Y305737D01*
X511823Y306128D01*
X512375Y306681D01*
X512766Y307358D01*
X512968Y308113D01*
Y308894D01*
X512766Y309649D01*
X512375Y310326D01*
X511823Y310879D01*
X511146Y311270D01*
X510391Y311472D01*
D02*
G37*
G36*
X500391D02*
X499609D01*
X498854Y311270D01*
X498177Y310879D01*
X497625Y310326D01*
X497234Y309649D01*
X497031Y308894D01*
Y308113D01*
X497234Y307358D01*
X497625Y306681D01*
X498177Y306128D01*
X498854Y305737D01*
X499609Y305535D01*
X500391D01*
X501146Y305737D01*
X501823Y306128D01*
X502375Y306681D01*
X502766Y307358D01*
X502969Y308113D01*
Y308894D01*
X502766Y309649D01*
X502375Y310326D01*
X501823Y310879D01*
X501146Y311270D01*
X500391Y311472D01*
D02*
G37*
G36*
X242391Y310972D02*
X241609D01*
X240854Y310770D01*
X240177Y310379D01*
X239625Y309826D01*
X239234Y309149D01*
X239032Y308394D01*
Y307613D01*
X239234Y306858D01*
X239625Y306181D01*
X240177Y305628D01*
X240854Y305237D01*
X241609Y305035D01*
X242391D01*
X243146Y305237D01*
X243823Y305628D01*
X244375Y306181D01*
X244766Y306858D01*
X244969Y307613D01*
Y308394D01*
X244766Y309149D01*
X244375Y309826D01*
X243823Y310379D01*
X243146Y310770D01*
X242391Y310972D01*
D02*
G37*
G36*
X232391D02*
X231609D01*
X230854Y310770D01*
X230177Y310379D01*
X229625Y309826D01*
X229234Y309149D01*
X229031Y308394D01*
Y307613D01*
X229234Y306858D01*
X229625Y306181D01*
X230177Y305628D01*
X230854Y305237D01*
X231609Y305035D01*
X232391D01*
X233146Y305237D01*
X233823Y305628D01*
X234375Y306181D01*
X234766Y306858D01*
X234968Y307613D01*
Y308394D01*
X234766Y309149D01*
X234375Y309826D01*
X233823Y310379D01*
X233146Y310770D01*
X232391Y310972D01*
D02*
G37*
G36*
X549434Y305500D02*
X548566D01*
X547764Y305168D01*
X547151Y304554D01*
X546819Y303753D01*
Y302885D01*
X547151Y302083D01*
X547764Y301470D01*
X548514Y301160D01*
X548541Y300909D01*
X548514Y300659D01*
X547764Y300349D01*
X547151Y299735D01*
X546819Y298934D01*
Y298066D01*
X547151Y297265D01*
X547764Y296651D01*
X548566Y296319D01*
X549434D01*
X550236Y296651D01*
X550849Y297265D01*
X551181Y298066D01*
Y298934D01*
X550849Y299735D01*
X550236Y300349D01*
X549486Y300659D01*
X549459Y300909D01*
X549486Y301160D01*
X550236Y301470D01*
X550849Y302083D01*
X551181Y302885D01*
Y303753D01*
X550849Y304554D01*
X550236Y305168D01*
X549434Y305500D01*
D02*
G37*
G36*
X281434Y305000D02*
X280566D01*
X279765Y304668D01*
X279151Y304054D01*
X278819Y303253D01*
Y302385D01*
X279151Y301583D01*
X279765Y300970D01*
X280514Y300659D01*
X280541Y300410D01*
X280514Y300160D01*
X279765Y299849D01*
X279151Y299236D01*
X278819Y298434D01*
Y297566D01*
X279151Y296764D01*
X279765Y296151D01*
X280566Y295819D01*
X281434D01*
X282236Y296151D01*
X282849Y296764D01*
X283181Y297566D01*
Y298434D01*
X282849Y299236D01*
X282236Y299849D01*
X281486Y300160D01*
X281459Y300410D01*
X281486Y300659D01*
X282236Y300970D01*
X282849Y301583D01*
X283181Y302385D01*
Y303253D01*
X282849Y304054D01*
X282236Y304668D01*
X281434Y305000D01*
D02*
G37*
G36*
X346434Y225181D02*
X345566D01*
X344764Y224849D01*
X344151Y224236D01*
X343819Y223434D01*
Y222566D01*
X344151Y221764D01*
X344764Y221151D01*
X345566Y220819D01*
X346434D01*
X347235Y221151D01*
X347849Y221764D01*
X348181Y222566D01*
Y223434D01*
X347849Y224236D01*
X347235Y224849D01*
X346434Y225181D01*
D02*
G37*
G36*
X628434Y210181D02*
X627566D01*
X626764Y209849D01*
X626151Y209236D01*
X625819Y208434D01*
Y207566D01*
X626151Y206765D01*
X626764Y206151D01*
X627566Y205819D01*
X628434D01*
X628613Y205893D01*
X629113Y205559D01*
Y205171D01*
X629445Y204369D01*
X630059Y203755D01*
X630861Y203424D01*
X631481D01*
X631833Y202967D01*
X631819Y202934D01*
Y202066D01*
X632151Y201265D01*
X632764Y200651D01*
X633566Y200319D01*
X634434D01*
X634488Y200341D01*
X634841Y199988D01*
X634819Y199934D01*
Y199066D01*
X635151Y198265D01*
X635765Y197651D01*
X636566Y197319D01*
X637434D01*
X638236Y197651D01*
X638849Y198265D01*
X639181Y199066D01*
Y199934D01*
X638849Y200735D01*
X638236Y201349D01*
X637434Y201681D01*
X636566D01*
X636512Y201659D01*
X636159Y202012D01*
X636181Y202066D01*
Y202934D01*
X635849Y203735D01*
X635236Y204349D01*
X634434Y204681D01*
X633814D01*
X633462Y205138D01*
X633475Y205171D01*
Y206038D01*
X633143Y206840D01*
X632530Y207454D01*
X631728Y207786D01*
X630861D01*
X630681Y207711D01*
X630181Y208046D01*
Y208434D01*
X629849Y209236D01*
X629236Y209849D01*
X628434Y210181D01*
D02*
G37*
G36*
X375896Y194618D02*
X375028D01*
X374226Y194286D01*
X373613Y193673D01*
X373281Y192871D01*
Y192003D01*
X373613Y191202D01*
X374226Y190588D01*
X375028Y190256D01*
X375896D01*
X376697Y190588D01*
X377311Y191202D01*
X377643Y192003D01*
Y192871D01*
X377311Y193673D01*
X376697Y194286D01*
X375896Y194618D01*
D02*
G37*
G36*
X338934Y190681D02*
X338066D01*
X337264Y190349D01*
X336651Y189735D01*
X336319Y188934D01*
Y188066D01*
X336651Y187265D01*
X337264Y186651D01*
X338066Y186319D01*
X338934D01*
X339736Y186651D01*
X340349Y187265D01*
X340681Y188066D01*
Y188934D01*
X340349Y189735D01*
X339736Y190349D01*
X338934Y190681D01*
D02*
G37*
G36*
X375405Y189157D02*
X374537D01*
X373735Y188825D01*
X373122Y188212D01*
X372790Y187410D01*
Y186542D01*
X373122Y185741D01*
X373735Y185127D01*
X374537Y184795D01*
X375405D01*
X376206Y185127D01*
X376820Y185741D01*
X377152Y186542D01*
Y187410D01*
X376820Y188212D01*
X376206Y188825D01*
X375405Y189157D01*
D02*
G37*
G36*
X339434Y185181D02*
X338566D01*
X337765Y184849D01*
X337151Y184236D01*
X336819Y183434D01*
Y182566D01*
X337151Y181764D01*
X337765Y181151D01*
X338566Y180819D01*
X339434D01*
X340235Y181151D01*
X340849Y181764D01*
X341181Y182566D01*
Y183434D01*
X340849Y184236D01*
X340235Y184849D01*
X339434Y185181D01*
D02*
G37*
G36*
X354534Y178118D02*
X353666D01*
X352864Y177786D01*
X352251Y177172D01*
X351919Y176371D01*
Y175503D01*
X352251Y174701D01*
X352864Y174088D01*
X353666Y173756D01*
X354534D01*
X355335Y174088D01*
X355949Y174701D01*
X356281Y175503D01*
Y176371D01*
X355949Y177172D01*
X355335Y177786D01*
X354534Y178118D01*
D02*
G37*
G36*
X355161Y173245D02*
X354293D01*
X353492Y172913D01*
X352878Y172300D01*
X352546Y171498D01*
Y170631D01*
X352878Y169829D01*
X353492Y169215D01*
X354293Y168883D01*
X355161D01*
X355963Y169215D01*
X356576Y169829D01*
X356908Y170631D01*
Y171498D01*
X356576Y172300D01*
X355963Y172913D01*
X355161Y173245D01*
D02*
G37*
G36*
X277266Y172618D02*
X276398D01*
X275596Y172286D01*
X274983Y171673D01*
X274651Y170871D01*
Y170003D01*
X274983Y169202D01*
X275596Y168588D01*
X276398Y168256D01*
X277266D01*
X278067Y168588D01*
X278681Y169202D01*
X279013Y170003D01*
Y170871D01*
X278681Y171673D01*
X278067Y172286D01*
X277266Y172618D01*
D02*
G37*
G36*
X277316Y167118D02*
X276448D01*
X275646Y166786D01*
X275033Y166173D01*
X274701Y165371D01*
Y164503D01*
X275033Y163702D01*
X275646Y163088D01*
X276448Y162756D01*
X277316D01*
X278117Y163088D01*
X278731Y163702D01*
X279063Y164503D01*
Y165371D01*
X278731Y166173D01*
X278117Y166786D01*
X277316Y167118D01*
D02*
G37*
G36*
X354119Y166704D02*
X353252D01*
X352450Y166372D01*
X351837Y165758D01*
X351505Y164956D01*
Y164089D01*
X351837Y163287D01*
X352450Y162674D01*
X353252Y162342D01*
X354119D01*
X354921Y162674D01*
X355535Y163287D01*
X355867Y164089D01*
Y164956D01*
X355535Y165758D01*
X354921Y166372D01*
X354119Y166704D01*
D02*
G37*
G36*
X277316Y161618D02*
X276448D01*
X275646Y161286D01*
X275033Y160673D01*
X274701Y159871D01*
Y159003D01*
X275033Y158202D01*
X275646Y157588D01*
X276448Y157256D01*
X277316D01*
X278117Y157588D01*
X278731Y158202D01*
X279063Y159003D01*
Y159871D01*
X278731Y160673D01*
X278117Y161286D01*
X277316Y161618D01*
D02*
G37*
G36*
X354534Y161618D02*
X353666D01*
X352864Y161286D01*
X352251Y160672D01*
X351919Y159871D01*
Y159003D01*
X352251Y158201D01*
X352864Y157588D01*
X353666Y157256D01*
X354534D01*
X355335Y157588D01*
X355949Y158201D01*
X356281Y159003D01*
Y159871D01*
X355949Y160672D01*
X355335Y161286D01*
X354534Y161618D01*
D02*
G37*
G36*
X375316Y167118D02*
X374448D01*
X373646Y166786D01*
X373033Y166173D01*
X372701Y165371D01*
Y164503D01*
X373033Y163702D01*
X373646Y163088D01*
X373705Y163064D01*
Y162523D01*
X373138Y162288D01*
X372524Y161674D01*
X372193Y160873D01*
Y160005D01*
X372524Y159203D01*
X373138Y158590D01*
X373695Y158359D01*
X373666Y157961D01*
X373627Y157846D01*
X372857Y157527D01*
X372243Y156913D01*
X371911Y156112D01*
Y155244D01*
X372243Y154442D01*
X372857Y153829D01*
X373659Y153497D01*
X374526D01*
X375328Y153829D01*
X375942Y154442D01*
X376274Y155244D01*
Y156112D01*
X375942Y156913D01*
X375328Y157527D01*
X374771Y157758D01*
X374800Y158155D01*
X374839Y158271D01*
X375609Y158590D01*
X376223Y159203D01*
X376555Y160005D01*
Y160873D01*
X376223Y161674D01*
X375609Y162288D01*
X375551Y162312D01*
Y162853D01*
X376117Y163088D01*
X376731Y163702D01*
X377063Y164503D01*
Y165371D01*
X376731Y166173D01*
X376117Y166786D01*
X375316Y167118D01*
D02*
G37*
G36*
X277266Y156118D02*
X276398D01*
X275596Y155786D01*
X274983Y155173D01*
X274651Y154371D01*
Y153503D01*
X274983Y152702D01*
X275596Y152088D01*
X276398Y151756D01*
X277266D01*
X278067Y152088D01*
X278681Y152702D01*
X279013Y153503D01*
Y154371D01*
X278681Y155173D01*
X278067Y155786D01*
X277266Y156118D01*
D02*
G37*
G36*
X466427Y167508D02*
X465559D01*
X464758Y167176D01*
X464144Y166562D01*
X463812Y165760D01*
Y164893D01*
X464144Y164091D01*
X464261Y163974D01*
Y147692D01*
X463739Y147170D01*
X463407Y146368D01*
Y145500D01*
X463739Y144699D01*
X464353Y144085D01*
X465155Y143753D01*
X466022D01*
X466824Y144085D01*
X467438Y144699D01*
X467770Y145500D01*
Y146368D01*
X467438Y147170D01*
X467320Y147287D01*
Y163569D01*
X467842Y164091D01*
X468174Y164893D01*
Y165760D01*
X467842Y166562D01*
X467229Y167176D01*
X466427Y167508D01*
D02*
G37*
G36*
X258891Y143468D02*
X258109D01*
X257354Y143266D01*
X256677Y142875D01*
X256125Y142323D01*
X255734Y141646D01*
X255532Y140891D01*
Y140109D01*
X255734Y139354D01*
X256125Y138677D01*
X256677Y138125D01*
X257354Y137734D01*
X258109Y137531D01*
X258891D01*
X259646Y137734D01*
X260323Y138125D01*
X260875Y138677D01*
X261266Y139354D01*
X261469Y140109D01*
Y140891D01*
X261266Y141646D01*
X260875Y142323D01*
X260323Y142875D01*
X259646Y143266D01*
X258891Y143468D01*
D02*
G37*
G36*
X322923Y128603D02*
X322055D01*
X321254Y128271D01*
X320640Y127658D01*
X320308Y126856D01*
Y125988D01*
X320640Y125187D01*
X321254Y124573D01*
X322055Y124241D01*
X322923D01*
X323725Y124573D01*
X324338Y125187D01*
X324670Y125988D01*
Y126856D01*
X324338Y127658D01*
X323725Y128271D01*
X322923Y128603D01*
D02*
G37*
G36*
X323051Y123681D02*
X322183D01*
X321381Y123349D01*
X320768Y122736D01*
X320436Y121934D01*
Y121066D01*
X320768Y120264D01*
X321381Y119651D01*
X322183Y119319D01*
X323051D01*
X323852Y119651D01*
X324466Y120264D01*
X324798Y121066D01*
Y121934D01*
X324466Y122736D01*
X323852Y123349D01*
X323051Y123681D01*
D02*
G37*
G36*
X323001Y118681D02*
X322133D01*
X321332Y118349D01*
X320718Y117736D01*
X320386Y116934D01*
Y116066D01*
X320718Y115264D01*
X321332Y114651D01*
X322133Y114319D01*
X323001D01*
X323802Y114651D01*
X324416Y115264D01*
X324748Y116066D01*
Y116934D01*
X324416Y117736D01*
X323802Y118349D01*
X323001Y118681D01*
D02*
G37*
G36*
Y113681D02*
X322133D01*
X321332Y113349D01*
X320718Y112735D01*
X320386Y111934D01*
Y111066D01*
X320718Y110265D01*
X321332Y109651D01*
X322133Y109319D01*
X323001D01*
X323802Y109651D01*
X324416Y110265D01*
X324748Y111066D01*
Y111934D01*
X324416Y112735D01*
X323802Y113349D01*
X323001Y113681D01*
D02*
G37*
G36*
X568921Y118108D02*
X567670D01*
X566462Y117785D01*
X565379Y117159D01*
X564494Y116275D01*
X563869Y115192D01*
X563545Y113984D01*
Y112733D01*
X563869Y111525D01*
X564494Y110442D01*
X565379Y109557D01*
X566462Y108932D01*
X567670Y108608D01*
X568921D01*
X570129Y108932D01*
X571212Y109557D01*
X572096Y110442D01*
X572722Y111525D01*
X573045Y112733D01*
Y113984D01*
X572722Y115192D01*
X572096Y116275D01*
X571212Y117159D01*
X570129Y117785D01*
X568921Y118108D01*
D02*
G37*
G36*
X543330D02*
X542079D01*
X540871Y117785D01*
X539788Y117159D01*
X538904Y116275D01*
X538278Y115192D01*
X537955Y113984D01*
Y112733D01*
X538278Y111525D01*
X538904Y110442D01*
X539788Y109557D01*
X540871Y108932D01*
X542079Y108608D01*
X543330D01*
X544538Y108932D01*
X545621Y109557D01*
X546506Y110442D01*
X547131Y111525D01*
X547455Y112733D01*
Y113984D01*
X547131Y115192D01*
X546506Y116275D01*
X545621Y117159D01*
X544538Y117785D01*
X543330Y118108D01*
D02*
G37*
G36*
X290434Y111681D02*
X289566D01*
X288765Y111349D01*
X288151Y110735D01*
X287819Y109934D01*
Y109066D01*
X288151Y108265D01*
X288765Y107651D01*
X289566Y107319D01*
X290434D01*
X291235Y107651D01*
X291849Y108265D01*
X292181Y109066D01*
Y109934D01*
X291849Y110735D01*
X291235Y111349D01*
X290434Y111681D01*
D02*
G37*
G36*
X366752Y120542D02*
X365884D01*
X365083Y120210D01*
X365018Y120145D01*
X343861D01*
X343178Y120009D01*
X342599Y119622D01*
X342599Y119622D01*
X335547Y112570D01*
X335160Y111991D01*
X335024Y111309D01*
Y108511D01*
X334959Y108447D01*
X334627Y107645D01*
Y106777D01*
X334959Y105976D01*
X335024Y105911D01*
Y94191D01*
X335160Y93509D01*
X335547Y92930D01*
X348238Y80238D01*
X348817Y79852D01*
X349500Y79716D01*
X349500Y79716D01*
X363261D01*
X367319Y75658D01*
Y75566D01*
X367651Y74765D01*
X368265Y74151D01*
X369066Y73819D01*
X369934D01*
X370736Y74151D01*
X371349Y74765D01*
X371681Y75566D01*
Y76434D01*
X371349Y77236D01*
X370736Y77849D01*
X369934Y78181D01*
X369842D01*
X365262Y82762D01*
X364683Y83148D01*
X364000Y83284D01*
X350239D01*
X338593Y94931D01*
Y105911D01*
X338657Y105976D01*
X338990Y106777D01*
Y107645D01*
X338657Y108447D01*
X338593Y108511D01*
Y110569D01*
X344600Y116576D01*
X365018D01*
X365083Y116512D01*
X365884Y116180D01*
X366752D01*
X367553Y116512D01*
X367618Y116576D01*
X385088D01*
X393902Y107762D01*
Y107671D01*
X394234Y106869D01*
X394847Y106256D01*
X395649Y105924D01*
X396517D01*
X397318Y106256D01*
X397932Y106869D01*
X398264Y107671D01*
Y108538D01*
X397932Y109340D01*
X397318Y109954D01*
X396517Y110286D01*
X396425D01*
X387088Y119622D01*
X386510Y120009D01*
X385827Y120145D01*
X367618D01*
X367553Y120210D01*
X366752Y120542D01*
D02*
G37*
G36*
X350331Y110231D02*
X349464D01*
X348662Y109899D01*
X348049Y109285D01*
X347716Y108484D01*
Y107616D01*
X348049Y106815D01*
X348662Y106201D01*
X349464Y105869D01*
X350331D01*
X351133Y106201D01*
X351747Y106815D01*
X352079Y107616D01*
Y108484D01*
X351747Y109285D01*
X351133Y109899D01*
X350331Y110231D01*
D02*
G37*
G36*
X447750Y108787D02*
X445250D01*
X444140Y108641D01*
X443107Y108212D01*
X442219Y107531D01*
X441538Y106643D01*
X441109Y105610D01*
X440963Y104500D01*
X441109Y103391D01*
X441538Y102357D01*
X442219Y101469D01*
X443107Y100788D01*
X444140Y100359D01*
X445250Y100213D01*
X447750D01*
X448860Y100359D01*
X449893Y100788D01*
X450781Y101469D01*
X451462Y102357D01*
X451891Y103391D01*
X452037Y104500D01*
X451891Y105610D01*
X451462Y106643D01*
X450781Y107531D01*
X449893Y108212D01*
X448860Y108641D01*
X447750Y108787D01*
D02*
G37*
G36*
X289934Y104181D02*
X289066D01*
X288264Y103849D01*
X287651Y103235D01*
X287319Y102434D01*
Y101566D01*
X287651Y100765D01*
X288264Y100151D01*
X289066Y99819D01*
X289934D01*
X290736Y100151D01*
X291349Y100765D01*
X291681Y101566D01*
Y102434D01*
X291349Y103235D01*
X290736Y103849D01*
X289934Y104181D01*
D02*
G37*
G36*
X149000Y111500D02*
X131000D01*
Y99500D01*
X149000D01*
Y111500D01*
D02*
G37*
G36*
X289733Y96857D02*
X288866D01*
X288064Y96525D01*
X287451Y95912D01*
X287118Y95110D01*
Y94242D01*
X287451Y93441D01*
X288064Y92827D01*
X288866Y92495D01*
X289733D01*
X290535Y92827D01*
X291149Y93441D01*
X291481Y94242D01*
Y95110D01*
X291149Y95912D01*
X290535Y96525D01*
X289733Y96857D01*
D02*
G37*
G36*
X363665Y94596D02*
X362797D01*
X361996Y94264D01*
X361382Y93651D01*
X361050Y92849D01*
Y91981D01*
X361382Y91180D01*
X361996Y90566D01*
X362797Y90234D01*
X363665D01*
X364467Y90566D01*
X365080Y91180D01*
X365412Y91981D01*
Y92849D01*
X365080Y93651D01*
X364467Y94264D01*
X363665Y94596D01*
D02*
G37*
G36*
X447750Y98787D02*
X445250D01*
X444140Y98641D01*
X443107Y98212D01*
X442219Y97531D01*
X441538Y96643D01*
X441109Y95609D01*
X440963Y94500D01*
X441109Y93391D01*
X441538Y92357D01*
X442219Y91469D01*
X443107Y90788D01*
X444140Y90359D01*
X445250Y90213D01*
X447750D01*
X448860Y90359D01*
X449893Y90788D01*
X450781Y91469D01*
X451462Y92357D01*
X451891Y93391D01*
X452037Y94500D01*
X451891Y95609D01*
X451462Y96643D01*
X450781Y97531D01*
X449893Y98212D01*
X448860Y98641D01*
X447750Y98787D01*
D02*
G37*
G36*
X350603Y94374D02*
X349735D01*
X348934Y94042D01*
X348320Y93429D01*
X347988Y92627D01*
Y91759D01*
X348320Y90958D01*
X348934Y90344D01*
X349735Y90012D01*
X350603D01*
X351405Y90344D01*
X352018Y90958D01*
X352350Y91759D01*
Y92627D01*
X352018Y93429D01*
X351405Y94042D01*
X350603Y94374D01*
D02*
G37*
G36*
X327625Y96750D02*
X326375D01*
X325167Y96426D01*
X324083Y95801D01*
X323199Y94917D01*
X322574Y93833D01*
X322250Y92625D01*
Y91375D01*
X322574Y90167D01*
X323199Y89083D01*
X324083Y88199D01*
X325167Y87574D01*
X326375Y87250D01*
X327625D01*
X328833Y87574D01*
X329917Y88199D01*
X330801Y89083D01*
X331426Y90167D01*
X331750Y91375D01*
Y92625D01*
X331426Y93833D01*
X330801Y94917D01*
X329917Y95801D01*
X328833Y96426D01*
X327625Y96750D01*
D02*
G37*
G36*
X382625Y91521D02*
X381757D01*
X380956Y91189D01*
X380342Y90575D01*
X380010Y89774D01*
Y88906D01*
X380342Y88104D01*
X380956Y87491D01*
X381757Y87159D01*
X382625D01*
X383427Y87491D01*
X384040Y88104D01*
X384372Y88906D01*
Y89774D01*
X384040Y90575D01*
X383427Y91189D01*
X382625Y91521D01*
D02*
G37*
G36*
X373139Y90828D02*
X372271D01*
X371469Y90496D01*
X370856Y89883D01*
X370524Y89081D01*
Y88213D01*
X370856Y87412D01*
X371469Y86798D01*
X372271Y86466D01*
X373139D01*
X373940Y86798D01*
X374554Y87412D01*
X374886Y88213D01*
Y89081D01*
X374554Y89883D01*
X373940Y90496D01*
X373139Y90828D01*
D02*
G37*
G36*
X354188Y90523D02*
X353321D01*
X352519Y90191D01*
X351905Y89578D01*
X351573Y88776D01*
Y87909D01*
X351905Y87107D01*
X352519Y86493D01*
X353321Y86161D01*
X354188D01*
X354990Y86493D01*
X355603Y87107D01*
X355936Y87909D01*
Y88776D01*
X355603Y89578D01*
X354990Y90191D01*
X354188Y90523D01*
D02*
G37*
G36*
X290192Y89237D02*
X289324D01*
X288522Y88905D01*
X287909Y88291D01*
X287577Y87489D01*
Y86622D01*
X287909Y85820D01*
X288522Y85207D01*
X289324Y84875D01*
X290192D01*
X290993Y85207D01*
X291607Y85820D01*
X291939Y86622D01*
Y87489D01*
X291607Y88291D01*
X290993Y88905D01*
X290192Y89237D01*
D02*
G37*
G36*
X496688Y84272D02*
X495958D01*
X495253Y84083D01*
X494621Y83718D01*
X494105Y83202D01*
X493740Y82570D01*
X493551Y81865D01*
Y81135D01*
X493740Y80430D01*
X494105Y79798D01*
X494621Y79282D01*
X495253Y78917D01*
X495958Y78728D01*
X496688D01*
X497393Y78917D01*
X498025Y79282D01*
X498541Y79798D01*
X498906Y80430D01*
X499094Y81135D01*
Y81865D01*
X498906Y82570D01*
X498541Y83202D01*
X498025Y83718D01*
X497393Y84083D01*
X496688Y84272D01*
D02*
G37*
G36*
X479365D02*
X478635D01*
X477930Y84083D01*
X477298Y83718D01*
X476782Y83202D01*
X476417Y82570D01*
X476228Y81865D01*
Y81135D01*
X476417Y80430D01*
X476782Y79798D01*
X477298Y79282D01*
X477930Y78917D01*
X478635Y78728D01*
X479365D01*
X480070Y78917D01*
X480702Y79282D01*
X481218Y79798D01*
X481583Y80430D01*
X481772Y81135D01*
Y81865D01*
X481583Y82570D01*
X481218Y83202D01*
X480702Y83718D01*
X480070Y84083D01*
X479365Y84272D01*
D02*
G37*
G36*
X568921Y88108D02*
X567670D01*
X566462Y87785D01*
X565379Y87159D01*
X564494Y86275D01*
X563869Y85192D01*
X563545Y83984D01*
Y82733D01*
X563869Y81525D01*
X564494Y80442D01*
X565379Y79557D01*
X566462Y78932D01*
X567670Y78608D01*
X568921D01*
X570129Y78932D01*
X571212Y79557D01*
X572096Y80442D01*
X572722Y81525D01*
X573045Y82733D01*
Y83984D01*
X572722Y85192D01*
X572096Y86275D01*
X571212Y87159D01*
X570129Y87785D01*
X568921Y88108D01*
D02*
G37*
G36*
X543330D02*
X542079D01*
X540871Y87785D01*
X539788Y87159D01*
X538904Y86275D01*
X538278Y85192D01*
X537955Y83984D01*
Y82733D01*
X538278Y81525D01*
X538904Y80442D01*
X539788Y79557D01*
X540871Y78932D01*
X542079Y78608D01*
X543330D01*
X544538Y78932D01*
X545621Y79557D01*
X546506Y80442D01*
X547131Y81525D01*
X547455Y82733D01*
Y83984D01*
X547131Y85192D01*
X546506Y86275D01*
X545621Y87159D01*
X544538Y87785D01*
X543330Y88108D01*
D02*
G37*
G36*
X360880Y79171D02*
X360012D01*
X359210Y78839D01*
X358775Y78404D01*
X358491Y78265D01*
X358127Y78399D01*
X357723Y78803D01*
X356921Y79135D01*
X356054D01*
X355252Y78803D01*
X354639Y78189D01*
X354306Y77388D01*
Y76520D01*
X354639Y75718D01*
X355252Y75105D01*
X356054Y74773D01*
X356921D01*
X357723Y75105D01*
X358158Y75540D01*
X358443Y75679D01*
X358806Y75545D01*
X359210Y75141D01*
X360012Y74809D01*
X360880D01*
X361681Y75141D01*
X362295Y75755D01*
X362627Y76556D01*
Y77424D01*
X362295Y78226D01*
X361681Y78839D01*
X360880Y79171D01*
D02*
G37*
G36*
X289791Y81330D02*
X288923D01*
X288121Y80998D01*
X287508Y80384D01*
X287176Y79582D01*
Y78715D01*
X287508Y77913D01*
X288121Y77299D01*
X288923Y76968D01*
X289791D01*
X290592Y77299D01*
X291206Y77913D01*
X291538Y78715D01*
Y79582D01*
X291206Y80384D01*
X290592Y80998D01*
X289791Y81330D01*
D02*
G37*
G36*
X447750Y78787D02*
X445250D01*
X444140Y78641D01*
X443107Y78212D01*
X442219Y77531D01*
X441538Y76643D01*
X441109Y75609D01*
X440963Y74500D01*
X441109Y73391D01*
X441538Y72357D01*
X442219Y71469D01*
X443107Y70788D01*
X444140Y70359D01*
X445250Y70213D01*
X447750D01*
X448860Y70359D01*
X449893Y70788D01*
X450781Y71469D01*
X451462Y72357D01*
X451891Y73391D01*
X452037Y74500D01*
X451891Y75609D01*
X451462Y76643D01*
X450781Y77531D01*
X449893Y78212D01*
X448860Y78641D01*
X447750Y78787D01*
D02*
G37*
G36*
X327625Y76750D02*
X326375D01*
X325167Y76426D01*
X324083Y75801D01*
X323199Y74917D01*
X322574Y73833D01*
X322250Y72625D01*
Y71375D01*
X322574Y70167D01*
X323199Y69083D01*
X324083Y68199D01*
X325167Y67574D01*
X326375Y67250D01*
X327625D01*
X328833Y67574D01*
X329917Y68199D01*
X330801Y69083D01*
X331426Y70167D01*
X331750Y71375D01*
Y72625D01*
X331426Y73833D01*
X330801Y74917D01*
X329917Y75801D01*
X328833Y76426D01*
X327625Y76750D01*
D02*
G37*
G36*
X110750Y90000D02*
X97250D01*
X90500Y83250D01*
Y69750D01*
X97250Y63000D01*
X110750D01*
X117500Y69750D01*
Y83250D01*
X110750Y90000D01*
D02*
G37*
G36*
X637250Y87500D02*
X623750D01*
X617000Y80750D01*
Y67250D01*
X623750Y60500D01*
X637250D01*
X644000Y67250D01*
Y80750D01*
X637250Y87500D01*
D02*
G37*
G36*
X452000Y68750D02*
X441000D01*
Y60250D01*
X452000D01*
Y68750D01*
D02*
G37*
%LPD*%
G36*
X413971Y395762D02*
Y337633D01*
X413419Y337081D01*
X413087Y336585D01*
X412971Y336000D01*
Y317363D01*
X412471Y317263D01*
X412446Y317322D01*
X411833Y317936D01*
X411031Y318268D01*
X410163D01*
X409362Y317936D01*
X408748Y317322D01*
X408416Y316520D01*
Y316068D01*
X403877Y311529D01*
X378292D01*
X377706Y311413D01*
X377210Y311081D01*
X370991Y304863D01*
X370529Y305054D01*
Y390367D01*
X374815Y394652D01*
X393568D01*
X393664Y394587D01*
X394250Y394471D01*
X410049D01*
X410634Y394587D01*
X411130Y394919D01*
X411657Y395445D01*
X412477D01*
X413279Y395777D01*
X413471Y395969D01*
X413971Y395762D01*
D02*
G37*
G36*
X412971Y314810D02*
Y304537D01*
X412471Y304333D01*
X412002Y304802D01*
X411200Y305134D01*
X410332D01*
X409531Y304802D01*
X408917Y304188D01*
X408585Y303386D01*
Y302519D01*
X408917Y301717D01*
X409531Y301103D01*
X410332Y300771D01*
X411200D01*
X412002Y301103D01*
X412471Y301572D01*
X412971Y301368D01*
Y274634D01*
X400100Y261762D01*
X399768Y261266D01*
X399652Y260681D01*
Y258349D01*
X399236Y258071D01*
X398934Y258196D01*
X398066D01*
X397265Y257864D01*
X396651Y257251D01*
X396319Y256449D01*
Y255658D01*
X396290Y255553D01*
X396025Y255286D01*
X395488D01*
X395181Y255664D01*
Y256449D01*
X394849Y257251D01*
X394235Y257864D01*
X393434Y258196D01*
X392566D01*
X391764Y257864D01*
X391151Y257251D01*
X390819Y256449D01*
Y255658D01*
X390806Y255569D01*
X390437Y255196D01*
X389885D01*
X389083Y254864D01*
X388470Y254251D01*
X388138Y253449D01*
Y252582D01*
X388367Y252029D01*
X388067Y251529D01*
X377500D01*
X376915Y251413D01*
X376419Y251081D01*
X372991Y247654D01*
X372529Y247846D01*
Y302075D01*
X378925Y308471D01*
X404511D01*
X405096Y308587D01*
X405592Y308919D01*
X410579Y313905D01*
X411031D01*
X411833Y314237D01*
X412446Y314851D01*
X412471Y314910D01*
X412971Y314810D01*
D02*
G37*
G36*
X422971Y243154D02*
Y235134D01*
X414866Y227029D01*
X414211D01*
X414004Y227529D01*
X414365Y227891D01*
X414698Y228692D01*
Y229560D01*
X414365Y230362D01*
X413752Y230975D01*
X412950Y231307D01*
X412083D01*
X411518Y231074D01*
X411136Y231456D01*
X411181Y231566D01*
Y232018D01*
X422509Y243346D01*
X422971Y243154D01*
D02*
G37*
%LPC*%
G36*
X404072Y380792D02*
X403204D01*
X402402Y380460D01*
X401789Y379846D01*
X401457Y379044D01*
Y378243D01*
X401298Y378123D01*
X401221Y378142D01*
X400819Y378541D01*
Y379044D01*
X400487Y379846D01*
X399873Y380460D01*
X399072Y380792D01*
X398204D01*
X397402Y380460D01*
X396789Y379846D01*
X396457Y379044D01*
Y378254D01*
X396428Y378148D01*
X396163Y377881D01*
X395626D01*
X395319Y378259D01*
Y379044D01*
X394987Y379846D01*
X394373Y380460D01*
X393572Y380792D01*
X392704D01*
X391902Y380460D01*
X391289Y379846D01*
X390957Y379044D01*
Y378541D01*
X390555Y378142D01*
X390477Y378123D01*
X390319Y378243D01*
Y379044D01*
X389987Y379846D01*
X389373Y380460D01*
X388572Y380792D01*
X387704D01*
X386902Y380460D01*
X386289Y379846D01*
X385957Y379044D01*
Y378177D01*
X386289Y377375D01*
X386902Y376762D01*
X387704Y376429D01*
X388018D01*
X388276Y376044D01*
Y375177D01*
X388608Y374375D01*
X389221Y373762D01*
X390023Y373429D01*
X390891D01*
X391692Y373762D01*
X392306Y374375D01*
X392638Y375177D01*
Y375968D01*
X392651Y376057D01*
X392889Y376298D01*
X393354D01*
X393717Y375902D01*
Y375177D01*
X394049Y374375D01*
X394662Y373762D01*
X395464Y373429D01*
X396332D01*
X397133Y373762D01*
X397747Y374375D01*
X398079Y375177D01*
Y375968D01*
X398107Y376073D01*
X398316Y376284D01*
X398769D01*
X399138Y375883D01*
Y375177D01*
X399470Y374375D01*
X400083Y373762D01*
X400885Y373429D01*
X401753D01*
X402554Y373762D01*
X403168Y374375D01*
X403500Y375177D01*
Y376044D01*
X403719Y376373D01*
X404177Y376419D01*
X404501Y376046D01*
X404500Y376044D01*
Y375177D01*
X404832Y374375D01*
X405446Y373762D01*
X406247Y373429D01*
X407115D01*
X407917Y373762D01*
X408530Y374375D01*
X408862Y375177D01*
Y375346D01*
X409022Y375467D01*
X409362Y375610D01*
X410066Y375319D01*
X410934D01*
X411735Y375651D01*
X412349Y376265D01*
X412681Y377066D01*
Y377934D01*
X412349Y378735D01*
X411735Y379349D01*
X410934Y379681D01*
X410066D01*
X409265Y379349D01*
X408651Y378735D01*
X408319Y377934D01*
Y377764D01*
X408159Y377643D01*
X407819Y377500D01*
X407115Y377792D01*
X406247D01*
X406141Y377748D01*
X405788Y378101D01*
X405819Y378177D01*
Y379044D01*
X405487Y379846D01*
X404873Y380460D01*
X404072Y380792D01*
D02*
G37*
G36*
X382863Y333681D02*
X381995D01*
X381193Y333349D01*
X380580Y332735D01*
X380248Y331934D01*
Y331066D01*
X380580Y330264D01*
X381193Y329651D01*
X381995Y329319D01*
X382863D01*
X383664Y329651D01*
X384278Y330264D01*
X384610Y331066D01*
Y331934D01*
X384278Y332735D01*
X383664Y333349D01*
X382863Y333681D01*
D02*
G37*
G36*
X388434Y335181D02*
X387566D01*
X386765Y334849D01*
X386151Y334236D01*
X385819Y333434D01*
Y332566D01*
X386151Y331765D01*
X386674Y331241D01*
X386664Y330839D01*
X386611Y330673D01*
X386248Y330523D01*
X385635Y329910D01*
X385303Y329108D01*
Y328240D01*
X385635Y327439D01*
X386248Y326825D01*
X387050Y326493D01*
X387918D01*
X388719Y326825D01*
X389333Y327439D01*
X389665Y328240D01*
Y329108D01*
X389333Y329910D01*
X388809Y330433D01*
X388820Y330835D01*
X388873Y331001D01*
X389235Y331151D01*
X389849Y331765D01*
X390181Y332566D01*
Y333434D01*
X389849Y334236D01*
X389235Y334849D01*
X388434Y335181D01*
D02*
G37*
G36*
X388418Y306855D02*
X387550D01*
X386748Y306523D01*
X386135Y305910D01*
X385803Y305108D01*
Y304240D01*
X386135Y303439D01*
X386748Y302825D01*
X387550Y302493D01*
X388418D01*
X389219Y302825D01*
X389833Y303439D01*
X390165Y304240D01*
Y305108D01*
X389833Y305910D01*
X389219Y306523D01*
X388418Y306855D01*
D02*
G37*
G36*
X391881Y284141D02*
X391013D01*
X390212Y283809D01*
X389598Y283196D01*
X389266Y282394D01*
Y281526D01*
X389598Y280725D01*
X390212Y280111D01*
X391013Y279779D01*
X391881D01*
X392683Y280111D01*
X393296Y280725D01*
X393628Y281526D01*
Y282394D01*
X393296Y283196D01*
X392683Y283809D01*
X391881Y284141D01*
D02*
G37*
G36*
X384816Y257904D02*
X383949D01*
X383147Y257572D01*
X382533Y256958D01*
X382450Y256757D01*
X382409Y256734D01*
X381876Y256677D01*
X381417Y257136D01*
X380616Y257468D01*
X379748D01*
X378946Y257136D01*
X378333Y256522D01*
X378001Y255721D01*
Y254853D01*
X378333Y254051D01*
X378946Y253438D01*
X379748Y253106D01*
X380616D01*
X381417Y253438D01*
X382031Y254051D01*
X382114Y254253D01*
X382155Y254276D01*
X382688Y254332D01*
X383147Y253874D01*
X383949Y253542D01*
X384816D01*
X385618Y253874D01*
X386231Y254487D01*
X386564Y255289D01*
Y256156D01*
X386231Y256958D01*
X385618Y257572D01*
X384816Y257904D01*
D02*
G37*
%LPD*%
G36*
X319204Y261971D02*
X318915Y261913D01*
X318419Y261581D01*
X315222Y258385D01*
X314891Y257889D01*
X314774Y257304D01*
Y254519D01*
X314455Y254200D01*
X314122Y253398D01*
Y252530D01*
X314455Y251729D01*
X314774Y251409D01*
Y242937D01*
X313419Y241581D01*
X313087Y241085D01*
X312971Y240500D01*
Y233782D01*
X312471Y233452D01*
X311970Y233659D01*
X311887D01*
X311588Y233958D01*
Y234499D01*
X311529Y234796D01*
Y257287D01*
X312505Y258262D01*
X312957D01*
X313759Y258595D01*
X314372Y259208D01*
X314704Y260010D01*
Y260877D01*
X314372Y261679D01*
X314081Y261971D01*
X314288Y262471D01*
X319155D01*
X319204Y261971D01*
D02*
G37*
G36*
X154971Y242654D02*
Y234633D01*
X147195Y226858D01*
X146959Y226881D01*
X146639Y227415D01*
X146648Y227438D01*
Y228306D01*
X146316Y229107D01*
X145703Y229721D01*
X144901Y230053D01*
X144033D01*
X143231Y229721D01*
X142618Y229107D01*
X142286Y228306D01*
Y227627D01*
X141798Y227408D01*
X140724Y228482D01*
Y228857D01*
X140724Y228934D01*
X141106Y229319D01*
X141434D01*
X142236Y229651D01*
X142849Y230264D01*
X143181Y231066D01*
Y231518D01*
X154509Y242846D01*
X154971Y242654D01*
D02*
G37*
D13*
X465589Y145934D02*
X465791Y146136D01*
Y165124D01*
X465993Y165327D01*
X354320Y147291D02*
Y147409D01*
X360000Y153089D01*
X361554Y149096D02*
Y149487D01*
X362500Y150433D01*
X359500Y147042D02*
X361554Y149096D01*
X411500Y184500D02*
X411681Y184681D01*
X414181D02*
X416000Y186500D01*
X411681Y184681D02*
X414181D01*
X411363Y191015D02*
X411485D01*
X416000Y186500D01*
X457500Y196500D02*
Y204000D01*
X452084Y208276D02*
X453225D01*
X451823Y208536D02*
X452084Y208276D01*
X453225D02*
X457500Y204000D01*
X507827Y151000D02*
X516678Y142150D01*
Y142150D02*
Y142150D01*
X478500Y151000D02*
X507827D01*
X478000Y151500D02*
X478500Y151000D01*
X453000Y192000D02*
X457500Y196500D01*
X440536Y208536D02*
X451823D01*
X440000Y208000D02*
X440536Y208536D01*
X449500Y118500D02*
Y178185D01*
X409000Y75500D02*
Y78000D01*
X449500Y118500D01*
X445500Y190433D02*
X452544Y197476D01*
X447500Y120000D02*
Y181433D01*
X443500Y193933D02*
X452544Y202976D01*
X449500Y178185D02*
X452457Y181142D01*
X400500Y73000D02*
X447500Y120000D01*
X443500Y123817D02*
Y193933D01*
X427457Y103957D02*
X445500Y122000D01*
X396603Y76920D02*
X443500Y123817D01*
X445500Y122000D02*
Y190433D01*
X447500Y181433D02*
X452544Y186476D01*
X427431Y103957D02*
X427457D01*
X409128Y85653D02*
X427431Y103957D01*
X379856Y73000D02*
X400500D01*
X380255Y76920D02*
X396603D01*
X452544Y186476D02*
X452544D01*
X375673Y77183D02*
X379856Y73000D01*
X610672Y322500D02*
X614900D01*
X618000Y322772D02*
Y335172D01*
X609000Y320500D02*
X615728D01*
X607328Y318500D02*
X616556D01*
X620000Y321944D02*
Y336000D01*
X615728Y320500D02*
X618000Y322772D01*
X614900Y322500D02*
X616000Y323600D01*
X616556Y318500D02*
X620000Y321944D01*
X616000Y323600D02*
Y334343D01*
X621814Y343186D02*
Y346017D01*
X628929Y301000D02*
Y336071D01*
X621814Y343186D02*
X628929Y336071D01*
X626092Y343336D02*
X631915Y337513D01*
Y300666D02*
Y337513D01*
X626092Y343336D02*
Y343336D01*
X609788Y307016D02*
Y313212D01*
X607081Y304241D02*
Y312919D01*
X609762Y306991D02*
X609788Y307016D01*
X607081Y304241D02*
X607107Y304215D01*
X597500Y322500D02*
X607081Y312919D01*
X619000Y300157D02*
Y304000D01*
X599843Y281000D02*
X619000Y300157D01*
X606834Y290819D02*
X616000Y299985D01*
Y307500D01*
X614000Y325086D02*
Y333515D01*
X554377Y393138D02*
X614000Y333515D01*
X613414Y324500D02*
X614000Y325086D01*
X563500Y392500D02*
X620000Y336000D01*
X561500Y391672D02*
X618000Y335172D01*
X559500Y390843D02*
X616000Y334343D01*
X611500Y324500D02*
X613414D01*
X560500Y394647D02*
Y402500D01*
X549000Y393138D02*
X554377D01*
X559500Y390843D02*
Y392819D01*
X561500Y391672D02*
Y393647D01*
X563500Y392500D02*
Y408819D01*
X549000Y403319D02*
X559500Y392819D01*
X560500Y394647D02*
X561500Y393647D01*
X423500Y186500D02*
X425000Y185000D01*
X416000Y186500D02*
X423500D01*
X208536Y204500D02*
X280035Y133000D01*
X281571Y135000D02*
X386500D01*
X207000Y202500D02*
X278500Y131000D01*
X283814Y137000D02*
X388000D01*
X278500Y131000D02*
X384843D01*
X385672Y133000D02*
X404000Y114672D01*
X388000Y137000D02*
X406422Y118578D01*
X386500Y135000D02*
X404922Y116578D01*
X384843Y131000D02*
X401000Y114843D01*
X280035Y133000D02*
X385672D01*
X212314Y208500D02*
X283814Y137000D01*
X210071Y206500D02*
X281571Y135000D01*
X132985Y208500D02*
X212314D01*
X132157Y206500D02*
X210071D01*
X131328Y204500D02*
X208536D01*
X130500Y202500D02*
X207000D01*
X371000Y302708D02*
X378292Y310000D01*
X404511D02*
X410597Y316087D01*
X378292Y310000D02*
X404511D01*
X371000Y208000D02*
Y302708D01*
X341788Y330506D02*
X342012Y330282D01*
Y325488D02*
Y330282D01*
X280819Y392819D02*
X281000Y392638D01*
X280909Y382909D02*
X281000Y382819D01*
X348000Y299485D02*
Y307000D01*
X172181Y363000D02*
X212000D01*
X172000Y363181D02*
X172181Y363000D01*
X95000Y307500D02*
X102500Y315000D01*
X140000D01*
X164500Y325500D02*
X172000Y333000D01*
X164500Y229000D02*
Y325500D01*
X150500Y270000D02*
Y333843D01*
X148500Y271500D02*
Y334672D01*
X156500Y234000D02*
Y331358D01*
X161500Y336358D01*
X150500Y333843D02*
X155500Y338843D01*
X154500Y245000D02*
Y332186D01*
X158500Y330529D02*
X163500Y335529D01*
X162500Y328286D02*
X167500Y333285D01*
X158500Y232000D02*
Y330529D01*
X162500Y230343D02*
Y328286D01*
X152500Y333015D02*
X157500Y338015D01*
X154500Y332186D02*
X159500Y337186D01*
X152500Y266791D02*
Y333015D01*
X160500Y231172D02*
Y329701D01*
X148500Y334672D02*
X153500Y339672D01*
X160500Y329701D02*
X165500Y334701D01*
X141224Y255515D02*
X152500Y266791D01*
X147500Y225000D02*
X156500Y234000D01*
X138543Y258043D02*
X150500Y270000D01*
X146500Y335500D02*
X151500Y340500D01*
X133181Y260181D02*
X146500Y273500D01*
X149828Y220500D02*
X160500Y231172D01*
X141000Y231500D02*
X154500Y245000D01*
X135862Y258862D02*
X148500Y271500D01*
X149000Y222500D02*
X158500Y232000D01*
X150571Y218414D02*
X162500Y230343D01*
X146500Y273500D02*
Y335500D01*
X151914Y216414D02*
X164500Y229000D01*
X159500Y337186D02*
Y374500D01*
X168000Y383000D01*
X157500Y338015D02*
Y384500D01*
X165500Y334701D02*
Y350000D01*
X168086Y343000D02*
X171819D01*
X163500Y335529D02*
Y354681D01*
X155500Y338843D02*
Y391500D01*
X163500Y354681D02*
X171819Y363000D01*
X153500Y394500D02*
X160279Y401279D01*
X161500Y362500D02*
X172000Y373000D01*
X153500Y339672D02*
Y394500D01*
X161500Y336358D02*
Y362500D01*
X167500Y333285D02*
Y342414D01*
X171819Y363000D02*
X172000D01*
X157500Y384500D02*
X166000Y393000D01*
X165500Y350000D02*
X168780Y353280D01*
X151500Y402500D02*
X172000Y423000D01*
X155500Y391500D02*
X166638Y402638D01*
X167500Y342414D02*
X168086Y343000D01*
X151500Y340500D02*
Y402500D01*
X171819Y343000D02*
X172000Y343181D01*
X349422Y147511D02*
Y202094D01*
X344500Y147433D02*
Y200000D01*
X367000Y222500D01*
Y458500D01*
X369000Y221672D02*
Y391000D01*
X349422Y202094D02*
X369000Y221672D01*
X360000Y153089D02*
Y197000D01*
X371000Y208000D01*
X369000Y391000D02*
X374181Y396181D01*
X367000Y458500D02*
X378500Y470000D01*
X362500Y195500D02*
X373000Y206000D01*
Y245500D02*
X377500Y250000D01*
X373000Y206000D02*
Y245500D01*
X408890Y250000D02*
X411905Y253015D01*
X377500Y250000D02*
X408890D01*
X406543Y253015D02*
Y258543D01*
X401181Y253015D02*
Y260681D01*
X362500Y150433D02*
Y195500D01*
X374181Y396181D02*
X394069D01*
X394250Y396000D02*
X410049D01*
X394069Y396181D02*
X394250Y396000D01*
X411675Y397626D02*
X412043D01*
X410049Y396000D02*
X411675Y397626D01*
X353885Y341615D02*
Y344955D01*
X358000Y301000D02*
Y303500D01*
X408906Y470000D02*
X411905Y473000D01*
X378500Y470000D02*
X408906D01*
X434638Y403138D02*
X440000D01*
X419500Y388000D02*
X434638Y403138D01*
X439076Y412264D02*
X439631Y412819D01*
X438764Y412264D02*
X439076D01*
X439631Y412819D02*
X440000D01*
X417500Y391000D02*
X438764Y412264D01*
X404922Y116578D02*
X406910D01*
X410167Y113321D01*
X401000Y102000D02*
Y114843D01*
Y102000D02*
X404656Y98344D01*
X404000Y106000D02*
Y114672D01*
Y106000D02*
X406486Y103514D01*
X406422Y118578D02*
X410011D01*
X111000Y250000D02*
X111166Y249834D01*
X98000Y243485D02*
X132985Y208500D01*
X98000Y245500D02*
X102500Y250000D01*
X98000Y243485D02*
Y245500D01*
X102500Y250000D02*
X111000D01*
X141224Y249834D02*
X143905Y252515D01*
X111166Y249834D02*
X141224D01*
X404656Y98344D02*
X409795D01*
X406486Y103514D02*
X409812D01*
X90000Y243000D02*
X130500Y202500D01*
X92500Y243328D02*
X131328Y204500D01*
X95000Y243657D02*
X132157Y206500D01*
X92500Y243328D02*
Y381890D01*
X95000Y243657D02*
Y307500D01*
X90000Y243000D02*
Y454138D01*
X141362Y396445D02*
X144043Y399126D01*
X107055Y396445D02*
X141362D01*
X92500Y381890D02*
X107055Y396445D01*
X141224Y469819D02*
X143905Y472500D01*
X105681Y469819D02*
X141224D01*
X90000Y454138D02*
X105681Y469819D01*
X358159Y342274D02*
X363000Y337433D01*
Y299428D02*
Y337433D01*
X319571Y255999D02*
X363000Y299428D01*
X587486Y256237D02*
X631915Y300666D01*
X583570Y229194D02*
Y230018D01*
X575500Y233081D02*
X579312Y229269D01*
X587829Y401738D02*
X596915Y410824D01*
X582929Y396000D02*
Y402000D01*
X596915Y410824D02*
Y460738D01*
X587513Y470140D02*
X596915Y460738D01*
X587829Y395824D02*
X597915Y385738D01*
X587513Y470140D02*
Y475413D01*
X587829Y395824D02*
Y401738D01*
X626092Y343336D02*
X626234Y343479D01*
Y372419D01*
X612915Y385738D02*
X626234Y372419D01*
X597915Y385738D02*
X612915D01*
X593929Y413000D02*
Y459000D01*
X582929Y402000D02*
X593929Y413000D01*
X582929Y470000D02*
X593929Y459000D01*
X596179Y382750D02*
X611679D01*
X621929Y372500D01*
X582929Y396000D02*
X596179Y382750D01*
X582929Y470000D02*
Y475500D01*
X621929Y346089D02*
X622000Y346017D01*
X621929Y346089D02*
Y372500D01*
X587429Y261000D02*
X588929D01*
X628929Y301000D01*
X584232Y253464D02*
Y257804D01*
X587429Y261000D01*
X379929Y180745D02*
Y223000D01*
X376122Y176938D02*
X379929Y180745D01*
X375784Y176938D02*
X376122D01*
X375241Y176395D02*
X375784Y176938D01*
X374873Y176395D02*
X375241D01*
X383929Y177929D02*
Y229000D01*
X379501Y173501D02*
X383929Y177929D01*
X372999Y173501D02*
X379501D01*
X374602Y181476D02*
X374971D01*
X373944Y180818D02*
X374602Y181476D01*
X373837Y180818D02*
X373944D01*
X371882Y174618D02*
X372999Y173501D01*
X371882Y178863D02*
X373837Y180818D01*
X371882Y174618D02*
Y178863D01*
X329000Y410587D02*
Y460500D01*
X319913Y395587D02*
X330000Y385500D01*
X319913Y401500D02*
X329000Y410587D01*
X319598Y469902D02*
X329000Y460500D01*
X358319Y342434D02*
Y372181D01*
X345000Y385500D02*
X358319Y372181D01*
X358159Y342274D02*
X358319Y342434D01*
X330000Y385500D02*
X345000D01*
X319598Y469902D02*
Y475175D01*
X319913Y395587D02*
Y401500D01*
X319571Y241600D02*
Y255999D01*
X317000Y239030D02*
X319571Y241600D01*
X317000Y225000D02*
Y239030D01*
X284210Y192210D02*
X317000Y225000D01*
X277763Y192210D02*
X284210D01*
X277630Y192343D02*
X277763Y192210D01*
X326000Y412500D02*
Y458500D01*
X328250Y382250D02*
X343750D01*
X315000Y401500D02*
X326000Y412500D01*
X315000Y469500D02*
X326000Y458500D01*
X315000Y395500D02*
X328250Y382250D01*
X353885Y357507D02*
X354000Y357622D01*
Y372000D01*
X353885Y344955D02*
Y357507D01*
X343750Y382250D02*
X354000Y372000D01*
X315000Y469500D02*
Y475000D01*
Y395500D02*
Y401500D01*
X353885Y341615D02*
X361000Y334500D01*
Y300500D02*
Y334500D01*
X319500Y260500D02*
X321000D01*
X361000Y300500D01*
X316303Y257304D02*
X319500Y260500D01*
X316303Y242303D02*
Y252964D01*
Y257304D01*
X314500Y240500D02*
X316303Y242303D01*
X314500Y226500D02*
Y240500D01*
X284000Y196000D02*
X314500Y226500D01*
X276303Y196000D02*
X284000D01*
X274000Y190260D02*
Y193698D01*
X276303Y196000D01*
X274000Y190260D02*
X277267Y186993D01*
X307218Y259349D02*
X308000Y260131D01*
Y260500D01*
X302244Y229744D02*
X307218D01*
Y259349D01*
X269000Y196500D02*
X302244Y229744D01*
X269000Y184112D02*
Y196500D01*
X276921Y175976D02*
Y176191D01*
X269000Y184112D02*
X276921Y176191D01*
X310059Y233324D02*
Y234499D01*
X310000Y234558D02*
X310059Y234499D01*
Y233324D02*
X311537Y231847D01*
X310000Y257920D02*
X312523Y260444D01*
X310000Y234558D02*
Y257920D01*
X311537Y228036D02*
Y231478D01*
Y231847D01*
X282599Y199099D02*
X311537Y228036D01*
X276099Y199099D02*
X282599D01*
X271500Y186897D02*
X276921Y181476D01*
X276921D01*
X271500Y194500D02*
X276099Y199099D01*
X271500Y186897D02*
Y194500D01*
X575500Y233081D02*
Y260200D01*
X575543Y260244D01*
X338834Y290319D02*
X348000Y299485D01*
X583554Y229178D02*
X583570Y229194D01*
X577757Y235831D02*
Y258257D01*
Y235831D02*
X583570Y230018D01*
X577757Y258257D02*
X580000Y260500D01*
X588000Y263500D02*
X626000Y301500D01*
X510000Y263500D02*
X588000D01*
X500000Y273500D02*
X510000Y263500D01*
X590882Y304339D02*
X591107Y304115D01*
X590882Y304339D02*
Y309914D01*
X166638Y402638D02*
X172000D01*
X160279Y401279D02*
X170764Y411764D01*
X160279Y401279D02*
X160279D01*
X171631Y412319D02*
X172000D01*
X171076Y411764D02*
X171631Y412319D01*
X170764Y411764D02*
X171076D01*
X356500Y323000D02*
Y333985D01*
X280909Y422909D02*
X281000Y422819D01*
X351500Y318000D02*
X356500Y323000D01*
X295500Y394985D02*
X356500Y333985D01*
X284681Y402819D02*
X290000Y397500D01*
X281000Y402819D02*
X284681D01*
X295500Y394985D02*
Y408319D01*
X281000Y392638D02*
X289362D01*
X349500Y324586D02*
Y332500D01*
X351500Y323757D02*
Y333328D01*
X292500Y395157D02*
X354000Y333657D01*
X280909Y402910D02*
X281000Y402819D01*
X289362Y392638D02*
X349500Y332500D01*
X290000Y394828D02*
Y397500D01*
Y394828D02*
X351500Y333328D01*
X354000Y323429D02*
Y333657D01*
X292500Y395157D02*
Y402000D01*
X281000Y413000D02*
X281000Y413000D01*
X321000Y264000D02*
X358000Y301000D01*
X331843Y280500D02*
X351000Y299657D01*
X324672Y270500D02*
X354500Y300328D01*
X231909Y293000D02*
X244409Y280500D01*
X241000Y264000D02*
X321000D01*
X244500Y270500D02*
X324672D01*
X244409Y280500D02*
X331843D01*
X232000Y273000D02*
X241000Y264000D01*
X626000Y301500D02*
Y304000D01*
X592672Y271000D02*
X622500Y300828D01*
Y307500D01*
X351000Y299657D02*
Y303500D01*
X549000Y423319D02*
X563500Y408819D01*
X281000Y422819D02*
X295500Y408319D01*
X396021Y226480D02*
X405586Y216914D01*
X396021Y226480D02*
Y228739D01*
X395760Y229000D02*
X396021Y228739D01*
X490000Y423500D02*
X495000D01*
X480000D02*
X484000Y427500D01*
X486000D02*
X490000Y423500D01*
X484000Y427500D02*
X486000D01*
X490000Y413500D02*
X495000D01*
X486000Y417500D02*
X490000Y413500D01*
X484000Y417500D02*
X486000D01*
X490000Y403500D02*
X495000D01*
X480000D02*
X484000Y407500D01*
X486000D02*
X490000Y403500D01*
X484000Y407500D02*
X486000D01*
X490000Y393500D02*
X495000D01*
X480000D02*
X484000Y397500D01*
X486000D02*
X490000Y393500D01*
X484000Y397500D02*
X486000D01*
X440000Y383500D02*
X480000D01*
X490000D02*
X495000D01*
X480000D02*
X484000Y387500D01*
X486000D02*
X490000Y383500D01*
X484000Y387500D02*
X486000D01*
X490000Y373500D02*
X495000D01*
X480000D02*
X484000Y377500D01*
X486000D02*
X490000Y373500D01*
X484000Y377500D02*
X486000D01*
X490000Y363500D02*
X495000D01*
X480000D02*
X484000Y367500D01*
X486000D02*
X490000Y363500D01*
X484000Y367500D02*
X486000D01*
X490000Y353500D02*
X495000D01*
X480000D02*
X484000Y357500D01*
X486000D02*
X490000Y353500D01*
X484000Y357500D02*
X486000D01*
X490000Y343500D02*
X495000D01*
X480000D02*
X484000Y347500D01*
X486000D02*
X490000Y343500D01*
X484000Y347500D02*
X486000D01*
X490000Y333500D02*
X495000D01*
X480000D02*
X484000Y337500D01*
X486000D02*
X490000Y333500D01*
X484000Y337500D02*
X486000D01*
X490000Y323500D02*
X495000D01*
X480000D02*
X484000Y327500D01*
X486000D02*
X490000Y323500D01*
X484000Y327500D02*
X486000D01*
X490000Y313500D02*
X495000D01*
X480000D02*
X484000Y317500D01*
X486000D02*
X490000Y313500D01*
X484000Y317500D02*
X486000D01*
X480000Y303500D02*
X484000Y307500D01*
X486000D02*
X490000Y303500D01*
X484000Y307500D02*
X486000D01*
X480000Y293500D02*
X484000Y297500D01*
X486000D02*
X490000Y293500D01*
X484000Y297500D02*
X486000D01*
X490000Y283500D02*
X495000D01*
X480000D02*
X484000Y287500D01*
X486000D02*
X490000Y283500D01*
X484000Y287500D02*
X486000D01*
X490000Y273500D02*
X495000D01*
X486000Y277500D02*
X490000Y273500D01*
X484000Y277500D02*
X486000D01*
X480000Y413500D02*
X484000Y417500D01*
X440000Y403500D02*
X480000D01*
X440000Y413500D02*
X480000D01*
X403862Y256015D02*
Y259362D01*
X434000Y393500D02*
X440000D01*
Y423500D02*
X480000D01*
X403862Y227889D02*
Y230111D01*
X403761Y230212D02*
Y231739D01*
X403500Y232000D02*
X403761Y231739D01*
Y230212D02*
X403862Y230111D01*
X406543Y229000D02*
X410043Y225500D01*
X415500D01*
X440000Y373500D02*
X480000D01*
X440000Y333500D02*
X480000D01*
X440000Y323500D02*
X480000D01*
X440000Y313500D02*
X480000D01*
X403862Y227889D02*
X408752Y223000D01*
X417000D01*
X401442Y227482D02*
X407923Y221000D01*
X417828D01*
X401181Y229000D02*
X401442Y228739D01*
Y227482D02*
Y228739D01*
X440000Y343500D02*
X480000D01*
X398500Y226828D02*
Y232000D01*
X406414Y218914D02*
X418571D01*
X398500Y226828D02*
X406414Y218914D01*
X405586Y216914D02*
X419914D01*
X440000Y353500D02*
X480000D01*
X393000Y226500D02*
Y232000D01*
Y226500D02*
X404500Y215000D01*
X404757Y214914D02*
X420743D01*
X404500Y215000D02*
X404672D01*
X404757Y214914D01*
X390319Y229000D02*
X390353Y228966D01*
Y226319D02*
X403757Y212914D01*
X390353Y226319D02*
Y228966D01*
X403757Y212914D02*
X421571D01*
X439631Y313500D02*
X440000D01*
X433500Y327000D02*
X440000Y333500D01*
X421500Y381000D02*
X434000Y393500D01*
X427500Y351000D02*
X440000Y363500D01*
X423500Y371000D02*
X436000Y383500D01*
X431500Y340500D02*
X434500Y343500D01*
X420500Y267291D02*
Y323830D01*
X419914Y216914D02*
X432500Y229500D01*
X436500Y227843D02*
Y310369D01*
X417500Y332000D02*
Y391000D01*
X436500Y310369D02*
X439631Y313500D01*
X420500Y323830D02*
X421500Y324830D01*
X421571Y212914D02*
X436500Y227843D01*
X414500Y274000D02*
Y336000D01*
X406543Y258543D02*
X418500Y270500D01*
X403862Y259362D02*
X416500Y272000D01*
X414500Y336000D02*
X415500Y337000D01*
X417000Y223000D02*
X426500Y232500D01*
X409000Y232000D02*
X422500Y245500D01*
X415500Y225500D02*
X424500Y234500D01*
X418571Y218914D02*
X430500Y230843D01*
X418500Y270500D02*
Y328750D01*
X420743Y214914D02*
X434500Y228672D01*
X418500Y328750D02*
X419500Y329750D01*
Y388000D01*
X401181Y260681D02*
X414500Y274000D01*
X415500Y337000D02*
Y399000D01*
X409224Y256015D02*
X420500Y267291D01*
X417828Y221000D02*
X428500Y231672D01*
X421500Y324830D02*
Y381000D01*
X416500Y272000D02*
Y331000D01*
X417500Y332000D01*
X426500Y321314D02*
X427500Y322314D01*
X434500Y228672D02*
Y318000D01*
X429500Y321485D02*
Y346500D01*
X432500Y229500D02*
Y318828D01*
X422500Y322971D02*
X423500Y323971D01*
X432500Y318828D02*
X433500Y319828D01*
Y327000D01*
X431500Y320657D02*
Y340500D01*
X423500Y323971D02*
Y371000D01*
X428500Y320485D02*
X429500Y321485D01*
X430500Y319657D02*
X431500Y320657D01*
X426500Y232500D02*
Y321314D01*
X425500Y323142D02*
Y359000D01*
X424500Y322142D02*
X425500Y323142D01*
X427500Y322314D02*
Y351000D01*
X422500Y245500D02*
Y322971D01*
X428500Y231672D02*
Y320485D01*
X424500Y234500D02*
Y322142D01*
X430500Y230843D02*
Y319657D01*
X415500Y399000D02*
X440000Y423500D01*
X440181Y393500D02*
X480000D01*
X440000Y393319D02*
X440181Y393500D01*
X439819Y383500D02*
X440000Y383319D01*
X436000Y383500D02*
X439819D01*
X440000Y373500D02*
Y373681D01*
X425500Y359000D02*
X440000Y373500D01*
X440181Y363500D02*
X480000D01*
X440000Y363681D02*
X440181Y363500D01*
X436780Y353780D02*
X440000D01*
X429500Y346500D02*
X436780Y353780D01*
X439819Y343500D02*
X440000Y343681D01*
X434500Y343500D02*
X439819D01*
X434500Y318000D02*
X440000Y323500D01*
X440181Y303681D02*
X440362Y303500D01*
X480000D01*
X440181Y293681D02*
X440362Y293500D01*
X480000D01*
X440362Y283500D02*
X480000D01*
X440181Y283681D02*
X440362Y283500D01*
X480000Y273500D02*
X484000Y277500D01*
X440181Y273681D02*
X440362Y273500D01*
X480000D01*
X505000Y383500D02*
X505091Y383410D01*
X505000Y403500D02*
X505091Y403409D01*
X505000Y423500D02*
X505091Y423410D01*
X505000Y363500D02*
X505091Y363409D01*
X505000Y353500D02*
X505064Y353435D01*
X505000Y343500D02*
X505181Y343319D01*
X505000Y323500D02*
X505181Y323319D01*
X505000Y303500D02*
X505091Y303410D01*
X548909D02*
X549000Y303319D01*
X609788Y331006D02*
X610012Y330782D01*
X607331Y328006D02*
X607592Y327745D01*
X505000Y393500D02*
X505181Y393319D01*
X610012Y325988D02*
Y330782D01*
X604288Y331006D02*
X604548Y330745D01*
Y329218D02*
X604650Y329117D01*
X604548Y329218D02*
Y330745D01*
X610012Y325988D02*
X611500Y324500D01*
X555130Y407870D02*
X560500Y402500D01*
X555130Y407870D02*
X555130D01*
X550146Y412854D02*
X555130Y407870D01*
X550014Y412854D02*
X550146D01*
X549369Y413500D02*
X550014Y412854D01*
X549000Y413500D02*
X549369D01*
X607592Y325580D02*
Y327745D01*
Y325580D02*
X610672Y322500D01*
X505000Y373500D02*
X505362Y373138D01*
X604650Y324850D02*
X609000Y320500D01*
X604650Y324850D02*
Y329117D01*
X601969Y323860D02*
Y328006D01*
Y323860D02*
X607328Y318500D01*
X549000Y383319D02*
X578000Y354319D01*
X548910Y363409D02*
X549000Y363319D01*
X554362Y373138D02*
X576000Y351500D01*
X549000Y373138D02*
X554362D01*
X549000Y363319D02*
X558181D01*
X573500Y348000D01*
X601708Y304251D02*
X601969Y303991D01*
X601708Y304251D02*
Y305779D01*
X601607Y305880D02*
X601708Y305779D01*
X601607Y305880D02*
Y312737D01*
X548858Y353435D02*
X549235Y353058D01*
X550241Y353000D02*
X564914D01*
X571000Y346914D01*
X550183Y353058D02*
X550241Y353000D01*
X549235Y353058D02*
X550183D01*
X563000Y343000D02*
X568000Y338000D01*
X549138Y343000D02*
X563000D01*
X596287Y304251D02*
X596548Y303991D01*
X596287Y304251D02*
Y305838D01*
X596244Y305880D02*
X596287Y305838D01*
X596244Y305880D02*
Y311591D01*
X505000Y333500D02*
X505362Y333138D01*
X596672Y320500D02*
X604288Y312884D01*
X595015Y316500D02*
X598925Y312589D01*
X595843Y318500D02*
X601607Y312737D01*
X593336Y314500D02*
X596244Y311591D01*
X598500Y324500D02*
X609788Y313212D01*
X591125Y312500D02*
X593563Y310062D01*
Y306991D02*
Y310062D01*
X588314Y322500D02*
X597500D01*
X576000Y334814D02*
Y351500D01*
X583328Y312500D02*
X591125D01*
X548819Y323319D02*
X549000Y323138D01*
X586657Y318500D02*
X595843D01*
X585828Y316500D02*
X595015D01*
X572691Y323138D02*
X583328Y312500D01*
X587485Y320500D02*
X596672D01*
X571000Y334157D02*
Y346914D01*
Y334157D02*
X586657Y318500D01*
X549000Y333138D02*
X566362D01*
X578000Y335642D02*
Y354319D01*
X585000Y314500D02*
X593336D01*
X566362Y333138D02*
X585000Y314500D01*
X549000Y323138D02*
X572691D01*
X589142Y324500D02*
X598500D01*
X578000Y335642D02*
X589142Y324500D01*
X576000Y334814D02*
X588314Y322500D01*
X573500Y334485D02*
X587485Y320500D01*
X568000Y334328D02*
X585828Y316500D01*
X568000Y334328D02*
Y338000D01*
X573500Y334485D02*
Y348000D01*
X505000Y313500D02*
X505362Y313138D01*
X590296Y310500D02*
X590882Y309914D01*
X604288Y306991D02*
Y312884D01*
X598925Y306991D02*
Y312589D01*
X579362Y313138D02*
X582000Y310500D01*
X549000Y313138D02*
X579362D01*
X582000Y310500D02*
X590296D01*
X549000Y293500D02*
X549000Y293500D01*
X495000Y283500D02*
X500000D01*
X512500Y271000D01*
X495000Y273500D02*
X500000D01*
Y303500D02*
X512681Y290819D01*
X499909Y293500D02*
X512409Y281000D01*
X599843D01*
X490000Y303500D02*
X495000D01*
X512500Y271000D02*
X592672D01*
X490000Y293500D02*
X495000D01*
X512681Y290819D02*
X606834D01*
X495000Y293500D02*
X499909D01*
X495000Y303500D02*
X500000D01*
X227000Y303000D02*
X232000D01*
X227000Y293000D02*
X231909D01*
X244681Y290319D02*
X338834D01*
X354500Y300328D02*
Y307000D01*
X222000Y293000D02*
X227000D01*
X222000Y303000D02*
X227000D01*
X232000D02*
X244681Y290319D01*
X227000Y273000D02*
X232000D01*
Y283000D02*
X244500Y270500D01*
X227000Y283000D02*
X232000D01*
X281000Y293000D02*
X281000Y293000D01*
X314000Y310000D02*
X322296D01*
X281000Y312638D02*
X311362D01*
X314000Y310000D01*
X330925Y306491D02*
Y312089D01*
X336288Y306491D02*
Y312384D01*
X322882Y303715D02*
Y309414D01*
X322296Y310000D02*
X322882Y309414D01*
Y303715D02*
X323107Y303491D01*
X237000Y313000D02*
X237362Y312638D01*
X305500Y333985D02*
Y347500D01*
X300000Y333828D02*
Y337500D01*
Y333828D02*
X317828Y316000D01*
X305500Y333985D02*
X319485Y320000D01*
X308000Y334314D02*
X320314Y322000D01*
X310000Y335142D02*
X321142Y324000D01*
X330500D01*
X281000Y322638D02*
X304691D01*
X298362Y332638D02*
X317000Y314000D01*
X325336D01*
X310000Y335142D02*
Y353819D01*
X281000Y332638D02*
X298362D01*
X303000Y333657D02*
X318657Y318000D01*
X303000Y333657D02*
Y346414D01*
X319485Y320000D02*
X328672D01*
X304691Y322638D02*
X315328Y312000D01*
X317828Y316000D02*
X327015D01*
X318657Y318000D02*
X327843D01*
X280819Y322819D02*
X281000Y322638D01*
X315328Y312000D02*
X323125D01*
X308000Y334314D02*
Y351000D01*
X320314Y322000D02*
X329500D01*
X325563Y306491D02*
Y309561D01*
X323125Y312000D02*
X325563Y309561D01*
X330500Y324000D02*
X341788Y312712D01*
X325336Y314000D02*
X328244Y311091D01*
X329500Y322000D02*
X339107Y312393D01*
X327843Y318000D02*
X333607Y312237D01*
X327015Y316000D02*
X330925Y312089D01*
X328672Y320000D02*
X336288Y312384D01*
X237000Y333000D02*
X237362Y332638D01*
X328244Y305380D02*
Y311091D01*
Y305380D02*
X328287Y305338D01*
Y303751D02*
Y305338D01*
Y303751D02*
X328548Y303491D01*
X281138Y342500D02*
X295000D01*
X300000Y337500D01*
X281235Y352558D02*
X282183D01*
X282241Y352500D01*
X296914D02*
X303000Y346414D01*
X282241Y352500D02*
X296914D01*
X280858Y352936D02*
X281235Y352558D01*
X333607Y305380D02*
Y312237D01*
Y305380D02*
X333708Y305278D01*
Y303751D02*
Y305278D01*
Y303751D02*
X333969Y303491D01*
X290181Y362819D02*
X305500Y347500D01*
X281000Y362819D02*
X290181D01*
X281000Y372638D02*
X286362D01*
X308000Y351000D01*
X280909Y362910D02*
X281000Y362819D01*
X339107Y303715D02*
Y312393D01*
Y303715D02*
X339331Y303491D01*
X281000Y382819D02*
X310000Y353819D01*
X333969Y323360D02*
X339328Y318000D01*
X333969Y323360D02*
Y327506D01*
X341788Y306491D02*
Y312712D01*
X339328Y318000D02*
X351500D01*
X336650Y324350D02*
Y328616D01*
Y324350D02*
X341000Y320000D01*
X350571D01*
X237000Y373000D02*
X237362Y372638D01*
X339592Y325080D02*
X342672Y322000D01*
X339592Y325080D02*
Y327245D01*
X342672Y322000D02*
X349743D01*
X281000Y413000D02*
X281369D01*
X282014Y412354D01*
X282146D01*
X287130Y407370D01*
X287130D01*
X292500Y402000D01*
X350571Y320000D02*
X354000Y323429D01*
X349743Y322000D02*
X351500Y323757D01*
X343500Y324000D02*
X348914D01*
X349500Y324586D01*
X342012Y325488D02*
X343500Y324000D01*
X336548Y328718D02*
Y330245D01*
Y328718D02*
X336650Y328616D01*
X336288Y330506D02*
X336548Y330245D01*
X237000Y393000D02*
X237181Y392819D01*
X339331Y327506D02*
X339592Y327245D01*
X280909Y302909D02*
X281000Y302819D01*
X237000Y303000D02*
X237090Y302909D01*
X237000Y323000D02*
X237181Y322819D01*
X237000Y343000D02*
X237181Y342819D01*
X237000Y353000D02*
X237065Y352936D01*
X237000Y363000D02*
X237090Y362910D01*
X237000Y423000D02*
X237090Y422909D01*
X237000Y403000D02*
X237090Y402910D01*
X237000Y383000D02*
X237090Y382909D01*
X172362Y273000D02*
X212000D01*
X172181Y273181D02*
X172362Y273000D01*
X212000D02*
X216000Y277000D01*
X172181Y283181D02*
X172362Y283000D01*
X212000D01*
X172362Y293000D02*
X212000D01*
X172181Y293181D02*
X172362Y293000D01*
Y303000D02*
X212000D01*
X172181Y303181D02*
X172362Y303000D01*
X166500Y317500D02*
X172000Y323000D01*
X168780Y353280D02*
X172000D01*
Y373000D02*
Y373181D01*
X168000Y383000D02*
X171819D01*
X172000Y382819D01*
Y392819D02*
X172181Y393000D01*
X212000D01*
X166500Y228172D02*
Y317500D01*
X152743Y214414D02*
X166500Y228172D01*
X153571Y212414D02*
X168500Y227343D01*
Y309869D02*
X171631Y313000D01*
X168500Y227343D02*
Y309869D01*
X171631Y313000D02*
X172000D01*
X135757Y212414D02*
X153571D01*
X122353Y225819D02*
Y228466D01*
Y225819D02*
X135757Y212414D01*
X122319Y228500D02*
X122353Y228466D01*
X136672Y214500D02*
X136757Y214414D01*
X136500Y214500D02*
X136672D01*
X136757Y214414D02*
X152743D01*
X125000Y226000D02*
X136500Y214500D01*
X125000Y226000D02*
Y231500D01*
X128021Y225979D02*
Y228239D01*
X127760Y228500D02*
X128021Y228239D01*
X172000Y353000D02*
X212000D01*
X128021Y225979D02*
X137586Y216414D01*
X151914D01*
X130500Y226328D02*
X138414Y218414D01*
X150571D01*
X130500Y226328D02*
Y231500D01*
X172000Y343000D02*
X212000D01*
X133442Y226981D02*
Y228239D01*
X133181Y228500D02*
X133442Y228239D01*
X139923Y220500D02*
X149828D01*
X133442Y226981D02*
X139923Y220500D01*
X140752Y222500D02*
X149000D01*
X135862Y227390D02*
X140752Y222500D01*
X172000Y313000D02*
X212000D01*
X172000Y323000D02*
X212000D01*
X172000Y333000D02*
X212000D01*
X172000Y373000D02*
X212000D01*
X142043Y225000D02*
X147500D01*
X138543Y228500D02*
X142043Y225000D01*
X135761Y229712D02*
X135862Y229610D01*
X135500Y231500D02*
X135761Y231239D01*
Y229712D02*
Y231239D01*
X135862Y227390D02*
Y229610D01*
X172000Y423000D02*
X212000D01*
X166000Y393000D02*
X172000D01*
X138543Y252515D02*
Y258043D01*
X133181Y252515D02*
Y260181D01*
X135862Y255515D02*
Y258862D01*
X172000Y413000D02*
X212000D01*
X172000Y403000D02*
X212000D01*
Y413000D02*
X216000Y417000D01*
Y277000D02*
X218000D01*
X222000Y273000D01*
X227000D01*
X216000Y287000D02*
X218000D01*
X222000Y283000D01*
X212000D02*
X216000Y287000D01*
X222000Y283000D02*
X227000D01*
X216000Y297000D02*
X218000D01*
X222000Y293000D01*
X212000D02*
X216000Y297000D01*
Y307000D02*
X218000D01*
X222000Y303000D01*
X212000D02*
X216000Y307000D01*
Y317000D02*
X218000D01*
X222000Y313000D01*
X212000D02*
X216000Y317000D01*
X222000Y313000D02*
X227000D01*
X216000Y327000D02*
X218000D01*
X222000Y323000D01*
X212000D02*
X216000Y327000D01*
X222000Y323000D02*
X227000D01*
X216000Y337000D02*
X218000D01*
X222000Y333000D01*
X212000D02*
X216000Y337000D01*
X222000Y333000D02*
X227000D01*
X216000Y347000D02*
X218000D01*
X222000Y343000D01*
X212000D02*
X216000Y347000D01*
X222000Y343000D02*
X227000D01*
X216000Y357000D02*
X218000D01*
X222000Y353000D01*
X212000D02*
X216000Y357000D01*
X222000Y353000D02*
X227000D01*
X216000Y367000D02*
X218000D01*
X222000Y363000D01*
X212000D02*
X216000Y367000D01*
X222000Y363000D02*
X227000D01*
X216000Y377000D02*
X218000D01*
X222000Y373000D01*
X212000D02*
X216000Y377000D01*
X222000Y373000D02*
X227000D01*
X216000Y387000D02*
X218000D01*
X222000Y383000D01*
X212000D02*
X216000Y387000D01*
X222000Y383000D02*
X227000D01*
X172000D02*
X212000D01*
X216000Y397000D02*
X218000D01*
X222000Y393000D01*
X212000D02*
X216000Y397000D01*
X222000Y393000D02*
X227000D01*
X216000Y407000D02*
X218000D01*
X222000Y403000D01*
X212000D02*
X216000Y407000D01*
X222000Y403000D02*
X227000D01*
X216000Y417000D02*
X218000D01*
X222000Y413000D01*
X227000D01*
X216000Y427000D02*
X218000D01*
X222000Y423000D01*
X212000D02*
X216000Y427000D01*
X222000Y423000D02*
X227000D01*
D65*
X364000Y81500D02*
X369500Y76000D01*
X349500Y81500D02*
X364000D01*
X336808Y94191D02*
X349500Y81500D01*
X336808Y94191D02*
Y107211D01*
X385827Y118361D02*
X396083Y108105D01*
X366318Y118361D02*
X385827D01*
X336808Y107211D02*
Y111309D01*
X343861Y118361D02*
X366318D01*
X336808Y111309D02*
X343861Y118361D01*
X612693Y310058D02*
X623768Y321133D01*
Y337221D01*
X612693Y303991D02*
Y310058D01*
X614511Y346478D02*
Y368445D01*
Y346478D02*
X623768Y337221D01*
X140000Y305000D02*
Y308500D01*
X142649Y302351D02*
X142801D01*
X140000Y305000D02*
X142649Y302351D01*
X140000Y308500D02*
X143500Y312000D01*
Y373219D01*
X144603Y374322D01*
Y374529D01*
D66*
X478000Y91382D02*
Y107500D01*
Y91382D02*
X478722Y90660D01*
X440000Y230000D02*
X478000Y192000D01*
Y107500D02*
Y151500D01*
Y192000D01*
X440000Y230000D02*
X440000D01*
X440000Y208000D02*
Y230000D01*
Y253000D01*
X478722Y90562D02*
Y90660D01*
X440000Y180500D02*
Y208000D01*
Y253000D02*
X451500Y264500D01*
X425000Y165500D02*
X440000Y180500D01*
X425000Y165500D02*
Y185000D01*
X401500Y142000D02*
X425000Y165500D01*
X318034Y142000D02*
X401500D01*
X451500Y264500D02*
X458631Y257369D01*
X611994Y229414D02*
X612063Y229483D01*
X611965Y229130D02*
X611994Y229158D01*
X609717Y222717D02*
Y222717D01*
X611965Y224965D01*
X611994Y229158D02*
Y229414D01*
X611965Y224965D02*
Y229130D01*
X608000Y221000D02*
X609717Y222717D01*
X560369Y221000D02*
X608000D01*
X524000Y257369D02*
X538648D01*
X458631D02*
X524000D01*
X560369Y221000D01*
X425000Y185000D02*
Y191500D01*
X311767Y148267D02*
X318034Y142000D01*
X182867Y263367D02*
X191734Y254500D01*
X240500D01*
X270366Y224634D02*
X282655D01*
X240500Y254500D02*
X270366Y224634D01*
X282655D02*
Y247313D01*
X270456Y259512D02*
X282655Y247313D01*
D68*
X542705Y65642D02*
D03*
X568295D02*
D03*
X542705Y95642D02*
D03*
X568295D02*
D03*
D70*
X160000Y95500D02*
D03*
D71*
X140000Y80500D02*
D03*
D73*
X495000Y234330D02*
D03*
Y462677D02*
D03*
X227000Y233830D02*
D03*
Y462177D02*
D03*
D74*
X495000Y413500D02*
D03*
X505000Y333500D02*
D03*
Y343500D02*
D03*
Y353500D02*
D03*
Y363500D02*
D03*
Y373500D02*
D03*
Y383500D02*
D03*
Y393500D02*
D03*
Y403500D02*
D03*
Y323500D02*
D03*
Y313500D02*
D03*
Y303500D02*
D03*
X495000Y333500D02*
D03*
Y343500D02*
D03*
Y353500D02*
D03*
Y363500D02*
D03*
Y373500D02*
D03*
Y383500D02*
D03*
Y393500D02*
D03*
Y403500D02*
D03*
Y323500D02*
D03*
Y313500D02*
D03*
Y303500D02*
D03*
Y293500D02*
D03*
Y283500D02*
D03*
Y273500D02*
D03*
X505000Y423500D02*
D03*
X495000D02*
D03*
X227000Y413000D02*
D03*
X237000Y333000D02*
D03*
Y343000D02*
D03*
Y353000D02*
D03*
Y363000D02*
D03*
Y373000D02*
D03*
Y383000D02*
D03*
Y393000D02*
D03*
Y403000D02*
D03*
Y323000D02*
D03*
Y313000D02*
D03*
Y303000D02*
D03*
X227000Y333000D02*
D03*
Y343000D02*
D03*
Y353000D02*
D03*
Y363000D02*
D03*
Y373000D02*
D03*
Y383000D02*
D03*
Y393000D02*
D03*
Y403000D02*
D03*
Y323000D02*
D03*
Y313000D02*
D03*
Y303000D02*
D03*
Y293000D02*
D03*
Y283000D02*
D03*
Y273000D02*
D03*
X237000Y423000D02*
D03*
X227000D02*
D03*
X311767Y148267D02*
D03*
X538648Y257369D02*
D03*
X451500Y264500D02*
D03*
X182867Y263367D02*
D03*
X270456Y259512D02*
D03*
X282655Y224634D02*
D03*
X208500Y172500D02*
D03*
Y179000D02*
D03*
X216500Y172500D02*
D03*
Y179000D02*
D03*
X224000D02*
D03*
X216500Y186000D02*
D03*
X224000Y172500D02*
D03*
X208500Y186000D02*
D03*
X121000Y171000D02*
D03*
X105500D02*
D03*
X113000D02*
D03*
X141000Y171500D02*
D03*
X148500D02*
D03*
X156500D02*
D03*
X105500Y184500D02*
D03*
X113000D02*
D03*
X121000D02*
D03*
X105500Y177500D02*
D03*
X113000D02*
D03*
X121000D02*
D03*
X156500Y178000D02*
D03*
X148500D02*
D03*
X141000D02*
D03*
X156500Y185000D02*
D03*
X148500D02*
D03*
X141000D02*
D03*
D75*
X446500Y84500D02*
D03*
D77*
X482531Y132653D02*
D03*
X465589Y145934D02*
D03*
X354320Y147291D02*
D03*
X364650Y147042D02*
D03*
X359500D02*
D03*
X408000Y187500D02*
D03*
X411500Y184500D02*
D03*
X411363Y191015D02*
D03*
X453181Y145535D02*
D03*
X409128Y85653D02*
D03*
X453000Y192000D02*
D03*
X408000Y161000D02*
D03*
X452544Y202976D02*
D03*
X452457Y181142D02*
D03*
X452544Y197476D02*
D03*
Y186476D02*
D03*
X380255Y76920D02*
D03*
X375673Y77183D02*
D03*
X491907Y134992D02*
D03*
X493040Y127002D02*
D03*
X609762Y306991D02*
D03*
X619000Y304000D02*
D03*
X406543Y229000D02*
D03*
X419500Y181500D02*
D03*
X465993Y165327D02*
D03*
X321012Y200217D02*
D03*
X383431Y317078D02*
D03*
X410500Y308500D02*
D03*
X406500Y383500D02*
D03*
X373055Y66235D02*
D03*
X341788Y306491D02*
D03*
Y330506D02*
D03*
X348000Y307000D02*
D03*
X172000Y363181D02*
D03*
X140000Y315000D02*
D03*
X142801Y302351D02*
D03*
X357949Y66237D02*
D03*
X314144Y81818D02*
D03*
X369500Y76000D02*
D03*
X367878Y89650D02*
D03*
X336808Y107211D02*
D03*
X322500Y107000D02*
D03*
X265500Y90750D02*
D03*
Y105750D02*
D03*
X366318Y118361D02*
D03*
X478722Y90562D02*
D03*
X495935Y96916D02*
D03*
X369432Y121988D02*
D03*
X349922Y101880D02*
D03*
X379701Y247000D02*
D03*
X406543Y253015D02*
D03*
X401181D02*
D03*
X353885Y344955D02*
D03*
X358159Y342274D02*
D03*
X358000Y303500D02*
D03*
X344500Y147433D02*
D03*
X410167Y113321D02*
D03*
X410011Y118578D02*
D03*
X143905Y252515D02*
D03*
X409812Y103514D02*
D03*
X144043Y399126D02*
D03*
X409795Y98344D02*
D03*
X143905Y472500D02*
D03*
X349422Y147511D02*
D03*
X396083Y108105D02*
D03*
X409000Y75500D02*
D03*
X408261Y108456D02*
D03*
X383179Y104672D02*
D03*
X519747Y123388D02*
D03*
X519547Y133332D02*
D03*
X506344Y144007D02*
D03*
X516678Y142150D02*
D03*
X579250Y229220D02*
D03*
X416359Y232602D02*
D03*
X587513Y475413D02*
D03*
X587813Y402054D02*
D03*
X626092Y343336D02*
D03*
X587500Y256500D02*
D03*
X582929Y475500D02*
D03*
X582898Y401992D02*
D03*
X622000Y346017D02*
D03*
X584242Y253415D02*
D03*
X379929Y223000D02*
D03*
X383929Y229000D02*
D03*
X612063Y229483D02*
D03*
X584015Y229573D02*
D03*
X111681Y322500D02*
D03*
X319913Y401500D02*
D03*
X319598Y475175D02*
D03*
X319571Y255999D02*
D03*
X315000Y475000D02*
D03*
X316303Y252964D02*
D03*
X315000Y401500D02*
D03*
X308000Y260500D02*
D03*
X307218Y229744D02*
D03*
X312523Y260444D02*
D03*
X311537Y231478D02*
D03*
X276921Y181476D02*
D03*
Y175976D02*
D03*
X575543Y260244D02*
D03*
X374873Y176395D02*
D03*
X374971Y181476D02*
D03*
X309339Y163199D02*
D03*
X615893Y232854D02*
D03*
X622032Y286130D02*
D03*
X613450Y375144D02*
D03*
X614511Y368445D02*
D03*
X617000Y452500D02*
D03*
X410597Y316087D02*
D03*
X412043Y397626D02*
D03*
X420000Y449500D02*
D03*
X346272Y229112D02*
D03*
X153197Y449204D02*
D03*
X130012Y382343D02*
D03*
X144603Y374529D02*
D03*
X148951Y232048D02*
D03*
X354621Y286506D02*
D03*
X345577Y374053D02*
D03*
X349500Y451500D02*
D03*
X277630Y192343D02*
D03*
X277267Y186993D02*
D03*
X312681Y256000D02*
D03*
X310000Y186000D02*
D03*
X309955Y188605D02*
D03*
X451823Y208536D02*
D03*
X418500Y191500D02*
D03*
X425000D02*
D03*
X320865Y183417D02*
D03*
X580438Y256451D02*
D03*
X580000Y260500D02*
D03*
X591107Y304115D02*
D03*
X579569Y400152D02*
D03*
X311698Y398867D02*
D03*
X587000Y336500D02*
D03*
X318963Y335741D02*
D03*
X626000Y304000D02*
D03*
X351000Y303500D02*
D03*
X112015Y246500D02*
D03*
X112153Y393110D02*
D03*
X549000Y423319D02*
D03*
X579929Y466500D02*
D03*
X379929Y393500D02*
D03*
Y467000D02*
D03*
X281000Y422819D02*
D03*
X312193Y466500D02*
D03*
X112000D02*
D03*
X395760Y229000D02*
D03*
X411905Y473000D02*
D03*
Y253015D02*
D03*
X393000Y232000D02*
D03*
X398500D02*
D03*
X403500D02*
D03*
X390319Y229000D02*
D03*
X403862Y256015D02*
D03*
X409224D02*
D03*
X409000Y232000D02*
D03*
X440000Y333500D02*
D03*
Y313500D02*
D03*
X401181Y229000D02*
D03*
X604288Y331006D02*
D03*
X609788D02*
D03*
X601969Y303991D02*
D03*
X596548D02*
D03*
X607331D02*
D03*
X612693D02*
D03*
X607331Y328006D02*
D03*
X601969D02*
D03*
X440000Y423500D02*
D03*
Y412819D02*
D03*
Y403138D02*
D03*
Y393319D02*
D03*
Y383319D02*
D03*
Y373681D02*
D03*
Y363681D02*
D03*
Y353780D02*
D03*
Y343681D02*
D03*
Y323500D02*
D03*
X440181Y303681D02*
D03*
Y293681D02*
D03*
Y283681D02*
D03*
Y273681D02*
D03*
X549000Y383319D02*
D03*
Y403319D02*
D03*
Y413500D02*
D03*
Y373138D02*
D03*
Y363319D02*
D03*
X548974Y353319D02*
D03*
X549000Y343138D02*
D03*
Y333138D02*
D03*
Y323138D02*
D03*
Y313138D02*
D03*
Y303319D02*
D03*
X593563Y306991D02*
D03*
X549000Y393138D02*
D03*
X604288Y306991D02*
D03*
X598925D02*
D03*
X549000Y293500D02*
D03*
X616000Y307500D02*
D03*
X622500D02*
D03*
X354500Y307000D02*
D03*
X281000Y293000D02*
D03*
X330925Y306491D02*
D03*
X336288D02*
D03*
X281000Y392638D02*
D03*
X325563Y306491D02*
D03*
X281000Y302819D02*
D03*
Y312638D02*
D03*
Y322638D02*
D03*
Y332638D02*
D03*
Y342638D02*
D03*
X280974Y352819D02*
D03*
X281000Y362819D02*
D03*
Y372638D02*
D03*
Y413000D02*
D03*
Y402819D02*
D03*
Y382819D02*
D03*
X172181Y273181D02*
D03*
Y283181D02*
D03*
Y293181D02*
D03*
Y303181D02*
D03*
X172000Y323000D02*
D03*
Y343181D02*
D03*
Y353280D02*
D03*
Y373181D02*
D03*
Y382819D02*
D03*
Y392819D02*
D03*
Y402638D02*
D03*
Y412319D02*
D03*
Y423000D02*
D03*
X333969Y327506D02*
D03*
X339331D02*
D03*
Y303491D02*
D03*
X328548D02*
D03*
X333969D02*
D03*
X323107D02*
D03*
X336288Y330506D02*
D03*
X127760Y228500D02*
D03*
X133181D02*
D03*
X172000Y313000D02*
D03*
Y333000D02*
D03*
X138543Y228500D02*
D03*
X141000Y231500D02*
D03*
X141224Y255515D02*
D03*
X135862D02*
D03*
X122319Y228500D02*
D03*
X135500Y231500D02*
D03*
X130500D02*
D03*
X125000D02*
D03*
X133181Y252515D02*
D03*
X138543D02*
D03*
M02*
