G04*
G04 #@! TF.GenerationSoftware,Altium Limited,Altium Designer,21.3.2 (30)*
G04*
G04 Layer_Color=32768*
%FSLAX25Y25*%
%MOIN*%
G70*
G04*
G04 #@! TF.SameCoordinates,9419806A-25E3-4103-AC09-10F767E43710*
G04*
G04*
G04 #@! TF.FilePolarity,Positive*
G04*
G01*
G75*
%ADD10C,0.00700*%
%ADD14C,0.00600*%
%ADD16C,0.00394*%
%ADD79C,0.00197*%
G36*
X613848Y465858D02*
X614625D01*
Y444158D01*
X613848D01*
Y437842D01*
X580302D01*
Y444158D01*
X579525D01*
Y465858D01*
X580302D01*
Y472173D01*
X613848D01*
Y465858D01*
D02*
G37*
G36*
X413935Y465842D02*
X414711D01*
Y444142D01*
X413935D01*
Y437827D01*
X380388D01*
Y444142D01*
X379611D01*
Y465842D01*
X380388D01*
Y472158D01*
X413935D01*
Y465842D01*
D02*
G37*
G36*
X346112Y465358D02*
X346889D01*
Y443658D01*
X346112D01*
Y437342D01*
X312565D01*
Y443658D01*
X311789D01*
Y465358D01*
X312565D01*
Y471673D01*
X346112D01*
Y465358D01*
D02*
G37*
G36*
X145935Y465342D02*
X146711D01*
Y443642D01*
X145935D01*
Y437327D01*
X112388D01*
Y443642D01*
X111611D01*
Y465342D01*
X112388D01*
Y471658D01*
X145935D01*
Y465342D01*
D02*
G37*
G36*
X414072Y392468D02*
X414849D01*
Y370768D01*
X414072D01*
Y364453D01*
X380526D01*
Y370768D01*
X379749D01*
Y392468D01*
X380526D01*
Y398784D01*
X414072D01*
Y392468D01*
D02*
G37*
G36*
X146072Y391968D02*
X146849D01*
Y370268D01*
X146072D01*
Y363953D01*
X112526D01*
Y370268D01*
X111749D01*
Y391968D01*
X112526D01*
Y398284D01*
X146072D01*
Y391968D01*
D02*
G37*
G36*
X614273Y391850D02*
X615050D01*
Y370150D01*
X614273D01*
Y363835D01*
X580727D01*
Y370150D01*
X579950D01*
Y391850D01*
X580727D01*
Y398165D01*
X614273D01*
Y391850D01*
D02*
G37*
G36*
X346376Y391358D02*
X347152D01*
Y369658D01*
X346376D01*
Y363342D01*
X312829D01*
Y369658D01*
X312052D01*
Y391358D01*
X312829D01*
Y397673D01*
X346376D01*
Y391358D01*
D02*
G37*
G36*
X413418Y321017D02*
X414195D01*
Y299317D01*
X413418D01*
Y293001D01*
X379872D01*
Y299317D01*
X379095D01*
Y321017D01*
X379872D01*
Y327332D01*
X413418D01*
Y321017D01*
D02*
G37*
G36*
X614773Y320850D02*
X615550D01*
Y299150D01*
X614773D01*
Y292835D01*
X581227D01*
Y299150D01*
X580450D01*
Y320850D01*
X581227D01*
Y327165D01*
X614773D01*
Y320850D01*
D02*
G37*
G36*
X346773Y320350D02*
X347550D01*
Y298650D01*
X346773D01*
Y292335D01*
X313227D01*
Y298650D01*
X312450D01*
Y320350D01*
X313227D01*
Y326665D01*
X346773D01*
Y320350D01*
D02*
G37*
G36*
X145435Y320342D02*
X146211D01*
Y298642D01*
X145435D01*
Y292327D01*
X111888D01*
Y298642D01*
X111111D01*
Y320342D01*
X111888D01*
Y326658D01*
X145435D01*
Y320342D01*
D02*
G37*
G36*
X614109Y246293D02*
X614886D01*
Y224593D01*
X614109D01*
Y218278D01*
X580563D01*
Y224593D01*
X579786D01*
Y246293D01*
X580563D01*
Y252609D01*
X614109D01*
Y246293D01*
D02*
G37*
G36*
X346171Y245842D02*
X346948D01*
Y224142D01*
X346171D01*
Y217827D01*
X312624D01*
Y224142D01*
X311848D01*
Y245842D01*
X312624D01*
Y252158D01*
X346171D01*
Y245842D01*
D02*
G37*
G36*
X413960Y245773D02*
X414737D01*
Y224073D01*
X413960D01*
Y217758D01*
X380413D01*
Y224073D01*
X379637D01*
Y245773D01*
X380413D01*
Y252089D01*
X413960D01*
Y245773D01*
D02*
G37*
G36*
X145935Y245358D02*
X146711D01*
Y223658D01*
X145935D01*
Y217342D01*
X112388D01*
Y223658D01*
X111611D01*
Y245358D01*
X112388D01*
Y251673D01*
X145935D01*
Y245358D01*
D02*
G37*
G36*
X385179Y126680D02*
X388116D01*
Y123742D01*
X394253D01*
Y86246D01*
X388116D01*
Y83309D01*
X385179D01*
Y77172D01*
X347683D01*
Y83309D01*
X344746D01*
Y86246D01*
X338609D01*
Y123742D01*
X344746D01*
Y126680D01*
X347683D01*
Y132817D01*
X385179D01*
Y126680D01*
D02*
G37*
D10*
X230031Y159998D02*
X233968D01*
X232000Y158031D02*
Y161969D01*
X129032Y160715D02*
X132968D01*
X131000Y158748D02*
Y162685D01*
D14*
X580302Y465858D02*
Y472173D01*
X579525Y465858D02*
X580302D01*
X579525Y444158D02*
Y465858D01*
Y444158D02*
X580302D01*
Y437842D02*
Y444158D01*
Y437842D02*
X613848D01*
Y444158D01*
X614625D01*
Y465858D01*
X613848D02*
X614625D01*
X613848D02*
Y472173D01*
X580302D02*
X613848D01*
X581227Y320850D02*
Y327165D01*
X580450Y320850D02*
X581227D01*
X580450Y299150D02*
Y320850D01*
Y299150D02*
X581227D01*
Y292835D02*
Y299150D01*
Y292835D02*
X614773D01*
Y299150D01*
X615550D01*
Y320850D01*
X614773D02*
X615550D01*
X614773D02*
Y327165D01*
X581227D02*
X614773D01*
X312565Y465358D02*
Y471673D01*
X311789Y465358D02*
X312565D01*
X311789Y443658D02*
Y465358D01*
Y443658D02*
X312565D01*
Y437342D02*
Y443658D01*
Y437342D02*
X346112D01*
Y443658D01*
X346889D01*
Y465358D01*
X346112D02*
X346889D01*
X346112D02*
Y471673D01*
X312565D02*
X346112D01*
X313227Y320350D02*
Y326665D01*
X312450Y320350D02*
X313227D01*
X312450Y298650D02*
Y320350D01*
Y298650D02*
X313227D01*
Y292335D02*
Y298650D01*
Y292335D02*
X346773D01*
Y298650D01*
X347550D01*
Y320350D01*
X346773D02*
X347550D01*
X346773D02*
Y326665D01*
X313227D02*
X346773D01*
X380413Y245773D02*
Y252089D01*
X379637Y245773D02*
X380413D01*
X379637Y224073D02*
Y245773D01*
Y224073D02*
X380413D01*
Y217758D02*
Y224073D01*
Y217758D02*
X413960D01*
Y224073D01*
X414737D01*
Y245773D01*
X413960D02*
X414737D01*
X413960D02*
Y252089D01*
X380413D02*
X413960D01*
X380526Y392468D02*
Y398784D01*
X379749Y392468D02*
X380526D01*
X379749Y370768D02*
Y392468D01*
Y370768D02*
X380526D01*
Y364453D02*
Y370768D01*
Y364453D02*
X414072D01*
Y370768D01*
X414849D01*
Y392468D01*
X414072D02*
X414849D01*
X414072D02*
Y398784D01*
X380526D02*
X414072D01*
X112388Y245358D02*
Y251673D01*
X111611Y245358D02*
X112388D01*
X111611Y223658D02*
Y245358D01*
Y223658D02*
X112388D01*
Y217342D02*
Y223658D01*
Y217342D02*
X145935D01*
Y223658D01*
X146711D01*
Y245358D01*
X145935D02*
X146711D01*
X145935D02*
Y251673D01*
X112388D02*
X145935D01*
X112526Y391968D02*
Y398284D01*
X111749Y391968D02*
X112526D01*
X111749Y370268D02*
Y391968D01*
Y370268D02*
X112526D01*
Y363953D02*
Y370268D01*
Y363953D02*
X146072D01*
Y370268D01*
X146849D01*
Y391968D01*
X146072D02*
X146849D01*
X146072D02*
Y398284D01*
X112526D02*
X146072D01*
X388116Y123742D02*
Y126680D01*
Y123742D02*
X394253D01*
Y86246D02*
Y123742D01*
X388116Y86246D02*
X394253D01*
X388116Y83309D02*
Y86246D01*
X344746Y123742D02*
Y126680D01*
X338609Y123742D02*
X344746D01*
X338609Y86246D02*
Y123742D01*
Y86246D02*
X344746D01*
Y83309D02*
Y86246D01*
X385179Y83309D02*
X388116D01*
X385179Y77172D02*
Y83309D01*
X347683Y77172D02*
X385179D01*
X347683D02*
Y83309D01*
X344746D02*
X347683D01*
X385179Y126680D02*
X388116D01*
X385179D02*
Y132817D01*
X347683D02*
X385179D01*
X347683Y126680D02*
Y132817D01*
X344746Y126680D02*
X347683D01*
X580727Y391850D02*
Y398165D01*
X579950Y391850D02*
X580727D01*
X579950Y370150D02*
Y391850D01*
Y370150D02*
X580727D01*
Y363835D02*
Y370150D01*
Y363835D02*
X614273D01*
Y370150D01*
X615050D01*
Y391850D01*
X614273D02*
X615050D01*
X614273D02*
Y398165D01*
X580727D02*
X614273D01*
X580563Y246293D02*
Y252609D01*
X579786Y246293D02*
X580563D01*
X579786Y224593D02*
Y246293D01*
Y224593D02*
X580563D01*
Y218278D02*
Y224593D01*
Y218278D02*
X614109D01*
Y224593D01*
X614886D01*
Y246293D01*
X614109D02*
X614886D01*
X614109D02*
Y252609D01*
X580563D02*
X614109D01*
X312829Y391358D02*
Y397673D01*
X312052Y391358D02*
X312829D01*
X312052Y369658D02*
Y391358D01*
Y369658D02*
X312829D01*
Y363342D02*
Y369658D01*
Y363342D02*
X346376D01*
Y369658D01*
X347152D01*
Y391358D01*
X346376D02*
X347152D01*
X346376D02*
Y397673D01*
X312829D02*
X346376D01*
X312624Y245842D02*
Y252158D01*
X311848Y245842D02*
X312624D01*
X311848Y224142D02*
Y245842D01*
Y224142D02*
X312624D01*
Y217827D02*
Y224142D01*
Y217827D02*
X346171D01*
Y224142D01*
X346948D01*
Y245842D01*
X346171D02*
X346948D01*
X346171D02*
Y252158D01*
X312624D02*
X346171D01*
X379872Y321017D02*
Y327332D01*
X379095Y321017D02*
X379872D01*
X379095Y299317D02*
Y321017D01*
Y299317D02*
X379872D01*
Y293001D02*
Y299317D01*
Y293001D02*
X413418D01*
Y299317D01*
X414195D01*
Y321017D01*
X413418D02*
X414195D01*
X413418D02*
Y327332D01*
X379872D02*
X413418D01*
X380388Y465842D02*
Y472158D01*
X379611Y465842D02*
X380388D01*
X379611Y444142D02*
Y465842D01*
Y444142D02*
X380388D01*
Y437827D02*
Y444142D01*
Y437827D02*
X413935D01*
Y444142D01*
X414711D01*
Y465842D01*
X413935D02*
X414711D01*
X413935D02*
Y472158D01*
X380388D02*
X413935D01*
X111888Y320342D02*
Y326658D01*
X111111Y320342D02*
X111888D01*
X111111Y298642D02*
Y320342D01*
Y298642D02*
X111888D01*
Y292327D02*
Y298642D01*
Y292327D02*
X145435D01*
Y298642D01*
X146211D01*
Y320342D01*
X145435D02*
X146211D01*
X145435D02*
Y326658D01*
X111888D02*
X145435D01*
X112388Y465342D02*
Y471658D01*
X111611Y465342D02*
X112388D01*
X111611Y443642D02*
Y465342D01*
Y443642D02*
X112388D01*
Y437327D02*
Y443642D01*
Y437327D02*
X145935D01*
Y443642D01*
X146711D01*
Y465342D01*
X145935D02*
X146711D01*
X145935D02*
Y471658D01*
X112388D02*
X145935D01*
D16*
X487130Y106000D02*
X490870D01*
X489000Y104130D02*
Y107870D01*
X486835Y100850D02*
Y111150D01*
X491165Y100850D02*
Y111150D01*
X486835Y100850D02*
X491165D01*
X486835Y111150D02*
X491165D01*
X481130Y106000D02*
X484870D01*
X483000Y104130D02*
Y107870D01*
X480835Y100850D02*
Y111150D01*
X485165Y100850D02*
Y111150D01*
X480835Y100850D02*
X485165D01*
X480835Y111150D02*
X485165D01*
X541500Y271630D02*
Y275370D01*
X539630Y273500D02*
X543370D01*
X536350Y275665D02*
X546650D01*
X536350Y271335D02*
X546650D01*
X536350D02*
Y275665D01*
X546650Y271335D02*
Y275665D01*
X541500Y291630D02*
Y295370D01*
X539630Y293500D02*
X543370D01*
X536350Y295665D02*
X546650D01*
X536350Y291335D02*
X546650D01*
X536350D02*
Y295665D01*
X546650Y291335D02*
Y295665D01*
X541500Y311630D02*
Y315370D01*
X539630Y313500D02*
X543370D01*
X536350Y315665D02*
X546650D01*
X536350Y311335D02*
X546650D01*
X536350D02*
Y315665D01*
X546650Y311335D02*
Y315665D01*
X541500Y331630D02*
Y335370D01*
X539630Y333500D02*
X543370D01*
X536350Y335665D02*
X546650D01*
X536350Y331335D02*
X546650D01*
X536350D02*
Y335665D01*
X546650Y331335D02*
Y335665D01*
X541500Y351630D02*
Y355370D01*
X539630Y353500D02*
X543370D01*
X536350Y355665D02*
X546650D01*
X536350Y351335D02*
X546650D01*
X536350D02*
Y355665D01*
X546650Y351335D02*
Y355665D01*
X541500Y371630D02*
Y375370D01*
X539630Y373500D02*
X543370D01*
X536350Y375665D02*
X546650D01*
X536350Y371335D02*
X546650D01*
X536350D02*
Y375665D01*
X546650Y371335D02*
Y375665D01*
X541500Y391630D02*
Y395370D01*
X539630Y393500D02*
X543370D01*
X536350Y395665D02*
X546650D01*
X536350Y391335D02*
X546650D01*
X536350D02*
Y395665D01*
X546650Y391335D02*
Y395665D01*
X541500Y411630D02*
Y415370D01*
X539630Y413500D02*
X543370D01*
X536350Y415665D02*
X546650D01*
X536350Y411335D02*
X546650D01*
X536350D02*
Y415665D01*
X546650Y411335D02*
Y415665D01*
X273500Y411130D02*
Y414870D01*
X271630Y413000D02*
X275370D01*
X268350Y415165D02*
X278650D01*
X268350Y410835D02*
X278650D01*
X268350D02*
Y415165D01*
X278650Y410835D02*
Y415165D01*
X273500Y391130D02*
Y394870D01*
X271630Y393000D02*
X275370D01*
X268350Y395165D02*
X278650D01*
X268350Y390835D02*
X278650D01*
X268350D02*
Y395165D01*
X278650Y390835D02*
Y395165D01*
X273500Y371130D02*
Y374870D01*
X271630Y373000D02*
X275370D01*
X268350Y375165D02*
X278650D01*
X268350Y370835D02*
X278650D01*
X268350D02*
Y375165D01*
X278650Y370835D02*
Y375165D01*
X273500Y351130D02*
Y354870D01*
X271630Y353000D02*
X275370D01*
X268350Y355165D02*
X278650D01*
X268350Y350835D02*
X278650D01*
X268350D02*
Y355165D01*
X278650Y350835D02*
Y355165D01*
X273500Y331130D02*
Y334870D01*
X271630Y333000D02*
X275370D01*
X268350Y335165D02*
X278650D01*
X268350Y330835D02*
X278650D01*
X268350D02*
Y335165D01*
X278650Y330835D02*
Y335165D01*
X273500Y311130D02*
Y314870D01*
X271630Y313000D02*
X275370D01*
X268350Y315165D02*
X278650D01*
X268350Y310835D02*
X278650D01*
X268350D02*
Y315165D01*
X278650Y310835D02*
Y315165D01*
X273500Y291130D02*
Y294870D01*
X271630Y293000D02*
X275370D01*
X268350Y295165D02*
X278650D01*
X268350Y290835D02*
X278650D01*
X268350D02*
Y295165D01*
X278650Y290835D02*
Y295165D01*
X273500Y271130D02*
Y274870D01*
X271630Y273000D02*
X275370D01*
X268350Y275165D02*
X278650D01*
X268350Y270835D02*
X278650D01*
X268350D02*
Y275165D01*
X278650Y270835D02*
Y275165D01*
X541500Y281630D02*
Y285370D01*
X539630Y283500D02*
X543370D01*
X536350Y285665D02*
X546650D01*
X536350Y281335D02*
X546650D01*
X536350D02*
Y285665D01*
X546650Y281335D02*
Y285665D01*
X541500Y301630D02*
Y305370D01*
X539630Y303500D02*
X543370D01*
X536350Y305665D02*
X546650D01*
X536350Y301335D02*
X546650D01*
X536350D02*
Y305665D01*
X546650Y301335D02*
Y305665D01*
X541500Y321630D02*
Y325370D01*
X539630Y323500D02*
X543370D01*
X536350Y325665D02*
X546650D01*
X536350Y321335D02*
X546650D01*
X536350D02*
Y325665D01*
X546650Y321335D02*
Y325665D01*
X541500Y341630D02*
Y345370D01*
X539630Y343500D02*
X543370D01*
X536350Y345665D02*
X546650D01*
X536350Y341335D02*
X546650D01*
X536350D02*
Y345665D01*
X546650Y341335D02*
Y345665D01*
X541500Y361630D02*
Y365370D01*
X539630Y363500D02*
X543370D01*
X536350Y365665D02*
X546650D01*
X536350Y361335D02*
X546650D01*
X536350D02*
Y365665D01*
X546650Y361335D02*
Y365665D01*
X541500Y381630D02*
Y385370D01*
X539630Y383500D02*
X543370D01*
X536350Y385665D02*
X546650D01*
X536350Y381335D02*
X546650D01*
X536350D02*
Y385665D01*
X546650Y381335D02*
Y385665D01*
X541500Y401630D02*
Y405370D01*
X539630Y403500D02*
X543370D01*
X536350Y405665D02*
X546650D01*
X536350Y401335D02*
X546650D01*
X536350D02*
Y405665D01*
X546650Y401335D02*
Y405665D01*
X541500Y421630D02*
Y425370D01*
X539630Y423500D02*
X543370D01*
X536350Y425665D02*
X546650D01*
X536350Y421335D02*
X546650D01*
X536350D02*
Y425665D01*
X546650Y421335D02*
Y425665D01*
X273500Y421130D02*
Y424870D01*
X271630Y423000D02*
X275370D01*
X268350Y425165D02*
X278650D01*
X268350Y420835D02*
X278650D01*
X268350D02*
Y425165D01*
X278650Y420835D02*
Y425165D01*
X273500Y401130D02*
Y404870D01*
X271630Y403000D02*
X275370D01*
X268350Y405165D02*
X278650D01*
X268350Y400835D02*
X278650D01*
X268350D02*
Y405165D01*
X278650Y400835D02*
Y405165D01*
X273500Y381130D02*
Y384870D01*
X271630Y383000D02*
X275370D01*
X268350Y385165D02*
X278650D01*
X268350Y380835D02*
X278650D01*
X268350D02*
Y385165D01*
X278650Y380835D02*
Y385165D01*
X273500Y361130D02*
Y364870D01*
X271630Y363000D02*
X275370D01*
X268350Y365165D02*
X278650D01*
X268350Y360835D02*
X278650D01*
X268350D02*
Y365165D01*
X278650Y360835D02*
Y365165D01*
X273500Y341130D02*
Y344870D01*
X271630Y343000D02*
X275370D01*
X268350Y345165D02*
X278650D01*
X268350Y340835D02*
X278650D01*
X268350D02*
Y345165D01*
X278650Y340835D02*
Y345165D01*
X273500Y321130D02*
Y324870D01*
X271630Y323000D02*
X275370D01*
X268350Y325165D02*
X278650D01*
X268350Y320835D02*
X278650D01*
X268350D02*
Y325165D01*
X278650Y320835D02*
Y325165D01*
X273500Y301130D02*
Y304870D01*
X271630Y303000D02*
X275370D01*
X268350Y305165D02*
X278650D01*
X268350Y300835D02*
X278650D01*
X268350D02*
Y305165D01*
X278650Y300835D02*
Y305165D01*
X273500Y281130D02*
Y284870D01*
X271630Y283000D02*
X275370D01*
X268350Y285165D02*
X278650D01*
X268350Y280835D02*
X278650D01*
X268350D02*
Y285165D01*
X278650Y280835D02*
Y285165D01*
X469100Y160130D02*
Y163870D01*
X467230Y162000D02*
X470970D01*
X463950Y164165D02*
X474250D01*
X463950Y159835D02*
X474250D01*
X463950D02*
Y164165D01*
X474250Y159835D02*
Y164165D01*
X469100Y167130D02*
Y170870D01*
X467230Y169000D02*
X470970D01*
X463950Y171165D02*
X474250D01*
X463950Y166835D02*
X474250D01*
X463950D02*
Y171165D01*
X474250Y166835D02*
Y171165D01*
X459100Y138130D02*
Y141870D01*
X457230Y140000D02*
X460970D01*
X453950Y142165D02*
X464250D01*
X453950Y137835D02*
X464250D01*
X453950D02*
Y142165D01*
X464250Y137835D02*
Y142165D01*
X445732Y201106D02*
Y204847D01*
X443862Y202976D02*
X447602D01*
X440582Y200811D02*
X450882D01*
X440582Y205142D02*
X450882D01*
Y200811D02*
Y205142D01*
X440582Y200811D02*
Y205142D01*
X459150Y150130D02*
Y153870D01*
X457279Y152000D02*
X461020D01*
X454000Y154165D02*
X464300D01*
X454000Y149835D02*
X464300D01*
X454000D02*
Y154165D01*
X464300Y149835D02*
Y154165D01*
X445732Y195606D02*
Y199346D01*
X443862Y197476D02*
X447602D01*
X440582Y195311D02*
X450882D01*
X440582Y199642D02*
X450882D01*
Y195311D02*
Y199642D01*
X440582Y195311D02*
Y199642D01*
X402628Y82734D02*
Y86475D01*
X400758Y84604D02*
X404498D01*
X397478Y82439D02*
X407778D01*
X397478Y86770D02*
X407778D01*
Y82439D02*
Y86770D01*
X397478Y82439D02*
Y86770D01*
X445682Y173606D02*
Y177347D01*
X443812Y175476D02*
X447552D01*
X440532Y173311D02*
X450832D01*
X440532Y177642D02*
X450832D01*
Y173311D02*
Y177642D01*
X440532Y173311D02*
Y177642D01*
X381732Y152106D02*
Y155847D01*
X379862Y153976D02*
X383602D01*
X376582Y151811D02*
X386882D01*
X376582Y156142D02*
X386882D01*
Y151811D02*
Y156142D01*
X376582Y151811D02*
Y156142D01*
X347249Y174028D02*
Y177768D01*
X345379Y175898D02*
X349119D01*
X342099Y173732D02*
X352399D01*
X342099Y178063D02*
X352399D01*
Y173732D02*
Y178063D01*
X342099Y173732D02*
Y178063D01*
X283682Y152106D02*
Y155847D01*
X281812Y153976D02*
X285552D01*
X278532Y151811D02*
X288832D01*
X278532Y156142D02*
X288832D01*
Y151811D02*
Y156142D01*
X278532Y151811D02*
Y156142D01*
X445782Y168106D02*
Y171846D01*
X443912Y169976D02*
X447652D01*
X440632Y167811D02*
X450932D01*
X440632Y172142D02*
X450932D01*
Y167811D02*
Y172142D01*
X440632Y167811D02*
Y172142D01*
X381732Y157606D02*
Y161346D01*
X379862Y159476D02*
X383602D01*
X376582Y157311D02*
X386882D01*
X376582Y161642D02*
X386882D01*
Y157311D02*
Y161642D01*
X376582Y157311D02*
Y161642D01*
X347249Y168528D02*
Y172268D01*
X345379Y170398D02*
X349119D01*
X342099Y168232D02*
X352399D01*
X342099Y172563D02*
X352399D01*
Y168232D02*
Y172563D01*
X342099Y168232D02*
Y172563D01*
X283732Y157606D02*
Y161346D01*
X281862Y159476D02*
X285602D01*
X278582Y157311D02*
X288882D01*
X278582Y161642D02*
X288882D01*
Y157311D02*
Y161642D01*
X278582Y157311D02*
Y161642D01*
X445732Y162606D02*
Y166347D01*
X443862Y164476D02*
X447602D01*
X440582Y162311D02*
X450882D01*
X440582Y166642D02*
X450882D01*
Y162311D02*
Y166642D01*
X440582Y162311D02*
Y166642D01*
X381732Y163106D02*
Y166847D01*
X379862Y164976D02*
X383602D01*
X376582Y162811D02*
X386882D01*
X376582Y167142D02*
X386882D01*
Y162811D02*
Y167142D01*
X376582Y162811D02*
Y167142D01*
X347249Y163028D02*
Y166768D01*
X345379Y164898D02*
X349119D01*
X342099Y162732D02*
X352399D01*
X342099Y167063D02*
X352399D01*
Y162732D02*
Y167063D01*
X342099Y162732D02*
Y167063D01*
X283732Y163106D02*
Y166847D01*
X281862Y164976D02*
X285602D01*
X278582Y162811D02*
X288882D01*
X278582Y167142D02*
X288882D01*
Y162811D02*
Y167142D01*
X278582Y162811D02*
Y167142D01*
X445732Y157106D02*
Y160846D01*
X443862Y158976D02*
X447602D01*
X440582Y156811D02*
X450882D01*
X440582Y161142D02*
X450882D01*
Y156811D02*
Y161142D01*
X440582Y156811D02*
Y161142D01*
X381782Y168606D02*
Y172346D01*
X379912Y170476D02*
X383652D01*
X376632Y168311D02*
X386932D01*
X376632Y172642D02*
X386932D01*
Y168311D02*
Y172642D01*
X376632Y168311D02*
Y172642D01*
X347249Y157528D02*
Y161268D01*
X345379Y159398D02*
X349119D01*
X342099Y157232D02*
X352399D01*
X342099Y161563D02*
X352399D01*
Y157232D02*
Y161563D01*
X342099Y157232D02*
Y161563D01*
X283682Y168606D02*
Y172346D01*
X281812Y170476D02*
X285552D01*
X278532Y168311D02*
X288832D01*
X278532Y172642D02*
X288832D01*
Y168311D02*
Y172642D01*
X278532Y168311D02*
Y172642D01*
X513600Y137130D02*
Y140870D01*
X511729Y139000D02*
X515470D01*
X508450Y136835D02*
X518750D01*
X508450Y141165D02*
X518750D01*
Y136835D02*
Y141165D01*
X508450Y136835D02*
Y141165D01*
X381782Y174106D02*
Y177847D01*
X379912Y175976D02*
X383652D01*
X376632Y173811D02*
X386932D01*
X376632Y178142D02*
X386932D01*
Y173811D02*
Y178142D01*
X376632Y173811D02*
Y178142D01*
X283732Y174106D02*
Y177847D01*
X281862Y175976D02*
X285602D01*
X278582Y173811D02*
X288882D01*
X278582Y178142D02*
X288882D01*
Y173811D02*
Y178142D01*
X278582Y173811D02*
Y178142D01*
X381782Y179606D02*
Y183346D01*
X379912Y181476D02*
X383652D01*
X376632Y179311D02*
X386932D01*
X376632Y183642D02*
X386932D01*
Y179311D02*
Y183642D01*
X376632Y179311D02*
Y183642D01*
X283732Y179606D02*
Y183346D01*
X281862Y181476D02*
X285602D01*
X278582Y179311D02*
X288882D01*
X278582Y183642D02*
X288882D01*
Y179311D02*
Y183642D01*
X278582Y179311D02*
Y183642D01*
X381782Y185106D02*
Y188847D01*
X379912Y186976D02*
X383652D01*
X376632Y184811D02*
X386932D01*
X376632Y189142D02*
X386932D01*
Y184811D02*
Y189142D01*
X376632Y184811D02*
Y189142D01*
X445732Y184606D02*
Y188347D01*
X443862Y186476D02*
X447602D01*
X440582Y184311D02*
X450882D01*
X440582Y188642D02*
X450882D01*
Y184311D02*
Y188642D01*
X440582Y184311D02*
Y188642D01*
X283732Y185106D02*
Y188847D01*
X281862Y186976D02*
X285602D01*
X278582Y184811D02*
X288882D01*
X278582Y189142D02*
X288882D01*
Y184811D02*
Y189142D01*
X278582Y184811D02*
Y189142D01*
X381782Y190606D02*
Y194346D01*
X379912Y192476D02*
X383652D01*
X376632Y190311D02*
X386932D01*
X376632Y194642D02*
X386932D01*
Y190311D02*
Y194642D01*
X376632Y190311D02*
Y194642D01*
X283732Y190606D02*
Y194346D01*
X281862Y192476D02*
X285602D01*
X278582Y190311D02*
X288882D01*
X278582Y194642D02*
X288882D01*
Y190311D02*
Y194642D01*
X278582Y190311D02*
Y194642D01*
X448450Y271630D02*
Y275370D01*
X446580Y273500D02*
X450320D01*
X443300Y271335D02*
X453600D01*
X443300Y275665D02*
X453600D01*
Y271335D02*
Y275665D01*
X443300Y271335D02*
Y275665D01*
X448450Y291630D02*
Y295370D01*
X446580Y293500D02*
X450320D01*
X443300Y291335D02*
X453600D01*
X443300Y295665D02*
X453600D01*
Y291335D02*
Y295665D01*
X443300Y291335D02*
Y295665D01*
X448450Y311630D02*
Y315370D01*
X446580Y313500D02*
X450320D01*
X443300Y311335D02*
X453600D01*
X443300Y315665D02*
X453600D01*
Y311335D02*
Y315665D01*
X443300Y311335D02*
Y315665D01*
X448450Y331630D02*
Y335370D01*
X446580Y333500D02*
X450320D01*
X443300Y331335D02*
X453600D01*
X443300Y335665D02*
X453600D01*
Y331335D02*
Y335665D01*
X443300Y331335D02*
Y335665D01*
X448450Y351630D02*
Y355370D01*
X446580Y353500D02*
X450320D01*
X443300Y351335D02*
X453600D01*
X443300Y355665D02*
X453600D01*
Y351335D02*
Y355665D01*
X443300Y351335D02*
Y355665D01*
X448450Y371630D02*
Y375370D01*
X446580Y373500D02*
X450320D01*
X443300Y371335D02*
X453600D01*
X443300Y375665D02*
X453600D01*
Y371335D02*
Y375665D01*
X443300Y371335D02*
Y375665D01*
X448450Y391630D02*
Y395370D01*
X446580Y393500D02*
X450320D01*
X443300Y391335D02*
X453600D01*
X443300Y395665D02*
X453600D01*
Y391335D02*
Y395665D01*
X443300Y391335D02*
Y395665D01*
X448450Y411630D02*
Y415370D01*
X446580Y413500D02*
X450320D01*
X443300Y411335D02*
X453600D01*
X443300Y415665D02*
X453600D01*
Y411335D02*
Y415665D01*
X443300Y411335D02*
Y415665D01*
X180000Y411130D02*
Y414870D01*
X178130Y413000D02*
X181870D01*
X174850Y410835D02*
X185150D01*
X174850Y415165D02*
X185150D01*
Y410835D02*
Y415165D01*
X174850Y410835D02*
Y415165D01*
X180000Y391130D02*
Y394870D01*
X178130Y393000D02*
X181870D01*
X174850Y390835D02*
X185150D01*
X174850Y395165D02*
X185150D01*
Y390835D02*
Y395165D01*
X174850Y390835D02*
Y395165D01*
X180000Y371130D02*
Y374870D01*
X178130Y373000D02*
X181870D01*
X174850Y370835D02*
X185150D01*
X174850Y375165D02*
X185150D01*
Y370835D02*
Y375165D01*
X174850Y370835D02*
Y375165D01*
X180000Y351130D02*
Y354870D01*
X178130Y353000D02*
X181870D01*
X174850Y350835D02*
X185150D01*
X174850Y355165D02*
X185150D01*
Y350835D02*
Y355165D01*
X174850Y350835D02*
Y355165D01*
X180000Y331130D02*
Y334870D01*
X178130Y333000D02*
X181870D01*
X174850Y330835D02*
X185150D01*
X174850Y335165D02*
X185150D01*
Y330835D02*
Y335165D01*
X174850Y330835D02*
Y335165D01*
X180000Y311130D02*
Y314870D01*
X178130Y313000D02*
X181870D01*
X174850Y310835D02*
X185150D01*
X174850Y315165D02*
X185150D01*
Y310835D02*
Y315165D01*
X174850Y310835D02*
Y315165D01*
X180000Y291130D02*
Y294870D01*
X178130Y293000D02*
X181870D01*
X174850Y290835D02*
X185150D01*
X174850Y295165D02*
X185150D01*
Y290835D02*
Y295165D01*
X174850Y290835D02*
Y295165D01*
X180000Y271130D02*
Y274870D01*
X178130Y273000D02*
X181870D01*
X174850Y270835D02*
X185150D01*
X174850Y275165D02*
X185150D01*
Y270835D02*
Y275165D01*
X174850Y270835D02*
Y275165D01*
X445732Y179106D02*
Y182846D01*
X443862Y180976D02*
X447602D01*
X440582Y178811D02*
X450882D01*
X440582Y183142D02*
X450882D01*
Y178811D02*
Y183142D01*
X440582Y178811D02*
Y183142D01*
X403000Y73630D02*
Y77370D01*
X401130Y75500D02*
X404870D01*
X397850Y73335D02*
X408150D01*
X397850Y77665D02*
X408150D01*
Y73335D02*
Y77665D01*
X397850Y73335D02*
Y77665D01*
X407732Y192606D02*
Y196346D01*
X405862Y194476D02*
X409602D01*
X402582Y192311D02*
X412882D01*
X402582Y196642D02*
X412882D01*
Y192311D02*
Y196642D01*
X402582Y192311D02*
Y196642D01*
X308232Y194606D02*
Y198346D01*
X306362Y196476D02*
X310102D01*
X303082Y194311D02*
X313382D01*
X303082Y198642D02*
X313382D01*
Y194311D02*
Y198642D01*
X303082Y194311D02*
Y198642D01*
X445732Y190106D02*
Y193846D01*
X443862Y191976D02*
X447602D01*
X440582Y194142D02*
X450882D01*
X440582Y189811D02*
X450882D01*
X440582D02*
Y194142D01*
X450882Y189811D02*
Y194142D01*
X445732Y206606D02*
Y210347D01*
X443862Y208476D02*
X447602D01*
X440582Y210642D02*
X450882D01*
X440582Y206311D02*
X450882D01*
X440582D02*
Y210642D01*
X450882Y206311D02*
Y210642D01*
X347176Y179657D02*
Y183397D01*
X345306Y181527D02*
X349046D01*
X342026Y183693D02*
X352326D01*
X342026Y179362D02*
X352326D01*
X342026D02*
Y183693D01*
X352326Y179362D02*
Y183693D01*
X347143Y185209D02*
Y188949D01*
X345273Y187079D02*
X349013D01*
X341993Y189244D02*
X352293D01*
X341993Y184913D02*
X352293D01*
X341993D02*
Y189244D01*
X352293Y184913D02*
Y189244D01*
X448450Y281630D02*
Y285370D01*
X446580Y283500D02*
X450320D01*
X443300Y281335D02*
X453600D01*
X443300Y285665D02*
X453600D01*
Y281335D02*
Y285665D01*
X443300Y281335D02*
Y285665D01*
X448450Y301630D02*
Y305370D01*
X446580Y303500D02*
X450320D01*
X443300Y301335D02*
X453600D01*
X443300Y305665D02*
X453600D01*
Y301335D02*
Y305665D01*
X443300Y301335D02*
Y305665D01*
X448450Y321630D02*
Y325370D01*
X446580Y323500D02*
X450320D01*
X443300Y321335D02*
X453600D01*
X443300Y325665D02*
X453600D01*
Y321335D02*
Y325665D01*
X443300Y321335D02*
Y325665D01*
X448450Y341630D02*
Y345370D01*
X446580Y343500D02*
X450320D01*
X443300Y341335D02*
X453600D01*
X443300Y345665D02*
X453600D01*
Y341335D02*
Y345665D01*
X443300Y341335D02*
Y345665D01*
X448450Y361630D02*
Y365370D01*
X446580Y363500D02*
X450320D01*
X443300Y361335D02*
X453600D01*
X443300Y365665D02*
X453600D01*
Y361335D02*
Y365665D01*
X443300Y361335D02*
Y365665D01*
X448450Y381630D02*
Y385370D01*
X446580Y383500D02*
X450320D01*
X443300Y381335D02*
X453600D01*
X443300Y385665D02*
X453600D01*
Y381335D02*
Y385665D01*
X443300Y381335D02*
Y385665D01*
X448450Y401630D02*
Y405370D01*
X446580Y403500D02*
X450320D01*
X443300Y401335D02*
X453600D01*
X443300Y405665D02*
X453600D01*
Y401335D02*
Y405665D01*
X443300Y401335D02*
Y405665D01*
X448450Y421630D02*
Y425370D01*
X446580Y423500D02*
X450320D01*
X443300Y421335D02*
X453600D01*
X443300Y425665D02*
X453600D01*
Y421335D02*
Y425665D01*
X443300Y421335D02*
Y425665D01*
X180000Y421130D02*
Y424870D01*
X178130Y423000D02*
X181870D01*
X174850Y420835D02*
X185150D01*
X174850Y425165D02*
X185150D01*
Y420835D02*
Y425165D01*
X174850Y420835D02*
Y425165D01*
X180000Y401130D02*
Y404870D01*
X178130Y403000D02*
X181870D01*
X174850Y400835D02*
X185150D01*
X174850Y405165D02*
X185150D01*
Y400835D02*
Y405165D01*
X174850Y400835D02*
Y405165D01*
X180000Y381130D02*
Y384870D01*
X178130Y383000D02*
X181870D01*
X174850Y380835D02*
X185150D01*
X174850Y385165D02*
X185150D01*
Y380835D02*
Y385165D01*
X174850Y380835D02*
Y385165D01*
X180000Y361130D02*
Y364870D01*
X178130Y363000D02*
X181870D01*
X174850Y360835D02*
X185150D01*
X174850Y365165D02*
X185150D01*
Y360835D02*
Y365165D01*
X174850Y360835D02*
Y365165D01*
X180000Y341130D02*
Y344870D01*
X178130Y343000D02*
X181870D01*
X174850Y340835D02*
X185150D01*
X174850Y345165D02*
X185150D01*
Y340835D02*
Y345165D01*
X174850Y340835D02*
Y345165D01*
X180000Y321130D02*
Y324870D01*
X178130Y323000D02*
X181870D01*
X174850Y320835D02*
X185150D01*
X174850Y325165D02*
X185150D01*
Y320835D02*
Y325165D01*
X174850Y320835D02*
Y325165D01*
X180000Y301130D02*
Y304870D01*
X178130Y303000D02*
X181870D01*
X174850Y300835D02*
X185150D01*
X174850Y305165D02*
X185150D01*
Y300835D02*
Y305165D01*
X174850Y300835D02*
Y305165D01*
X180000Y281130D02*
Y284870D01*
X178130Y283000D02*
X181870D01*
X174850Y280835D02*
X185150D01*
X174850Y285165D02*
X185150D01*
Y280835D02*
Y285165D01*
X174850Y280835D02*
Y285165D01*
X460000Y271630D02*
Y275370D01*
X458130Y273500D02*
X461870D01*
X454850Y275665D02*
X465150D01*
X454850Y271335D02*
X465150D01*
X454850D02*
Y275665D01*
X465150Y271335D02*
Y275665D01*
X460000Y291630D02*
Y295370D01*
X458130Y293500D02*
X461870D01*
X454850Y295665D02*
X465150D01*
X454850Y291335D02*
X465150D01*
X454850D02*
Y295665D01*
X465150Y291335D02*
Y295665D01*
X460000Y311630D02*
Y315370D01*
X458130Y313500D02*
X461870D01*
X454850Y315665D02*
X465150D01*
X454850Y311335D02*
X465150D01*
X454850D02*
Y315665D01*
X465150Y311335D02*
Y315665D01*
X460000Y331630D02*
Y335370D01*
X458130Y333500D02*
X461870D01*
X454850Y335665D02*
X465150D01*
X454850Y331335D02*
X465150D01*
X454850D02*
Y335665D01*
X465150Y331335D02*
Y335665D01*
X460000Y351630D02*
Y355370D01*
X458130Y353500D02*
X461870D01*
X454850Y355665D02*
X465150D01*
X454850Y351335D02*
X465150D01*
X454850D02*
Y355665D01*
X465150Y351335D02*
Y355665D01*
X460000Y371630D02*
Y375370D01*
X458130Y373500D02*
X461870D01*
X454850Y375665D02*
X465150D01*
X454850Y371335D02*
X465150D01*
X454850D02*
Y375665D01*
X465150Y371335D02*
Y375665D01*
X460000Y391630D02*
Y395370D01*
X458130Y393500D02*
X461870D01*
X454850Y395665D02*
X465150D01*
X454850Y391335D02*
X465150D01*
X454850D02*
Y395665D01*
X465150Y391335D02*
Y395665D01*
X460000Y411630D02*
Y415370D01*
X458130Y413500D02*
X461870D01*
X454850Y415665D02*
X465150D01*
X454850Y411335D02*
X465150D01*
X454850D02*
Y415665D01*
X465150Y411335D02*
Y415665D01*
X191500Y411130D02*
Y414870D01*
X189630Y413000D02*
X193370D01*
X186350Y415165D02*
X196650D01*
X186350Y410835D02*
X196650D01*
X186350D02*
Y415165D01*
X196650Y410835D02*
Y415165D01*
X191500Y391130D02*
Y394870D01*
X189630Y393000D02*
X193370D01*
X186350Y395165D02*
X196650D01*
X186350Y390835D02*
X196650D01*
X186350D02*
Y395165D01*
X196650Y390835D02*
Y395165D01*
X191500Y371130D02*
Y374870D01*
X189630Y373000D02*
X193370D01*
X186350Y375165D02*
X196650D01*
X186350Y370835D02*
X196650D01*
X186350D02*
Y375165D01*
X196650Y370835D02*
Y375165D01*
X191500Y351130D02*
Y354870D01*
X189630Y353000D02*
X193370D01*
X186350Y355165D02*
X196650D01*
X186350Y350835D02*
X196650D01*
X186350D02*
Y355165D01*
X196650Y350835D02*
Y355165D01*
X191500Y331130D02*
Y334870D01*
X189630Y333000D02*
X193370D01*
X186350Y335165D02*
X196650D01*
X186350Y330835D02*
X196650D01*
X186350D02*
Y335165D01*
X196650Y330835D02*
Y335165D01*
X191500Y311130D02*
Y314870D01*
X189630Y313000D02*
X193370D01*
X186350Y315165D02*
X196650D01*
X186350Y310835D02*
X196650D01*
X186350D02*
Y315165D01*
X196650Y310835D02*
Y315165D01*
X191500Y291130D02*
Y294870D01*
X189630Y293000D02*
X193370D01*
X186350Y295165D02*
X196650D01*
X186350Y290835D02*
X196650D01*
X186350D02*
Y295165D01*
X196650Y290835D02*
Y295165D01*
X191500Y271130D02*
Y274870D01*
X189630Y273000D02*
X193370D01*
X186350Y275165D02*
X196650D01*
X186350Y270835D02*
X196650D01*
X186350D02*
Y275165D01*
X196650Y270835D02*
Y275165D01*
X363329Y69413D02*
X367069D01*
X365199Y67543D02*
Y71283D01*
X363034Y64263D02*
Y74563D01*
X367364Y64263D02*
Y74563D01*
X363034Y64263D02*
X367364D01*
X363034Y74563D02*
X367364D01*
X460000Y281630D02*
Y285370D01*
X458130Y283500D02*
X461870D01*
X454850Y285665D02*
X465150D01*
X454850Y281335D02*
X465150D01*
X454850D02*
Y285665D01*
X465150Y281335D02*
Y285665D01*
X460000Y301630D02*
Y305370D01*
X458130Y303500D02*
X461870D01*
X454850Y305665D02*
X465150D01*
X454850Y301335D02*
X465150D01*
X454850D02*
Y305665D01*
X465150Y301335D02*
Y305665D01*
X460000Y321630D02*
Y325370D01*
X458130Y323500D02*
X461870D01*
X454850Y325665D02*
X465150D01*
X454850Y321335D02*
X465150D01*
X454850D02*
Y325665D01*
X465150Y321335D02*
Y325665D01*
X460000Y341630D02*
Y345370D01*
X458130Y343500D02*
X461870D01*
X454850Y345665D02*
X465150D01*
X454850Y341335D02*
X465150D01*
X454850D02*
Y345665D01*
X465150Y341335D02*
Y345665D01*
X460000Y361630D02*
Y365370D01*
X458130Y363500D02*
X461870D01*
X454850Y365665D02*
X465150D01*
X454850Y361335D02*
X465150D01*
X454850D02*
Y365665D01*
X465150Y361335D02*
Y365665D01*
X460000Y381630D02*
Y385370D01*
X458130Y383500D02*
X461870D01*
X454850Y385665D02*
X465150D01*
X454850Y381335D02*
X465150D01*
X454850D02*
Y385665D01*
X465150Y381335D02*
Y385665D01*
X460000Y401630D02*
Y405370D01*
X458130Y403500D02*
X461870D01*
X454850Y405665D02*
X465150D01*
X454850Y401335D02*
X465150D01*
X454850D02*
Y405665D01*
X465150Y401335D02*
Y405665D01*
X460000Y421630D02*
Y425370D01*
X458130Y423500D02*
X461870D01*
X454850Y425665D02*
X465150D01*
X454850Y421335D02*
X465150D01*
X454850D02*
Y425665D01*
X465150Y421335D02*
Y425665D01*
X191500Y421130D02*
Y424870D01*
X189630Y423000D02*
X193370D01*
X186350Y425165D02*
X196650D01*
X186350Y420835D02*
X196650D01*
X186350D02*
Y425165D01*
X196650Y420835D02*
Y425165D01*
X191500Y401130D02*
Y404870D01*
X189630Y403000D02*
X193370D01*
X186350Y405165D02*
X196650D01*
X186350Y400835D02*
X196650D01*
X186350D02*
Y405165D01*
X196650Y400835D02*
Y405165D01*
X191500Y381130D02*
Y384870D01*
X189630Y383000D02*
X193370D01*
X186350Y385165D02*
X196650D01*
X186350Y380835D02*
X196650D01*
X186350D02*
Y385165D01*
X196650Y380835D02*
Y385165D01*
X191500Y361130D02*
Y364870D01*
X189630Y363000D02*
X193370D01*
X186350Y365165D02*
X196650D01*
X186350Y360835D02*
X196650D01*
X186350D02*
Y365165D01*
X196650Y360835D02*
Y365165D01*
X191500Y341130D02*
Y344870D01*
X189630Y343000D02*
X193370D01*
X186350Y345165D02*
X196650D01*
X186350Y340835D02*
X196650D01*
X186350D02*
Y345165D01*
X196650Y340835D02*
Y345165D01*
X191500Y321130D02*
Y324870D01*
X189630Y323000D02*
X193370D01*
X186350Y325165D02*
X196650D01*
X186350Y320835D02*
X196650D01*
X186350D02*
Y325165D01*
X196650Y320835D02*
Y325165D01*
X191500Y301130D02*
Y304870D01*
X189630Y303000D02*
X193370D01*
X186350Y305165D02*
X196650D01*
X186350Y300835D02*
X196650D01*
X186350D02*
Y305165D01*
X196650Y300835D02*
Y305165D01*
X191500Y281130D02*
Y284870D01*
X189630Y283000D02*
X193370D01*
X186350Y285165D02*
X196650D01*
X186350Y280835D02*
X196650D01*
X186350D02*
Y285165D01*
X196650Y280835D02*
Y285165D01*
X330000Y109630D02*
Y113370D01*
X328130Y111500D02*
X331870D01*
X324850Y113665D02*
X335150D01*
X324850Y109335D02*
X335150D01*
X324850D02*
Y113665D01*
X335150Y109335D02*
Y113665D01*
X330050Y119630D02*
Y123370D01*
X328180Y121500D02*
X331920D01*
X324900Y123665D02*
X335200D01*
X324900Y119335D02*
X335200D01*
X324900D02*
Y123665D01*
X335200Y119335D02*
Y123665D01*
X402500Y121630D02*
Y125370D01*
X400630Y123500D02*
X404370D01*
X397350Y121335D02*
X407650D01*
X397350Y125665D02*
X407650D01*
Y121335D02*
Y125665D01*
X397350Y121335D02*
Y125665D01*
X373019Y140049D02*
X376759D01*
X374889Y138179D02*
Y141919D01*
X377055Y134899D02*
Y145199D01*
X372724Y134899D02*
Y145199D01*
X377055D01*
X372724Y134899D02*
X377055D01*
X348543Y69074D02*
X352283D01*
X350413Y67204D02*
Y70944D01*
X348248Y63924D02*
Y74224D01*
X352579Y63924D02*
Y74224D01*
X348248Y63924D02*
X352579D01*
X348248Y74224D02*
X352579D01*
X435130Y69000D02*
X438870D01*
X437000Y67130D02*
Y70870D01*
X434835Y63850D02*
Y74150D01*
X439165Y63850D02*
Y74150D01*
X434835Y63850D02*
X439165D01*
X434835Y74150D02*
X439165D01*
X529950Y276630D02*
Y280370D01*
X528080Y278500D02*
X531820D01*
X524800Y276335D02*
X535100D01*
X524800Y280665D02*
X535100D01*
Y276335D02*
Y280665D01*
X524800Y276335D02*
Y280665D01*
X529950Y296630D02*
Y300370D01*
X528080Y298500D02*
X531820D01*
X524800Y296335D02*
X535100D01*
X524800Y300665D02*
X535100D01*
Y296335D02*
Y300665D01*
X524800Y296335D02*
Y300665D01*
X529950Y316630D02*
Y320370D01*
X528080Y318500D02*
X531820D01*
X524800Y316335D02*
X535100D01*
X524800Y320665D02*
X535100D01*
Y316335D02*
Y320665D01*
X524800Y316335D02*
Y320665D01*
X529950Y336630D02*
Y340370D01*
X528080Y338500D02*
X531820D01*
X524800Y336335D02*
X535100D01*
X524800Y340665D02*
X535100D01*
Y336335D02*
Y340665D01*
X524800Y336335D02*
Y340665D01*
X529950Y356630D02*
Y360370D01*
X528080Y358500D02*
X531820D01*
X524800Y356335D02*
X535100D01*
X524800Y360665D02*
X535100D01*
Y356335D02*
Y360665D01*
X524800Y356335D02*
Y360665D01*
X529950Y376630D02*
Y380370D01*
X528080Y378500D02*
X531820D01*
X524800Y376335D02*
X535100D01*
X524800Y380665D02*
X535100D01*
Y376335D02*
Y380665D01*
X524800Y376335D02*
Y380665D01*
X529950Y396630D02*
Y400370D01*
X528080Y398500D02*
X531820D01*
X524800Y396335D02*
X535100D01*
X524800Y400665D02*
X535100D01*
Y396335D02*
Y400665D01*
X524800Y396335D02*
Y400665D01*
X529950Y416630D02*
Y420370D01*
X528080Y418500D02*
X531820D01*
X524800Y416335D02*
X535100D01*
X524800Y420665D02*
X535100D01*
Y416335D02*
Y420665D01*
X524800Y416335D02*
Y420665D01*
X261950Y416130D02*
Y419870D01*
X260080Y418000D02*
X263820D01*
X256800Y415835D02*
X267100D01*
X256800Y420165D02*
X267100D01*
Y415835D02*
Y420165D01*
X256800Y415835D02*
Y420165D01*
X261950Y396130D02*
Y399870D01*
X260080Y398000D02*
X263820D01*
X256800Y395835D02*
X267100D01*
X256800Y400165D02*
X267100D01*
Y395835D02*
Y400165D01*
X256800Y395835D02*
Y400165D01*
X261950Y376130D02*
Y379870D01*
X260080Y378000D02*
X263820D01*
X256800Y375835D02*
X267100D01*
X256800Y380165D02*
X267100D01*
Y375835D02*
Y380165D01*
X256800Y375835D02*
Y380165D01*
X261950Y356130D02*
Y359870D01*
X260080Y358000D02*
X263820D01*
X256800Y355835D02*
X267100D01*
X256800Y360165D02*
X267100D01*
Y355835D02*
Y360165D01*
X256800Y355835D02*
Y360165D01*
X261950Y336130D02*
Y339870D01*
X260080Y338000D02*
X263820D01*
X256800Y335835D02*
X267100D01*
X256800Y340165D02*
X267100D01*
Y335835D02*
Y340165D01*
X256800Y335835D02*
Y340165D01*
X261950Y316130D02*
Y319870D01*
X260080Y318000D02*
X263820D01*
X256800Y315835D02*
X267100D01*
X256800Y320165D02*
X267100D01*
Y315835D02*
Y320165D01*
X256800Y315835D02*
Y320165D01*
X261950Y296130D02*
Y299870D01*
X260080Y298000D02*
X263820D01*
X256800Y295835D02*
X267100D01*
X256800Y300165D02*
X267100D01*
Y295835D02*
Y300165D01*
X256800Y295835D02*
Y300165D01*
X261950Y276130D02*
Y279870D01*
X260080Y278000D02*
X263820D01*
X256800Y275835D02*
X267100D01*
X256800Y280165D02*
X267100D01*
Y275835D02*
Y280165D01*
X256800Y275835D02*
Y280165D01*
X529950Y266630D02*
Y270370D01*
X528080Y268500D02*
X531820D01*
X524800Y266335D02*
X535100D01*
X524800Y270665D02*
X535100D01*
Y266335D02*
Y270665D01*
X524800Y266335D02*
Y270665D01*
X529950Y286630D02*
Y290370D01*
X528080Y288500D02*
X531820D01*
X524800Y286335D02*
X535100D01*
X524800Y290665D02*
X535100D01*
Y286335D02*
Y290665D01*
X524800Y286335D02*
Y290665D01*
X529950Y306630D02*
Y310370D01*
X528080Y308500D02*
X531820D01*
X524800Y306335D02*
X535100D01*
X524800Y310665D02*
X535100D01*
Y306335D02*
Y310665D01*
X524800Y306335D02*
Y310665D01*
X529950Y326630D02*
Y330370D01*
X528080Y328500D02*
X531820D01*
X524800Y326335D02*
X535100D01*
X524800Y330665D02*
X535100D01*
Y326335D02*
Y330665D01*
X524800Y326335D02*
Y330665D01*
X529950Y346630D02*
Y350370D01*
X528080Y348500D02*
X531820D01*
X524800Y346335D02*
X535100D01*
X524800Y350665D02*
X535100D01*
Y346335D02*
Y350665D01*
X524800Y346335D02*
Y350665D01*
X529950Y366630D02*
Y370370D01*
X528080Y368500D02*
X531820D01*
X524800Y366335D02*
X535100D01*
X524800Y370665D02*
X535100D01*
Y366335D02*
Y370665D01*
X524800Y366335D02*
Y370665D01*
X529950Y386630D02*
Y390370D01*
X528080Y388500D02*
X531820D01*
X524800Y386335D02*
X535100D01*
X524800Y390665D02*
X535100D01*
Y386335D02*
Y390665D01*
X524800Y386335D02*
Y390665D01*
X529950Y406630D02*
Y410370D01*
X528080Y408500D02*
X531820D01*
X524800Y406335D02*
X535100D01*
X524800Y410665D02*
X535100D01*
Y406335D02*
Y410665D01*
X524800Y406335D02*
Y410665D01*
X529950Y426630D02*
Y430370D01*
X528080Y428500D02*
X531820D01*
X524800Y426335D02*
X535100D01*
X524800Y430665D02*
X535100D01*
Y426335D02*
Y430665D01*
X524800Y426335D02*
Y430665D01*
X261950Y426130D02*
Y429870D01*
X260080Y428000D02*
X263820D01*
X256800Y425835D02*
X267100D01*
X256800Y430165D02*
X267100D01*
Y425835D02*
Y430165D01*
X256800Y425835D02*
Y430165D01*
X261950Y406130D02*
Y409870D01*
X260080Y408000D02*
X263820D01*
X256800Y405835D02*
X267100D01*
X256800Y410165D02*
X267100D01*
Y405835D02*
Y410165D01*
X256800Y405835D02*
Y410165D01*
X261950Y386130D02*
Y389870D01*
X260080Y388000D02*
X263820D01*
X256800Y385835D02*
X267100D01*
X256800Y390165D02*
X267100D01*
Y385835D02*
Y390165D01*
X256800Y385835D02*
Y390165D01*
X261950Y366130D02*
Y369870D01*
X260080Y368000D02*
X263820D01*
X256800Y365835D02*
X267100D01*
X256800Y370165D02*
X267100D01*
Y365835D02*
Y370165D01*
X256800Y365835D02*
Y370165D01*
X261950Y346130D02*
Y349870D01*
X260080Y348000D02*
X263820D01*
X256800Y345835D02*
X267100D01*
X256800Y350165D02*
X267100D01*
Y345835D02*
Y350165D01*
X256800Y345835D02*
Y350165D01*
X261950Y326130D02*
Y329870D01*
X260080Y328000D02*
X263820D01*
X256800Y325835D02*
X267100D01*
X256800Y330165D02*
X267100D01*
Y325835D02*
Y330165D01*
X256800Y325835D02*
Y330165D01*
X261950Y306130D02*
Y309870D01*
X260080Y308000D02*
X263820D01*
X256800Y305835D02*
X267100D01*
X256800Y310165D02*
X267100D01*
Y305835D02*
Y310165D01*
X256800Y305835D02*
Y310165D01*
X261950Y286130D02*
Y289870D01*
X260080Y288000D02*
X263820D01*
X256800Y285835D02*
X267100D01*
X256800Y290165D02*
X267100D01*
Y285835D02*
Y290165D01*
X256800Y285835D02*
Y290165D01*
X261950Y266130D02*
Y269870D01*
X260080Y268000D02*
X263820D01*
X256800Y265835D02*
X267100D01*
X256800Y270165D02*
X267100D01*
Y265835D02*
Y270165D01*
X256800Y265835D02*
Y270165D01*
X357630Y140000D02*
X361370D01*
X359500Y138130D02*
Y141870D01*
X361665Y134850D02*
Y145150D01*
X357335Y134850D02*
Y145150D01*
X361665D01*
X357335Y134850D02*
X361665D01*
X347630Y140000D02*
X351370D01*
X349500Y138130D02*
Y141870D01*
X351665Y134850D02*
Y145150D01*
X347335Y134850D02*
Y145150D01*
X351665D01*
X347335Y134850D02*
X351665D01*
X402500Y116630D02*
Y120370D01*
X400630Y118500D02*
X404370D01*
X397350Y116335D02*
X407650D01*
X397350Y120665D02*
X407650D01*
Y116335D02*
Y120665D01*
X397350Y116335D02*
Y120665D01*
X402380Y101644D02*
Y105384D01*
X400509Y103514D02*
X404250D01*
X397230Y101348D02*
X407529D01*
X397230Y105679D02*
X407529D01*
Y101348D02*
Y105679D01*
X397230Y101348D02*
Y105679D01*
X541500Y276630D02*
Y280370D01*
X539630Y278500D02*
X543370D01*
X536350Y280665D02*
X546650D01*
X536350Y276335D02*
X546650D01*
X536350D02*
Y280665D01*
X546650Y276335D02*
Y280665D01*
X541500Y296630D02*
Y300370D01*
X539630Y298500D02*
X543370D01*
X536350Y300665D02*
X546650D01*
X536350Y296335D02*
X546650D01*
X536350D02*
Y300665D01*
X546650Y296335D02*
Y300665D01*
X541500Y316630D02*
Y320370D01*
X539630Y318500D02*
X543370D01*
X536350Y320665D02*
X546650D01*
X536350Y316335D02*
X546650D01*
X536350D02*
Y320665D01*
X546650Y316335D02*
Y320665D01*
X541500Y336630D02*
Y340370D01*
X539630Y338500D02*
X543370D01*
X536350Y340665D02*
X546650D01*
X536350Y336335D02*
X546650D01*
X536350D02*
Y340665D01*
X546650Y336335D02*
Y340665D01*
X541500Y356630D02*
Y360370D01*
X539630Y358500D02*
X543370D01*
X536350Y360665D02*
X546650D01*
X536350Y356335D02*
X546650D01*
X536350D02*
Y360665D01*
X546650Y356335D02*
Y360665D01*
X541500Y376630D02*
Y380370D01*
X539630Y378500D02*
X543370D01*
X536350Y380665D02*
X546650D01*
X536350Y376335D02*
X546650D01*
X536350D02*
Y380665D01*
X546650Y376335D02*
Y380665D01*
X541500Y396630D02*
Y400370D01*
X539630Y398500D02*
X543370D01*
X536350Y400665D02*
X546650D01*
X536350Y396335D02*
X546650D01*
X536350D02*
Y400665D01*
X546650Y396335D02*
Y400665D01*
X541500Y416630D02*
Y420370D01*
X539630Y418500D02*
X543370D01*
X536350Y420665D02*
X546650D01*
X536350Y416335D02*
X546650D01*
X536350D02*
Y420665D01*
X546650Y416335D02*
Y420665D01*
X273500Y416130D02*
Y419870D01*
X271630Y418000D02*
X275370D01*
X268350Y420165D02*
X278650D01*
X268350Y415835D02*
X278650D01*
X268350D02*
Y420165D01*
X278650Y415835D02*
Y420165D01*
X273500Y396130D02*
Y399870D01*
X271630Y398000D02*
X275370D01*
X268350Y400165D02*
X278650D01*
X268350Y395835D02*
X278650D01*
X268350D02*
Y400165D01*
X278650Y395835D02*
Y400165D01*
X273500Y376130D02*
Y379870D01*
X271630Y378000D02*
X275370D01*
X268350Y380165D02*
X278650D01*
X268350Y375835D02*
X278650D01*
X268350D02*
Y380165D01*
X278650Y375835D02*
Y380165D01*
X273500Y356130D02*
Y359870D01*
X271630Y358000D02*
X275370D01*
X268350Y360165D02*
X278650D01*
X268350Y355835D02*
X278650D01*
X268350D02*
Y360165D01*
X278650Y355835D02*
Y360165D01*
X273500Y336130D02*
Y339870D01*
X271630Y338000D02*
X275370D01*
X268350Y340165D02*
X278650D01*
X268350Y335835D02*
X278650D01*
X268350D02*
Y340165D01*
X278650Y335835D02*
Y340165D01*
X273500Y316130D02*
Y319870D01*
X271630Y318000D02*
X275370D01*
X268350Y320165D02*
X278650D01*
X268350Y315835D02*
X278650D01*
X268350D02*
Y320165D01*
X278650Y315835D02*
Y320165D01*
X273500Y296130D02*
Y299870D01*
X271630Y298000D02*
X275370D01*
X268350Y300165D02*
X278650D01*
X268350Y295835D02*
X278650D01*
X268350D02*
Y300165D01*
X278650Y295835D02*
Y300165D01*
X273500Y276130D02*
Y279870D01*
X271630Y278000D02*
X275370D01*
X268350Y280165D02*
X278650D01*
X268350Y275835D02*
X278650D01*
X268350D02*
Y280165D01*
X278650Y275835D02*
Y280165D01*
X541500Y266630D02*
Y270370D01*
X539630Y268500D02*
X543370D01*
X536350Y270665D02*
X546650D01*
X536350Y266335D02*
X546650D01*
X536350D02*
Y270665D01*
X546650Y266335D02*
Y270665D01*
X541500Y286630D02*
Y290370D01*
X539630Y288500D02*
X543370D01*
X536350Y290665D02*
X546650D01*
X536350Y286335D02*
X546650D01*
X536350D02*
Y290665D01*
X546650Y286335D02*
Y290665D01*
X541500Y306630D02*
Y310370D01*
X539630Y308500D02*
X543370D01*
X536350Y310665D02*
X546650D01*
X536350Y306335D02*
X546650D01*
X536350D02*
Y310665D01*
X546650Y306335D02*
Y310665D01*
X541500Y326630D02*
Y330370D01*
X539630Y328500D02*
X543370D01*
X536350Y330665D02*
X546650D01*
X536350Y326335D02*
X546650D01*
X536350D02*
Y330665D01*
X546650Y326335D02*
Y330665D01*
X541500Y346630D02*
Y350370D01*
X539630Y348500D02*
X543370D01*
X536350Y350665D02*
X546650D01*
X536350Y346335D02*
X546650D01*
X536350D02*
Y350665D01*
X546650Y346335D02*
Y350665D01*
X541500Y366630D02*
Y370370D01*
X539630Y368500D02*
X543370D01*
X536350Y370665D02*
X546650D01*
X536350Y366335D02*
X546650D01*
X536350D02*
Y370665D01*
X546650Y366335D02*
Y370665D01*
X541500Y386630D02*
Y390370D01*
X539630Y388500D02*
X543370D01*
X536350Y390665D02*
X546650D01*
X536350Y386335D02*
X546650D01*
X536350D02*
Y390665D01*
X546650Y386335D02*
Y390665D01*
X541500Y406630D02*
Y410370D01*
X539630Y408500D02*
X543370D01*
X536350Y410665D02*
X546650D01*
X536350Y406335D02*
X546650D01*
X536350D02*
Y410665D01*
X546650Y406335D02*
Y410665D01*
X541500Y426630D02*
Y430370D01*
X539630Y428500D02*
X543370D01*
X536350Y430665D02*
X546650D01*
X536350Y426335D02*
X546650D01*
X536350D02*
Y430665D01*
X546650Y426335D02*
Y430665D01*
X273500Y426130D02*
Y429870D01*
X271630Y428000D02*
X275370D01*
X268350Y430165D02*
X278650D01*
X268350Y425835D02*
X278650D01*
X268350D02*
Y430165D01*
X278650Y425835D02*
Y430165D01*
X273500Y406130D02*
Y409870D01*
X271630Y408000D02*
X275370D01*
X268350Y410165D02*
X278650D01*
X268350Y405835D02*
X278650D01*
X268350D02*
Y410165D01*
X278650Y405835D02*
Y410165D01*
X273500Y386130D02*
Y389870D01*
X271630Y388000D02*
X275370D01*
X268350Y390165D02*
X278650D01*
X268350Y385835D02*
X278650D01*
X268350D02*
Y390165D01*
X278650Y385835D02*
Y390165D01*
X273500Y366130D02*
Y369870D01*
X271630Y368000D02*
X275370D01*
X268350Y370165D02*
X278650D01*
X268350Y365835D02*
X278650D01*
X268350D02*
Y370165D01*
X278650Y365835D02*
Y370165D01*
X273500Y346130D02*
Y349870D01*
X271630Y348000D02*
X275370D01*
X268350Y350165D02*
X278650D01*
X268350Y345835D02*
X278650D01*
X268350D02*
Y350165D01*
X278650Y345835D02*
Y350165D01*
X273500Y326130D02*
Y329870D01*
X271630Y328000D02*
X275370D01*
X268350Y330165D02*
X278650D01*
X268350Y325835D02*
X278650D01*
X268350D02*
Y330165D01*
X278650Y325835D02*
Y330165D01*
X273500Y306130D02*
Y309870D01*
X271630Y308000D02*
X275370D01*
X268350Y310165D02*
X278650D01*
X268350Y305835D02*
X278650D01*
X268350D02*
Y310165D01*
X278650Y305835D02*
Y310165D01*
X273500Y286130D02*
Y289870D01*
X271630Y288000D02*
X275370D01*
X268350Y290165D02*
X278650D01*
X268350Y285835D02*
X278650D01*
X268350D02*
Y290165D01*
X278650Y285835D02*
Y290165D01*
X273500Y266130D02*
Y269870D01*
X271630Y268000D02*
X275370D01*
X268350Y270165D02*
X278650D01*
X268350Y265835D02*
X278650D01*
X268350D02*
Y270165D01*
X278650Y265835D02*
Y270165D01*
X330000Y114630D02*
Y118370D01*
X328130Y116500D02*
X331870D01*
X324850Y118665D02*
X335150D01*
X324850Y114335D02*
X335150D01*
X324850D02*
Y118665D01*
X335150Y114335D02*
Y118665D01*
X330000Y124630D02*
Y128370D01*
X328130Y126500D02*
X331870D01*
X324850Y128665D02*
X335150D01*
X324850Y124335D02*
X335150D01*
X324850D02*
Y128665D01*
X335150Y124335D02*
Y128665D01*
X402500Y126630D02*
Y130370D01*
X400630Y128500D02*
X404370D01*
X397350Y126335D02*
X407650D01*
X397350Y130665D02*
X407650D01*
Y126335D02*
Y130665D01*
X397350Y126335D02*
Y130665D01*
X367630Y140000D02*
X371370D01*
X369500Y138130D02*
Y141870D01*
X371665Y134850D02*
Y145150D01*
X367335Y134850D02*
Y145150D01*
X371665D01*
X367335Y134850D02*
X371665D01*
X283500Y77130D02*
Y80870D01*
X281630Y79000D02*
X285370D01*
X278350Y76835D02*
X288650D01*
X278350Y81165D02*
X288650D01*
Y76835D02*
Y81165D01*
X278350Y76835D02*
Y81165D01*
X283500Y85130D02*
Y88870D01*
X281630Y87000D02*
X285370D01*
X278350Y84835D02*
X288650D01*
X278350Y89165D02*
X288650D01*
Y84835D02*
Y89165D01*
X278350Y84835D02*
Y89165D01*
X283550Y92630D02*
Y96370D01*
X281680Y94500D02*
X285420D01*
X278400Y92335D02*
X288700D01*
X278400Y96665D02*
X288700D01*
Y92335D02*
Y96665D01*
X278400Y92335D02*
Y96665D01*
X283500Y100130D02*
Y103870D01*
X281630Y102000D02*
X285370D01*
X278350Y99835D02*
X288650D01*
X278350Y104165D02*
X288650D01*
Y99835D02*
Y104165D01*
X278350Y99835D02*
Y104165D01*
X283500Y107630D02*
Y111370D01*
X281630Y109500D02*
X285370D01*
X278350Y107335D02*
X288650D01*
X278350Y111665D02*
X288650D01*
Y107335D02*
Y111665D01*
X278350Y107335D02*
Y111665D01*
X378429Y74509D02*
X384829D01*
X378429Y62909D02*
X384829D01*
Y74509D01*
X378429Y62909D02*
Y74509D01*
X381629Y66741D02*
Y70678D01*
X379661Y68709D02*
X383597D01*
X448450Y276630D02*
Y280370D01*
X446580Y278500D02*
X450320D01*
X443300Y276335D02*
X453600D01*
X443300Y280665D02*
X453600D01*
Y276335D02*
Y280665D01*
X443300Y276335D02*
Y280665D01*
X448450Y296630D02*
Y300370D01*
X446580Y298500D02*
X450320D01*
X443300Y296335D02*
X453600D01*
X443300Y300665D02*
X453600D01*
Y296335D02*
Y300665D01*
X443300Y296335D02*
Y300665D01*
X448450Y316630D02*
Y320370D01*
X446580Y318500D02*
X450320D01*
X443300Y316335D02*
X453600D01*
X443300Y320665D02*
X453600D01*
Y316335D02*
Y320665D01*
X443300Y316335D02*
Y320665D01*
X448450Y336630D02*
Y340370D01*
X446580Y338500D02*
X450320D01*
X443300Y336335D02*
X453600D01*
X443300Y340665D02*
X453600D01*
Y336335D02*
Y340665D01*
X443300Y336335D02*
Y340665D01*
X448450Y356630D02*
Y360370D01*
X446580Y358500D02*
X450320D01*
X443300Y356335D02*
X453600D01*
X443300Y360665D02*
X453600D01*
Y356335D02*
Y360665D01*
X443300Y356335D02*
Y360665D01*
X448450Y376630D02*
Y380370D01*
X446580Y378500D02*
X450320D01*
X443300Y376335D02*
X453600D01*
X443300Y380665D02*
X453600D01*
Y376335D02*
Y380665D01*
X443300Y376335D02*
Y380665D01*
X448450Y396630D02*
Y400370D01*
X446580Y398500D02*
X450320D01*
X443300Y396335D02*
X453600D01*
X443300Y400665D02*
X453600D01*
Y396335D02*
Y400665D01*
X443300Y396335D02*
Y400665D01*
X448450Y416630D02*
Y420370D01*
X446580Y418500D02*
X450320D01*
X443300Y416335D02*
X453600D01*
X443300Y420665D02*
X453600D01*
Y416335D02*
Y420665D01*
X443300Y416335D02*
Y420665D01*
X180000Y416130D02*
Y419870D01*
X178130Y418000D02*
X181870D01*
X174850Y415835D02*
X185150D01*
X174850Y420165D02*
X185150D01*
Y415835D02*
Y420165D01*
X174850Y415835D02*
Y420165D01*
X180000Y396130D02*
Y399870D01*
X178130Y398000D02*
X181870D01*
X174850Y395835D02*
X185150D01*
X174850Y400165D02*
X185150D01*
Y395835D02*
Y400165D01*
X174850Y395835D02*
Y400165D01*
X180000Y376130D02*
Y379870D01*
X178130Y378000D02*
X181870D01*
X174850Y375835D02*
X185150D01*
X174850Y380165D02*
X185150D01*
Y375835D02*
Y380165D01*
X174850Y375835D02*
Y380165D01*
X180000Y356130D02*
Y359870D01*
X178130Y358000D02*
X181870D01*
X174850Y355835D02*
X185150D01*
X174850Y360165D02*
X185150D01*
Y355835D02*
Y360165D01*
X174850Y355835D02*
Y360165D01*
X180000Y336130D02*
Y339870D01*
X178130Y338000D02*
X181870D01*
X174850Y335835D02*
X185150D01*
X174850Y340165D02*
X185150D01*
Y335835D02*
Y340165D01*
X174850Y335835D02*
Y340165D01*
X180000Y316130D02*
Y319870D01*
X178130Y318000D02*
X181870D01*
X174850Y315835D02*
X185150D01*
X174850Y320165D02*
X185150D01*
Y315835D02*
Y320165D01*
X174850Y315835D02*
Y320165D01*
X180000Y296130D02*
Y299870D01*
X178130Y298000D02*
X181870D01*
X174850Y295835D02*
X185150D01*
X174850Y300165D02*
X185150D01*
Y295835D02*
Y300165D01*
X174850Y295835D02*
Y300165D01*
X180000Y276130D02*
Y279870D01*
X178130Y278000D02*
X181870D01*
X174850Y275835D02*
X185150D01*
X174850Y280165D02*
X185150D01*
Y275835D02*
Y280165D01*
X174850Y275835D02*
Y280165D01*
X448450Y266630D02*
Y270370D01*
X446580Y268500D02*
X450320D01*
X443300Y266335D02*
X453600D01*
X443300Y270665D02*
X453600D01*
Y266335D02*
Y270665D01*
X443300Y266335D02*
Y270665D01*
X448450Y286630D02*
Y290370D01*
X446580Y288500D02*
X450320D01*
X443300Y286335D02*
X453600D01*
X443300Y290665D02*
X453600D01*
Y286335D02*
Y290665D01*
X443300Y286335D02*
Y290665D01*
X448450Y306630D02*
Y310370D01*
X446580Y308500D02*
X450320D01*
X443300Y306335D02*
X453600D01*
X443300Y310665D02*
X453600D01*
Y306335D02*
Y310665D01*
X443300Y306335D02*
Y310665D01*
X448450Y326630D02*
Y330370D01*
X446580Y328500D02*
X450320D01*
X443300Y326335D02*
X453600D01*
X443300Y330665D02*
X453600D01*
Y326335D02*
Y330665D01*
X443300Y326335D02*
Y330665D01*
X448450Y346630D02*
Y350370D01*
X446580Y348500D02*
X450320D01*
X443300Y346335D02*
X453600D01*
X443300Y350665D02*
X453600D01*
Y346335D02*
Y350665D01*
X443300Y346335D02*
Y350665D01*
X448450Y366630D02*
Y370370D01*
X446580Y368500D02*
X450320D01*
X443300Y366335D02*
X453600D01*
X443300Y370665D02*
X453600D01*
Y366335D02*
Y370665D01*
X443300Y366335D02*
Y370665D01*
X448450Y386630D02*
Y390370D01*
X446580Y388500D02*
X450320D01*
X443300Y386335D02*
X453600D01*
X443300Y390665D02*
X453600D01*
Y386335D02*
Y390665D01*
X443300Y386335D02*
Y390665D01*
X448450Y406630D02*
Y410370D01*
X446580Y408500D02*
X450320D01*
X443300Y406335D02*
X453600D01*
X443300Y410665D02*
X453600D01*
Y406335D02*
Y410665D01*
X443300Y406335D02*
Y410665D01*
X448450Y426630D02*
Y430370D01*
X446580Y428500D02*
X450320D01*
X443300Y426335D02*
X453600D01*
X443300Y430665D02*
X453600D01*
Y426335D02*
Y430665D01*
X443300Y426335D02*
Y430665D01*
X180000Y426130D02*
Y429870D01*
X178130Y428000D02*
X181870D01*
X174850Y425835D02*
X185150D01*
X174850Y430165D02*
X185150D01*
Y425835D02*
Y430165D01*
X174850Y425835D02*
Y430165D01*
X180000Y406130D02*
Y409870D01*
X178130Y408000D02*
X181870D01*
X174850Y405835D02*
X185150D01*
X174850Y410165D02*
X185150D01*
Y405835D02*
Y410165D01*
X174850Y405835D02*
Y410165D01*
X180000Y386130D02*
Y389870D01*
X178130Y388000D02*
X181870D01*
X174850Y385835D02*
X185150D01*
X174850Y390165D02*
X185150D01*
Y385835D02*
Y390165D01*
X174850Y385835D02*
Y390165D01*
X180000Y366130D02*
Y369870D01*
X178130Y368000D02*
X181870D01*
X174850Y365835D02*
X185150D01*
X174850Y370165D02*
X185150D01*
Y365835D02*
Y370165D01*
X174850Y365835D02*
Y370165D01*
X180000Y346130D02*
Y349870D01*
X178130Y348000D02*
X181870D01*
X174850Y345835D02*
X185150D01*
X174850Y350165D02*
X185150D01*
Y345835D02*
Y350165D01*
X174850Y345835D02*
Y350165D01*
X180000Y326130D02*
Y329870D01*
X178130Y328000D02*
X181870D01*
X174850Y325835D02*
X185150D01*
X174850Y330165D02*
X185150D01*
Y325835D02*
Y330165D01*
X174850Y325835D02*
Y330165D01*
X180000Y306130D02*
Y309870D01*
X178130Y308000D02*
X181870D01*
X174850Y305835D02*
X185150D01*
X174850Y310165D02*
X185150D01*
Y305835D02*
Y310165D01*
X174850Y305835D02*
Y310165D01*
X180000Y286130D02*
Y289870D01*
X178130Y288000D02*
X181870D01*
X174850Y285835D02*
X185150D01*
X174850Y290165D02*
X185150D01*
Y285835D02*
Y290165D01*
X174850Y285835D02*
Y290165D01*
X180000Y266130D02*
Y269870D01*
X178130Y268000D02*
X181870D01*
X174850Y265835D02*
X185150D01*
X174850Y270165D02*
X185150D01*
Y265835D02*
Y270165D01*
X174850Y265835D02*
Y270165D01*
X352630Y140000D02*
X356370D01*
X354500Y138130D02*
Y141870D01*
X356665Y134850D02*
Y145150D01*
X352335Y134850D02*
Y145150D01*
X356665D01*
X352335Y134850D02*
X356665D01*
X342630Y140000D02*
X346370D01*
X344500Y138130D02*
Y141870D01*
X346665Y134850D02*
Y145150D01*
X342335Y134850D02*
Y145150D01*
X346665D01*
X342335Y134850D02*
X346665D01*
X402500Y111630D02*
Y115370D01*
X400630Y113500D02*
X404370D01*
X397350Y111335D02*
X407650D01*
X397350Y115665D02*
X407650D01*
Y111335D02*
Y115665D01*
X397350Y111335D02*
Y115665D01*
X402361Y96474D02*
Y100215D01*
X400491Y98344D02*
X404232D01*
X397212Y96179D02*
X407512D01*
X397212Y100510D02*
X407512D01*
Y96179D02*
Y100510D01*
X397212Y96179D02*
Y100510D01*
X255630Y159500D02*
X259370D01*
X257500Y157630D02*
Y161370D01*
X255335Y154350D02*
Y164650D01*
X259665Y154350D02*
Y164650D01*
X255335Y154350D02*
X259665D01*
X255335Y164650D02*
X259665D01*
X255300Y141200D02*
X261700D01*
X255300Y152800D02*
X261700D01*
X255300Y141200D02*
Y152800D01*
X261700Y141200D02*
Y152800D01*
X258500Y145031D02*
Y148969D01*
X256532Y147000D02*
X260469D01*
X460000Y276630D02*
Y280370D01*
X458130Y278500D02*
X461870D01*
X454850Y280665D02*
X465150D01*
X454850Y276335D02*
X465150D01*
X454850D02*
Y280665D01*
X465150Y276335D02*
Y280665D01*
X460000Y296630D02*
Y300370D01*
X458130Y298500D02*
X461870D01*
X454850Y300665D02*
X465150D01*
X454850Y296335D02*
X465150D01*
X454850D02*
Y300665D01*
X465150Y296335D02*
Y300665D01*
X460000Y316630D02*
Y320370D01*
X458130Y318500D02*
X461870D01*
X454850Y320665D02*
X465150D01*
X454850Y316335D02*
X465150D01*
X454850D02*
Y320665D01*
X465150Y316335D02*
Y320665D01*
X460000Y336630D02*
Y340370D01*
X458130Y338500D02*
X461870D01*
X454850Y340665D02*
X465150D01*
X454850Y336335D02*
X465150D01*
X454850D02*
Y340665D01*
X465150Y336335D02*
Y340665D01*
X460000Y356630D02*
Y360370D01*
X458130Y358500D02*
X461870D01*
X454850Y360665D02*
X465150D01*
X454850Y356335D02*
X465150D01*
X454850D02*
Y360665D01*
X465150Y356335D02*
Y360665D01*
X460000Y376630D02*
Y380370D01*
X458130Y378500D02*
X461870D01*
X454850Y380665D02*
X465150D01*
X454850Y376335D02*
X465150D01*
X454850D02*
Y380665D01*
X465150Y376335D02*
Y380665D01*
X460000Y396630D02*
Y400370D01*
X458130Y398500D02*
X461870D01*
X454850Y400665D02*
X465150D01*
X454850Y396335D02*
X465150D01*
X454850D02*
Y400665D01*
X465150Y396335D02*
Y400665D01*
X460000Y416630D02*
Y420370D01*
X458130Y418500D02*
X461870D01*
X454850Y420665D02*
X465150D01*
X454850Y416335D02*
X465150D01*
X454850D02*
Y420665D01*
X465150Y416335D02*
Y420665D01*
X191500Y416130D02*
Y419870D01*
X189630Y418000D02*
X193370D01*
X186350Y420165D02*
X196650D01*
X186350Y415835D02*
X196650D01*
X186350D02*
Y420165D01*
X196650Y415835D02*
Y420165D01*
X191500Y396130D02*
Y399870D01*
X189630Y398000D02*
X193370D01*
X186350Y400165D02*
X196650D01*
X186350Y395835D02*
X196650D01*
X186350D02*
Y400165D01*
X196650Y395835D02*
Y400165D01*
X191500Y376130D02*
Y379870D01*
X189630Y378000D02*
X193370D01*
X186350Y380165D02*
X196650D01*
X186350Y375835D02*
X196650D01*
X186350D02*
Y380165D01*
X196650Y375835D02*
Y380165D01*
X191500Y356130D02*
Y359870D01*
X189630Y358000D02*
X193370D01*
X186350Y360165D02*
X196650D01*
X186350Y355835D02*
X196650D01*
X186350D02*
Y360165D01*
X196650Y355835D02*
Y360165D01*
X191500Y336130D02*
Y339870D01*
X189630Y338000D02*
X193370D01*
X186350Y340165D02*
X196650D01*
X186350Y335835D02*
X196650D01*
X186350D02*
Y340165D01*
X196650Y335835D02*
Y340165D01*
X191500Y316130D02*
Y319870D01*
X189630Y318000D02*
X193370D01*
X186350Y320165D02*
X196650D01*
X186350Y315835D02*
X196650D01*
X186350D02*
Y320165D01*
X196650Y315835D02*
Y320165D01*
X191500Y296130D02*
Y299870D01*
X189630Y298000D02*
X193370D01*
X186350Y300165D02*
X196650D01*
X186350Y295835D02*
X196650D01*
X186350D02*
Y300165D01*
X196650Y295835D02*
Y300165D01*
X191500Y276130D02*
Y279870D01*
X189630Y278000D02*
X193370D01*
X186350Y280165D02*
X196650D01*
X186350Y275835D02*
X196650D01*
X186350D02*
Y280165D01*
X196650Y275835D02*
Y280165D01*
X460000Y266630D02*
Y270370D01*
X458130Y268500D02*
X461870D01*
X454850Y270665D02*
X465150D01*
X454850Y266335D02*
X465150D01*
X454850D02*
Y270665D01*
X465150Y266335D02*
Y270665D01*
X460000Y286630D02*
Y290370D01*
X458130Y288500D02*
X461870D01*
X454850Y290665D02*
X465150D01*
X454850Y286335D02*
X465150D01*
X454850D02*
Y290665D01*
X465150Y286335D02*
Y290665D01*
X460000Y306630D02*
Y310370D01*
X458130Y308500D02*
X461870D01*
X454850Y310665D02*
X465150D01*
X454850Y306335D02*
X465150D01*
X454850D02*
Y310665D01*
X465150Y306335D02*
Y310665D01*
X460000Y326630D02*
Y330370D01*
X458130Y328500D02*
X461870D01*
X454850Y330665D02*
X465150D01*
X454850Y326335D02*
X465150D01*
X454850D02*
Y330665D01*
X465150Y326335D02*
Y330665D01*
X460000Y346630D02*
Y350370D01*
X458130Y348500D02*
X461870D01*
X454850Y350665D02*
X465150D01*
X454850Y346335D02*
X465150D01*
X454850D02*
Y350665D01*
X465150Y346335D02*
Y350665D01*
X460000Y366630D02*
Y370370D01*
X458130Y368500D02*
X461870D01*
X454850Y370665D02*
X465150D01*
X454850Y366335D02*
X465150D01*
X454850D02*
Y370665D01*
X465150Y366335D02*
Y370665D01*
X460000Y386630D02*
Y390370D01*
X458130Y388500D02*
X461870D01*
X454850Y390665D02*
X465150D01*
X454850Y386335D02*
X465150D01*
X454850D02*
Y390665D01*
X465150Y386335D02*
Y390665D01*
X460000Y406630D02*
Y410370D01*
X458130Y408500D02*
X461870D01*
X454850Y410665D02*
X465150D01*
X454850Y406335D02*
X465150D01*
X454850D02*
Y410665D01*
X465150Y406335D02*
Y410665D01*
X460000Y426630D02*
Y430370D01*
X458130Y428500D02*
X461870D01*
X454850Y430665D02*
X465150D01*
X454850Y426335D02*
X465150D01*
X454850D02*
Y430665D01*
X465150Y426335D02*
Y430665D01*
X191500Y426130D02*
Y429870D01*
X189630Y428000D02*
X193370D01*
X186350Y430165D02*
X196650D01*
X186350Y425835D02*
X196650D01*
X186350D02*
Y430165D01*
X196650Y425835D02*
Y430165D01*
X191500Y406130D02*
Y409870D01*
X189630Y408000D02*
X193370D01*
X186350Y410165D02*
X196650D01*
X186350Y405835D02*
X196650D01*
X186350D02*
Y410165D01*
X196650Y405835D02*
Y410165D01*
X191500Y386130D02*
Y389870D01*
X189630Y388000D02*
X193370D01*
X186350Y390165D02*
X196650D01*
X186350Y385835D02*
X196650D01*
X186350D02*
Y390165D01*
X196650Y385835D02*
Y390165D01*
X191500Y366130D02*
Y369870D01*
X189630Y368000D02*
X193370D01*
X186350Y370165D02*
X196650D01*
X186350Y365835D02*
X196650D01*
X186350D02*
Y370165D01*
X196650Y365835D02*
Y370165D01*
X191500Y346130D02*
Y349870D01*
X189630Y348000D02*
X193370D01*
X186350Y350165D02*
X196650D01*
X186350Y345835D02*
X196650D01*
X186350D02*
Y350165D01*
X196650Y345835D02*
Y350165D01*
X191500Y326130D02*
Y329870D01*
X189630Y328000D02*
X193370D01*
X186350Y330165D02*
X196650D01*
X186350Y325835D02*
X196650D01*
X186350D02*
Y330165D01*
X196650Y325835D02*
Y330165D01*
X191500Y306130D02*
Y309870D01*
X189630Y308000D02*
X193370D01*
X186350Y310165D02*
X196650D01*
X186350Y305835D02*
X196650D01*
X186350D02*
Y310165D01*
X196650Y305835D02*
Y310165D01*
X191500Y286130D02*
Y289870D01*
X189630Y288000D02*
X193370D01*
X186350Y290165D02*
X196650D01*
X186350Y285835D02*
X196650D01*
X186350D02*
Y290165D01*
X196650Y285835D02*
Y290165D01*
X191500Y266130D02*
Y269870D01*
X189630Y268000D02*
X193370D01*
X186350Y270165D02*
X196650D01*
X186350Y265835D02*
X196650D01*
X186350D02*
Y270165D01*
X196650Y265835D02*
Y270165D01*
X513650Y121630D02*
Y125370D01*
X511779Y123500D02*
X515520D01*
X508500Y121335D02*
X518800D01*
X508500Y125665D02*
X518800D01*
Y121335D02*
Y125665D01*
X508500Y121335D02*
Y125665D01*
X513650Y131630D02*
Y135370D01*
X511779Y133500D02*
X515520D01*
X508500Y131335D02*
X518800D01*
X508500Y135665D02*
X518800D01*
Y131335D02*
Y135665D01*
X508500Y131335D02*
Y135665D01*
X459150Y144130D02*
Y147870D01*
X457279Y146000D02*
X461020D01*
X454000Y148165D02*
X464300D01*
X454000Y143835D02*
X464300D01*
X454000D02*
Y148165D01*
X464300Y143835D02*
Y148165D01*
X513650Y126630D02*
Y130370D01*
X511779Y128500D02*
X515520D01*
X508500Y126335D02*
X518800D01*
X508500Y130665D02*
X518800D01*
Y126335D02*
Y130665D01*
X508500Y126335D02*
Y130665D01*
X421782Y192606D02*
Y196346D01*
X419912Y194476D02*
X423652D01*
X416632Y196642D02*
X426932D01*
X416632Y192311D02*
X426932D01*
X416632D02*
Y196642D01*
X426932Y192311D02*
Y196642D01*
X324000Y194630D02*
Y198370D01*
X322130Y196500D02*
X325870D01*
X318850Y198665D02*
X329150D01*
X318850Y194335D02*
X329150D01*
X318850D02*
Y198665D01*
X329150Y194335D02*
Y198665D01*
X358320Y69293D02*
X362060D01*
X360191Y67422D02*
Y71163D01*
X358025Y64143D02*
Y74443D01*
X362356Y64143D02*
Y74443D01*
X358025Y64143D02*
X362356D01*
X358025Y74443D02*
X362356D01*
X353614Y69256D02*
X357354D01*
X355484Y67386D02*
Y71126D01*
X353319Y64106D02*
Y74406D01*
X357650Y64106D02*
Y74406D01*
X353319Y64106D02*
X357650D01*
X353319Y74406D02*
X357650D01*
X615130Y446000D02*
X618870D01*
X617000Y444130D02*
Y447870D01*
X619165Y440850D02*
Y451150D01*
X614835Y440850D02*
Y451150D01*
X619165D01*
X614835Y440850D02*
X619165D01*
X615130Y294000D02*
X618870D01*
X617000Y292130D02*
Y295870D01*
X614835Y288850D02*
Y299150D01*
X619165Y288850D02*
Y299150D01*
X614835Y288850D02*
X619165D01*
X614835Y299150D02*
X619165D01*
X347630Y445550D02*
X351370D01*
X349500Y443680D02*
Y447420D01*
X351665Y440400D02*
Y450700D01*
X347335Y440400D02*
Y450700D01*
X351665D01*
X347335Y440400D02*
X351665D01*
X347630Y294500D02*
X351370D01*
X349500Y292630D02*
Y296370D01*
X347335Y289350D02*
Y299650D01*
X351665Y289350D02*
Y299650D01*
X347335Y289350D02*
X351665D01*
X347335Y299650D02*
X351665D01*
X312274Y74792D02*
X316014D01*
X314144Y72922D02*
Y76663D01*
X316310Y69643D02*
Y79943D01*
X311979Y69643D02*
Y79943D01*
X316310D01*
X311979Y69643D02*
X316310D01*
X415130Y226000D02*
X418870D01*
X417000Y224130D02*
Y227870D01*
X419165Y220850D02*
Y231150D01*
X414835Y220850D02*
Y231150D01*
X419165D01*
X414835Y220850D02*
X419165D01*
X416130Y372500D02*
X419870D01*
X418000Y370630D02*
Y374370D01*
X420165Y367350D02*
Y377650D01*
X415835Y367350D02*
Y377650D01*
X420165D01*
X415835Y367350D02*
X420165D01*
X147130Y225500D02*
X150870D01*
X149000Y223630D02*
Y227370D01*
X151165Y220350D02*
Y230650D01*
X146835Y220350D02*
Y230650D01*
X151165D01*
X146835Y220350D02*
X151165D01*
X148130Y372500D02*
X151870D01*
X150000Y370630D02*
Y374370D01*
X152165Y367350D02*
Y377650D01*
X147835Y367350D02*
Y377650D01*
X152165D01*
X147835Y367350D02*
X152165D01*
X312274Y88842D02*
X316014D01*
X314144Y86972D02*
Y90713D01*
X311979Y83693D02*
Y93993D01*
X316310Y83693D02*
Y93993D01*
X311979Y83693D02*
X316310D01*
X311979Y93993D02*
X316310D01*
X368630Y69500D02*
X372370D01*
X370500Y67630D02*
Y71370D01*
X368335Y64350D02*
Y74650D01*
X372665Y64350D02*
Y74650D01*
X368335Y64350D02*
X372665D01*
X368335Y74650D02*
X372665D01*
X401911Y106474D02*
Y110215D01*
X400041Y108344D02*
X403782D01*
X396761Y106179D02*
X407061D01*
X396761Y110510D02*
X407061D01*
Y106179D02*
Y110510D01*
X396761Y106179D02*
Y110510D01*
X330000Y104630D02*
Y108370D01*
X328130Y106500D02*
X331870D01*
X324850Y108665D02*
X335150D01*
X324850Y104335D02*
X335150D01*
X324850D02*
Y108665D01*
X335150Y104335D02*
Y108665D01*
X362630Y140000D02*
X366370D01*
X364500Y138130D02*
Y141870D01*
X366665Y134850D02*
Y145150D01*
X362335Y134850D02*
Y145150D01*
X366665D01*
X362335Y134850D02*
X366665D01*
X373630Y69500D02*
X377370D01*
X375500Y67630D02*
Y71370D01*
X373335Y64350D02*
Y74650D01*
X377665Y64350D02*
Y74650D01*
X373335Y64350D02*
X377665D01*
X373335Y74650D02*
X377665D01*
X615630Y372050D02*
X619370D01*
X617500Y370180D02*
Y373920D01*
X619665Y366900D02*
Y377200D01*
X615335Y366900D02*
Y377200D01*
X619665D01*
X615335Y366900D02*
X619665D01*
X615630Y226500D02*
X619370D01*
X617500Y224630D02*
Y228370D01*
X619665Y221350D02*
Y231650D01*
X615335Y221350D02*
Y231650D01*
X619665D01*
X615335Y221350D02*
X619665D01*
X347630Y371550D02*
X351370D01*
X349500Y369680D02*
Y373420D01*
X351665Y366400D02*
Y376700D01*
X347335Y366400D02*
Y376700D01*
X351665D01*
X347335Y366400D02*
X351665D01*
X347630Y226000D02*
X351370D01*
X349500Y224130D02*
Y227870D01*
X351665Y220850D02*
Y231150D01*
X347335Y220850D02*
Y231150D01*
X351665D01*
X347335Y220850D02*
X351665D01*
X205130Y157550D02*
X208870D01*
X207000Y155680D02*
Y159420D01*
X209165Y152400D02*
Y162700D01*
X204835Y152400D02*
Y162700D01*
X209165D01*
X204835Y152400D02*
X209165D01*
X415130Y301550D02*
X418870D01*
X417000Y299680D02*
Y303420D01*
X419165Y296400D02*
Y306700D01*
X414835Y296400D02*
Y306700D01*
X419165D01*
X414835Y296400D02*
X419165D01*
X415130Y446000D02*
X418870D01*
X417000Y444130D02*
Y447870D01*
X419165Y440850D02*
Y451150D01*
X414835Y440850D02*
Y451150D01*
X419165D01*
X414835Y440850D02*
X419165D01*
X147130Y300500D02*
X150870D01*
X149000Y298630D02*
Y302370D01*
X151165Y295350D02*
Y305650D01*
X146835Y295350D02*
Y305650D01*
X151165D01*
X146835Y295350D02*
X151165D01*
X147630Y445450D02*
X151370D01*
X149500Y443580D02*
Y447320D01*
X151665Y440300D02*
Y450600D01*
X147335Y440300D02*
Y450600D01*
X151665D01*
X147335Y440300D02*
X151665D01*
X157130Y157500D02*
X160870D01*
X159000Y155630D02*
Y159370D01*
X161165Y152350D02*
Y162650D01*
X156835Y152350D02*
Y162650D01*
X161165D01*
X156835Y152350D02*
X161165D01*
D79*
X398126Y191339D02*
X428874D01*
X398126Y158661D02*
X428874D01*
X398126D02*
Y191339D01*
X428874Y158661D02*
Y191339D01*
X299626Y193339D02*
X330374D01*
X299626Y160661D02*
X330374D01*
X299626D02*
Y193339D01*
X330374Y160661D02*
Y193339D01*
X210347Y132441D02*
X253654D01*
Y187559D01*
X210347D02*
X253654D01*
X210347Y132441D02*
Y187559D01*
X109346Y133157D02*
X152654D01*
Y188276D01*
X109346D02*
X152654D01*
X109346Y133157D02*
Y188276D01*
M02*
