G04*
G04 #@! TF.GenerationSoftware,Altium Limited,Altium Designer,21.3.2 (30)*
G04*
G04 Layer_Color=8421504*
%FSLAX25Y25*%
%MOIN*%
G70*
G04*
G04 #@! TF.SameCoordinates,9419806A-25E3-4103-AC09-10F767E43710*
G04*
G04*
G04 #@! TF.FilePolarity,Positive*
G04*
G01*
G75*
%ADD20R,0.07874X0.01378*%
G04:AMPARAMS|DCode=21|XSize=78.74mil|YSize=13.78mil|CornerRadius=6.89mil|HoleSize=0mil|Usage=FLASHONLY|Rotation=0.000|XOffset=0mil|YOffset=0mil|HoleType=Round|Shape=RoundedRectangle|*
%AMROUNDEDRECTD21*
21,1,0.07874,0.00000,0,0,0.0*
21,1,0.06496,0.01378,0,0,0.0*
1,1,0.01378,0.03248,0.00000*
1,1,0.01378,-0.03248,0.00000*
1,1,0.01378,-0.03248,0.00000*
1,1,0.01378,0.03248,0.00000*
%
%ADD21ROUNDEDRECTD21*%
G04:AMPARAMS|DCode=22|XSize=61.81mil|YSize=13.78mil|CornerRadius=1.72mil|HoleSize=0mil|Usage=FLASHONLY|Rotation=0.000|XOffset=0mil|YOffset=0mil|HoleType=Round|Shape=RoundedRectangle|*
%AMROUNDEDRECTD22*
21,1,0.06181,0.01034,0,0,0.0*
21,1,0.05837,0.01378,0,0,0.0*
1,1,0.00345,0.02918,-0.00517*
1,1,0.00345,-0.02918,-0.00517*
1,1,0.00345,-0.02918,0.00517*
1,1,0.00345,0.02918,0.00517*
%
%ADD22ROUNDEDRECTD22*%
%ADD23R,0.01397X0.06315*%
%ADD24R,0.07000X0.02000*%
%ADD25R,0.02000X0.07000*%
%ADD26R,0.04213X0.10827*%
%ADD27R,0.39370X0.47244*%
%ADD28R,0.03400X0.03100*%
%ADD29R,0.03100X0.03400*%
%ADD30R,0.05200X0.03200*%
G04:AMPARAMS|DCode=31|XSize=43.31mil|YSize=47.24mil|CornerRadius=10.83mil|HoleSize=0mil|Usage=FLASHONLY|Rotation=180.000|XOffset=0mil|YOffset=0mil|HoleType=Round|Shape=RoundedRectangle|*
%AMROUNDEDRECTD31*
21,1,0.04331,0.02559,0,0,180.0*
21,1,0.02165,0.04724,0,0,180.0*
1,1,0.02165,-0.01083,0.01280*
1,1,0.02165,0.01083,0.01280*
1,1,0.02165,0.01083,-0.01280*
1,1,0.02165,-0.01083,-0.01280*
%
%ADD31ROUNDEDRECTD31*%
G04:AMPARAMS|DCode=32|XSize=43.31mil|YSize=47.24mil|CornerRadius=10.83mil|HoleSize=0mil|Usage=FLASHONLY|Rotation=270.000|XOffset=0mil|YOffset=0mil|HoleType=Round|Shape=RoundedRectangle|*
%AMROUNDEDRECTD32*
21,1,0.04331,0.02559,0,0,270.0*
21,1,0.02165,0.04724,0,0,270.0*
1,1,0.02165,-0.01280,-0.01083*
1,1,0.02165,-0.01280,0.01083*
1,1,0.02165,0.01280,0.01083*
1,1,0.02165,0.01280,-0.01083*
%
%ADD32ROUNDEDRECTD32*%
%ADD33R,0.19685X0.15748*%
G04:AMPARAMS|DCode=34|XSize=110.24mil|YSize=19.68mil|CornerRadius=4.92mil|HoleSize=0mil|Usage=FLASHONLY|Rotation=270.000|XOffset=0mil|YOffset=0mil|HoleType=Round|Shape=RoundedRectangle|*
%AMROUNDEDRECTD34*
21,1,0.11024,0.00984,0,0,270.0*
21,1,0.10039,0.01968,0,0,270.0*
1,1,0.00984,-0.00492,-0.05020*
1,1,0.00984,-0.00492,0.05020*
1,1,0.00984,0.00492,0.05020*
1,1,0.00984,0.00492,-0.05020*
%
%ADD34ROUNDEDRECTD34*%
G04:AMPARAMS|DCode=35|XSize=137.8mil|YSize=80.71mil|CornerRadius=20.18mil|HoleSize=0mil|Usage=FLASHONLY|Rotation=270.000|XOffset=0mil|YOffset=0mil|HoleType=Round|Shape=RoundedRectangle|*
%AMROUNDEDRECTD35*
21,1,0.13780,0.04036,0,0,270.0*
21,1,0.09744,0.08071,0,0,270.0*
1,1,0.04035,-0.02018,-0.04872*
1,1,0.04035,-0.02018,0.04872*
1,1,0.04035,0.02018,0.04872*
1,1,0.04035,0.02018,-0.04872*
%
%ADD35ROUNDEDRECTD35*%
G04:AMPARAMS|DCode=36|XSize=157.48mil|YSize=80.71mil|CornerRadius=20.18mil|HoleSize=0mil|Usage=FLASHONLY|Rotation=270.000|XOffset=0mil|YOffset=0mil|HoleType=Round|Shape=RoundedRectangle|*
%AMROUNDEDRECTD36*
21,1,0.15748,0.04035,0,0,270.0*
21,1,0.11713,0.08071,0,0,270.0*
1,1,0.04035,-0.02018,-0.05856*
1,1,0.04035,-0.02018,0.05856*
1,1,0.04035,0.02018,0.05856*
1,1,0.04035,0.02018,-0.05856*
%
%ADD36ROUNDEDRECTD36*%
G04:AMPARAMS|DCode=37|XSize=137.8mil|YSize=80.71mil|CornerRadius=20.18mil|HoleSize=0mil|Usage=FLASHONLY|Rotation=270.000|XOffset=0mil|YOffset=0mil|HoleType=Round|Shape=RoundedRectangle|*
%AMROUNDEDRECTD37*
21,1,0.13780,0.04035,0,0,270.0*
21,1,0.09744,0.08071,0,0,270.0*
1,1,0.04035,-0.02018,-0.04872*
1,1,0.04035,-0.02018,0.04872*
1,1,0.04035,0.02018,0.04872*
1,1,0.04035,0.02018,-0.04872*
%
%ADD37ROUNDEDRECTD37*%
%ADD38R,0.07874X0.09843*%
%ADD39R,0.06496X0.17717*%
D20*
X472870Y151634D02*
D03*
D21*
Y149075D02*
D03*
Y146516D02*
D03*
Y143957D02*
D03*
Y141398D02*
D03*
Y138839D02*
D03*
Y136280D02*
D03*
Y133720D02*
D03*
Y131161D02*
D03*
Y128602D02*
D03*
Y126043D02*
D03*
Y123484D02*
D03*
Y120925D02*
D03*
Y118366D02*
D03*
X500429D02*
D03*
Y120925D02*
D03*
Y123484D02*
D03*
Y126043D02*
D03*
Y128602D02*
D03*
Y131161D02*
D03*
Y133720D02*
D03*
Y136280D02*
D03*
Y138839D02*
D03*
Y141398D02*
D03*
Y143957D02*
D03*
Y146516D02*
D03*
Y149075D02*
D03*
Y151634D02*
D03*
D22*
X402201Y189075D02*
D03*
Y186516D02*
D03*
Y183957D02*
D03*
Y181398D02*
D03*
Y178839D02*
D03*
Y176279D02*
D03*
Y173721D02*
D03*
Y171161D02*
D03*
Y168602D02*
D03*
Y166043D02*
D03*
Y163484D02*
D03*
Y160925D02*
D03*
X424799D02*
D03*
Y163484D02*
D03*
Y166043D02*
D03*
Y168602D02*
D03*
Y171161D02*
D03*
Y173721D02*
D03*
Y176279D02*
D03*
Y178839D02*
D03*
Y181398D02*
D03*
Y183957D02*
D03*
Y186516D02*
D03*
Y189075D02*
D03*
X303701Y191075D02*
D03*
Y188516D02*
D03*
Y185957D02*
D03*
Y183398D02*
D03*
Y180839D02*
D03*
Y178279D02*
D03*
Y175721D02*
D03*
Y173161D02*
D03*
Y170602D02*
D03*
Y168043D02*
D03*
Y165484D02*
D03*
Y162925D02*
D03*
X326299D02*
D03*
Y165484D02*
D03*
Y168043D02*
D03*
Y170602D02*
D03*
Y173161D02*
D03*
Y175721D02*
D03*
Y178279D02*
D03*
Y180839D02*
D03*
Y183398D02*
D03*
Y185957D02*
D03*
Y188516D02*
D03*
Y191075D02*
D03*
D23*
X611150Y443000D02*
D03*
X608591D02*
D03*
X606032D02*
D03*
X603472D02*
D03*
X600913D02*
D03*
X598354D02*
D03*
X595795D02*
D03*
X593236D02*
D03*
X590677D02*
D03*
X588118D02*
D03*
X585559D02*
D03*
X583000D02*
D03*
Y467015D02*
D03*
X585559D02*
D03*
X588118D02*
D03*
X590677D02*
D03*
X593236D02*
D03*
X595795D02*
D03*
X598354D02*
D03*
X600913D02*
D03*
X603472D02*
D03*
X606032D02*
D03*
X608591D02*
D03*
X611150D02*
D03*
X612075Y297992D02*
D03*
X609516D02*
D03*
X606957D02*
D03*
X604398D02*
D03*
X601839D02*
D03*
X599279D02*
D03*
X596721D02*
D03*
X594161D02*
D03*
X591602D02*
D03*
X589043D02*
D03*
X586484D02*
D03*
X583925D02*
D03*
Y322008D02*
D03*
X586484D02*
D03*
X589043D02*
D03*
X591602D02*
D03*
X594161D02*
D03*
X596721D02*
D03*
X599279D02*
D03*
X601839D02*
D03*
X604398D02*
D03*
X606957D02*
D03*
X609516D02*
D03*
X612075D02*
D03*
X343413Y442500D02*
D03*
X340854D02*
D03*
X338295D02*
D03*
X335736D02*
D03*
X333177D02*
D03*
X330618D02*
D03*
X328059D02*
D03*
X325500D02*
D03*
X322941D02*
D03*
X320382D02*
D03*
X317823D02*
D03*
X315264D02*
D03*
Y466515D02*
D03*
X317823D02*
D03*
X320382D02*
D03*
X322941D02*
D03*
X325500D02*
D03*
X328059D02*
D03*
X330618D02*
D03*
X333177D02*
D03*
X335736D02*
D03*
X338295D02*
D03*
X340854D02*
D03*
X343413D02*
D03*
X344075Y297492D02*
D03*
X341516D02*
D03*
X338957D02*
D03*
X336398D02*
D03*
X333839D02*
D03*
X331279D02*
D03*
X328720D02*
D03*
X326161D02*
D03*
X323602D02*
D03*
X321043D02*
D03*
X318484D02*
D03*
X315925D02*
D03*
Y321508D02*
D03*
X318484D02*
D03*
X321043D02*
D03*
X323602D02*
D03*
X326161D02*
D03*
X328720D02*
D03*
X331279D02*
D03*
X333839D02*
D03*
X336398D02*
D03*
X338957D02*
D03*
X341516D02*
D03*
X344075D02*
D03*
X411261Y222916D02*
D03*
X408702D02*
D03*
X406143D02*
D03*
X403584D02*
D03*
X401025D02*
D03*
X398466D02*
D03*
X395907D02*
D03*
X393348D02*
D03*
X390789D02*
D03*
X388230D02*
D03*
X385671D02*
D03*
X383112D02*
D03*
Y246931D02*
D03*
X385671D02*
D03*
X388230D02*
D03*
X390789D02*
D03*
X393348D02*
D03*
X395907D02*
D03*
X398466D02*
D03*
X401025D02*
D03*
X403584D02*
D03*
X406143D02*
D03*
X408702D02*
D03*
X411261D02*
D03*
X411374Y369611D02*
D03*
X408815D02*
D03*
X406256D02*
D03*
X403697D02*
D03*
X401138D02*
D03*
X398579D02*
D03*
X396020D02*
D03*
X393461D02*
D03*
X390902D02*
D03*
X388342D02*
D03*
X385784D02*
D03*
X383224D02*
D03*
Y393626D02*
D03*
X385784D02*
D03*
X388342D02*
D03*
X390902D02*
D03*
X393461D02*
D03*
X396020D02*
D03*
X398579D02*
D03*
X401138D02*
D03*
X403697D02*
D03*
X406256D02*
D03*
X408815D02*
D03*
X411374D02*
D03*
X143236Y222500D02*
D03*
X140677D02*
D03*
X138118D02*
D03*
X135559D02*
D03*
X133000D02*
D03*
X130441D02*
D03*
X127882D02*
D03*
X125323D02*
D03*
X122764D02*
D03*
X120205D02*
D03*
X117646D02*
D03*
X115087D02*
D03*
Y246515D02*
D03*
X117646D02*
D03*
X120205D02*
D03*
X122764D02*
D03*
X125323D02*
D03*
X127882D02*
D03*
X130441D02*
D03*
X133000D02*
D03*
X135559D02*
D03*
X138118D02*
D03*
X140677D02*
D03*
X143236D02*
D03*
X143374Y369110D02*
D03*
X140815D02*
D03*
X138256D02*
D03*
X135697D02*
D03*
X133138D02*
D03*
X130579D02*
D03*
X128020D02*
D03*
X125461D02*
D03*
X122902D02*
D03*
X120343D02*
D03*
X117783D02*
D03*
X115224D02*
D03*
Y393126D02*
D03*
X117783D02*
D03*
X120343D02*
D03*
X122902D02*
D03*
X125461D02*
D03*
X128020D02*
D03*
X130579D02*
D03*
X133138D02*
D03*
X135697D02*
D03*
X138256D02*
D03*
X140815D02*
D03*
X143374D02*
D03*
X611575Y368992D02*
D03*
X609016D02*
D03*
X606457D02*
D03*
X603898D02*
D03*
X601339D02*
D03*
X598779D02*
D03*
X596220D02*
D03*
X593661D02*
D03*
X591102D02*
D03*
X588543D02*
D03*
X585984D02*
D03*
X583425D02*
D03*
Y393008D02*
D03*
X585984D02*
D03*
X588543D02*
D03*
X591102D02*
D03*
X593661D02*
D03*
X596220D02*
D03*
X598779D02*
D03*
X601339D02*
D03*
X603898D02*
D03*
X606457D02*
D03*
X609016D02*
D03*
X611575D02*
D03*
X611411Y223436D02*
D03*
X608852D02*
D03*
X606292D02*
D03*
X603733D02*
D03*
X601174D02*
D03*
X598615D02*
D03*
X596056D02*
D03*
X593497D02*
D03*
X590938D02*
D03*
X588379D02*
D03*
X585820D02*
D03*
X583261D02*
D03*
Y247451D02*
D03*
X585820D02*
D03*
X588379D02*
D03*
X590938D02*
D03*
X593497D02*
D03*
X596056D02*
D03*
X598615D02*
D03*
X601174D02*
D03*
X603733D02*
D03*
X606292D02*
D03*
X608852D02*
D03*
X611411D02*
D03*
X343677Y368500D02*
D03*
X341118D02*
D03*
X338559D02*
D03*
X336000D02*
D03*
X333441D02*
D03*
X330882D02*
D03*
X328323D02*
D03*
X325764D02*
D03*
X323205D02*
D03*
X320646D02*
D03*
X318087D02*
D03*
X315528D02*
D03*
Y392515D02*
D03*
X318087D02*
D03*
X320646D02*
D03*
X323205D02*
D03*
X325764D02*
D03*
X328323D02*
D03*
X330882D02*
D03*
X333441D02*
D03*
X336000D02*
D03*
X338559D02*
D03*
X341118D02*
D03*
X343677D02*
D03*
X343472Y222985D02*
D03*
X340913D02*
D03*
X338354D02*
D03*
X335795D02*
D03*
X333236D02*
D03*
X330677D02*
D03*
X328118D02*
D03*
X325559D02*
D03*
X323000D02*
D03*
X320441D02*
D03*
X317882D02*
D03*
X315323D02*
D03*
Y247000D02*
D03*
X317882D02*
D03*
X320441D02*
D03*
X323000D02*
D03*
X325559D02*
D03*
X328118D02*
D03*
X330677D02*
D03*
X333236D02*
D03*
X335795D02*
D03*
X338354D02*
D03*
X340913D02*
D03*
X343472D02*
D03*
X410720Y298159D02*
D03*
X408161D02*
D03*
X405602D02*
D03*
X403043D02*
D03*
X400484D02*
D03*
X397925D02*
D03*
X395366D02*
D03*
X392807D02*
D03*
X390248D02*
D03*
X387688D02*
D03*
X385129D02*
D03*
X382570D02*
D03*
Y322174D02*
D03*
X385129D02*
D03*
X387688D02*
D03*
X390248D02*
D03*
X392807D02*
D03*
X395366D02*
D03*
X397925D02*
D03*
X400484D02*
D03*
X403043D02*
D03*
X405602D02*
D03*
X408161D02*
D03*
X410720D02*
D03*
X411236Y442985D02*
D03*
X408677D02*
D03*
X406118D02*
D03*
X403559D02*
D03*
X401000D02*
D03*
X398441D02*
D03*
X395882D02*
D03*
X393323D02*
D03*
X390764D02*
D03*
X388205D02*
D03*
X385646D02*
D03*
X383087D02*
D03*
Y467000D02*
D03*
X385646D02*
D03*
X388205D02*
D03*
X390764D02*
D03*
X393323D02*
D03*
X395882D02*
D03*
X398441D02*
D03*
X401000D02*
D03*
X403559D02*
D03*
X406118D02*
D03*
X408677D02*
D03*
X411236D02*
D03*
X142736Y297485D02*
D03*
X140177D02*
D03*
X137618D02*
D03*
X135059D02*
D03*
X132500D02*
D03*
X129941D02*
D03*
X127382D02*
D03*
X124823D02*
D03*
X122264D02*
D03*
X119705D02*
D03*
X117146D02*
D03*
X114587D02*
D03*
Y321500D02*
D03*
X117146D02*
D03*
X119705D02*
D03*
X122264D02*
D03*
X124823D02*
D03*
X127382D02*
D03*
X129941D02*
D03*
X132500D02*
D03*
X135059D02*
D03*
X137618D02*
D03*
X140177D02*
D03*
X142736D02*
D03*
X143236Y442485D02*
D03*
X140677D02*
D03*
X138118D02*
D03*
X135559D02*
D03*
X133000D02*
D03*
X130441D02*
D03*
X127882D02*
D03*
X125323D02*
D03*
X122764D02*
D03*
X120205D02*
D03*
X117646D02*
D03*
X115087D02*
D03*
Y466500D02*
D03*
X117646D02*
D03*
X120205D02*
D03*
X122764D02*
D03*
X125323D02*
D03*
X127882D02*
D03*
X130441D02*
D03*
X133000D02*
D03*
X135559D02*
D03*
X138118D02*
D03*
X140677D02*
D03*
X143236D02*
D03*
D24*
X388753Y89246D02*
D03*
Y92396D02*
D03*
Y95546D02*
D03*
Y98695D02*
D03*
Y101845D02*
D03*
Y104994D02*
D03*
Y108144D02*
D03*
Y111294D02*
D03*
Y114443D02*
D03*
Y117593D02*
D03*
Y120742D02*
D03*
X344109D02*
D03*
Y117593D02*
D03*
Y114443D02*
D03*
Y111294D02*
D03*
Y108144D02*
D03*
Y104994D02*
D03*
Y101845D02*
D03*
Y98695D02*
D03*
Y95546D02*
D03*
Y92396D02*
D03*
Y89246D02*
D03*
D25*
X382179Y127316D02*
D03*
X379029D02*
D03*
X375879D02*
D03*
X372730D02*
D03*
X369580D02*
D03*
X366431D02*
D03*
X363281D02*
D03*
X360131D02*
D03*
X356982D02*
D03*
X353832D02*
D03*
X350683D02*
D03*
Y82672D02*
D03*
X353832D02*
D03*
X356982D02*
D03*
X360131D02*
D03*
X363281D02*
D03*
X366431D02*
D03*
X369580D02*
D03*
X372730D02*
D03*
X375879D02*
D03*
X379029D02*
D03*
X382179D02*
D03*
D26*
X169614Y137900D02*
D03*
X176307D02*
D03*
X183000D02*
D03*
X189693D02*
D03*
X196386D02*
D03*
D27*
X183000Y182445D02*
D03*
D28*
X489000Y102950D02*
D03*
Y109050D02*
D03*
X483000Y102950D02*
D03*
Y109050D02*
D03*
X365199Y66363D02*
D03*
Y72463D02*
D03*
X374889Y143099D02*
D03*
Y136999D02*
D03*
X350413Y66024D02*
D03*
Y72124D02*
D03*
X437000Y65950D02*
D03*
Y72050D02*
D03*
X359500Y143050D02*
D03*
Y136950D02*
D03*
X349500Y143050D02*
D03*
Y136950D02*
D03*
X369500Y143050D02*
D03*
Y136950D02*
D03*
X354500Y143050D02*
D03*
Y136950D02*
D03*
X344500Y143050D02*
D03*
Y136950D02*
D03*
X257500Y156450D02*
D03*
Y162550D02*
D03*
X360191Y66243D02*
D03*
Y72343D02*
D03*
X355484Y66206D02*
D03*
Y72306D02*
D03*
X617000Y449050D02*
D03*
Y442950D02*
D03*
X617000Y290950D02*
D03*
Y297050D02*
D03*
X349500Y448600D02*
D03*
Y442500D02*
D03*
X349500Y291450D02*
D03*
Y297550D02*
D03*
X314144Y77842D02*
D03*
Y71742D02*
D03*
X417000Y229050D02*
D03*
Y222950D02*
D03*
X418000Y375550D02*
D03*
Y369450D02*
D03*
X149000Y228550D02*
D03*
Y222450D02*
D03*
X150000Y375550D02*
D03*
Y369450D02*
D03*
X314144Y85792D02*
D03*
Y91892D02*
D03*
X370500Y66450D02*
D03*
Y72550D02*
D03*
X364500Y143050D02*
D03*
Y136950D02*
D03*
X375500Y66450D02*
D03*
Y72550D02*
D03*
X617500Y375100D02*
D03*
Y369000D02*
D03*
X617500Y229550D02*
D03*
Y223450D02*
D03*
X349500Y374600D02*
D03*
Y368500D02*
D03*
X349500Y229050D02*
D03*
Y222950D02*
D03*
X207000Y160600D02*
D03*
Y154500D02*
D03*
X417000Y304600D02*
D03*
Y298500D02*
D03*
X417000Y449050D02*
D03*
Y442950D02*
D03*
X149000Y303550D02*
D03*
Y297450D02*
D03*
X149500Y448500D02*
D03*
Y442400D02*
D03*
X159000Y160550D02*
D03*
Y154450D02*
D03*
D29*
X538450Y273500D02*
D03*
X544550D02*
D03*
X538450Y293500D02*
D03*
X544550D02*
D03*
X538450Y313500D02*
D03*
X544550D02*
D03*
X538450Y333500D02*
D03*
X544550D02*
D03*
X538450Y353500D02*
D03*
X544550D02*
D03*
X538450Y373500D02*
D03*
X544550D02*
D03*
X538450Y393500D02*
D03*
X544550D02*
D03*
X538450Y413500D02*
D03*
X544550D02*
D03*
X270450Y413000D02*
D03*
X276550D02*
D03*
X270450Y393000D02*
D03*
X276550D02*
D03*
X270450Y373000D02*
D03*
X276550D02*
D03*
X270450Y353000D02*
D03*
X276550D02*
D03*
X270450Y333000D02*
D03*
X276550D02*
D03*
X270450Y313000D02*
D03*
X276550D02*
D03*
X270450Y293000D02*
D03*
X276550D02*
D03*
X270450Y273000D02*
D03*
X276550D02*
D03*
X538450Y283500D02*
D03*
X544550D02*
D03*
X538450Y303500D02*
D03*
X544550D02*
D03*
X538450Y323500D02*
D03*
X544550D02*
D03*
X538450Y343500D02*
D03*
X544550D02*
D03*
X538450Y363500D02*
D03*
X544550D02*
D03*
X538450Y383500D02*
D03*
X544550D02*
D03*
X538450Y403500D02*
D03*
X544550D02*
D03*
X538450Y423500D02*
D03*
X544550D02*
D03*
X270450Y423000D02*
D03*
X276550D02*
D03*
X270450Y403000D02*
D03*
X276550D02*
D03*
X270450Y383000D02*
D03*
X276550D02*
D03*
X270450Y363000D02*
D03*
X276550D02*
D03*
X270450Y343000D02*
D03*
X276550D02*
D03*
X270450Y323000D02*
D03*
X276550D02*
D03*
X270450Y303000D02*
D03*
X276550D02*
D03*
X270450Y283000D02*
D03*
X276550D02*
D03*
X466050Y162000D02*
D03*
X472150D02*
D03*
X466050Y169000D02*
D03*
X472150D02*
D03*
X456050Y140000D02*
D03*
X462150D02*
D03*
X448782Y202976D02*
D03*
X442682D02*
D03*
X456100Y152000D02*
D03*
X462200D02*
D03*
X448782Y197476D02*
D03*
X442682D02*
D03*
X405678Y84604D02*
D03*
X399578D02*
D03*
X448732Y175476D02*
D03*
X442632D02*
D03*
X384782Y153976D02*
D03*
X378682D02*
D03*
X350299Y175898D02*
D03*
X344199D02*
D03*
X286732Y153976D02*
D03*
X280632D02*
D03*
X448832Y169976D02*
D03*
X442732D02*
D03*
X384782Y159476D02*
D03*
X378682D02*
D03*
X350299Y170398D02*
D03*
X344199D02*
D03*
X286782Y159476D02*
D03*
X280682D02*
D03*
X448782Y164476D02*
D03*
X442682D02*
D03*
X384782Y164976D02*
D03*
X378682D02*
D03*
X350299Y164898D02*
D03*
X344199D02*
D03*
X286782Y164976D02*
D03*
X280682D02*
D03*
X448782Y158976D02*
D03*
X442682D02*
D03*
X384832Y170476D02*
D03*
X378732D02*
D03*
X350299Y159398D02*
D03*
X344199D02*
D03*
X286732Y170476D02*
D03*
X280632D02*
D03*
X516650Y139000D02*
D03*
X510550D02*
D03*
X384832Y175976D02*
D03*
X378732D02*
D03*
X286782Y175976D02*
D03*
X280682D02*
D03*
X384832Y181476D02*
D03*
X378732D02*
D03*
X286782Y181476D02*
D03*
X280682D02*
D03*
X384832Y186976D02*
D03*
X378732D02*
D03*
X448782Y186476D02*
D03*
X442682D02*
D03*
X286782Y186976D02*
D03*
X280682D02*
D03*
X384832Y192476D02*
D03*
X378732D02*
D03*
X286782Y192476D02*
D03*
X280682D02*
D03*
X451500Y273500D02*
D03*
X445400D02*
D03*
X451500Y293500D02*
D03*
X445400D02*
D03*
X451500Y313500D02*
D03*
X445400D02*
D03*
X451500Y333500D02*
D03*
X445400D02*
D03*
X451500Y353500D02*
D03*
X445400D02*
D03*
X451500Y373500D02*
D03*
X445400D02*
D03*
X451500Y393500D02*
D03*
X445400D02*
D03*
X451500Y413500D02*
D03*
X445400D02*
D03*
X183050Y413000D02*
D03*
X176950D02*
D03*
X183050Y393000D02*
D03*
X176950D02*
D03*
X183050Y373000D02*
D03*
X176950D02*
D03*
X183050Y353000D02*
D03*
X176950D02*
D03*
X183050Y333000D02*
D03*
X176950D02*
D03*
X183050Y313000D02*
D03*
X176950D02*
D03*
X183050Y293000D02*
D03*
X176950D02*
D03*
X183050Y273000D02*
D03*
X176950D02*
D03*
X448782Y180976D02*
D03*
X442682D02*
D03*
X406050Y75500D02*
D03*
X399950D02*
D03*
X410782Y194476D02*
D03*
X404682D02*
D03*
X311282Y196476D02*
D03*
X305182D02*
D03*
X442682Y191976D02*
D03*
X448782D02*
D03*
X442682Y208476D02*
D03*
X448782D02*
D03*
X344126Y181527D02*
D03*
X350226D02*
D03*
X344093Y187079D02*
D03*
X350193D02*
D03*
X451500Y283500D02*
D03*
X445400D02*
D03*
X451500Y303500D02*
D03*
X445400D02*
D03*
X451500Y323500D02*
D03*
X445400D02*
D03*
X451500Y343500D02*
D03*
X445400D02*
D03*
X451500Y363500D02*
D03*
X445400D02*
D03*
X451500Y383500D02*
D03*
X445400D02*
D03*
X451500Y403500D02*
D03*
X445400D02*
D03*
X451500Y423500D02*
D03*
X445400D02*
D03*
X183050Y423000D02*
D03*
X176950D02*
D03*
X183050Y403000D02*
D03*
X176950D02*
D03*
X183050Y383000D02*
D03*
X176950D02*
D03*
X183050Y363000D02*
D03*
X176950D02*
D03*
X183050Y343000D02*
D03*
X176950D02*
D03*
X183050Y323000D02*
D03*
X176950D02*
D03*
X183050Y303000D02*
D03*
X176950D02*
D03*
X183050Y283000D02*
D03*
X176950D02*
D03*
X456950Y273500D02*
D03*
X463050D02*
D03*
X456950Y293500D02*
D03*
X463050D02*
D03*
X456950Y313500D02*
D03*
X463050D02*
D03*
X456950Y333500D02*
D03*
X463050D02*
D03*
X456950Y353500D02*
D03*
X463050D02*
D03*
X456950Y373500D02*
D03*
X463050D02*
D03*
X456950Y393500D02*
D03*
X463050D02*
D03*
X456950Y413500D02*
D03*
X463050D02*
D03*
X188450Y413000D02*
D03*
X194550D02*
D03*
X188450Y393000D02*
D03*
X194550D02*
D03*
X188450Y373000D02*
D03*
X194550D02*
D03*
X188450Y353000D02*
D03*
X194550D02*
D03*
X188450Y333000D02*
D03*
X194550D02*
D03*
X188450Y313000D02*
D03*
X194550D02*
D03*
X188450Y293000D02*
D03*
X194550D02*
D03*
X188450Y273000D02*
D03*
X194550D02*
D03*
X456950Y283500D02*
D03*
X463050D02*
D03*
X456950Y303500D02*
D03*
X463050D02*
D03*
X456950Y323500D02*
D03*
X463050D02*
D03*
X456950Y343500D02*
D03*
X463050D02*
D03*
X456950Y363500D02*
D03*
X463050D02*
D03*
X456950Y383500D02*
D03*
X463050D02*
D03*
X456950Y403500D02*
D03*
X463050D02*
D03*
X456950Y423500D02*
D03*
X463050D02*
D03*
X188450Y423000D02*
D03*
X194550D02*
D03*
X188450Y403000D02*
D03*
X194550D02*
D03*
X188450Y383000D02*
D03*
X194550D02*
D03*
X188450Y363000D02*
D03*
X194550D02*
D03*
X188450Y343000D02*
D03*
X194550D02*
D03*
X188450Y323000D02*
D03*
X194550D02*
D03*
X188450Y303000D02*
D03*
X194550D02*
D03*
X188450Y283000D02*
D03*
X194550D02*
D03*
X326950Y111500D02*
D03*
X333050D02*
D03*
X327000Y121500D02*
D03*
X333100D02*
D03*
X405550Y123500D02*
D03*
X399450D02*
D03*
X533000Y278500D02*
D03*
X526900D02*
D03*
X533000Y298500D02*
D03*
X526900D02*
D03*
X533000Y318500D02*
D03*
X526900D02*
D03*
X533000Y338500D02*
D03*
X526900D02*
D03*
X533000Y358500D02*
D03*
X526900D02*
D03*
X533000Y378500D02*
D03*
X526900D02*
D03*
X533000Y398500D02*
D03*
X526900D02*
D03*
X533000Y418500D02*
D03*
X526900D02*
D03*
X265000Y418000D02*
D03*
X258900D02*
D03*
X265000Y398000D02*
D03*
X258900D02*
D03*
X265000Y378000D02*
D03*
X258900D02*
D03*
X265000Y358000D02*
D03*
X258900D02*
D03*
X265000Y338000D02*
D03*
X258900D02*
D03*
X265000Y318000D02*
D03*
X258900D02*
D03*
X265000Y298000D02*
D03*
X258900D02*
D03*
X265000Y278000D02*
D03*
X258900D02*
D03*
X533000Y268500D02*
D03*
X526900D02*
D03*
X533000Y288500D02*
D03*
X526900D02*
D03*
X533000Y308500D02*
D03*
X526900D02*
D03*
X533000Y328500D02*
D03*
X526900D02*
D03*
X533000Y348500D02*
D03*
X526900D02*
D03*
X533000Y368500D02*
D03*
X526900D02*
D03*
X533000Y388500D02*
D03*
X526900D02*
D03*
X533000Y408500D02*
D03*
X526900D02*
D03*
X533000Y428500D02*
D03*
X526900D02*
D03*
X265000Y428000D02*
D03*
X258900D02*
D03*
X265000Y408000D02*
D03*
X258900D02*
D03*
X265000Y388000D02*
D03*
X258900D02*
D03*
X265000Y368000D02*
D03*
X258900D02*
D03*
X265000Y348000D02*
D03*
X258900D02*
D03*
X265000Y328000D02*
D03*
X258900D02*
D03*
X265000Y308000D02*
D03*
X258900D02*
D03*
X265000Y288000D02*
D03*
X258900D02*
D03*
X265000Y268000D02*
D03*
X258900D02*
D03*
X405550Y118500D02*
D03*
X399450D02*
D03*
X405430Y103514D02*
D03*
X399329D02*
D03*
X538450Y278500D02*
D03*
X544550D02*
D03*
X538450Y298500D02*
D03*
X544550D02*
D03*
X538450Y318500D02*
D03*
X544550D02*
D03*
X538450Y338500D02*
D03*
X544550D02*
D03*
X538450Y358500D02*
D03*
X544550D02*
D03*
X538450Y378500D02*
D03*
X544550D02*
D03*
X538450Y398500D02*
D03*
X544550D02*
D03*
X538450Y418500D02*
D03*
X544550D02*
D03*
X270450Y418000D02*
D03*
X276550D02*
D03*
X270450Y398000D02*
D03*
X276550D02*
D03*
X270450Y378000D02*
D03*
X276550D02*
D03*
X270450Y358000D02*
D03*
X276550D02*
D03*
X270450Y338000D02*
D03*
X276550D02*
D03*
X270450Y318000D02*
D03*
X276550D02*
D03*
X270450Y298000D02*
D03*
X276550D02*
D03*
X270450Y278000D02*
D03*
X276550D02*
D03*
X538450Y268500D02*
D03*
X544550D02*
D03*
X538450Y288500D02*
D03*
X544550D02*
D03*
X538450Y308500D02*
D03*
X544550D02*
D03*
X538450Y328500D02*
D03*
X544550D02*
D03*
X538450Y348500D02*
D03*
X544550D02*
D03*
X538450Y368500D02*
D03*
X544550D02*
D03*
X538450Y388500D02*
D03*
X544550D02*
D03*
X538450Y408500D02*
D03*
X544550D02*
D03*
X538450Y428500D02*
D03*
X544550D02*
D03*
X270450Y428000D02*
D03*
X276550D02*
D03*
X270450Y408000D02*
D03*
X276550D02*
D03*
X270450Y388000D02*
D03*
X276550D02*
D03*
X270450Y368000D02*
D03*
X276550D02*
D03*
X270450Y348000D02*
D03*
X276550D02*
D03*
X270450Y328000D02*
D03*
X276550D02*
D03*
X270450Y308000D02*
D03*
X276550D02*
D03*
X270450Y288000D02*
D03*
X276550D02*
D03*
X270450Y268000D02*
D03*
X276550D02*
D03*
X326950Y116500D02*
D03*
X333050D02*
D03*
X326950Y126500D02*
D03*
X333050D02*
D03*
X405550Y128500D02*
D03*
X399450D02*
D03*
X286550Y79000D02*
D03*
X280450D02*
D03*
X286550Y87000D02*
D03*
X280450D02*
D03*
X286600Y94500D02*
D03*
X280500D02*
D03*
X286550Y102000D02*
D03*
X280450D02*
D03*
X286550Y109500D02*
D03*
X280450D02*
D03*
X451500Y278500D02*
D03*
X445400D02*
D03*
X451500Y298500D02*
D03*
X445400D02*
D03*
X451500Y318500D02*
D03*
X445400D02*
D03*
X451500Y338500D02*
D03*
X445400D02*
D03*
X451500Y358500D02*
D03*
X445400D02*
D03*
X451500Y378500D02*
D03*
X445400D02*
D03*
X451500Y398500D02*
D03*
X445400D02*
D03*
X451500Y418500D02*
D03*
X445400D02*
D03*
X183050Y418000D02*
D03*
X176950D02*
D03*
X183050Y398000D02*
D03*
X176950D02*
D03*
X183050Y378000D02*
D03*
X176950D02*
D03*
X183050Y358000D02*
D03*
X176950D02*
D03*
X183050Y338000D02*
D03*
X176950D02*
D03*
X183050Y318000D02*
D03*
X176950D02*
D03*
X183050Y298000D02*
D03*
X176950D02*
D03*
X183050Y278000D02*
D03*
X176950D02*
D03*
X451500Y268500D02*
D03*
X445400D02*
D03*
X451500Y288500D02*
D03*
X445400D02*
D03*
X451500Y308500D02*
D03*
X445400D02*
D03*
X451500Y328500D02*
D03*
X445400D02*
D03*
X451500Y348500D02*
D03*
X445400D02*
D03*
X451500Y368500D02*
D03*
X445400D02*
D03*
X451500Y388500D02*
D03*
X445400D02*
D03*
X451500Y408500D02*
D03*
X445400D02*
D03*
X451500Y428500D02*
D03*
X445400D02*
D03*
X183050Y428000D02*
D03*
X176950D02*
D03*
X183050Y408000D02*
D03*
X176950D02*
D03*
X183050Y388000D02*
D03*
X176950D02*
D03*
X183050Y368000D02*
D03*
X176950D02*
D03*
X183050Y348000D02*
D03*
X176950D02*
D03*
X183050Y328000D02*
D03*
X176950D02*
D03*
X183050Y308000D02*
D03*
X176950D02*
D03*
X183050Y288000D02*
D03*
X176950D02*
D03*
X183050Y268000D02*
D03*
X176950D02*
D03*
X405550Y113500D02*
D03*
X399450D02*
D03*
X405411Y98344D02*
D03*
X399311D02*
D03*
X456950Y278500D02*
D03*
X463050D02*
D03*
X456950Y298500D02*
D03*
X463050D02*
D03*
X456950Y318500D02*
D03*
X463050D02*
D03*
X456950Y338500D02*
D03*
X463050D02*
D03*
X456950Y358500D02*
D03*
X463050D02*
D03*
X456950Y378500D02*
D03*
X463050D02*
D03*
X456950Y398500D02*
D03*
X463050D02*
D03*
X456950Y418500D02*
D03*
X463050D02*
D03*
X188450Y418000D02*
D03*
X194550D02*
D03*
X188450Y398000D02*
D03*
X194550D02*
D03*
X188450Y378000D02*
D03*
X194550D02*
D03*
X188450Y358000D02*
D03*
X194550D02*
D03*
X188450Y338000D02*
D03*
X194550D02*
D03*
X188450Y318000D02*
D03*
X194550D02*
D03*
X188450Y298000D02*
D03*
X194550D02*
D03*
X188450Y278000D02*
D03*
X194550D02*
D03*
X456950Y268500D02*
D03*
X463050D02*
D03*
X456950Y288500D02*
D03*
X463050D02*
D03*
X456950Y308500D02*
D03*
X463050D02*
D03*
X456950Y328500D02*
D03*
X463050D02*
D03*
X456950Y348500D02*
D03*
X463050D02*
D03*
X456950Y368500D02*
D03*
X463050D02*
D03*
X456950Y388500D02*
D03*
X463050D02*
D03*
X456950Y408500D02*
D03*
X463050D02*
D03*
X456950Y428500D02*
D03*
X463050D02*
D03*
X188450Y428000D02*
D03*
X194550D02*
D03*
X188450Y408000D02*
D03*
X194550D02*
D03*
X188450Y388000D02*
D03*
X194550D02*
D03*
X188450Y368000D02*
D03*
X194550D02*
D03*
X188450Y348000D02*
D03*
X194550D02*
D03*
X188450Y328000D02*
D03*
X194550D02*
D03*
X188450Y308000D02*
D03*
X194550D02*
D03*
X188450Y288000D02*
D03*
X194550D02*
D03*
X188450Y268000D02*
D03*
X194550D02*
D03*
X516700Y123500D02*
D03*
X510600D02*
D03*
X516700Y133500D02*
D03*
X510600D02*
D03*
X456100Y146000D02*
D03*
X462200D02*
D03*
X516700Y128500D02*
D03*
X510600D02*
D03*
X418732Y194476D02*
D03*
X424832D02*
D03*
X320950Y196500D02*
D03*
X327050D02*
D03*
X404961Y108344D02*
D03*
X398862D02*
D03*
X326950Y106500D02*
D03*
X333050D02*
D03*
D30*
X381629Y72309D02*
D03*
Y65109D02*
D03*
X258500Y143400D02*
D03*
Y150600D02*
D03*
D31*
X479016Y161500D02*
D03*
X487284D02*
D03*
X479016Y168500D02*
D03*
X487284D02*
D03*
X273768Y79500D02*
D03*
X265500D02*
D03*
X273768Y87000D02*
D03*
X265500D02*
D03*
X273768Y94500D02*
D03*
X265500D02*
D03*
X273768Y102000D02*
D03*
X265500D02*
D03*
X273768Y109500D02*
D03*
X265500D02*
D03*
D32*
X258000Y169500D02*
D03*
Y177768D02*
D03*
D33*
X187700Y102300D02*
D03*
X236100D02*
D03*
D34*
X487661Y90653D02*
D03*
X493961D02*
D03*
X490811D02*
D03*
X481362D02*
D03*
X484512D02*
D03*
D35*
X507051Y90752D02*
D03*
D36*
Y74020D02*
D03*
X468272D02*
D03*
D37*
Y90752D02*
D03*
D38*
X157764Y121499D02*
D03*
X178237D02*
D03*
X143736Y122001D02*
D03*
X123263D02*
D03*
D39*
X232000Y142283D02*
D03*
Y177717D02*
D03*
X131000Y143000D02*
D03*
Y178433D02*
D03*
M02*
