G04*
G04 #@! TF.GenerationSoftware,Altium Limited,Altium Designer,21.3.2 (30)*
G04*
G04 Layer_Color=255*
%FSLAX25Y25*%
%MOIN*%
G70*
G04*
G04 #@! TF.SameCoordinates,9419806A-25E3-4103-AC09-10F767E43710*
G04*
G04*
G04 #@! TF.FilePolarity,Positive*
G04*
G01*
G75*
%ADD68C,0.07500*%
%ADD69P,0.27060X8X22.5*%
%ADD70R,0.10000X0.16000*%
%ADD71R,0.16000X0.10000*%
%ADD72C,0.03543*%
%ADD73C,0.25591*%
%ADD74C,0.03937*%
%ADD75O,0.09000X0.06500*%
%ADD76R,0.09000X0.06500*%
D68*
X327000Y92000D02*
D03*
Y72000D02*
D03*
X542705Y65642D02*
D03*
X568295Y83358D02*
D03*
Y65642D02*
D03*
X542705Y83358D02*
D03*
Y95642D02*
D03*
X568295Y113358D02*
D03*
Y95642D02*
D03*
X542705Y113358D02*
D03*
D69*
X629500Y493000D02*
D03*
X630500Y74000D02*
D03*
X104000Y492000D02*
D03*
Y76500D02*
D03*
D70*
X160000Y95500D02*
D03*
D71*
X140000Y80500D02*
D03*
Y105500D02*
D03*
D72*
X496323Y81500D02*
D03*
X479000D02*
D03*
D73*
X495000Y234330D02*
D03*
Y462677D02*
D03*
X227000Y233830D02*
D03*
Y462177D02*
D03*
D74*
X500000Y308504D02*
D03*
X485000Y403500D02*
D03*
X495000Y413500D02*
D03*
X480000Y418504D02*
D03*
X480000Y428504D02*
D03*
X485000Y423500D02*
D03*
X505000Y333500D02*
D03*
Y343500D02*
D03*
Y353500D02*
D03*
Y363500D02*
D03*
Y373500D02*
D03*
Y383500D02*
D03*
Y393500D02*
D03*
Y403500D02*
D03*
Y413500D02*
D03*
Y323500D02*
D03*
Y313500D02*
D03*
Y303500D02*
D03*
Y293500D02*
D03*
Y283500D02*
D03*
Y273500D02*
D03*
X495000Y333500D02*
D03*
Y343500D02*
D03*
Y353500D02*
D03*
Y363500D02*
D03*
Y373500D02*
D03*
Y383500D02*
D03*
Y393500D02*
D03*
Y403500D02*
D03*
Y323500D02*
D03*
Y313500D02*
D03*
Y303500D02*
D03*
Y293500D02*
D03*
Y283500D02*
D03*
Y273500D02*
D03*
X505000Y423500D02*
D03*
X495000D02*
D03*
X485000Y333500D02*
D03*
Y343500D02*
D03*
Y353500D02*
D03*
Y363500D02*
D03*
Y373500D02*
D03*
Y383500D02*
D03*
Y393500D02*
D03*
Y413500D02*
D03*
Y323500D02*
D03*
Y313500D02*
D03*
Y303500D02*
D03*
Y293500D02*
D03*
Y283500D02*
D03*
Y273500D02*
D03*
X500000Y278504D02*
D03*
Y288504D02*
D03*
Y298504D02*
D03*
Y318504D02*
D03*
Y328504D02*
D03*
Y338504D02*
D03*
X500000Y348504D02*
D03*
X500000Y358504D02*
D03*
X500000Y368504D02*
D03*
Y378504D02*
D03*
Y388504D02*
D03*
Y398504D02*
D03*
Y418504D02*
D03*
Y428504D02*
D03*
X500000Y268504D02*
D03*
X490000Y278504D02*
D03*
Y288504D02*
D03*
Y298504D02*
D03*
Y308504D02*
D03*
Y318504D02*
D03*
Y328504D02*
D03*
Y338504D02*
D03*
Y348504D02*
D03*
X490000Y358504D02*
D03*
X490000Y368504D02*
D03*
Y378504D02*
D03*
X490000Y388504D02*
D03*
Y398504D02*
D03*
Y408504D02*
D03*
Y418504D02*
D03*
Y428504D02*
D03*
X490000Y268504D02*
D03*
X480000Y278504D02*
D03*
Y288504D02*
D03*
Y298504D02*
D03*
Y308504D02*
D03*
Y318504D02*
D03*
Y328504D02*
D03*
Y338504D02*
D03*
Y348504D02*
D03*
X480000Y358504D02*
D03*
X480000Y368504D02*
D03*
Y378504D02*
D03*
Y388504D02*
D03*
X480000Y398504D02*
D03*
Y408504D02*
D03*
X480000Y268504D02*
D03*
X510000Y278504D02*
D03*
Y288504D02*
D03*
Y298504D02*
D03*
Y308504D02*
D03*
Y318504D02*
D03*
Y328504D02*
D03*
Y338504D02*
D03*
Y348504D02*
D03*
Y358504D02*
D03*
Y368504D02*
D03*
Y378504D02*
D03*
Y388504D02*
D03*
Y398504D02*
D03*
Y408504D02*
D03*
Y428504D02*
D03*
Y268504D02*
D03*
X500000Y408504D02*
D03*
X510000Y418504D02*
D03*
X232000Y308004D02*
D03*
X217000Y403000D02*
D03*
X227000Y413000D02*
D03*
X212000Y418004D02*
D03*
X212000Y428004D02*
D03*
X217000Y423000D02*
D03*
X237000Y333000D02*
D03*
Y343000D02*
D03*
Y353000D02*
D03*
Y363000D02*
D03*
Y373000D02*
D03*
Y383000D02*
D03*
Y393000D02*
D03*
Y403000D02*
D03*
Y413000D02*
D03*
Y323000D02*
D03*
Y313000D02*
D03*
Y303000D02*
D03*
Y293000D02*
D03*
Y283000D02*
D03*
Y273000D02*
D03*
X227000Y333000D02*
D03*
Y343000D02*
D03*
Y353000D02*
D03*
Y363000D02*
D03*
Y373000D02*
D03*
Y383000D02*
D03*
Y393000D02*
D03*
Y403000D02*
D03*
Y323000D02*
D03*
Y313000D02*
D03*
Y303000D02*
D03*
Y293000D02*
D03*
Y283000D02*
D03*
Y273000D02*
D03*
X237000Y423000D02*
D03*
X227000D02*
D03*
X217000Y333000D02*
D03*
Y343000D02*
D03*
Y353000D02*
D03*
Y363000D02*
D03*
Y373000D02*
D03*
Y383000D02*
D03*
Y393000D02*
D03*
Y413000D02*
D03*
Y323000D02*
D03*
Y313000D02*
D03*
Y303000D02*
D03*
Y293000D02*
D03*
Y283000D02*
D03*
Y273000D02*
D03*
X232000Y278004D02*
D03*
Y288004D02*
D03*
Y298004D02*
D03*
Y318004D02*
D03*
Y328004D02*
D03*
Y338004D02*
D03*
X232000Y348004D02*
D03*
X232000Y358004D02*
D03*
X232000Y368004D02*
D03*
Y378004D02*
D03*
Y388004D02*
D03*
Y398004D02*
D03*
Y418004D02*
D03*
Y428004D02*
D03*
X232000Y268004D02*
D03*
X222000Y278004D02*
D03*
Y288004D02*
D03*
Y298004D02*
D03*
Y308004D02*
D03*
Y318004D02*
D03*
Y328004D02*
D03*
Y338004D02*
D03*
Y348004D02*
D03*
X222000Y358004D02*
D03*
X222000Y368004D02*
D03*
Y378004D02*
D03*
X222000Y388004D02*
D03*
Y398004D02*
D03*
Y408004D02*
D03*
Y418004D02*
D03*
Y428004D02*
D03*
X222000Y268004D02*
D03*
X212000Y278004D02*
D03*
Y288004D02*
D03*
Y298004D02*
D03*
Y308004D02*
D03*
Y318004D02*
D03*
Y328004D02*
D03*
Y338004D02*
D03*
Y348004D02*
D03*
X212000Y358004D02*
D03*
X212000Y368004D02*
D03*
Y378004D02*
D03*
Y388004D02*
D03*
X212000Y398004D02*
D03*
Y408004D02*
D03*
X212000Y268004D02*
D03*
X242000Y278004D02*
D03*
Y288004D02*
D03*
Y298004D02*
D03*
Y308004D02*
D03*
Y318004D02*
D03*
Y328004D02*
D03*
Y338004D02*
D03*
Y348004D02*
D03*
Y358004D02*
D03*
Y368004D02*
D03*
Y378004D02*
D03*
Y388004D02*
D03*
Y398004D02*
D03*
Y408004D02*
D03*
Y428004D02*
D03*
Y268004D02*
D03*
X232000Y408004D02*
D03*
X242000Y418004D02*
D03*
D75*
X446500Y104500D02*
D03*
Y74500D02*
D03*
Y84500D02*
D03*
Y94500D02*
D03*
D76*
Y64500D02*
D03*
M02*
